<?xml version="1.0" encoding="utf-8" standalone="no"?>
<!DOCTYPE svg PUBLIC "-//W3C//DTD SVG 1.1//EN"
  "http://www.w3.org/Graphics/SVG/1.1/DTD/svg11.dtd">
<svg xmlns:xlink="http://www.w3.org/1999/xlink" width="285.135868pt" height="285.12pt" viewBox="0 0 285.135868 285.12" xmlns="http://www.w3.org/2000/svg" version="1.1">
 <metadata>
  <rdf:RDF xmlns:dc="http://purl.org/dc/elements/1.1/" xmlns:cc="http://creativecommons.org/ns#" xmlns:rdf="http://www.w3.org/1999/02/22-rdf-syntax-ns#">
   <cc:Work>
    <dc:type rdf:resource="http://purl.org/dc/dcmitype/StillImage"/>
    <dc:date>2023-06-18T18:52:12.076819</dc:date>
    <dc:format>image/svg+xml</dc:format>
    <dc:creator>
     <cc:Agent>
      <dc:title>Matplotlib v3.7.0, https://matplotlib.org/</dc:title>
     </cc:Agent>
    </dc:creator>
   </cc:Work>
  </rdf:RDF>
 </metadata>
 <defs>
  <style type="text/css">*{stroke-linejoin: round; stroke-linecap: butt}</style>
 </defs>
 <g id="figure_1">
  <g id="patch_1">
   <path d="M 0 285.12 
L 285.135868 285.12 
L 285.135868 0 
L 0 0 
L 0 285.12 
z
" style="fill: none"/>
  </g>
  <g id="axes_1">
   <g id="patch_2">
    <path d="M 59.298921 242.237271 
L 274.145392 242.237271 
L 274.145392 0 
L 59.298921 0 
L 59.298921 242.237271 
z
" style="fill: none"/>
   </g>
   <g id="matplotlib.axis_1">
    <g id="xtick_1">
     <g id="line2d_1">
      <defs>
       <path id="m0735226a27" d="M 0 0 
L 0 3.5 
" style="stroke: #000000; stroke-width: 0.8"/>
      </defs>
      <g>
       <use xlink:href="#m0735226a27" x="69.064669" y="242.237271" style="stroke: #000000; stroke-width: 0.8"/>
      </g>
     </g>
     <g id="text_1">
      <!-- $\mathdefault{0}$ -->
      <g transform="translate(64.952526 261.690572) scale(0.18 -0.18)">
       <defs>
        <path id="CMR17-30" d="M 2688 2038 
C 2688 2430 2682 3099 2413 3613 
C 2176 4063 1798 4224 1466 4224 
C 1158 4224 768 4082 525 3620 
C 269 3137 243 2539 243 2038 
C 243 1671 250 1112 448 623 
C 723 -39 1216 -128 1466 -128 
C 1760 -128 2208 -7 2470 604 
C 2662 1048 2688 1568 2688 2038 
z
M 1466 -26 
C 1056 -26 813 328 723 816 
C 653 1196 653 1749 653 2109 
C 653 2604 653 3015 736 3407 
C 858 3954 1216 4121 1466 4121 
C 1728 4121 2067 3947 2189 3420 
C 2272 3054 2278 2623 2278 2109 
C 2278 1691 2278 1176 2202 797 
C 2067 96 1690 -26 1466 -26 
z
" transform="scale(0.015625)"/>
       </defs>
       <use xlink:href="#CMR17-30" transform="scale(0.996264)"/>
      </g>
     </g>
    </g>
    <g id="xtick_2">
     <g id="line2d_2">
      <g>
       <use xlink:href="#m0735226a27" x="166.819911" y="242.237271" style="stroke: #000000; stroke-width: 0.8"/>
      </g>
     </g>
     <g id="text_2">
      <!-- $\mathdefault{5000}$ -->
      <g transform="translate(150.37134 261.690572) scale(0.18 -0.18)">
       <defs>
        <path id="CMR17-35" d="M 730 3750 
C 794 3724 1056 3641 1325 3641 
C 1920 3641 2246 3961 2432 4140 
C 2432 4191 2432 4224 2394 4224 
C 2387 4224 2374 4224 2323 4198 
C 2099 4102 1837 4032 1517 4032 
C 1325 4032 1037 4055 723 4191 
C 653 4224 640 4224 634 4224 
C 602 4224 595 4217 595 4090 
L 595 2231 
C 595 2113 595 2080 659 2080 
C 691 2080 704 2093 736 2139 
C 941 2435 1222 2560 1542 2560 
C 1766 2560 2246 2415 2246 1293 
C 2246 1087 2246 716 2054 422 
C 1894 159 1645 25 1370 25 
C 947 25 518 319 403 812 
C 429 806 480 793 506 793 
C 589 793 749 838 749 1036 
C 749 1209 627 1280 506 1280 
C 358 1280 262 1190 262 1011 
C 262 454 704 -128 1382 -128 
C 2042 -128 2669 441 2669 1267 
C 2669 2054 2170 2662 1549 2662 
C 1222 2662 947 2540 730 2304 
L 730 3750 
z
" transform="scale(0.015625)"/>
       </defs>
       <use xlink:href="#CMR17-35" transform="scale(0.996264)"/>
       <use xlink:href="#CMR17-30" transform="translate(45.690477 0) scale(0.996264)"/>
       <use xlink:href="#CMR17-30" transform="translate(91.380954 0) scale(0.996264)"/>
       <use xlink:href="#CMR17-30" transform="translate(137.071431 0) scale(0.996264)"/>
      </g>
     </g>
    </g>
    <g id="xtick_3">
     <g id="line2d_3">
      <g>
       <use xlink:href="#m0735226a27" x="264.575154" y="242.237271" style="stroke: #000000; stroke-width: 0.8"/>
      </g>
     </g>
     <g id="text_3">
      <!-- $\mathdefault{10000}$ -->
      <g transform="translate(244.014439 261.690572) scale(0.18 -0.18)">
       <defs>
        <path id="CMR17-31" d="M 1702 4083 
C 1702 4217 1696 4224 1606 4224 
C 1357 3927 979 3833 621 3820 
C 602 3820 570 3820 563 3808 
C 557 3795 557 3782 557 3648 
C 755 3648 1088 3686 1344 3839 
L 1344 467 
C 1344 243 1331 166 781 166 
L 589 166 
L 589 0 
C 896 6 1216 12 1523 12 
C 1830 12 2150 6 2458 0 
L 2458 166 
L 2266 166 
C 1715 166 1702 236 1702 467 
L 1702 4083 
z
" transform="scale(0.015625)"/>
       </defs>
       <use xlink:href="#CMR17-31" transform="scale(0.996264)"/>
       <use xlink:href="#CMR17-30" transform="translate(45.690477 0) scale(0.996264)"/>
       <use xlink:href="#CMR17-30" transform="translate(91.380954 0) scale(0.996264)"/>
       <use xlink:href="#CMR17-30" transform="translate(137.071431 0) scale(0.996264)"/>
       <use xlink:href="#CMR17-30" transform="translate(182.761908 0) scale(0.996264)"/>
      </g>
     </g>
    </g>
    <g id="text_4">
     <!-- Train Step -->
     <g transform="translate(128.645583 281.631936) scale(0.18 -0.18)">
      <defs>
       <path id="CMR17-54" d="M 3981 4332 
L 288 4332 
L 179 2924 
L 294 2924 
C 378 3981 467 4166 1453 4166 
C 1568 4166 1754 4166 1805 4159 
C 1926 4140 1926 4064 1926 3917 
L 1926 465 
C 1926 236 1907 166 1376 166 
L 1197 166 
L 1197 0 
C 1504 6 1824 12 2138 12 
C 2451 12 2771 6 3078 0 
L 3078 166 
L 2899 166 
C 2368 166 2349 236 2349 465 
L 2349 3917 
C 2349 4057 2349 4134 2464 4159 
C 2515 4166 2701 4166 2816 4166 
C 3795 4166 3891 3981 3974 2924 
L 4090 2924 
L 3981 4332 
z
" transform="scale(0.015625)"/>
       <path id="CMR17-72" d="M 960 1517 
C 960 2134 1222 2713 1702 2713 
C 1747 2713 1792 2707 1837 2687 
C 1837 2687 1696 2642 1696 2475 
C 1696 2321 1818 2257 1914 2257 
C 1990 2257 2131 2302 2131 2482 
C 2131 2687 1926 2816 1709 2816 
C 1222 2816 1011 2340 947 2115 
L 941 2115 
L 941 2816 
L 198 2745 
L 198 2578 
C 576 2578 634 2540 634 2231 
L 634 443 
C 634 198 608 166 198 166 
L 198 0 
C 352 12 646 12 813 12 
C 998 12 1325 12 1498 0 
L 1498 166 
C 1037 166 960 166 960 455 
L 960 1517 
z
" transform="scale(0.015625)"/>
       <path id="CMR17-61" d="M 2304 1656 
C 2304 2048 2304 2275 2035 2534 
C 1798 2751 1523 2816 1306 2816 
C 800 2816 435 2408 435 1977 
C 435 1740 627 1728 666 1728 
C 749 1728 896 1779 896 1958 
C 896 2118 774 2188 666 2188 
C 640 2188 608 2182 589 2176 
C 723 2594 1069 2713 1293 2713 
C 1613 2713 1965 2421 1965 1875 
L 1965 1632 
C 1587 1619 1133 1568 774 1373 
C 371 1147 256 822 256 576 
C 256 77 832 -64 1171 -64 
C 1523 -64 1850 135 1990 505 
C 2003 219 2182 -39 2464 -39 
C 2598 -39 2938 51 2938 563 
L 2938 926 
L 2822 926 
L 2822 557 
C 2822 161 2650 109 2566 109 
C 2304 109 2304 446 2304 732 
L 2304 1656 
z
M 1965 887 
C 1965 323 1568 38 1216 38 
C 896 38 646 278 646 576 
C 646 771 730 1114 1101 1322 
C 1408 1497 1760 1523 1965 1536 
L 1965 887 
z
" transform="scale(0.015625)"/>
       <path id="CMR17-69" d="M 992 3961 
C 992 4102 877 4224 730 4224 
C 589 4224 467 4108 467 3961 
C 467 3820 582 3699 730 3699 
C 870 3699 992 3814 992 3961 
z
M 243 2745 
L 243 2579 
C 602 2579 653 2540 653 2231 
L 653 443 
C 653 198 627 166 218 166 
L 218 0 
C 371 12 646 12 806 12 
C 960 12 1222 12 1370 0 
L 1370 166 
C 992 166 979 205 979 436 
L 979 2816 
L 243 2745 
z
" transform="scale(0.015625)"/>
       <path id="CMR17-6e" d="M 2656 1954 
C 2656 2282 2592 2816 1837 2816 
C 1331 2816 1069 2424 973 2166 
L 966 2166 
L 966 2816 
L 211 2745 
L 211 2578 
C 589 2578 646 2540 646 2231 
L 646 443 
C 646 198 621 166 211 166 
L 211 0 
C 365 12 646 12 813 12 
C 979 12 1267 12 1421 0 
L 1421 166 
C 1011 166 986 192 986 443 
L 986 1678 
C 986 2269 1344 2713 1792 2713 
C 2266 2713 2317 2289 2317 1980 
L 2317 443 
C 2317 198 2291 166 1882 166 
L 1882 0 
C 2035 12 2317 12 2483 12 
C 2650 12 2938 12 3091 0 
L 3091 166 
C 2682 166 2656 192 2656 443 
L 2656 1954 
z
" transform="scale(0.015625)"/>
       <path id="CMR17-53" d="M 2803 4351 
C 2803 4467 2797 4473 2758 4473 
C 2720 4473 2707 4447 2682 4390 
L 2490 3965 
C 2246 4320 1875 4480 1472 4480 
C 819 4480 294 3958 294 3301 
C 294 3101 339 2817 557 2546 
C 794 2250 1018 2198 1530 2063 
C 1722 2011 2042 1927 2106 1901 
C 2470 1747 2662 1360 2662 999 
C 2662 534 2336 38 1779 38 
C 1094 38 454 425 410 1328 
C 403 1431 397 1437 352 1437 
C 301 1437 294 1431 294 1302 
L 294 0 
C 294 -116 301 -122 339 -122 
C 384 -122 397 -90 486 109 
C 493 128 493 141 614 386 
C 934 -39 1472 -128 1779 -128 
C 2477 -128 2970 457 2970 1141 
C 2970 1476 2848 1734 2778 1850 
C 2509 2263 2221 2340 1914 2417 
C 1869 2437 1856 2437 1498 2527 
C 1152 2617 1005 2662 845 2836 
C 666 3036 602 3243 602 3449 
C 602 3868 934 4326 1478 4326 
C 2157 4326 2579 3842 2675 3036 
C 2694 2920 2701 2914 2746 2914 
C 2803 2914 2803 2933 2803 3043 
L 2803 4351 
z
" transform="scale(0.015625)"/>
       <path id="CMR17-74" d="M 966 2585 
L 1862 2585 
L 1862 2752 
L 966 2752 
L 966 3968 
L 851 3968 
C 838 3292 614 2700 70 2687 
L 70 2585 
L 627 2585 
L 627 778 
C 627 655 627 -64 1370 -64 
C 1747 -64 1965 308 1965 784 
L 1965 1151 
L 1850 1151 
L 1850 790 
C 1850 347 1677 51 1408 51 
C 1222 51 966 179 966 765 
L 966 2585 
z
" transform="scale(0.015625)"/>
       <path id="CMR17-65" d="M 2438 1503 
C 2464 1529 2464 1542 2464 1606 
C 2464 2251 2118 2816 1389 2816 
C 710 2816 173 2175 173 1394 
C 173 554 781 -64 1459 -64 
C 2176 -64 2458 619 2458 755 
C 2458 800 2419 800 2406 800 
C 2362 800 2355 787 2330 709 
C 2189 270 1837 51 1504 51 
C 1229 51 954 206 781 490 
C 582 819 582 1200 582 1503 
L 2438 1503 
z
M 589 1600 
C 634 2511 1126 2713 1382 2713 
C 1818 2713 2112 2308 2118 1600 
L 589 1600 
z
" transform="scale(0.015625)"/>
       <path id="CMR17-70" d="M 1408 -1114 
C 998 -1114 973 -1088 973 -834 
L 973 380 
C 1158 109 1427 -64 1766 -64 
C 2406 -64 3053 503 3053 1382 
C 3053 2196 2496 2816 1837 2816 
C 1453 2816 1139 2603 960 2345 
L 960 2816 
L 198 2745 
L 198 2577 
C 576 2577 634 2539 634 2228 
L 634 -834 
C 634 -1081 608 -1114 198 -1114 
L 198 -1280 
C 352 -1268 634 -1268 800 -1268 
C 966 -1268 1254 -1268 1408 -1280 
L 1408 -1114 
z
M 973 2015 
C 973 2106 973 2241 1222 2481 
C 1254 2506 1472 2700 1792 2700 
C 2259 2700 2643 2112 2643 1376 
C 2643 639 2234 38 1728 38 
C 1498 38 1248 148 1056 451 
C 973 594 973 632 973 736 
L 973 2015 
z
" transform="scale(0.015625)"/>
      </defs>
      <use xlink:href="#CMR17-54" transform="scale(0.996264)"/>
      <use xlink:href="#CMR17-72" transform="translate(58.702625 0) scale(0.996264)"/>
      <use xlink:href="#CMR17-61" transform="translate(93.983393 0) scale(0.996264)"/>
      <use xlink:href="#CMR17-69" transform="translate(139.67387 0) scale(0.996264)"/>
      <use xlink:href="#CMR17-6e" transform="translate(164.544929 0) scale(0.996264)"/>
      <use xlink:href="#CMR17-53" transform="translate(245.516265 0) scale(0.996264)"/>
      <use xlink:href="#CMR17-74" transform="translate(296.411634 0) scale(0.996264)"/>
      <use xlink:href="#CMR17-65" transform="translate(331.692402 0) scale(0.996264)"/>
      <use xlink:href="#CMR17-70" transform="translate(372.178063 0) scale(0.996264)"/>
     </g>
    </g>
   </g>
   <g id="matplotlib.axis_2">
    <g id="ytick_1">
     <g id="line2d_4">
      <defs>
       <path id="m520009cbc5" d="M 0 0 
L -3.5 0 
" style="stroke: #000000; stroke-width: 0.8"/>
      </defs>
      <g>
       <use xlink:href="#m520009cbc5" x="59.298921" y="202.426604" style="stroke: #000000; stroke-width: 0.8"/>
      </g>
     </g>
     <g id="text_5">
      <!-- $\mathdefault{10^{-3}}$ -->
      <g transform="translate(19.941364 208.653254) scale(0.18 -0.18)">
       <defs>
        <path id="CMSY10-0" d="M 4218 1472 
C 4326 1472 4442 1472 4442 1600 
C 4442 1728 4326 1728 4218 1728 
L 755 1728 
C 646 1728 531 1728 531 1600 
C 531 1472 646 1472 755 1472 
L 4218 1472 
z
" transform="scale(0.015625)"/>
        <path id="CMR17-33" d="M 1414 2176 
C 1984 2176 2234 1673 2234 1094 
C 2234 322 1824 25 1453 25 
C 1114 25 563 193 390 691 
C 422 678 454 678 486 678 
C 640 678 755 780 755 947 
C 755 1132 614 1216 486 1216 
C 378 1216 211 1164 211 927 
C 211 335 787 -128 1466 -128 
C 2176 -128 2720 432 2720 1087 
C 2720 1718 2208 2176 1600 2246 
C 2086 2347 2554 2776 2554 3353 
C 2554 3856 2048 4224 1472 4224 
C 890 4224 378 3862 378 3347 
C 378 3123 544 3084 627 3084 
C 762 3084 877 3167 877 3334 
C 877 3500 762 3584 627 3584 
C 602 3584 570 3584 544 3571 
C 730 3999 1235 4076 1459 4076 
C 1683 4076 2106 3966 2106 3347 
C 2106 3167 2080 2851 1862 2574 
C 1670 2329 1453 2316 1242 2297 
C 1210 2297 1062 2284 1037 2284 
C 992 2278 966 2272 966 2227 
C 966 2182 973 2176 1101 2176 
L 1414 2176 
z
" transform="scale(0.015625)"/>
       </defs>
       <use xlink:href="#CMR17-31" transform="scale(0.996264)"/>
       <use xlink:href="#CMR17-30" transform="translate(45.690477 0) scale(0.996264)"/>
       <use xlink:href="#CMSY10-0" transform="translate(91.380954 36.153639) scale(0.697382)"/>
       <use xlink:href="#CMR17-33" transform="translate(145.621947 36.153639) scale(0.697382)"/>
      </g>
     </g>
    </g>
    <g id="ytick_2">
     <g id="line2d_5">
      <g>
       <use xlink:href="#m520009cbc5" x="59.298921" y="127.601401" style="stroke: #000000; stroke-width: 0.8"/>
      </g>
     </g>
     <g id="text_6">
      <!-- $\mathdefault{10^{-2}}$ -->
      <g transform="translate(19.941364 133.828051) scale(0.18 -0.18)">
       <defs>
        <path id="CMR17-32" d="M 2669 990 
L 2554 990 
C 2490 537 2438 460 2413 422 
C 2381 371 1920 371 1830 371 
L 602 371 
C 832 620 1280 1073 1824 1596 
C 2214 1966 2669 2400 2669 3033 
C 2669 3788 2067 4224 1395 4224 
C 691 4224 262 3603 262 3027 
C 262 2777 448 2745 525 2745 
C 589 2745 781 2783 781 3007 
C 781 3206 614 3264 525 3264 
C 486 3264 448 3257 422 3244 
C 544 3788 915 4057 1306 4057 
C 1862 4057 2227 3616 2227 3033 
C 2227 2477 1901 1998 1536 1583 
L 262 147 
L 262 0 
L 2515 0 
L 2669 990 
z
" transform="scale(0.015625)"/>
       </defs>
       <use xlink:href="#CMR17-31" transform="scale(0.996264)"/>
       <use xlink:href="#CMR17-30" transform="translate(45.690477 0) scale(0.996264)"/>
       <use xlink:href="#CMSY10-0" transform="translate(91.380954 36.153639) scale(0.697382)"/>
       <use xlink:href="#CMR17-32" transform="translate(145.621947 36.153639) scale(0.697382)"/>
      </g>
     </g>
    </g>
    <g id="ytick_3">
     <g id="line2d_6">
      <g>
       <use xlink:href="#m520009cbc5" x="59.298921" y="52.776198" style="stroke: #000000; stroke-width: 0.8"/>
      </g>
     </g>
     <g id="text_7">
      <!-- $\mathdefault{10^{-1}}$ -->
      <g transform="translate(19.941364 59.002848) scale(0.18 -0.18)">
       <use xlink:href="#CMR17-31" transform="scale(0.996264)"/>
       <use xlink:href="#CMR17-30" transform="translate(45.690477 0) scale(0.996264)"/>
       <use xlink:href="#CMSY10-0" transform="translate(91.380954 36.153639) scale(0.697382)"/>
       <use xlink:href="#CMR17-31" transform="translate(145.621947 36.153639) scale(0.697382)"/>
      </g>
     </g>
    </g>
    <g id="ytick_4">
     <g id="line2d_7">
      <defs>
       <path id="mb899d6976c" d="M 0 0 
L -2 0 
" style="stroke: #000000; stroke-width: 0.6"/>
      </defs>
      <g>
       <use xlink:href="#mb899d6976c" x="59.298921" y="241.551112" style="stroke: #000000; stroke-width: 0.6"/>
      </g>
     </g>
    </g>
    <g id="ytick_5">
     <g id="line2d_8">
      <g>
       <use xlink:href="#mb899d6976c" x="59.298921" y="232.202546" style="stroke: #000000; stroke-width: 0.6"/>
      </g>
     </g>
    </g>
    <g id="ytick_6">
     <g id="line2d_9">
      <g>
       <use xlink:href="#mb899d6976c" x="59.298921" y="224.951234" style="stroke: #000000; stroke-width: 0.6"/>
      </g>
     </g>
    </g>
    <g id="ytick_7">
     <g id="line2d_10">
      <g>
       <use xlink:href="#mb899d6976c" x="59.298921" y="219.026481" style="stroke: #000000; stroke-width: 0.6"/>
      </g>
     </g>
    </g>
    <g id="ytick_8">
     <g id="line2d_11">
      <g>
       <use xlink:href="#mb899d6976c" x="59.298921" y="214.017174" style="stroke: #000000; stroke-width: 0.6"/>
      </g>
     </g>
    </g>
    <g id="ytick_9">
     <g id="line2d_12">
      <g>
       <use xlink:href="#mb899d6976c" x="59.298921" y="209.677915" style="stroke: #000000; stroke-width: 0.6"/>
      </g>
     </g>
    </g>
    <g id="ytick_10">
     <g id="line2d_13">
      <g>
       <use xlink:href="#mb899d6976c" x="59.298921" y="205.850417" style="stroke: #000000; stroke-width: 0.6"/>
      </g>
     </g>
    </g>
    <g id="ytick_11">
     <g id="line2d_14">
      <g>
       <use xlink:href="#mb899d6976c" x="59.298921" y="179.901973" style="stroke: #000000; stroke-width: 0.6"/>
      </g>
     </g>
    </g>
    <g id="ytick_12">
     <g id="line2d_15">
      <g>
       <use xlink:href="#mb899d6976c" x="59.298921" y="166.725909" style="stroke: #000000; stroke-width: 0.6"/>
      </g>
     </g>
    </g>
    <g id="ytick_13">
     <g id="line2d_16">
      <g>
       <use xlink:href="#mb899d6976c" x="59.298921" y="157.377343" style="stroke: #000000; stroke-width: 0.6"/>
      </g>
     </g>
    </g>
    <g id="ytick_14">
     <g id="line2d_17">
      <g>
       <use xlink:href="#mb899d6976c" x="59.298921" y="150.126031" style="stroke: #000000; stroke-width: 0.6"/>
      </g>
     </g>
    </g>
    <g id="ytick_15">
     <g id="line2d_18">
      <g>
       <use xlink:href="#mb899d6976c" x="59.298921" y="144.201278" style="stroke: #000000; stroke-width: 0.6"/>
      </g>
     </g>
    </g>
    <g id="ytick_16">
     <g id="line2d_19">
      <g>
       <use xlink:href="#mb899d6976c" x="59.298921" y="139.191971" style="stroke: #000000; stroke-width: 0.6"/>
      </g>
     </g>
    </g>
    <g id="ytick_17">
     <g id="line2d_20">
      <g>
       <use xlink:href="#mb899d6976c" x="59.298921" y="134.852712" style="stroke: #000000; stroke-width: 0.6"/>
      </g>
     </g>
    </g>
    <g id="ytick_18">
     <g id="line2d_21">
      <g>
       <use xlink:href="#mb899d6976c" x="59.298921" y="131.025214" style="stroke: #000000; stroke-width: 0.6"/>
      </g>
     </g>
    </g>
    <g id="ytick_19">
     <g id="line2d_22">
      <g>
       <use xlink:href="#mb899d6976c" x="59.298921" y="105.07677" style="stroke: #000000; stroke-width: 0.6"/>
      </g>
     </g>
    </g>
    <g id="ytick_20">
     <g id="line2d_23">
      <g>
       <use xlink:href="#mb899d6976c" x="59.298921" y="91.900706" style="stroke: #000000; stroke-width: 0.6"/>
      </g>
     </g>
    </g>
    <g id="ytick_21">
     <g id="line2d_24">
      <g>
       <use xlink:href="#mb899d6976c" x="59.298921" y="82.55214" style="stroke: #000000; stroke-width: 0.6"/>
      </g>
     </g>
    </g>
    <g id="ytick_22">
     <g id="line2d_25">
      <g>
       <use xlink:href="#mb899d6976c" x="59.298921" y="75.300828" style="stroke: #000000; stroke-width: 0.6"/>
      </g>
     </g>
    </g>
    <g id="ytick_23">
     <g id="line2d_26">
      <g>
       <use xlink:href="#mb899d6976c" x="59.298921" y="69.376075" style="stroke: #000000; stroke-width: 0.6"/>
      </g>
     </g>
    </g>
    <g id="ytick_24">
     <g id="line2d_27">
      <g>
       <use xlink:href="#mb899d6976c" x="59.298921" y="64.366768" style="stroke: #000000; stroke-width: 0.6"/>
      </g>
     </g>
    </g>
    <g id="ytick_25">
     <g id="line2d_28">
      <g>
       <use xlink:href="#mb899d6976c" x="59.298921" y="60.027509" style="stroke: #000000; stroke-width: 0.6"/>
      </g>
     </g>
    </g>
    <g id="ytick_26">
     <g id="line2d_29">
      <g>
       <use xlink:href="#mb899d6976c" x="59.298921" y="56.200011" style="stroke: #000000; stroke-width: 0.6"/>
      </g>
     </g>
    </g>
    <g id="ytick_27">
     <g id="line2d_30">
      <g>
       <use xlink:href="#mb899d6976c" x="59.298921" y="30.251567" style="stroke: #000000; stroke-width: 0.6"/>
      </g>
     </g>
    </g>
    <g id="ytick_28">
     <g id="line2d_31">
      <g>
       <use xlink:href="#mb899d6976c" x="59.298921" y="17.075503" style="stroke: #000000; stroke-width: 0.6"/>
      </g>
     </g>
    </g>
    <g id="ytick_29">
     <g id="line2d_32">
      <g>
       <use xlink:href="#mb899d6976c" x="59.298921" y="7.726936" style="stroke: #000000; stroke-width: 0.6"/>
      </g>
     </g>
    </g>
    <g id="ytick_30">
     <g id="line2d_33">
      <g>
       <use xlink:href="#mb899d6976c" x="59.298921" y="0.475625" style="stroke: #000000; stroke-width: 0.6"/>
      </g>
     </g>
    </g>
    <g id="text_8">
     <!-- Decoder MSE -->
     <g transform="translate(12.4533 171.029378) rotate(-90) scale(0.18 -0.18)">
      <defs>
       <path id="CMR17-44" d="M 333 4352 
L 333 4185 
C 774 4185 845 4185 845 3898 
L 845 453 
C 845 166 774 166 333 166 
L 333 0 
L 2368 0 
C 3398 0 4224 943 4224 2140 
C 4224 3344 3411 4352 2368 4352 
L 333 4352 
z
M 1523 166 
C 1267 166 1254 198 1254 414 
L 1254 3936 
C 1254 4153 1267 4185 1523 4185 
L 2240 4185 
C 2771 4185 3750 3873 3750 2140 
C 3750 1242 3488 879 3366 707 
C 3213 510 2848 166 2240 166 
L 1523 166 
z
" transform="scale(0.015625)"/>
       <path id="CMR17-63" d="M 2234 2240 
C 2112 2240 1933 2240 1933 2015 
C 1933 1836 2080 1785 2163 1785 
C 2208 1785 2394 1804 2394 2028 
C 2394 2476 1958 2816 1466 2816 
C 787 2816 211 2201 211 1379 
C 211 521 813 -64 1466 -64 
C 2259 -64 2458 676 2458 747 
C 2458 773 2451 792 2406 792 
C 2362 792 2355 786 2330 702 
C 2163 180 1798 51 1523 51 
C 1114 51 621 431 621 1385 
C 621 2358 1094 2700 1472 2700 
C 1722 2700 2093 2582 2234 2240 
z
" transform="scale(0.015625)"/>
       <path id="CMR17-6f" d="M 2758 1356 
C 2758 2176 2163 2816 1466 2816 
C 768 2816 173 2176 173 1356 
C 173 550 768 -64 1466 -64 
C 2163 -64 2758 550 2758 1356 
z
M 1466 51 
C 1165 51 909 230 762 480 
C 602 768 582 1126 582 1408 
C 582 1676 595 2009 762 2297 
C 890 2508 1139 2713 1466 2713 
C 1754 2713 1997 2553 2150 2329 
C 2349 2028 2349 1606 2349 1408 
C 2349 1158 2336 774 2163 467 
C 1984 172 1709 51 1466 51 
z
" transform="scale(0.015625)"/>
       <path id="CMR17-64" d="M 1869 4345 
L 1869 4179 
C 2246 4179 2304 4141 2304 3843 
L 2304 2371 
C 2278 2403 2016 2816 1498 2816 
C 845 2816 211 2228 211 1376 
C 211 529 806 -64 1434 -64 
C 1978 -64 2259 361 2291 406 
L 2291 -64 
L 3066 -13 
L 3066 154 
C 2688 154 2630 193 2630 503 
L 2630 4416 
L 1869 4345 
z
M 2291 762 
C 2291 568 2176 393 2029 264 
C 1811 70 1594 38 1472 38 
C 1286 38 621 135 621 1369 
C 621 2636 1363 2713 1530 2713 
C 1824 2713 2061 2545 2208 2313 
C 2291 2177 2291 2157 2291 2041 
L 2291 762 
z
" transform="scale(0.015625)"/>
       <path id="CMR17-4d" d="M 1338 4249 
C 1299 4345 1293 4352 1158 4352 
L 339 4352 
L 339 4185 
C 781 4185 851 4185 851 3898 
L 851 624 
C 851 465 851 166 339 166 
L 339 0 
C 486 12 755 12 915 12 
C 1075 12 1344 12 1491 0 
L 1491 166 
C 979 166 979 465 979 624 
L 979 4159 
L 986 4159 
L 2490 102 
C 2515 38 2528 0 2579 0 
C 2630 0 2643 38 2669 102 
L 4186 4191 
L 4192 4191 
L 4192 453 
C 4192 166 4122 166 3680 166 
L 3680 0 
C 3853 12 4198 12 4384 12 
C 4570 12 4922 12 5094 0 
L 5094 166 
C 4653 166 4582 166 4582 453 
L 4582 3898 
C 4582 4185 4653 4185 5094 4185 
L 5094 4352 
L 4282 4352 
C 4147 4352 4141 4345 4102 4249 
L 2720 516 
L 1338 4249 
z
" transform="scale(0.015625)"/>
       <path id="CMR17-45" d="M 3885 1614 
L 3770 1614 
C 3629 676 3546 166 2419 166 
L 1530 166 
C 1274 166 1261 198 1261 415 
L 1261 2176 
L 1862 2176 
C 2464 2176 2522 1959 2522 1429 
L 2637 1429 
L 2637 3086 
L 2522 3086 
C 2522 2558 2464 2342 1862 2342 
L 1261 2342 
L 1261 3924 
C 1261 4141 1274 4172 1530 4172 
L 2406 4172 
C 3398 4172 3514 3778 3603 2933 
L 3718 2933 
L 3565 4339 
L 326 4339 
L 326 4172 
C 768 4172 838 4172 838 3886 
L 838 453 
C 838 166 768 166 326 166 
L 326 0 
L 3654 0 
L 3885 1614 
z
" transform="scale(0.015625)"/>
      </defs>
      <use xlink:href="#CMR17-44" transform="scale(0.996264)"/>
      <use xlink:href="#CMR17-65" transform="translate(70.393556 0) scale(0.996264)"/>
      <use xlink:href="#CMR17-63" transform="translate(110.879216 0) scale(0.996264)"/>
      <use xlink:href="#CMR17-6f" transform="translate(151.364877 0) scale(0.996264)"/>
      <use xlink:href="#CMR17-64" transform="translate(199.657793 0) scale(0.996264)"/>
      <use xlink:href="#CMR17-65" transform="translate(250.553162 0) scale(0.996264)"/>
      <use xlink:href="#CMR17-72" transform="translate(291.038823 0) scale(0.996264)"/>
      <use xlink:href="#CMR17-4d" transform="translate(356.395557 0) scale(0.996264)"/>
      <use xlink:href="#CMR17-53" transform="translate(441.082498 0) scale(0.996264)"/>
      <use xlink:href="#CMR17-45" transform="translate(491.977867 0) scale(0.996264)"/>
     </g>
    </g>
   </g>
   <g id="line2d_34">
    <path d="M 69.064669 16.314762 
L 69.26018 14.865567 
L 69.45569 15.442853 
L 69.651201 16.41772 
L 69.846711 11.010785 
L 70.042222 18.937688 
L 70.237732 14.541646 
L 70.433243 18.232715 
L 70.628753 28.763518 
L 70.824264 28.153698 
L 71.019774 26.004473 
L 71.215285 28.231161 
L 71.410795 32.760222 
L 71.606306 33.629893 
L 71.801816 37.972722 
L 71.997327 50.315132 
L 72.192837 43.8836 
L 72.388347 62.905042 
L 72.583858 58.466816 
L 72.779368 81.390664 
L 72.974879 88.666719 
L 73.170389 79.386458 
L 73.3659 94.590814 
L 73.56141 97.232092 
L 73.756921 101.564808 
L 73.952431 120.509581 
L 74.147942 107.589422 
L 74.343452 123.771895 
L 74.538963 125.395043 
L 74.734473 124.21353 
L 74.929984 133.401572 
L 75.125494 129.074297 
L 75.321005 135.137029 
L 75.516515 137.672638 
L 75.712026 134.150671 
L 75.907536 144.541013 
L 76.103047 144.44799 
L 76.298557 136.951616 
L 76.494068 139.492725 
L 76.689578 140.249764 
L 76.885089 142.153438 
L 77.080599 146.312352 
L 77.27611 144.426272 
L 77.47162 145.998565 
L 77.667131 145.250806 
L 77.862641 151.245892 
L 78.058152 148.670601 
L 78.253662 148.823962 
L 78.449172 139.792232 
L 78.644683 141.371741 
L 79.035704 163.573391 
L 79.231214 153.028922 
L 79.426725 156.300787 
L 79.622235 157.301685 
L 79.817746 156.723896 
L 80.013256 153.480742 
L 80.208767 160.113971 
L 80.404277 158.536295 
L 80.599788 164.947217 
L 80.795298 157.662465 
L 80.990809 161.097914 
L 81.186319 152.870377 
L 81.57734 170.266359 
L 81.772851 160.959231 
L 81.968361 160.549055 
L 82.163872 171.404081 
L 82.554893 161.977186 
L 82.750403 166.249808 
L 82.945914 162.482603 
L 83.336935 177.799281 
L 83.532445 169.584727 
L 83.923466 168.577077 
L 84.118977 178.882084 
L 84.314487 164.415561 
L 84.509998 166.777121 
L 84.901018 179.877153 
L 85.096529 169.721962 
L 85.292039 172.016425 
L 85.48755 178.921284 
L 85.68306 173.90074 
L 86.074081 183.528524 
L 86.269592 177.051535 
L 86.465102 176.548768 
L 86.660613 180.049881 
L 86.856123 179.492732 
L 87.051634 182.029479 
L 87.247144 170.993613 
L 87.442655 184.581305 
L 87.833676 173.805434 
L 88.029186 172.896194 
L 88.224697 178.4389 
L 88.420207 179.832789 
L 88.615718 175.603627 
L 88.811228 177.098157 
L 89.006739 179.770376 
L 89.202249 180.066816 
L 89.39776 179.219256 
L 89.59327 187.707194 
L 89.788781 181.2022 
L 89.984291 182.520278 
L 90.179802 172.18336 
L 90.375312 185.723935 
L 90.570823 184.611902 
L 90.766333 185.137278 
L 90.961844 177.788705 
L 91.157354 180.603467 
L 91.352864 191.890706 
L 91.743885 172.574398 
L 91.939396 192.165501 
L 92.134906 185.775071 
L 92.330417 195.226886 
L 92.525927 192.189467 
L 92.721438 183.80379 
L 92.916948 194.488055 
L 93.112459 182.86596 
L 93.307969 191.536244 
L 93.894501 180.306255 
L 94.090011 187.242776 
L 94.285522 186.892913 
L 94.481032 184.268518 
L 94.676543 185.53032 
L 95.067564 200.789231 
L 95.263074 176.746825 
L 95.458585 198.277327 
L 95.654095 189.398652 
L 95.849606 188.951742 
L 96.045116 193.182077 
L 96.240627 193.061591 
L 96.436137 189.838728 
L 96.631648 196.129949 
L 97.218179 191.889647 
L 97.413689 192.267953 
L 97.6092 189.924006 
L 97.80471 183.324875 
L 98.000221 187.176302 
L 98.195731 185.803427 
L 98.391242 200.197826 
L 98.586752 187.317458 
L 98.782263 199.58786 
L 98.977773 187.476621 
L 99.173284 189.789148 
L 99.368794 195.956766 
L 99.564305 187.800854 
L 99.759815 192.995153 
L 99.955326 184.994335 
L 100.150836 197.018661 
L 100.346347 196.985823 
L 100.541857 196.11608 
L 100.737368 188.456581 
L 100.932878 193.883511 
L 101.128389 192.901246 
L 101.323899 192.909001 
L 101.51941 191.407856 
L 101.71492 201.468629 
L 101.910431 203.071535 
L 102.301452 190.576375 
L 102.496962 200.731842 
L 102.887983 191.992412 
L 103.083494 198.015587 
L 103.279004 194.612828 
L 103.474515 196.091437 
L 103.670025 190.396474 
L 103.865535 197.542975 
L 104.061046 195.654929 
L 104.256556 204.773667 
L 104.452067 196.449553 
L 104.647577 193.604358 
L 104.843088 201.334882 
L 105.038598 196.962818 
L 105.234109 201.045987 
L 105.429619 200.392742 
L 105.62513 197.272436 
L 105.82064 196.85316 
L 106.016151 195.531709 
L 106.211661 200.623402 
L 106.407172 189.421797 
L 106.602682 187.087218 
L 106.798193 197.250014 
L 107.189214 191.434985 
L 107.384724 195.387414 
L 107.580235 193.606178 
L 107.775745 200.004456 
L 107.971256 201.331528 
L 108.166766 194.485276 
L 108.362277 192.097567 
L 108.557787 198.422069 
L 108.753298 195.165198 
L 108.948808 195.374254 
L 109.144319 192.933228 
L 109.339829 202.552667 
L 109.53534 197.54749 
L 109.73085 200.746234 
L 109.92636 198.581048 
L 110.121871 192.189958 
L 110.317381 201.547742 
L 110.512892 203.712084 
L 110.708402 202.59588 
L 110.903913 196.440965 
L 111.099423 200.125051 
L 111.294934 199.033106 
L 111.490444 195.145653 
L 111.685955 193.720536 
L 112.076976 198.50496 
L 112.272486 191.962611 
L 112.467997 192.899203 
L 112.663507 207.369145 
L 112.859018 192.615446 
L 113.054528 200.222092 
L 113.250039 199.886342 
L 113.445549 198.652629 
L 113.64106 195.734312 
L 114.032081 205.300543 
L 114.227591 199.955204 
L 114.423102 202.783117 
L 114.618612 194.226634 
L 114.814123 191.790525 
L 115.009633 202.598287 
L 115.205144 200.888798 
L 115.400654 193.100863 
L 115.596165 192.716949 
L 115.791675 207.46821 
L 115.987186 205.14132 
L 116.182696 199.001325 
L 116.378206 200.480897 
L 116.573717 199.880462 
L 116.769227 207.476066 
L 116.964738 199.503779 
L 117.160248 203.548229 
L 117.355759 201.174962 
L 117.551269 196.497401 
L 118.137801 204.095183 
L 118.333311 203.596525 
L 118.528822 200.56658 
L 118.724332 209.669259 
L 119.115353 196.279394 
L 119.310864 201.928567 
L 119.506374 211.82028 
L 119.897395 193.674867 
L 120.092906 203.732633 
L 120.288416 205.503483 
L 120.483927 197.153038 
L 120.679437 197.040875 
L 120.874948 198.180614 
L 121.070458 209.871674 
L 121.265969 200.214902 
L 121.461479 200.308476 
L 121.65699 198.995729 
L 121.8525 207.714641 
L 122.048011 206.500453 
L 122.243521 202.327573 
L 122.439031 203.357358 
L 122.634542 209.846008 
L 122.830052 200.924008 
L 123.221073 208.856509 
L 123.416584 203.91498 
L 123.612094 206.272401 
L 124.003115 201.829315 
L 124.198626 194.79153 
L 124.394136 208.885332 
L 124.589647 201.548125 
L 124.785157 210.897845 
L 124.980668 196.519379 
L 125.176178 209.167177 
L 125.567199 200.957314 
L 125.76271 215.125428 
L 125.95822 195.561618 
L 126.153731 201.296945 
L 126.349241 203.120418 
L 126.544752 209.299239 
L 126.740262 195.772045 
L 126.935773 208.474842 
L 127.131283 206.821369 
L 127.326794 198.733655 
L 127.717815 208.478802 
L 127.913325 207.036684 
L 128.108836 203.760797 
L 128.304346 211.485835 
L 128.695367 197.339232 
L 128.890877 210.565635 
L 129.086388 212.753581 
L 129.281898 203.206062 
L 129.477409 204.335147 
L 129.672919 209.552641 
L 129.86843 210.365606 
L 130.06394 207.515802 
L 130.259451 207.081463 
L 130.454961 201.580869 
L 130.650472 204.186787 
L 130.845982 197.889783 
L 131.041493 204.481803 
L 131.237003 201.886723 
L 131.432514 202.561445 
L 131.628024 210.283711 
L 131.823535 200.942179 
L 132.214556 204.458248 
L 132.410066 212.117994 
L 132.605577 213.212445 
L 132.801087 208.119728 
L 132.996598 207.893532 
L 133.192108 200.291897 
L 133.387619 208.118031 
L 133.583129 201.851771 
L 133.77864 202.569347 
L 133.97415 202.8607 
L 134.169661 196.832303 
L 134.365171 203.805311 
L 134.560682 204.935426 
L 134.951702 210.935483 
L 135.147213 213.002884 
L 135.342723 208.966227 
L 135.538234 208.919183 
L 135.733744 205.142904 
L 135.929255 208.631593 
L 136.124765 206.619169 
L 136.320276 203.026032 
L 136.515786 204.919596 
L 136.711297 201.194322 
L 136.906807 212.251134 
L 137.102318 200.412691 
L 137.493339 208.627395 
L 137.688849 197.31657 
L 137.88436 206.735309 
L 138.07987 209.58356 
L 138.275381 204.05019 
L 138.470891 191.305193 
L 138.861912 218.924193 
L 139.057423 211.18612 
L 139.252933 211.455121 
L 139.448444 194.215123 
L 139.643954 206.485833 
L 139.839465 206.539193 
L 140.034975 212.719701 
L 140.230486 207.406753 
L 140.425996 214.374259 
L 141.012528 207.239474 
L 141.208038 206.382678 
L 141.403548 203.96407 
L 141.599059 208.310393 
L 141.794569 210.167449 
L 141.99008 205.967759 
L 142.18559 208.833709 
L 142.381101 206.033659 
L 142.576611 206.499184 
L 142.772122 211.026646 
L 142.967632 210.306481 
L 143.358653 204.319211 
L 143.554164 207.070088 
L 143.749674 197.735309 
L 143.945185 215.95693 
L 144.140695 216.568361 
L 144.336206 207.751521 
L 144.531716 208.726955 
L 144.727227 207.644824 
L 144.922737 207.409782 
L 145.313758 211.796619 
L 145.509269 200.611647 
L 145.704779 208.759438 
L 145.90029 205.847513 
L 146.0958 206.546515 
L 146.291311 214.489301 
L 146.486821 211.160053 
L 146.682332 202.850607 
L 146.877842 210.079028 
L 147.073353 209.535896 
L 147.268863 206.78137 
L 147.464373 219.045 
L 147.659884 214.034582 
L 147.855394 213.546692 
L 148.050905 206.837102 
L 148.246415 218.448636 
L 148.441926 210.001695 
L 148.637436 213.243602 
L 148.832947 212.374825 
L 149.028457 209.082114 
L 149.223968 210.413593 
L 149.419478 208.228163 
L 149.614989 209.306087 
L 149.810499 212.604903 
L 150.00601 210.687696 
L 150.20152 211.045743 
L 150.397031 212.248877 
L 150.592541 207.657757 
L 150.788052 208.258668 
L 150.983562 220.959154 
L 151.179073 210.413516 
L 151.374583 212.561006 
L 151.570094 219.276992 
L 151.961115 213.418198 
L 152.156625 201.854049 
L 152.352136 212.027162 
L 152.547646 206.301911 
L 152.743157 208.647113 
L 153.134178 215.019159 
L 153.329688 210.373035 
L 153.525199 217.601604 
L 153.720709 207.994224 
L 153.916219 212.290071 
L 154.11173 207.284462 
L 154.30724 217.339911 
L 154.502751 219.260279 
L 154.698261 200.48858 
L 154.893772 215.266843 
L 155.089282 207.637824 
L 155.284793 209.960322 
L 155.480303 214.506477 
L 155.675814 203.233517 
L 155.871324 215.369966 
L 156.262345 209.303906 
L 156.457856 216.086287 
L 156.653366 206.669179 
L 157.044387 222.831643 
L 157.239898 206.757506 
L 157.435408 211.330736 
L 157.630919 211.534137 
L 157.826429 205.577746 
L 158.02194 204.684697 
L 158.21745 207.38022 
L 158.412961 203.043158 
L 158.608471 204.425924 
L 158.803982 211.204156 
L 158.999492 207.6414 
L 159.195003 223.765417 
L 159.390513 212.206894 
L 159.586024 207.47005 
L 159.781534 211.349534 
L 159.977044 218.177315 
L 160.172555 203.812521 
L 160.368065 206.462181 
L 160.563576 202.584736 
L 160.759086 217.760415 
L 160.954597 215.236086 
L 161.150107 209.806776 
L 161.345618 216.111308 
L 161.541128 209.256794 
L 161.736639 207.859558 
L 161.932149 213.065909 
L 162.12766 213.21931 
L 162.32317 202.361316 
L 162.518681 207.628133 
L 162.714191 208.708302 
L 162.909702 212.347163 
L 163.105212 220.348524 
L 163.300723 217.078171 
L 163.496233 211.077089 
L 163.691744 209.343389 
L 163.887254 209.769915 
L 164.082765 219.366304 
L 164.473786 206.460378 
L 164.669296 211.644677 
L 165.060317 214.652712 
L 165.255828 223.449997 
L 165.842359 208.350786 
L 166.03787 216.489425 
L 166.23338 212.077827 
L 166.42889 204.990846 
L 166.624401 206.767027 
L 167.015422 217.05654 
L 167.210932 202.66917 
L 167.406443 217.591615 
L 167.601953 216.605628 
L 167.797464 214.794089 
L 167.992974 218.087957 
L 168.188485 215.734079 
L 168.579506 209.147068 
L 168.775016 211.522493 
L 168.970527 210.702287 
L 169.166037 206.286124 
L 169.361548 209.238491 
L 169.557058 208.781442 
L 169.948079 221.114972 
L 170.3391 205.439825 
L 170.534611 209.719533 
L 170.925632 206.943034 
L 171.121142 214.921114 
L 171.512163 208.581901 
L 171.903184 213.750824 
L 172.098695 221.161186 
L 172.294205 207.481235 
L 172.489716 208.014059 
L 172.685226 210.083241 
L 172.880736 214.504661 
L 173.076247 214.569345 
L 173.467268 218.580238 
L 173.662778 209.037779 
L 173.858289 211.601004 
L 174.053799 217.457768 
L 174.24931 213.04584 
L 174.44482 213.717581 
L 174.640331 217.821025 
L 174.835841 205.714615 
L 175.031352 217.525431 
L 175.226862 206.626095 
L 175.422373 214.034542 
L 175.617883 206.13089 
L 175.813394 216.644864 
L 176.204415 218.1315 
L 176.399925 207.311003 
L 176.595436 214.644614 
L 176.790946 208.444643 
L 176.986457 214.058994 
L 177.181967 227.774303 
L 177.377478 211.753795 
L 177.572988 205.939018 
L 177.768499 213.284992 
L 177.964009 209.231004 
L 178.15952 211.732077 
L 178.35503 208.782286 
L 178.550541 211.814242 
L 178.746051 212.619266 
L 178.941561 212.324116 
L 179.332582 214.250333 
L 179.528093 219.243334 
L 179.723603 209.129941 
L 179.919114 212.057458 
L 180.114624 209.883904 
L 180.505645 216.807641 
L 180.701156 214.034344 
L 180.896666 226.720407 
L 181.287687 211.120647 
L 181.483198 212.617141 
L 181.678708 208.295686 
L 181.874219 223.673656 
L 182.069729 211.723932 
L 182.26524 211.691111 
L 182.46075 213.101345 
L 182.656261 210.452219 
L 182.851771 218.119814 
L 183.047282 214.729771 
L 183.242792 202.575477 
L 183.438303 213.826341 
L 183.633813 212.140512 
L 183.829324 219.18271 
L 184.024834 209.821962 
L 184.220345 211.052644 
L 184.415855 214.421716 
L 184.611366 228.453747 
L 184.806876 206.375206 
L 185.002387 222.657866 
L 185.197897 212.614089 
L 185.393407 214.11508 
L 185.588918 219.293189 
L 185.784428 218.662631 
L 185.979939 210.467518 
L 186.175449 214.487009 
L 186.37096 210.171751 
L 186.56647 212.738317 
L 186.761981 212.51664 
L 186.957491 213.038345 
L 187.153002 207.281341 
L 187.348512 218.931639 
L 187.544023 220.125772 
L 187.935044 211.171186 
L 188.130554 220.281178 
L 188.521575 211.55867 
L 188.717086 214.097955 
L 188.912596 213.410042 
L 189.108107 215.752496 
L 189.303617 215.954609 
L 189.694638 212.246863 
L 189.890149 211.666486 
L 190.085659 209.428525 
L 190.47668 229.773889 
L 190.672191 214.895121 
L 190.867701 218.560141 
L 191.063212 216.632857 
L 191.258722 212.81133 
L 191.454232 214.442897 
L 191.649743 220.209466 
L 191.845253 220.376964 
L 192.040764 210.358787 
L 192.236274 221.466777 
L 192.431785 209.13993 
L 192.627295 216.191459 
L 192.822806 217.785278 
L 193.213827 211.103317 
L 193.409337 216.761828 
L 193.604848 217.381926 
L 193.800358 220.50065 
L 193.995869 211.931652 
L 194.191379 216.227015 
L 194.38689 209.277615 
L 194.5824 217.004467 
L 194.777911 219.868864 
L 194.973421 215.186297 
L 195.168932 205.894832 
L 195.364442 215.553229 
L 195.559953 216.954643 
L 195.755463 216.909343 
L 195.950974 209.564617 
L 196.146484 224.793925 
L 196.341995 215.493203 
L 196.537505 213.835141 
L 196.733016 220.840057 
L 196.928526 218.849117 
L 197.124037 214.568037 
L 197.515058 221.115204 
L 197.710568 212.243859 
L 197.906078 225.619142 
L 198.101589 210.461235 
L 198.297099 219.50966 
L 198.49261 207.978004 
L 198.68812 212.224102 
L 198.883631 219.845025 
L 199.079141 213.192841 
L 199.470162 216.696377 
L 199.665673 211.053638 
L 199.861183 216.43607 
L 200.056694 203.808068 
L 200.252204 220.752099 
L 200.447715 211.913758 
L 200.643225 219.242303 
L 200.838736 220.966127 
L 201.034246 212.463801 
L 201.229757 227.800968 
L 201.425267 221.579735 
L 201.620778 220.276598 
L 201.816288 207.494733 
L 202.011799 216.552719 
L 202.207309 213.202716 
L 202.40282 214.346884 
L 202.59833 212.802968 
L 202.793841 213.416964 
L 202.989351 219.663854 
L 203.184862 213.703038 
L 203.380372 212.964541 
L 203.575883 208.839269 
L 203.771393 219.535787 
L 204.162414 216.251175 
L 204.357924 214.145962 
L 204.553435 223.273925 
L 204.944456 211.813638 
L 205.335477 223.835463 
L 205.530987 213.181264 
L 205.726498 210.28321 
L 205.922008 214.620312 
L 206.117519 222.371278 
L 206.313029 214.315693 
L 206.50854 218.579629 
L 206.70405 215.973588 
L 206.899561 215.721891 
L 207.095071 214.236969 
L 207.290582 226.965214 
L 207.486092 215.574742 
L 207.681603 220.393624 
L 207.877113 212.487089 
L 208.072624 226.548917 
L 208.268134 211.044283 
L 208.463645 217.81581 
L 208.659155 212.416305 
L 208.854666 223.2104 
L 209.050176 202.953821 
L 209.441197 218.034173 
L 209.636708 221.73727 
L 209.832218 208.314941 
L 210.223239 219.306945 
L 210.418749 220.169192 
L 210.61426 215.968583 
L 210.80977 222.370463 
L 211.200791 209.192738 
L 211.396302 219.720452 
L 211.591812 219.357153 
L 211.787323 213.880565 
L 211.982833 218.958415 
L 212.373854 211.376411 
L 212.569365 217.367397 
L 212.764875 208.759371 
L 212.960386 227.062602 
L 213.155896 212.887587 
L 213.351407 213.369801 
L 213.546917 216.146667 
L 213.742428 215.607012 
L 213.937938 212.212561 
L 214.133449 226.860213 
L 214.328959 222.688706 
L 214.52447 213.811884 
L 214.71998 228.072845 
L 214.915491 223.037309 
L 215.111001 226.325744 
L 215.502022 212.317294 
L 215.697533 216.83221 
L 215.893043 224.053611 
L 216.479574 210.939769 
L 216.675085 216.769365 
L 216.870595 216.856594 
L 217.066106 209.061495 
L 217.261616 221.654669 
L 217.457127 219.493029 
L 217.652637 208.930848 
L 217.848148 219.574741 
L 218.043658 216.627337 
L 218.239169 219.969382 
L 218.434679 215.10308 
L 218.63019 217.346787 
L 218.8257 224.334856 
L 219.021211 216.461723 
L 219.216721 222.79963 
L 219.412232 220.403022 
L 219.607742 212.451706 
L 219.803253 216.385821 
L 219.998763 214.45307 
L 220.194274 222.496331 
L 220.389784 222.810913 
L 220.780805 218.089094 
L 220.976316 211.022521 
L 221.367337 223.031289 
L 221.562847 219.247803 
L 221.758358 224.808664 
L 221.953868 214.198989 
L 222.149379 214.729092 
L 222.5404 221.746534 
L 222.73591 216.456398 
L 222.93142 215.091174 
L 223.126931 215.104711 
L 223.322441 210.871484 
L 223.713462 223.355987 
L 224.104483 218.127724 
L 224.299994 218.821566 
L 224.495504 222.112109 
L 224.691015 205.910369 
L 224.886525 219.009114 
L 225.082036 219.098946 
L 225.277546 221.777234 
L 225.473057 214.484917 
L 225.668567 219.647629 
L 225.864078 219.233497 
L 226.059588 216.200301 
L 226.255099 222.022895 
L 226.450609 212.947128 
L 226.64612 220.772507 
L 226.84163 218.50285 
L 227.037141 212.183395 
L 227.232651 225.571174 
L 227.428162 227.293225 
L 227.623672 226.593163 
L 227.819183 215.831245 
L 228.014693 214.255126 
L 228.210204 211.420469 
L 228.405714 214.477467 
L 228.601225 224.020283 
L 228.796735 203.102761 
L 228.992245 222.04068 
L 229.187756 212.97396 
L 229.383266 217.731062 
L 229.578777 206.57103 
L 229.969798 221.920214 
L 230.165308 217.987814 
L 230.360819 226.058764 
L 230.75184 218.909781 
L 230.94735 217.678137 
L 231.142861 221.519604 
L 231.338371 223.011065 
L 231.533882 208.840274 
L 231.729392 217.36355 
L 231.924903 215.899844 
L 232.120413 220.481272 
L 232.315924 222.157275 
L 232.511434 219.879503 
L 232.706945 221.037944 
L 232.902455 220.762998 
L 233.097966 222.013545 
L 233.293476 219.444329 
L 233.488987 214.514702 
L 233.880008 224.119125 
L 234.075518 211.409642 
L 234.271029 216.508471 
L 234.466539 214.303568 
L 234.66205 216.97901 
L 234.85756 215.020847 
L 235.248581 221.873242 
L 235.444091 222.867409 
L 235.639602 216.852027 
L 235.835112 219.680435 
L 236.030623 228.35839 
L 236.226133 214.110993 
L 236.421644 212.436784 
L 236.617154 216.196111 
L 236.812665 212.728093 
L 237.008175 217.849091 
L 237.203686 230.302436 
L 237.399196 225.554794 
L 237.594707 225.180871 
L 237.790217 231.226486 
L 237.985728 215.501823 
L 238.181238 215.748676 
L 238.376749 215.029296 
L 238.572259 218.460648 
L 238.76777 215.824505 
L 239.158791 218.910968 
L 239.549812 213.509235 
L 239.745322 221.074256 
L 239.940833 218.275986 
L 240.136343 212.121771 
L 240.527364 218.954537 
L 240.722875 217.836871 
L 240.918385 220.96082 
L 241.113896 215.48785 
L 241.504916 221.509043 
L 241.700427 216.573468 
L 241.895937 222.597693 
L 242.091448 217.551628 
L 242.286958 215.75497 
L 242.482469 216.331794 
L 242.677979 207.476926 
L 242.87349 218.667822 
L 243.069 222.07303 
L 243.264511 222.844025 
L 243.460021 222.173776 
L 243.655532 211.761155 
L 243.851042 222.958324 
L 244.046553 225.532002 
L 244.437574 216.786047 
L 244.633084 223.34636 
L 244.828595 215.180633 
L 245.024105 214.158903 
L 245.219616 219.979048 
L 245.415126 218.053825 
L 245.610637 218.365526 
L 245.806147 218.889203 
L 246.001658 223.688237 
L 246.392679 214.911296 
L 246.588189 223.533323 
L 246.97921 215.957174 
L 247.174721 226.811564 
L 247.370231 231.007874 
L 247.565742 215.85346 
L 247.761252 218.400671 
L 247.956762 229.216899 
L 248.152273 218.069062 
L 248.347783 224.906767 
L 248.543294 223.212573 
L 248.738804 227.115007 
L 248.934315 212.238305 
L 249.129825 222.76165 
L 249.325336 224.22044 
L 249.520846 227.160599 
L 249.716357 217.046676 
L 250.107378 222.4871 
L 250.498399 214.642992 
L 250.693909 226.14244 
L 250.88942 215.033745 
L 251.08493 216.853949 
L 251.280441 216.955486 
L 251.475951 223.974341 
L 251.671462 213.01168 
L 251.866972 219.673642 
L 252.062483 222.129253 
L 252.257993 222.933545 
L 252.453504 220.148059 
L 252.649014 220.892829 
L 252.844525 215.691736 
L 253.235546 220.379173 
L 253.431056 216.136265 
L 253.626567 231.043105 
L 253.822077 217.26999 
L 254.017587 223.803512 
L 254.213098 218.580521 
L 254.408608 221.545644 
L 254.604119 227.207989 
L 254.799629 225.032792 
L 254.99514 224.999703 
L 255.19065 217.696934 
L 255.386161 221.371259 
L 255.581671 218.451937 
L 255.777182 230.218772 
L 255.972692 220.07704 
L 256.168203 223.151128 
L 256.363713 222.411739 
L 256.559224 203.683979 
L 256.950245 230.687019 
L 257.145755 218.431508 
L 257.341266 214.416338 
L 257.536776 222.816276 
L 257.732287 224.265409 
L 257.927797 214.655848 
L 258.123308 218.876366 
L 258.514329 230.74866 
L 258.709839 221.559362 
L 258.90535 223.445287 
L 259.10086 228.086474 
L 259.296371 225.89242 
L 259.882902 211.29728 
L 260.078413 219.53148 
L 260.273923 222.412845 
L 260.664944 215.270682 
L 260.860454 226.288112 
L 261.055965 220.412545 
L 261.446986 221.240431 
L 261.642496 217.063389 
L 262.033517 221.729376 
L 262.229028 211.436426 
L 262.620049 226.03684 
L 262.815559 228.388306 
L 263.01107 208.120408 
L 263.20658 227.86592 
L 263.402091 219.192826 
L 263.597601 226.37346 
L 263.793112 224.753351 
L 263.988622 229.676617 
L 264.184133 213.350574 
L 264.379643 223.288357 
L 264.379643 223.288357 
" clip-path="url(#p53dff958cc)" style="fill: none; stroke: #46327e; stroke-linecap: square"/>
   </g>
   <g id="patch_3">
    <path d="M 59.298921 242.237271 
L 59.298921 -0 
" style="fill: none; stroke: #000000; stroke-width: 0.8; stroke-linejoin: miter; stroke-linecap: square"/>
   </g>
   <g id="patch_4">
    <path d="M 59.298921 242.237271 
L 274.145392 242.237271 
" style="fill: none; stroke: #000000; stroke-width: 0.8; stroke-linejoin: miter; stroke-linecap: square"/>
   </g>
  </g>
 </g>
 <defs>
  <clipPath id="p53dff958cc">
   <rect x="59.298921" y="0" width="214.846471" height="242.237271"/>
  </clipPath>
 </defs>
</svg>
