<?xml version="1.0" encoding="utf-8" standalone="no"?>
<!DOCTYPE svg PUBLIC "-//W3C//DTD SVG 1.1//EN"
  "http://www.w3.org/Graphics/SVG/1.1/DTD/svg11.dtd">
<svg xmlns:xlink="http://www.w3.org/1999/xlink" width="357.12pt" height="357.12pt" viewBox="0 0 357.12 357.12" xmlns="http://www.w3.org/2000/svg" version="1.1">
 <metadata>
  <rdf:RDF xmlns:dc="http://purl.org/dc/elements/1.1/" xmlns:cc="http://creativecommons.org/ns#" xmlns:rdf="http://www.w3.org/1999/02/22-rdf-syntax-ns#">
   <cc:Work>
    <dc:type rdf:resource="http://purl.org/dc/dcmitype/StillImage"/>
    <dc:date>2023-12-13T19:58:51.125495</dc:date>
    <dc:format>image/svg+xml</dc:format>
    <dc:creator>
     <cc:Agent>
      <dc:title>Matplotlib v3.6.2, https://matplotlib.org/</dc:title>
     </cc:Agent>
    </dc:creator>
   </cc:Work>
  </rdf:RDF>
 </metadata>
 <defs>
  <style type="text/css">*{stroke-linejoin: round; stroke-linecap: butt}</style>
 </defs>
 <g id="figure_1">
  <g id="patch_1">
   <path d="M -0 357.12 
L 357.12 357.12 
L 357.12 0 
L -0 0 
L -0 357.12 
z
" style="fill: none"/>
  </g>
  <g id="axes_1">
   <g id="patch_2">
    <path d="M 57.526621 316.009571 
L 357.12 316.009571 
L 357.12 0 
L 57.526621 0 
L 57.526621 316.009571 
z
" style="fill: none"/>
   </g>
   <g id="matplotlib.axis_1">
    <g id="xtick_1">
     <g id="line2d_1">
      <defs>
       <path id="m1f51190555" d="M 0 0 
L 0 3.5 
" style="stroke: #000000; stroke-width: 0.8"/>
      </defs>
      <g>
       <use xlink:href="#m1f51190555" x="71.144502" y="316.009571" style="stroke: #000000; stroke-width: 0.8"/>
      </g>
     </g>
     <g id="text_1">
      <!-- $\mathdefault{0}$ -->
      <g transform="translate(67.032359 335.462871) scale(0.18 -0.18)">
       <defs>
        <path id="CMR17-30" d="M 2688 2038 
C 2688 2430 2682 3099 2413 3613 
C 2176 4063 1798 4224 1466 4224 
C 1158 4224 768 4082 525 3620 
C 269 3137 243 2539 243 2038 
C 243 1671 250 1112 448 623 
C 723 -39 1216 -128 1466 -128 
C 1760 -128 2208 -7 2470 604 
C 2662 1048 2688 1568 2688 2038 
z
M 1466 -26 
C 1056 -26 813 328 723 816 
C 653 1196 653 1749 653 2109 
C 653 2604 653 3015 736 3407 
C 858 3954 1216 4121 1466 4121 
C 1728 4121 2067 3947 2189 3420 
C 2272 3054 2278 2623 2278 2109 
C 2278 1691 2278 1176 2202 797 
C 2067 96 1690 -26 1466 -26 
z
" transform="scale(0.015625)"/>
       </defs>
       <use xlink:href="#CMR17-30" transform="scale(0.996264)"/>
      </g>
     </g>
    </g>
    <g id="xtick_2">
     <g id="line2d_2">
      <g>
       <use xlink:href="#m1f51190555" x="180.109342" y="316.009571" style="stroke: #000000; stroke-width: 0.8"/>
      </g>
     </g>
     <g id="text_2">
      <!-- $\mathdefault{2000}$ -->
      <g transform="translate(163.66077 335.462871) scale(0.18 -0.18)">
       <defs>
        <path id="CMR17-32" d="M 2669 990 
L 2554 990 
C 2490 537 2438 460 2413 422 
C 2381 371 1920 371 1830 371 
L 602 371 
C 832 620 1280 1073 1824 1596 
C 2214 1966 2669 2400 2669 3033 
C 2669 3788 2067 4224 1395 4224 
C 691 4224 262 3603 262 3027 
C 262 2777 448 2745 525 2745 
C 589 2745 781 2783 781 3007 
C 781 3206 614 3264 525 3264 
C 486 3264 448 3257 422 3244 
C 544 3788 915 4057 1306 4057 
C 1862 4057 2227 3616 2227 3033 
C 2227 2477 1901 1998 1536 1583 
L 262 147 
L 262 0 
L 2515 0 
L 2669 990 
z
" transform="scale(0.015625)"/>
       </defs>
       <use xlink:href="#CMR17-32" transform="scale(0.996264)"/>
       <use xlink:href="#CMR17-30" transform="translate(45.690477 0) scale(0.996264)"/>
       <use xlink:href="#CMR17-30" transform="translate(91.380954 0) scale(0.996264)"/>
       <use xlink:href="#CMR17-30" transform="translate(137.071431 0) scale(0.996264)"/>
      </g>
     </g>
    </g>
    <g id="xtick_3">
     <g id="line2d_3">
      <g>
       <use xlink:href="#m1f51190555" x="289.074182" y="316.009571" style="stroke: #000000; stroke-width: 0.8"/>
      </g>
     </g>
     <g id="text_3">
      <!-- $\mathdefault{4000}$ -->
      <g transform="translate(272.62561 335.462871) scale(0.18 -0.18)">
       <defs>
        <path id="CMR17-34" d="M 2150 4147 
C 2150 4281 2144 4288 2029 4288 
L 128 1254 
L 128 1088 
L 1779 1088 
L 1779 460 
C 1779 230 1766 166 1318 166 
L 1197 166 
L 1197 0 
C 1402 12 1747 12 1965 12 
C 2182 12 2528 12 2733 0 
L 2733 166 
L 2611 166 
C 2163 166 2150 230 2150 460 
L 2150 1088 
L 2803 1088 
L 2803 1254 
L 2150 1254 
L 2150 4147 
z
M 1798 3723 
L 1798 1254 
L 256 1254 
L 1798 3723 
z
" transform="scale(0.015625)"/>
       </defs>
       <use xlink:href="#CMR17-34" transform="scale(0.996264)"/>
       <use xlink:href="#CMR17-30" transform="translate(45.690477 0) scale(0.996264)"/>
       <use xlink:href="#CMR17-30" transform="translate(91.380954 0) scale(0.996264)"/>
       <use xlink:href="#CMR17-30" transform="translate(137.071431 0) scale(0.996264)"/>
      </g>
     </g>
    </g>
    <g id="text_4">
     <!-- Train step -->
     <g transform="translate(172.378791 354.020524) scale(0.16 -0.16)">
      <defs>
       <path id="CMR17-54" d="M 3981 4332 
L 288 4332 
L 179 2924 
L 294 2924 
C 378 3981 467 4166 1453 4166 
C 1568 4166 1754 4166 1805 4159 
C 1926 4140 1926 4064 1926 3917 
L 1926 465 
C 1926 236 1907 166 1376 166 
L 1197 166 
L 1197 0 
C 1504 6 1824 12 2138 12 
C 2451 12 2771 6 3078 0 
L 3078 166 
L 2899 166 
C 2368 166 2349 236 2349 465 
L 2349 3917 
C 2349 4057 2349 4134 2464 4159 
C 2515 4166 2701 4166 2816 4166 
C 3795 4166 3891 3981 3974 2924 
L 4090 2924 
L 3981 4332 
z
" transform="scale(0.015625)"/>
       <path id="CMR17-72" d="M 960 1517 
C 960 2134 1222 2713 1702 2713 
C 1747 2713 1792 2707 1837 2687 
C 1837 2687 1696 2642 1696 2475 
C 1696 2321 1818 2257 1914 2257 
C 1990 2257 2131 2302 2131 2482 
C 2131 2687 1926 2816 1709 2816 
C 1222 2816 1011 2340 947 2115 
L 941 2115 
L 941 2816 
L 198 2745 
L 198 2578 
C 576 2578 634 2540 634 2231 
L 634 443 
C 634 198 608 166 198 166 
L 198 0 
C 352 12 646 12 813 12 
C 998 12 1325 12 1498 0 
L 1498 166 
C 1037 166 960 166 960 455 
L 960 1517 
z
" transform="scale(0.015625)"/>
       <path id="CMR17-61" d="M 2304 1656 
C 2304 2048 2304 2275 2035 2534 
C 1798 2751 1523 2816 1306 2816 
C 800 2816 435 2408 435 1977 
C 435 1740 627 1728 666 1728 
C 749 1728 896 1779 896 1958 
C 896 2118 774 2188 666 2188 
C 640 2188 608 2182 589 2176 
C 723 2594 1069 2713 1293 2713 
C 1613 2713 1965 2421 1965 1875 
L 1965 1632 
C 1587 1619 1133 1568 774 1373 
C 371 1147 256 822 256 576 
C 256 77 832 -64 1171 -64 
C 1523 -64 1850 135 1990 505 
C 2003 219 2182 -39 2464 -39 
C 2598 -39 2938 51 2938 563 
L 2938 926 
L 2822 926 
L 2822 557 
C 2822 161 2650 109 2566 109 
C 2304 109 2304 446 2304 732 
L 2304 1656 
z
M 1965 887 
C 1965 323 1568 38 1216 38 
C 896 38 646 278 646 576 
C 646 771 730 1114 1101 1322 
C 1408 1497 1760 1523 1965 1536 
L 1965 887 
z
" transform="scale(0.015625)"/>
       <path id="CMR17-69" d="M 992 3961 
C 992 4102 877 4224 730 4224 
C 589 4224 467 4108 467 3961 
C 467 3820 582 3699 730 3699 
C 870 3699 992 3814 992 3961 
z
M 243 2745 
L 243 2579 
C 602 2579 653 2540 653 2231 
L 653 443 
C 653 198 627 166 218 166 
L 218 0 
C 371 12 646 12 806 12 
C 960 12 1222 12 1370 0 
L 1370 166 
C 992 166 979 205 979 436 
L 979 2816 
L 243 2745 
z
" transform="scale(0.015625)"/>
       <path id="CMR17-6e" d="M 2656 1954 
C 2656 2282 2592 2816 1837 2816 
C 1331 2816 1069 2424 973 2166 
L 966 2166 
L 966 2816 
L 211 2745 
L 211 2578 
C 589 2578 646 2540 646 2231 
L 646 443 
C 646 198 621 166 211 166 
L 211 0 
C 365 12 646 12 813 12 
C 979 12 1267 12 1421 0 
L 1421 166 
C 1011 166 986 192 986 443 
L 986 1678 
C 986 2269 1344 2713 1792 2713 
C 2266 2713 2317 2289 2317 1980 
L 2317 443 
C 2317 198 2291 166 1882 166 
L 1882 0 
C 2035 12 2317 12 2483 12 
C 2650 12 2938 12 3091 0 
L 3091 166 
C 2682 166 2656 192 2656 443 
L 2656 1954 
z
" transform="scale(0.015625)"/>
       <path id="CMR17-73" d="M 1978 2688 
C 1978 2803 1971 2809 1933 2809 
C 1907 2809 1901 2803 1824 2707 
C 1805 2681 1747 2617 1728 2592 
C 1523 2809 1235 2816 1126 2816 
C 416 2816 160 2444 160 2073 
C 160 1497 813 1363 998 1324 
C 1402 1241 1542 1216 1677 1100 
C 1760 1024 1901 883 1901 652 
C 1901 384 1747 38 1158 38 
C 602 38 403 460 288 1024 
C 269 1113 269 1120 218 1120 
C 166 1120 160 1113 160 985 
L 160 64 
C 160 -52 166 -58 205 -58 
C 237 -58 243 -52 275 0 
C 314 57 410 211 448 275 
C 576 102 800 -64 1158 -64 
C 1792 -64 2131 281 2131 780 
C 2131 1107 1958 1280 1875 1356 
C 1683 1555 1459 1600 1190 1651 
C 838 1728 390 1817 390 2208 
C 390 2374 480 2726 1126 2726 
C 1811 2726 1850 2086 1862 1881 
C 1869 1849 1901 1843 1920 1843 
C 1978 1843 1978 1862 1978 1971 
L 1978 2688 
z
" transform="scale(0.015625)"/>
       <path id="CMR17-74" d="M 966 2585 
L 1862 2585 
L 1862 2752 
L 966 2752 
L 966 3968 
L 851 3968 
C 838 3292 614 2700 70 2687 
L 70 2585 
L 627 2585 
L 627 778 
C 627 655 627 -64 1370 -64 
C 1747 -64 1965 308 1965 784 
L 1965 1151 
L 1850 1151 
L 1850 790 
C 1850 347 1677 51 1408 51 
C 1222 51 966 179 966 765 
L 966 2585 
z
" transform="scale(0.015625)"/>
       <path id="CMR17-65" d="M 2438 1503 
C 2464 1529 2464 1542 2464 1606 
C 2464 2251 2118 2816 1389 2816 
C 710 2816 173 2175 173 1394 
C 173 554 781 -64 1459 -64 
C 2176 -64 2458 619 2458 755 
C 2458 800 2419 800 2406 800 
C 2362 800 2355 787 2330 709 
C 2189 270 1837 51 1504 51 
C 1229 51 954 206 781 490 
C 582 819 582 1200 582 1503 
L 2438 1503 
z
M 589 1600 
C 634 2511 1126 2713 1382 2713 
C 1818 2713 2112 2308 2118 1600 
L 589 1600 
z
" transform="scale(0.015625)"/>
       <path id="CMR17-70" d="M 1408 -1114 
C 998 -1114 973 -1088 973 -834 
L 973 380 
C 1158 109 1427 -64 1766 -64 
C 2406 -64 3053 503 3053 1382 
C 3053 2196 2496 2816 1837 2816 
C 1453 2816 1139 2603 960 2345 
L 960 2816 
L 198 2745 
L 198 2577 
C 576 2577 634 2539 634 2228 
L 634 -834 
C 634 -1081 608 -1114 198 -1114 
L 198 -1280 
C 352 -1268 634 -1268 800 -1268 
C 966 -1268 1254 -1268 1408 -1280 
L 1408 -1114 
z
M 973 2015 
C 973 2106 973 2241 1222 2481 
C 1254 2506 1472 2700 1792 2700 
C 2259 2700 2643 2112 2643 1376 
C 2643 639 2234 38 1728 38 
C 1498 38 1248 148 1056 451 
C 973 594 973 632 973 736 
L 973 2015 
z
" transform="scale(0.015625)"/>
      </defs>
      <use xlink:href="#CMR17-54" transform="scale(0.996264)"/>
      <use xlink:href="#CMR17-72" transform="translate(58.702625 0) scale(0.996264)"/>
      <use xlink:href="#CMR17-61" transform="translate(93.983393 0) scale(0.996264)"/>
      <use xlink:href="#CMR17-69" transform="translate(139.67387 0) scale(0.996264)"/>
      <use xlink:href="#CMR17-6e" transform="translate(164.544929 0) scale(0.996264)"/>
      <use xlink:href="#CMR17-73" transform="translate(245.516265 0) scale(0.996264)"/>
      <use xlink:href="#CMR17-74" transform="translate(281.317602 0) scale(0.996264)"/>
      <use xlink:href="#CMR17-65" transform="translate(316.59837 0) scale(0.996264)"/>
      <use xlink:href="#CMR17-70" transform="translate(357.084031 0) scale(0.996264)"/>
     </g>
    </g>
   </g>
   <g id="matplotlib.axis_2">
    <g id="ytick_1">
     <g id="line2d_4">
      <defs>
       <path id="md509c1003b" d="M 0 0 
L -3.5 0 
" style="stroke: #000000; stroke-width: 0.8"/>
      </defs>
      <g>
       <use xlink:href="#md509c1003b" x="57.526621" y="156.159162" style="stroke: #000000; stroke-width: 0.8"/>
      </g>
     </g>
     <g id="text_5">
      <!-- $\mathdefault{10^{-1}}$ -->
      <g transform="translate(18.169064 162.385812) scale(0.18 -0.18)">
       <defs>
        <path id="CMR17-31" d="M 1702 4083 
C 1702 4217 1696 4224 1606 4224 
C 1357 3927 979 3833 621 3820 
C 602 3820 570 3820 563 3808 
C 557 3795 557 3782 557 3648 
C 755 3648 1088 3686 1344 3839 
L 1344 467 
C 1344 243 1331 166 781 166 
L 589 166 
L 589 0 
C 896 6 1216 12 1523 12 
C 1830 12 2150 6 2458 0 
L 2458 166 
L 2266 166 
C 1715 166 1702 236 1702 467 
L 1702 4083 
z
" transform="scale(0.015625)"/>
        <path id="CMSY10-0" d="M 4218 1472 
C 4326 1472 4442 1472 4442 1600 
C 4442 1728 4326 1728 4218 1728 
L 755 1728 
C 646 1728 531 1728 531 1600 
C 531 1472 646 1472 755 1472 
L 4218 1472 
z
" transform="scale(0.015625)"/>
       </defs>
       <use xlink:href="#CMR17-31" transform="scale(0.996264)"/>
       <use xlink:href="#CMR17-30" transform="translate(45.690477 0) scale(0.996264)"/>
       <use xlink:href="#CMSY10-0" transform="translate(91.380954 36.153639) scale(0.697382)"/>
       <use xlink:href="#CMR17-31" transform="translate(145.621947 36.153639) scale(0.697382)"/>
      </g>
     </g>
    </g>
    <g id="ytick_2">
     <g id="line2d_5">
      <defs>
       <path id="m6bb581b428" d="M 0 0 
L -2 0 
" style="stroke: #000000; stroke-width: 0.6"/>
      </defs>
      <g>
       <use xlink:href="#m6bb581b428" x="57.526621" y="289.288686" style="stroke: #000000; stroke-width: 0.6"/>
      </g>
     </g>
    </g>
    <g id="ytick_3">
     <g id="line2d_6">
      <g>
       <use xlink:href="#m6bb581b428" x="57.526621" y="255.749413" style="stroke: #000000; stroke-width: 0.6"/>
      </g>
     </g>
    </g>
    <g id="ytick_4">
     <g id="line2d_7">
      <g>
       <use xlink:href="#m6bb581b428" x="57.526621" y="231.952921" style="stroke: #000000; stroke-width: 0.6"/>
      </g>
     </g>
    </g>
    <g id="ytick_5">
     <g id="line2d_8">
      <g>
       <use xlink:href="#m6bb581b428" x="57.526621" y="213.494927" style="stroke: #000000; stroke-width: 0.6"/>
      </g>
     </g>
    </g>
    <g id="ytick_6">
     <g id="line2d_9">
      <g>
       <use xlink:href="#m6bb581b428" x="57.526621" y="198.413648" style="stroke: #000000; stroke-width: 0.6"/>
      </g>
     </g>
    </g>
    <g id="ytick_7">
     <g id="line2d_10">
      <g>
       <use xlink:href="#m6bb581b428" x="57.526621" y="185.662609" style="stroke: #000000; stroke-width: 0.6"/>
      </g>
     </g>
    </g>
    <g id="ytick_8">
     <g id="line2d_11">
      <g>
       <use xlink:href="#m6bb581b428" x="57.526621" y="174.617156" style="stroke: #000000; stroke-width: 0.6"/>
      </g>
     </g>
    </g>
    <g id="ytick_9">
     <g id="line2d_12">
      <g>
       <use xlink:href="#m6bb581b428" x="57.526621" y="164.874376" style="stroke: #000000; stroke-width: 0.6"/>
      </g>
     </g>
    </g>
    <g id="ytick_10">
     <g id="line2d_13">
      <g>
       <use xlink:href="#m6bb581b428" x="57.526621" y="98.823397" style="stroke: #000000; stroke-width: 0.6"/>
      </g>
     </g>
    </g>
    <g id="ytick_11">
     <g id="line2d_14">
      <g>
       <use xlink:href="#m6bb581b428" x="57.526621" y="65.284124" style="stroke: #000000; stroke-width: 0.6"/>
      </g>
     </g>
    </g>
    <g id="ytick_12">
     <g id="line2d_15">
      <g>
       <use xlink:href="#m6bb581b428" x="57.526621" y="41.487632" style="stroke: #000000; stroke-width: 0.6"/>
      </g>
     </g>
    </g>
    <g id="ytick_13">
     <g id="line2d_16">
      <g>
       <use xlink:href="#m6bb581b428" x="57.526621" y="23.029638" style="stroke: #000000; stroke-width: 0.6"/>
      </g>
     </g>
    </g>
    <g id="ytick_14">
     <g id="line2d_17">
      <g>
       <use xlink:href="#m6bb581b428" x="57.526621" y="7.948359" style="stroke: #000000; stroke-width: 0.6"/>
      </g>
     </g>
    </g>
    <g id="text_6">
     <!-- Loss -->
     <g transform="translate(11.069588 172.939374) rotate(-90) scale(0.16 -0.16)">
      <defs>
       <path id="CMR17-4c" d="M 3469 1612 
L 3354 1612 
C 3302 981 3219 166 2125 166 
L 1530 166 
C 1274 166 1261 198 1261 414 
L 1261 3892 
C 1261 4121 1274 4185 1760 4185 
L 1901 4185 
L 1901 4352 
C 1638 4339 1331 4339 1069 4339 
C 870 4339 512 4339 326 4352 
L 326 4185 
C 768 4185 838 4185 838 3898 
L 838 453 
C 838 166 768 166 326 166 
L 326 0 
L 3315 0 
L 3469 1612 
z
" transform="scale(0.015625)"/>
       <path id="CMR17-6f" d="M 2758 1356 
C 2758 2176 2163 2816 1466 2816 
C 768 2816 173 2176 173 1356 
C 173 550 768 -64 1466 -64 
C 2163 -64 2758 550 2758 1356 
z
M 1466 51 
C 1165 51 909 230 762 480 
C 602 768 582 1126 582 1408 
C 582 1676 595 2009 762 2297 
C 890 2508 1139 2713 1466 2713 
C 1754 2713 1997 2553 2150 2329 
C 2349 2028 2349 1606 2349 1408 
C 2349 1158 2336 774 2163 467 
C 1984 172 1709 51 1466 51 
z
" transform="scale(0.015625)"/>
      </defs>
      <use xlink:href="#CMR17-4c" transform="scale(0.996264)"/>
      <use xlink:href="#CMR17-6f" transform="translate(57.381408 0) scale(0.996264)"/>
      <use xlink:href="#CMR17-73" transform="translate(103.071885 0) scale(0.996264)"/>
      <use xlink:href="#CMR17-73" transform="translate(138.873223 0) scale(0.996264)"/>
     </g>
    </g>
   </g>
   <g id="line2d_18">
    <path d="M 71.144502 14.364071 
L 71.852773 183.203359 
L 71.907256 182.966324 
L 72.01622 187.000155 
L 72.179668 185.336851 
L 72.23415 185.666412 
L 72.288632 185.363637 
L 72.397597 191.055382 
L 72.45208 190.545216 
L 72.506562 191.190137 
L 72.887939 208.55406 
L 72.942421 207.4797 
L 73.105869 216.428569 
L 73.323798 224.804769 
L 73.378281 224.120746 
L 73.432763 224.673291 
L 73.596211 226.016816 
L 73.705175 228.083664 
L 73.759658 228.028596 
L 73.977587 231.920596 
L 74.03207 230.204786 
L 74.141035 232.846261 
L 74.195517 232.620067 
L 74.25 233.298453 
L 74.304482 232.19794 
L 74.358964 233.154357 
L 74.522412 234.337937 
L 74.576894 234.419805 
L 74.685859 235.309075 
L 74.740341 234.768183 
L 74.849306 236.168683 
L 74.903789 235.933555 
L 74.958271 235.146798 
L 75.121718 237.758216 
L 75.176201 236.368376 
L 75.230683 237.732636 
L 75.285166 238.750085 
L 75.339648 237.455951 
L 75.39413 239.372835 
L 75.448613 238.129141 
L 75.503095 239.038249 
L 75.557578 237.544394 
L 75.666542 240.670792 
L 75.721025 240.584492 
L 75.775507 238.045021 
L 75.82999 241.054877 
L 75.884472 240.077162 
L 75.938955 240.840787 
L 75.993437 238.766538 
L 76.102402 242.877729 
L 76.156884 240.855688 
L 76.211367 242.256344 
L 76.265849 242.311482 
L 76.320332 241.811237 
L 76.429296 244.10605 
L 76.483779 243.454279 
L 76.538261 242.636572 
L 76.701708 246.287966 
L 76.810673 243.542111 
L 76.865156 245.890619 
L 76.919638 243.218234 
L 77.083085 247.216392 
L 77.19205 246.059777 
L 77.301015 248.295115 
L 77.355498 247.086212 
L 77.40998 247.709786 
L 78.009287 252.082425 
L 78.063769 251.624203 
L 78.227216 255.328468 
L 78.281699 252.883016 
L 78.336181 254.031148 
L 78.499628 256.408048 
L 78.554111 255.084144 
L 78.608593 255.619371 
L 78.826523 260.275002 
L 78.881005 258.952422 
L 78.935488 259.43015 
L 78.98997 259.300642 
L 79.262382 263.993639 
L 79.316865 262.98567 
L 79.371347 262.940772 
L 79.534794 265.179845 
L 79.643759 266.3946 
L 79.807206 268.845441 
L 79.916171 270.898956 
L 79.970654 270.097805 
L 80.134101 273.659143 
L 80.188583 273.479828 
L 80.352031 275.874774 
L 80.406513 275.989408 
L 80.460995 275.231119 
L 80.733408 278.870297 
L 80.78789 278.825197 
L 80.842372 278.361828 
L 81.00582 280.732014 
L 81.332714 282.83413 
L 81.387197 282.504566 
L 81.550644 284.383354 
L 81.605126 282.635839 
L 81.659609 283.996842 
L 81.714091 283.693583 
L 81.768574 284.779048 
L 81.823056 284.664618 
L 81.877538 284.280455 
L 81.932021 285.601458 
L 81.986503 285.579387 
L 82.040986 285.503538 
L 82.204433 287.154637 
L 82.258915 287.10466 
L 82.313398 286.569698 
L 82.36788 287.075764 
L 82.422363 287.731124 
L 82.476845 287.359275 
L 82.58581 287.939187 
L 82.640292 287.54553 
L 82.80374 288.938403 
L 82.912704 288.32996 
L 83.076152 289.546841 
L 83.130634 289.469715 
L 83.185116 289.015949 
L 83.239599 289.343425 
L 83.348564 289.812415 
L 83.403046 289.476502 
L 83.457529 289.76427 
L 83.512011 289.663969 
L 83.566493 290.923213 
L 83.620976 289.144507 
L 83.675458 290.644218 
L 83.729941 290.401726 
L 83.784423 290.550682 
L 83.94787 291.602989 
L 84.002353 291.365771 
L 84.056835 291.541788 
L 84.111318 291.450862 
L 84.1658 291.202529 
L 84.220282 290.374332 
L 84.274765 292.323226 
L 84.329247 291.334432 
L 84.547177 292.242973 
L 84.601659 291.959563 
L 84.765107 293.061045 
L 84.819589 292.731619 
L 84.874071 292.88123 
L 84.928554 293.004799 
L 84.983036 292.881986 
L 85.037519 292.693865 
L 85.146484 293.601718 
L 85.200966 293.182929 
L 85.364413 292.894804 
L 85.418896 294.001286 
L 85.473378 293.607838 
L 85.527861 293.298806 
L 85.582343 293.416717 
L 85.636825 293.337654 
L 85.800273 294.120105 
L 85.854755 293.746123 
L 85.909237 294.538975 
L 85.96372 294.136833 
L 86.018202 294.101363 
L 86.072685 294.188148 
L 86.18165 294.706599 
L 86.290614 294.464475 
L 86.345097 294.523421 
L 86.399579 293.771502 
L 86.454062 294.402743 
L 86.563026 295.023224 
L 86.617509 294.208111 
L 86.671991 294.773085 
L 86.726474 295.683559 
L 86.780956 294.733532 
L 86.835439 294.99703 
L 86.944403 295.371225 
L 86.998886 295.059306 
L 87.053368 295.151567 
L 87.216816 295.55266 
L 87.271298 295.712428 
L 87.32578 295.622933 
L 87.434745 295.424573 
L 87.489228 295.523972 
L 87.54371 295.521829 
L 87.707157 296.017841 
L 87.76164 295.469024 
L 87.816122 295.514469 
L 87.979569 296.235441 
L 88.034052 295.851361 
L 88.088534 296.23333 
L 88.197499 295.857691 
L 88.251982 296.51725 
L 88.306464 295.537688 
L 88.360946 296.455396 
L 88.415429 296.230682 
L 88.469911 296.388904 
L 88.524394 296.6872 
L 88.578876 296.335073 
L 88.633358 296.37487 
L 88.687841 296.666739 
L 88.742323 296.45096 
L 88.796806 296.608998 
L 88.851288 296.231369 
L 88.905771 296.625143 
L 88.960253 296.709578 
L 89.014735 296.369902 
L 89.069218 296.478317 
L 89.178183 297.115031 
L 89.232665 297.331634 
L 89.287147 296.528171 
L 89.34163 296.861839 
L 89.450595 296.722775 
L 89.614042 297.293733 
L 89.668524 296.872738 
L 89.723007 297.201163 
L 89.831972 297.06907 
L 89.886454 297.115691 
L 89.940937 297.358893 
L 89.995419 296.794336 
L 90.049901 297.171025 
L 90.104384 297.034284 
L 90.158866 297.40244 
L 90.213349 297.253237 
L 90.322313 296.915389 
L 90.431278 297.752801 
L 90.485761 297.42866 
L 90.540243 297.428609 
L 90.594726 297.211294 
L 90.758173 297.810074 
L 90.812655 297.906585 
L 90.976103 297.297544 
L 91.085067 298.10886 
L 91.13955 297.867002 
L 91.194032 298.2802 
L 91.248515 298.005744 
L 91.302997 297.441386 
L 91.357479 297.644698 
L 91.466444 297.949139 
L 91.520927 297.867745 
L 91.684374 298.158601 
L 91.902304 297.774932 
L 91.956786 298.113437 
L 92.011268 297.78323 
L 92.120233 298.104335 
L 92.229198 297.908945 
L 92.283681 297.945076 
L 92.338163 298.040196 
L 92.392645 297.89678 
L 92.50161 298.501292 
L 92.556093 298.156946 
L 92.71954 298.502024 
L 92.774022 298.373453 
L 92.828505 298.404394 
L 92.882987 298.577374 
L 92.93747 298.318642 
L 92.991952 298.390006 
L 93.046434 298.615592 
L 93.100917 298.160814 
L 93.155399 298.269646 
L 93.264364 298.471339 
L 93.318847 298.191015 
L 93.373329 298.426933 
L 93.482294 298.731172 
L 93.754706 298.335218 
L 93.809188 298.3758 
L 93.918153 298.739419 
L 94.0816 298.535607 
L 94.136083 298.856634 
L 94.190565 298.779111 
L 94.462977 298.563265 
L 94.51746 298.807612 
L 94.571942 298.755561 
L 94.626425 298.641051 
L 94.735389 298.889072 
L 94.898837 298.429677 
L 95.007802 298.892031 
L 95.062284 298.475084 
L 95.116766 298.928213 
L 95.171249 298.690812 
L 95.280214 299.134289 
L 95.334696 298.92649 
L 95.389179 298.755458 
L 95.552626 299.001379 
L 95.607108 299.152513 
L 95.661591 299.085284 
L 95.825038 298.797249 
L 95.988485 299.096351 
L 96.042968 299.028708 
L 96.09745 299.247824 
L 96.206415 298.845409 
L 96.369862 299.105441 
L 96.424345 298.846127 
L 96.478827 298.988315 
L 96.642274 299.210903 
L 96.696757 299.041379 
L 96.860204 299.277747 
L 96.914686 298.980987 
L 96.969169 298.994465 
L 97.132616 299.294499 
L 97.187098 298.962385 
L 97.241581 299.259895 
L 97.350546 299.113396 
L 97.405028 299.351693 
L 97.45951 299.225756 
L 97.568475 299.164205 
L 97.67744 299.49166 
L 97.89537 298.900077 
L 97.949852 299.290952 
L 98.004335 299.283032 
L 98.058817 299.195357 
L 98.1133 299.311168 
L 98.167782 299.263119 
L 98.222264 299.575776 
L 98.276747 299.092127 
L 98.331229 299.243097 
L 98.494676 299.552469 
L 98.603641 299.521314 
L 98.658124 299.12772 
L 98.712606 299.224592 
L 98.876053 299.200073 
L 98.930536 299.264666 
L 98.985018 299.051452 
L 99.093983 299.484688 
L 99.148465 299.309855 
L 99.202948 299.336817 
L 99.25743 299.376614 
L 99.366395 299.201071 
L 99.47536 299.571092 
L 99.69329 299.142698 
L 99.802255 299.648601 
L 99.911219 299.570769 
L 100.020184 299.25263 
L 100.074667 299.533267 
L 100.129149 299.367764 
L 100.292596 299.491982 
L 100.401561 299.482204 
L 100.510526 299.623004 
L 100.673973 299.215506 
L 100.728456 299.290674 
L 100.782938 299.553167 
L 100.837421 299.463802 
L 100.891903 299.475643 
L 100.946385 299.642244 
L 101.000868 299.482875 
L 101.05535 299.096177 
L 101.109833 299.267578 
L 101.164315 299.794835 
L 101.218797 299.506982 
L 101.27328 299.592467 
L 101.327762 299.451023 
L 101.382245 299.65432 
L 101.436727 299.623056 
L 101.545692 299.684364 
L 101.600174 299.393891 
L 101.654657 299.782179 
L 101.709139 299.362343 
L 101.763622 299.579598 
L 101.818104 299.795491 
L 101.872586 299.606377 
L 101.927069 299.722214 
L 102.036034 299.429693 
L 102.090516 299.496906 
L 102.144999 299.699784 
L 102.199481 299.460588 
L 102.253963 299.884436 
L 102.308446 299.668607 
L 102.362928 299.443802 
L 102.417411 299.662171 
L 102.471893 299.707647 
L 102.63534 299.348021 
L 102.744305 299.721917 
L 102.85327 299.538856 
L 103.016717 299.816216 
L 103.0712 299.569461 
L 103.125682 299.79124 
L 103.234647 299.616318 
L 103.452577 299.813022 
L 103.507059 299.63567 
L 103.561542 299.79676 
L 103.616024 299.814344 
L 103.670506 299.580627 
L 103.724989 299.689143 
L 103.888436 299.875032 
L 103.997401 299.652757 
L 104.051883 299.889874 
L 104.106366 299.774038 
L 104.160848 299.836736 
L 104.215331 299.746146 
L 104.378778 299.815525 
L 104.43326 299.617295 
L 104.487743 299.644593 
L 104.542225 299.951188 
L 104.596707 299.484427 
L 104.65119 299.693607 
L 104.760155 299.925777 
L 104.814637 299.551623 
L 104.86912 299.806645 
L 104.923602 299.648417 
L 104.978084 299.794354 
L 105.032567 299.77012 
L 105.087049 299.896792 
L 105.250497 299.69103 
L 105.413944 299.815472 
L 105.468426 299.440274 
L 105.522909 299.905813 
L 105.577391 299.669612 
L 106.01325 300.070081 
L 106.067733 299.713362 
L 106.122215 299.883814 
L 106.176698 299.959505 
L 106.23118 299.631881 
L 106.285663 299.784847 
L 106.340145 300.092586 
L 106.394627 299.816653 
L 106.44911 299.963843 
L 106.503592 299.823994 
L 106.612557 299.98418 
L 106.721522 299.755606 
L 106.776004 299.79941 
L 106.993934 299.954518 
L 107.048416 299.712689 
L 107.102899 299.92611 
L 107.157381 299.960346 
L 107.211864 299.826348 
L 107.266346 299.954956 
L 107.320828 300.021993 
L 107.375311 299.916798 
L 107.484276 299.710775 
L 107.538758 300.069177 
L 107.593241 300.009179 
L 107.647723 299.836981 
L 107.702205 299.940602 
L 107.756688 299.962774 
L 107.81117 299.730246 
L 107.865653 299.859414 
L 107.920135 299.932155 
L 107.974618 299.806417 
L 108.0291 299.974975 
L 108.083582 299.942941 
L 108.192547 299.903238 
L 108.24703 300.025466 
L 108.355994 299.764515 
L 108.519442 300.035703 
L 108.682889 299.853435 
L 108.737371 300.058778 
L 108.791854 299.997639 
L 108.900819 299.828527 
L 109.064266 300.050995 
L 109.118748 300.014213 
L 109.173231 300.160464 
L 109.227713 300.045625 
L 109.282196 299.842345 
L 109.336678 300.022677 
L 109.39116 300.100724 
L 109.554608 299.920503 
L 109.60909 299.896363 
L 109.663573 300.156211 
L 109.718055 299.940076 
L 109.772537 300.005189 
L 109.82702 299.812436 
L 109.881502 299.947796 
L 109.935985 300.033369 
L 109.990467 299.927845 
L 110.044949 299.885828 
L 110.153914 300.144106 
L 110.208397 299.998165 
L 110.262879 299.928546 
L 110.317362 300.001576 
L 110.426326 300.047389 
L 110.480809 299.851641 
L 110.535291 300.196739 
L 110.589774 300.031264 
L 110.644256 300.081587 
L 110.698739 299.913092 
L 110.753221 300.136728 
L 110.807703 299.808482 
L 110.862186 300.23581 
L 110.916668 300.037045 
L 111.025633 300.132266 
L 111.134598 299.975063 
L 111.243563 300.116617 
L 111.298045 299.846301 
L 111.352528 300.109961 
L 111.40701 300.137791 
L 111.461492 299.977184 
L 111.515975 300.166464 
L 111.570457 299.971425 
L 111.679422 300.220343 
L 111.733905 300.008206 
L 111.788387 300.204685 
L 111.842869 300.225565 
L 111.951834 300.056926 
L 112.006317 300.11998 
L 112.169764 300.295796 
L 112.224246 300.02808 
L 112.278729 300.076707 
L 112.387694 300.126566 
L 112.496658 300.167923 
L 112.823553 299.98262 
L 112.987 300.173441 
L 113.041483 299.947603 
L 113.095965 300.044932 
L 113.150447 300.004733 
L 113.20493 300.237304 
L 113.259412 300.063569 
L 113.313895 300.163293 
L 113.368377 299.961731 
L 113.477342 300.206654 
L 113.531824 300.128551 
L 113.586307 300.212966 
L 113.640789 300.219041 
L 113.749754 299.976097 
L 113.804236 300.268344 
L 113.858719 299.909834 
L 113.913201 300.145371 
L 114.022166 300.189066 
L 114.076649 299.976431 
L 114.131131 300.077629 
L 114.349061 300.073249 
L 114.458026 300.2836 
L 114.512508 299.988617 
L 114.56699 300.137035 
L 114.948367 300.111585 
L 115.111815 300.300496 
L 115.275262 300.171069 
L 115.329744 300.281444 
L 115.384227 300.156071 
L 115.547674 300.02094 
L 115.765604 300.36695 
L 115.820086 300.160165 
L 115.874568 300.225882 
L 116.092498 300.375379 
L 116.146981 300.251323 
L 116.201463 300.2224 
L 116.255945 300.336058 
L 116.310428 300.085801 
L 116.36491 300.383589 
L 116.419393 300.067158 
L 116.473875 300.092691 
L 116.528357 300.335626 
L 116.58284 300.127462 
L 116.637322 300.092612 
L 116.80077 300.271177 
L 116.855252 300.188266 
L 116.909734 300.339527 
L 116.964217 300.18592 
L 117.182147 300.353651 
L 117.291111 300.021107 
L 117.345594 300.225601 
L 117.400076 300.139512 
L 117.454559 300.15774 
L 117.509041 300.327307 
L 117.563523 300.210681 
L 117.618006 300.185893 
L 117.672488 300.329147 
L 117.726971 300.284031 
L 117.781453 300.088267 
L 117.9449 300.354276 
L 118.271795 300.314296 
L 118.326277 300.373247 
L 118.38076 300.318988 
L 118.489725 300.262582 
L 118.653172 300.356038 
L 118.707654 300.201257 
L 118.762137 300.238413 
L 118.816619 300.445314 
L 118.871102 300.223666 
L 119.034549 300.318275 
L 119.089031 300.382576 
L 119.143514 300.224414 
L 119.197996 300.432232 
L 119.252478 300.268423 
L 119.306961 300.129921 
L 119.361443 300.221723 
L 119.415926 300.374489 
L 119.470408 300.301675 
L 119.524891 300.248808 
L 119.579373 300.336965 
L 119.633855 300.299844 
L 119.688338 300.412622 
L 119.74282 300.309534 
L 119.797303 300.36303 
L 119.851785 300.154033 
L 119.906268 300.286627 
L 120.015232 300.560435 
L 120.17868 300.216536 
L 120.396609 300.37397 
L 120.451092 300.265749 
L 120.505574 300.459042 
L 120.560057 300.186746 
L 120.614539 300.243839 
L 120.723504 300.369513 
L 120.777986 300.22495 
L 120.832469 300.2869 
L 120.995916 300.300812 
L 121.050398 300.147883 
L 121.104881 300.402118 
L 121.159363 300.158478 
L 121.377293 300.384364 
L 121.431775 300.408797 
L 121.486258 300.252467 
L 121.54074 300.418614 
L 121.595223 300.277476 
L 121.649705 300.447624 
L 121.704187 300.386144 
L 121.75867 300.342529 
L 121.813152 300.439883 
L 121.976599 300.356865 
L 122.140047 300.349283 
L 122.249012 300.494558 
L 122.357976 300.260409 
L 122.521424 300.40425 
L 122.684871 300.418332 
L 122.848318 300.497478 
L 122.902801 300.317703 
L 122.957283 300.419249 
L 123.12073 300.54639 
L 123.284178 300.348473 
L 123.393142 300.370253 
L 123.447625 300.343348 
L 123.55659 300.483743 
L 123.611072 300.458336 
L 123.720037 300.334438 
L 123.774519 300.571401 
L 123.829002 300.449678 
L 123.937967 300.355148 
L 123.992449 300.248588 
L 124.046931 300.349891 
L 124.264861 300.450427 
L 124.428308 300.391016 
L 124.537273 300.488418 
L 124.70072 300.420827 
L 125.517957 300.440465 
L 125.626922 300.511382 
L 125.735886 300.554618 
L 125.790369 300.407422 
L 125.844851 300.442202 
L 126.062781 300.464906 
L 126.171746 300.462913 
L 126.335193 300.58288 
L 126.389675 300.439681 
L 126.444158 300.570633 
L 126.607605 300.495034 
L 126.71657 300.465981 
L 126.771052 300.583825 
L 126.825535 300.524432 
L 127.424841 300.497698 
L 127.479324 300.571878 
L 127.533806 300.504579 
L 127.642771 300.492264 
L 127.697254 300.608793 
L 127.751736 300.552278 
L 127.915183 300.551201 
L 128.51449 300.478381 
L 128.568972 300.590298 
L 128.623455 300.434815 
L 128.677937 300.550954 
L 128.73242 300.522129 
L 128.786902 300.636226 
L 128.895867 300.460267 
L 129.059314 300.531113 
L 129.168279 300.56432 
L 129.222761 300.372314 
L 129.277244 300.521855 
L 129.440691 300.52422 
L 129.604138 300.481785 
L 129.658621 300.657702 
L 129.713103 300.552234 
L 129.931033 300.650763 
L 130.039998 300.462728 
L 130.203445 300.52377 
L 130.257927 300.462578 
L 130.31241 300.553549 
L 130.421375 300.564638 
L 130.475857 300.512705 
L 130.530339 300.710901 
L 130.584822 300.530495 
L 130.802752 300.561318 
L 130.966199 300.534378 
L 131.075164 300.731184 
L 131.238611 300.490518 
L 131.402058 300.578394 
L 131.456541 300.473204 
L 131.511023 300.628115 
L 131.565505 300.508814 
L 131.619988 300.599457 
L 131.67447 300.516182 
L 131.837917 300.462163 
L 131.8924 300.627691 
L 131.946882 300.524997 
L 132.11033 300.634459 
L 132.164812 300.503538 
L 132.219294 300.575454 
L 132.273777 300.669794 
L 132.328259 300.453011 
L 132.382742 300.484035 
L 132.600671 300.665073 
L 132.818601 300.619606 
L 132.982048 300.627832 
L 133.036531 300.539206 
L 133.091013 300.602336 
L 133.308943 300.487369 
L 133.417908 300.694558 
L 133.47239 300.456449 
L 133.526873 300.563181 
L 133.744802 300.662908 
L 133.799285 300.480612 
L 133.853767 300.595668 
L 133.908249 300.73513 
L 133.962732 300.584584 
L 134.180662 300.673878 
L 134.235144 300.753649 
L 134.289626 300.645151 
L 134.344109 300.557133 
L 134.398591 300.607327 
L 134.562038 300.629908 
L 135.106863 300.654608 
L 135.161345 300.491294 
L 135.215828 300.725841 
L 135.27031 300.583692 
L 135.542722 300.597752 
L 135.597204 300.518255 
L 135.760652 300.71719 
L 135.978581 300.628433 
L 136.033064 300.772933 
L 136.087546 300.717367 
L 136.305476 300.648112 
L 136.359958 300.734741 
L 136.414441 300.648421 
L 136.63237 300.688678 
L 136.686853 300.537988 
L 136.741335 300.69837 
L 137.013747 300.69669 
L 137.06823 300.754215 
L 137.177195 300.554706 
L 137.231677 300.738855 
L 137.286159 300.672481 
L 137.613054 300.741668 
L 137.667536 300.794134 
L 137.722019 300.73321 
L 137.776501 300.620331 
L 137.830984 300.72301 
L 138.103396 300.61117 
L 138.157878 300.758268 
L 138.212361 300.73728 
L 138.266843 300.643888 
L 138.321325 300.716067 
L 138.484773 300.59573 
L 138.539255 300.725523 
L 138.702702 300.743738 
L 138.757185 300.636067 
L 138.811667 300.678095 
L 139.029597 300.699953 
L 139.410974 300.748764 
L 139.465456 300.664366 
L 139.519939 300.699873 
L 140.064763 300.748649 
L 140.22821 300.639664 
L 140.282693 300.790194 
L 140.337175 300.668662 
L 140.391657 300.640706 
L 140.500622 300.743225 
L 140.609587 300.609041 
L 140.66407 300.754427 
L 141.317859 300.77465 
L 141.372341 300.662961 
L 141.426823 300.76195 
L 141.644753 300.70915 
L 141.699236 300.588611 
L 141.753718 300.73099 
L 141.8082 300.650154 
L 141.917165 300.802873 
L 141.971648 300.717597 
L 142.02613 300.845579 
L 142.080612 300.733396 
L 142.135095 300.657949 
L 142.189577 300.742615 
L 142.461989 300.756711 
L 142.516472 300.851462 
L 142.570954 300.723585 
L 142.625437 300.613016 
L 142.788884 300.849778 
L 142.952331 300.691145 
L 143.115778 300.755419 
L 143.388191 300.753852 
L 143.497155 300.748481 
L 143.551638 300.650339 
L 143.60612 300.726876 
L 143.82405 300.786299 
L 143.878532 300.677962 
L 143.933015 300.75633 
L 144.096462 300.786264 
L 144.150944 300.665224 
L 144.314392 300.840831 
L 144.477839 300.679501 
L 144.641286 300.751109 
L 144.859216 300.701306 
L 145.022663 300.803882 
L 145.18611 300.812578 
L 145.349558 300.700979 
L 145.513005 300.860711 
L 145.567487 300.881483 
L 145.62197 300.689828 
L 145.676452 300.745066 
L 145.730935 300.82208 
L 145.785417 300.709407 
L 146.112312 300.739191 
L 146.275759 300.765321 
L 146.384724 300.780634 
L 146.493688 300.789362 
L 146.657136 300.833789 
L 146.875065 300.720206 
L 146.929548 300.878532 
L 146.98403 300.705356 
L 147.147478 300.848157 
L 147.20196 300.764605 
L 147.637819 300.801155 
L 147.910231 300.769977 
L 147.964714 300.929692 
L 148.019196 300.767569 
L 148.182643 300.792071 
L 148.237126 300.770977 
L 148.291608 300.869439 
L 148.346091 300.826349 
L 148.727468 300.827465 
L 148.890915 300.885728 
L 149.163327 300.829006 
L 149.217809 300.731397 
L 149.272292 300.823329 
L 149.544704 300.859179 
L 149.599186 300.912907 
L 149.708151 300.79795 
L 149.817116 300.834356 
L 149.980563 300.820362 
L 150.144011 300.866205 
L 150.36194 300.904059 
L 151.179177 300.887368 
L 151.615036 300.881536 
L 151.669518 300.742385 
L 151.724001 300.931714 
L 151.778483 300.802519 
L 151.94193 300.86593 
L 151.996413 300.782112 
L 152.050895 300.881634 
L 152.214343 300.833213 
L 152.37779 300.915133 
L 152.59572 300.856122 
L 152.650202 300.759719 
L 152.704684 300.914964 
L 152.759167 300.779554 
L 152.922614 300.842585 
L 153.303991 300.778908 
L 153.358473 300.947341 
L 153.412956 300.882148 
L 153.521921 300.853712 
L 153.576403 300.912455 
L 153.630885 300.775102 
L 153.685368 300.861349 
L 153.794333 300.899317 
L 153.848815 300.734838 
L 153.903298 300.897819 
L 154.012262 300.849211 
L 154.066745 300.955573 
L 154.121227 300.86679 
L 154.17571 300.919584 
L 154.230192 300.853623 
L 154.666051 300.82704 
L 154.829499 300.940441 
L 154.883981 300.933931 
L 154.992946 300.763038 
L 155.210876 300.923148 
L 155.428805 300.788539 
L 155.592253 300.967354 
L 155.864665 300.882024 
L 155.919147 300.981062 
L 155.97363 300.907801 
L 156.137077 300.820034 
L 156.300524 300.879852 
L 156.736383 300.898297 
L 157.008796 300.885711 
L 157.172243 300.897136 
L 157.281208 300.778633 
L 157.33569 300.951936 
L 157.390172 300.929515 
L 157.662585 300.864424 
L 157.771549 300.947625 
L 157.880514 300.842142 
L 157.934997 300.960878 
L 157.989479 300.867818 
L 158.152926 300.960008 
L 158.207409 300.858771 
L 158.261891 300.913608 
L 158.479821 300.958323 
L 158.534303 300.871531 
L 158.588786 301.017921 
L 158.643268 300.819388 
L 158.697751 300.927449 
L 158.91568 300.871788 
L 159.079127 301.007633 
L 159.188092 300.81078 
L 159.242575 300.87652 
L 159.406022 300.92423 
L 159.460504 300.902871 
L 159.623952 300.980929 
L 159.732917 300.874889 
L 159.896364 300.939359 
L 160.7136 300.889504 
L 160.768083 300.846713 
L 160.822565 300.937922 
L 160.986012 300.960026 
L 161.203942 300.906036 
L 161.421872 300.931111 
L 161.585319 300.896711 
L 161.748766 300.981071 
L 162.021178 300.935811 
L 163.219791 300.931546 
L 163.383239 301.067188 
L 163.546686 300.939536 
L 163.764616 300.955324 
L 164.254957 300.893723 
L 164.418405 300.985259 
L 164.636334 300.917207 
L 165.235641 300.935341 
L 165.399088 300.980503 
L 165.453571 301.036184 
L 165.562535 300.900203 
L 165.617018 300.931058 
L 165.725983 301.014628 
L 165.780465 300.917784 
L 165.834948 300.995358 
L 166.10736 300.929338 
L 166.216324 301.001899 
L 166.270807 300.898998 
L 166.325289 301.000195 
L 166.543219 300.979607 
L 166.761149 300.894672 
L 166.815631 301.009098 
L 166.870114 300.975011 
L 166.979078 300.959609 
L 167.088043 300.9918 
L 167.197008 300.911781 
L 167.360455 301.023204 
L 167.523903 300.949985 
L 167.796315 301.003346 
L 168.014244 300.986768 
L 168.123209 300.988889 
L 168.177692 300.921783 
L 168.232174 300.972287 
L 169.103893 301.002183 
L 169.158375 300.939607 
L 169.212858 301.021109 
L 169.430787 301.010563 
L 169.539752 301.024837 
L 169.648717 301.104299 
L 169.757682 300.906887 
L 169.812164 301.027367 
L 170.084576 300.938986 
L 170.248024 301.042009 
L 170.356988 300.989945 
L 170.901813 301.020025 
L 171.06526 301.007545 
L 171.174225 301.137728 
L 171.337672 300.963051 
L 171.501119 301.024962 
L 171.664566 300.990717 
L 171.773531 301.038617 
L 171.828014 301.046174 
L 171.882496 300.926021 
L 171.936979 301.019333 
L 172.209391 301.047843 
L 172.372838 300.96762 
L 172.481803 301.016679 
L 172.536285 301.022023 
L 172.590768 300.89781 
L 172.64525 301.018561 
L 172.699732 300.962519 
L 172.754215 301.096639 
L 172.808697 300.960567 
L 173.190074 300.98494 
L 173.244557 300.922137 
L 173.299039 301.05978 
L 173.353522 300.987691 
L 173.462486 301.00079 
L 173.516969 300.912038 
L 173.571451 301.024908 
L 174.007311 301.046778 
L 174.116275 301.109826 
L 174.170758 300.91093 
L 174.22524 301.06343 
L 174.279723 300.983742 
L 174.334205 301.029339 
L 174.552135 301.015951 
L 174.606617 301.14805 
L 174.6611 301.037338 
L 174.715582 301.098842 
L 174.770064 301.02885 
L 176.295572 301.149713 
L 176.350055 300.952042 
L 176.404537 301.093209 
L 176.459019 301.06057 
L 176.513502 300.896843 
L 176.567984 301.012462 
L 176.731432 300.999902 
L 176.785914 301.089664 
L 176.840396 300.967123 
L 177.60315 301.005601 
L 177.657633 300.938605 
L 177.712115 301.067214 
L 177.766598 301.01833 
L 177.984527 301.002459 
L 178.03901 301.10724 
L 178.093492 301.018232 
L 178.311422 301.106094 
L 178.474869 301.06121 
L 178.583834 301.037152 
L 179.019693 301.008432 
L 179.18314 301.143622 
L 179.346588 300.986262 
L 179.564517 301.124874 
L 180.000377 301.002645 
L 180.054859 301.117079 
L 180.109342 301.076186 
L 180.708648 301.117034 
L 180.817613 301.090348 
L 180.872095 301.005982 
L 180.926578 301.061139 
L 182.070709 300.978995 
L 182.125191 300.923538 
L 182.179674 301.091147 
L 182.234156 300.944663 
L 182.397603 301.104396 
L 182.56105 300.939811 
L 182.724498 301.060544 
L 182.942427 301.041059 
L 183.160357 301.122803 
L 183.21484 300.98943 
L 183.269322 301.098976 
L 183.323804 301.03582 
L 183.378287 301.136137 
L 183.596216 301.081374 
L 183.650699 301.172558 
L 183.814146 301.058439 
L 184.958277 301.081365 
L 185.012759 301.006586 
L 185.121724 301.146361 
L 185.285171 301.004358 
L 185.612066 301.150789 
L 185.721031 301.000577 
L 185.775513 301.112332 
L 185.993443 301.021153 
L 186.047925 301.1942 
L 186.102408 300.976652 
L 186.15689 301.084777 
L 187.192056 301.113586 
L 187.355503 301.149348 
L 187.573433 301.11155 
L 187.73688 301.166813 
L 188.009292 301.105312 
L 188.227222 301.090552 
L 188.499634 301.103952 
L 188.608599 301.172336 
L 188.663082 301.039292 
L 188.717564 301.099989 
L 188.772046 301.209868 
L 188.826529 301.10197 
L 188.989976 301.05763 
L 189.044458 301.203328 
L 189.098941 301.082281 
L 189.371353 301.045197 
L 189.425835 301.116696 
L 189.480318 301.020789 
L 189.589283 301.123549 
L 189.643765 301.001713 
L 189.698248 301.111844 
L 190.079624 301.0999 
L 190.134107 301.00521 
L 190.188589 301.105925 
L 190.297554 301.103899 
L 191.169273 301.159307 
L 191.223755 301.026062 
L 191.278238 301.126011 
L 191.55065 301.008095 
L 191.659615 301.196682 
L 191.768579 301.076159 
L 191.823062 301.167293 
L 191.877544 301.07854 
L 192.258921 301.119327 
L 192.313404 301.038857 
L 192.476851 301.158062 
L 192.803745 301.095919 
L 192.91271 301.182173 
L 193.021675 301.075529 
L 193.076158 301.221267 
L 193.13064 301.111195 
L 193.294087 301.058376 
L 193.457534 301.181488 
L 194.111324 301.133105 
L 194.274771 301.15928 
L 194.383736 301.106618 
L 194.71063 301.196762 
L 194.765113 301.127087 
L 194.819595 301.172434 
L 195.800279 301.113817 
L 195.854761 301.023568 
L 195.909243 301.13795 
L 195.963726 301.167 
L 196.018208 301.027936 
L 196.072691 301.161139 
L 196.127173 301.058723 
L 196.181655 301.140048 
L 196.50855 301.115274 
L 196.617515 301.192892 
L 196.72648 301.062871 
L 196.780962 301.142084 
L 197.652681 301.180056 
L 197.761646 301.129318 
L 197.816128 301.089886 
L 197.870611 301.201006 
L 197.925093 301.126669 
L 197.979575 301.160223 
L 198.08854 301.052177 
L 198.251987 301.191576 
L 198.469917 301.16065 
L 198.742329 301.224924 
L 199.287153 301.118136 
L 199.450601 301.172816 
L 199.66853 301.147463 
L 199.723013 301.222548 
L 199.777495 301.132767 
L 199.940942 301.046209 
L 200.049907 301.13283 
L 200.213355 301.08706 
L 200.431284 301.16909 
L 200.649214 301.108467 
L 200.758179 301.291654 
L 200.812661 301.157093 
L 201.085073 301.210304 
L 201.68438 301.085008 
L 201.793345 301.214699 
L 201.956792 301.119985 
L 202.011274 301.098522 
L 202.065757 301.207563 
L 202.120239 301.14244 
L 202.174722 301.070225 
L 202.229204 301.129505 
L 202.392651 301.221347 
L 202.556099 301.081134 
L 202.610581 301.247897 
L 202.665063 301.20856 
L 205.716079 301.199903 
L 205.934009 301.221249 
L 206.206421 301.218437 
L 206.533315 301.138101 
L 206.587798 301.265641 
L 206.64228 301.103392 
L 206.696763 301.156248 
L 206.969175 301.146796 
L 207.023657 301.119621 
L 207.078139 301.250586 
L 207.132622 301.218028 
L 207.241587 301.113212 
L 207.296069 301.213107 
L 207.350552 301.140768 
L 207.677446 301.252722 
L 207.731929 301.007624 
L 207.786411 301.174061 
L 208.004341 301.113497 
L 208.167788 301.086376 
L 208.22227 301.156862 
L 208.276753 301.082147 
L 208.494682 301.134679 
L 208.603647 301.247666 
L 208.712612 301.154817 
L 208.930542 301.175787 
L 209.148471 301.190748 
L 209.202954 301.241079 
L 209.257436 301.149144 
L 209.366401 301.157013 
L 209.420884 301.25258 
L 209.475366 301.190108 
L 210.074673 301.13491 
L 210.183637 301.247595 
L 210.23812 301.065988 
L 210.292602 301.124918 
L 210.347085 301.251013 
L 210.401567 301.196104 
L 210.782944 301.184041 
L 210.891909 301.226402 
L 211.109839 301.189965 
L 211.273286 301.241114 
L 211.436733 301.163451 
L 211.654663 301.208649 
L 211.763628 301.238426 
L 211.81811 301.336493 
L 211.927075 301.106191 
L 211.981557 301.248663 
L 212.03604 301.202883 
L 212.744311 301.24731 
L 213.016723 301.170059 
L 213.452583 301.275142 
L 213.507065 301.119407 
L 213.561547 301.244835 
L 213.724995 301.20162 
L 213.888442 301.330104 
L 213.997407 301.197794 
L 214.051889 301.298779 
L 214.106372 301.193648 
L 214.433266 301.258625 
L 214.542231 301.168227 
L 214.760161 301.28663 
L 214.814643 301.107596 
L 214.869126 301.385085 
L 214.923608 301.112795 
L 214.97809 301.143169 
L 215.032573 301.332911 
L 215.087055 301.130403 
L 215.795327 301.230576 
L 215.958774 301.196664 
L 216.013256 301.331512 
L 216.067739 301.192492 
L 216.231186 301.230549 
L 216.394633 301.126705 
L 216.612563 301.223242 
L 216.667045 300.971497 
L 216.721528 301.111728 
L 216.939458 301.27451 
L 216.99394 301.056982 
L 217.048422 301.222121 
L 217.102905 301.226304 
L 217.21187 301.118047 
L 217.538764 301.252705 
L 217.702211 301.116785 
L 217.865659 301.265276 
L 218.029106 301.103881 
L 218.247036 301.257459 
L 218.464965 301.20646 
L 218.519448 301.286087 
L 218.57393 301.200018 
L 219.173237 301.247666 
L 219.336684 301.148664 
L 219.609096 301.273504 
L 219.827026 301.277493 
L 220.099438 301.274207 
L 220.317368 301.278188 
L 220.480815 301.170521 
L 220.644262 301.26264 
L 220.698744 301.198862 
L 220.753227 301.270512 
L 221.080121 301.23483 
L 221.134604 301.28533 
L 221.189086 301.139853 
L 221.243569 301.249072 
L 221.461498 301.270512 
L 221.624946 301.221249 
L 222.060805 301.258224 
L 222.333217 301.266879 
L 222.605629 301.202242 
L 222.769076 301.341698 
L 222.823559 301.15407 
L 222.878041 301.223002 
L 222.932524 301.26191 
L 222.987006 301.098825 
L 223.041489 301.258305 
L 223.095971 301.264163 
L 223.150453 301.11235 
L 223.204936 301.278232 
L 223.313901 301.176818 
L 223.368383 301.245316 
L 223.422865 301.318779 
L 223.477348 301.19839 
L 223.53183 301.287031 
L 223.695278 301.158578 
L 223.858725 301.25445 
L 224.784926 301.239387 
L 224.839408 301.336449 
L 224.893891 301.263424 
L 225.111821 301.205018 
L 225.166303 301.297247 
L 225.220785 301.175947 
L 225.602162 301.312391 
L 225.820092 301.247256 
L 226.582846 301.281046 
L 226.637328 301.140413 
L 226.691811 301.24496 
L 226.90974 301.187661 
L 227.073188 301.280467 
L 227.12767 301.163149 
L 227.182152 301.282863 
L 227.3456 301.147019 
L 227.509047 301.218392 
L 227.835942 301.141035 
L 227.944906 301.269924 
L 228.762143 301.193266 
L 228.816625 301.269238 
L 228.871107 301.180252 
L 228.92559 301.1629 
L 228.980072 301.301282 
L 229.034555 301.138012 
L 229.198002 301.295965 
L 229.306967 301.239476 
L 229.415932 301.238604 
L 229.470414 301.166973 
L 229.524897 301.210873 
L 229.633861 301.271776 
L 229.742826 301.177477 
L 229.797309 301.312507 
L 229.851791 301.2859 
L 230.015238 301.270895 
L 231.050404 301.230202 
L 231.104887 301.34881 
L 231.159369 301.282819 
L 231.268334 301.247159 
L 231.649711 301.302592 
L 231.758676 301.295243 
L 231.976605 301.247381 
L 232.031088 301.321559 
L 232.08557 301.269603 
L 232.575912 301.336244 
L 232.630394 301.249348 
L 232.684877 301.373387 
L 232.739359 301.264742 
L 232.902807 301.303438 
L 232.957289 301.362279 
L 233.066254 301.228191 
L 233.120736 301.275641 
L 233.229701 301.338035 
L 233.284183 301.2594 
L 233.338666 301.309389 
L 233.393148 301.365078 
L 233.447631 301.266068 
L 233.774525 301.282587 
L 233.829008 301.324348 
L 233.88349 301.227612 
L 234.155902 301.254013 
L 234.264867 301.259551 
L 234.482797 301.245805 
L 234.591762 301.402448 
L 234.755209 301.255856 
L 234.918656 301.285473 
L 235.300033 301.257859 
L 235.626928 301.392691 
L 235.735892 301.189583 
L 235.790375 301.288233 
L 236.008304 301.310048 
L 236.280717 301.253087 
L 236.498646 301.345495 
L 236.553129 301.153341 
L 236.607611 301.275071 
L 236.662094 301.19339 
L 236.716576 301.314191 
L 236.771058 301.136021 
L 236.825541 301.276896 
L 236.934506 301.179496 
L 237.152435 301.373565 
L 237.315883 301.296793 
L 237.47933 301.264973 
L 237.642777 301.386636 
L 237.915189 301.215073 
L 237.969672 301.32809 
L 238.024154 301.284564 
L 238.078636 301.201362 
L 238.133119 301.313371 
L 238.351049 301.299679 
L 238.568978 301.240117 
L 238.732425 301.364891 
L 238.786908 301.236379 
L 238.84139 301.306609 
L 239.05932 301.210001 
L 239.168285 301.343971 
L 239.386215 301.260237 
L 239.549662 301.301015 
L 239.658627 301.307473 
L 239.767591 301.304872 
L 239.822074 301.211977 
L 239.876556 301.249678 
L 240.040004 301.308017 
L 240.094486 301.349372 
L 240.148968 301.224346 
L 240.203451 301.282088 
L 240.475863 301.273673 
L 240.584828 301.302031 
L 240.63931 301.279363 
L 240.693793 301.377684 
L 240.748275 301.323439 
L 240.85724 301.290478 
L 240.911722 301.308462 
L 240.966205 301.187688 
L 241.020687 301.267226 
L 241.347582 301.218366 
L 241.511029 301.341582 
L 241.674476 301.343766 
L 241.892406 301.321568 
L 241.946888 301.407826 
L 242.055853 301.286523 
L 242.164818 301.247693 
L 242.2193 301.197741 
L 242.273783 301.26784 
L 242.65516 301.317318 
L 242.818607 301.216168 
L 242.873089 301.206584 
L 243.036537 301.345085 
L 243.308949 301.221329 
L 243.363431 301.351386 
L 243.417914 301.299421 
L 243.581361 301.244461 
L 243.744808 301.268001 
L 244.23515 301.324847 
L 244.289632 301.180545 
L 244.344115 301.264849 
L 244.507562 301.333472 
L 244.562044 301.26565 
L 244.616527 301.355254 
L 244.834457 301.296588 
L 244.943421 301.30057 
L 244.997904 301.221445 
L 245.052386 301.339113 
L 245.106869 301.293729 
L 245.161351 301.200312 
L 245.215833 301.286105 
L 245.379281 301.216755 
L 245.433763 301.384523 
L 245.488246 301.340138 
L 245.542728 301.184254 
L 245.59721 301.249526 
L 246.305482 301.301942 
L 246.359964 301.235035 
L 246.414447 301.314912 
L 246.577894 301.260504 
L 246.632376 301.473194 
L 246.686859 301.272595 
L 246.904788 301.277466 
L 247.231683 301.343329 
L 247.340648 301.296276 
L 247.39513 301.381411 
L 247.449613 301.312436 
L 247.776507 301.289195 
L 247.83099 301.362136 
L 247.885472 301.278312 
L 247.939954 301.257646 
L 248.103402 301.412464 
L 248.266849 301.329364 
L 248.430296 301.280414 
L 248.593744 301.352964 
L 248.757191 301.276727 
L 248.920638 301.354301 
L 249.029603 301.333829 
L 249.302015 301.388357 
L 249.465462 301.3249 
L 249.628909 301.331254 
L 250.173734 301.268847 
L 250.337181 301.335166 
L 250.609593 301.31575 
L 250.718558 301.352821 
L 250.827523 301.21009 
L 250.882005 301.323074 
L 251.099935 301.307144 
L 251.154417 301.24334 
L 251.2089 301.373217 
L 251.263382 301.320356 
L 251.317865 301.249687 
L 251.372347 301.391773 
L 251.426829 301.325043 
L 251.535794 301.334818 
L 251.699241 301.406479 
L 251.808206 301.321336 
L 251.862689 301.379316 
L 251.917171 301.289632 
L 252.026136 301.27849 
L 252.244066 301.259676 
L 252.407513 301.359462 
L 252.57096 301.365755 
L 253.00682 301.347892 
L 253.224749 301.285419 
L 253.333714 301.288403 
L 253.497161 301.314271 
L 254.041986 301.485924 
L 254.096468 301.212635 
L 254.15095 301.285989 
L 254.423362 301.353044 
L 254.477845 301.286719 
L 254.532327 301.334747 
L 254.695775 301.290211 
L 254.913704 301.297479 
L 255.131634 301.383177 
L 255.186116 301.248894 
L 255.240599 301.34496 
L 255.349564 301.404098 
L 255.676458 301.246259 
L 255.839905 301.372629 
L 255.894388 301.210277 
L 255.94887 301.391122 
L 256.003353 301.246936 
L 256.057835 301.322129 
L 256.112317 301.337973 
L 256.1668 301.210677 
L 256.221282 301.335861 
L 256.439212 301.252571 
L 256.548177 301.324749 
L 256.711624 301.268873 
L 256.766107 301.41134 
L 256.820589 301.300249 
L 257.038519 301.404472 
L 257.147483 301.390854 
L 257.310931 301.222023 
L 257.474378 301.298085 
L 257.52886 301.225182 
L 257.583343 301.400031 
L 257.637825 301.308088 
L 258.128167 301.285945 
L 258.291614 301.421625 
L 258.945403 301.295252 
L 258.999886 301.430154 
L 259.054368 301.372058 
L 259.217815 301.368145 
L 259.381263 301.335968 
L 259.435745 301.395723 
L 259.490228 301.222077 
L 259.54471 301.338784 
L 259.980569 301.440414 
L 260.089534 301.260984 
L 260.198499 301.413383 
L 260.252981 301.353062 
L 260.416429 301.250381 
L 260.470911 301.410894 
L 260.525393 301.34283 
L 260.797806 301.349006 
L 260.852288 301.404811 
L 260.90677 301.322129 
L 261.1247 301.372121 
L 261.397112 301.377051 
L 261.451595 301.253346 
L 261.506077 301.349193 
L 261.560559 301.439076 
L 261.724007 301.220946 
L 261.887454 301.340067 
L 262.105384 301.379574 
L 262.159866 301.281732 
L 262.214349 301.357376 
L 262.268831 301.406292 
L 262.323313 301.300703 
L 262.377796 301.361958 
L 262.486761 301.34865 
L 262.813655 301.332269 
L 263.086067 301.359373 
L 263.249514 301.311117 
L 263.358479 301.374234 
L 263.467444 301.320285 
L 263.630891 301.411572 
L 263.685374 301.336128 
L 263.794339 301.433714 
L 263.957786 301.322833 
L 264.121233 301.420305 
L 264.175716 301.32171 
L 264.230198 301.398372 
L 265.319846 301.339256 
L 265.374329 301.424756 
L 265.428811 301.36826 
L 265.755706 301.384247 
L 265.864671 301.399826 
L 265.919153 301.321488 
L 265.973635 301.362698 
L 266.191565 301.399558 
L 266.355012 301.316739 
L 266.572942 301.371666 
L 266.736389 301.325889 
L 267.063284 301.349666 
L 267.172249 301.365345 
L 267.226731 301.404633 
L 267.281214 301.295644 
L 267.335696 301.355825 
L 267.553626 301.320828 
L 267.717073 301.279301 
L 270.604641 301.444938 
L 270.659124 301.283326 
L 270.713606 301.319233 
L 270.931536 301.392022 
L 271.203948 301.357937 
L 271.312913 301.511193 
L 271.367395 301.440004 
L 271.530842 301.323261 
L 271.69429 301.425443 
L 271.803254 301.394965 
L 272.348079 301.429369 
L 272.566008 301.30138 
L 272.729456 301.350263 
L 273.001868 301.39814 
L 273.27428 301.303527 
L 273.437727 301.399826 
L 273.492209 301.398729 
L 273.546692 301.258919 
L 273.601174 301.448365 
L 273.655657 301.366718 
L 273.710139 301.28175 
L 273.764622 301.400227 
L 274.037034 301.315937 
L 274.091516 301.408807 
L 274.145998 301.367485 
L 274.363928 301.415104 
L 274.418411 301.51882 
L 274.581858 301.307055 
L 274.690823 301.339113 
L 274.908752 301.397569 
L 275.017717 301.312605 
L 275.0722 301.474783 
L 275.126682 301.438594 
L 275.453577 301.401993 
L 275.617024 301.420715 
L 275.725989 301.326861 
L 275.780471 301.447705 
L 275.834954 301.253194 
L 275.889436 301.44219 
L 276.052883 301.362867 
L 276.161848 301.39509 
L 276.325295 301.283584 
L 276.488743 301.409404 
L 276.543225 301.364953 
L 276.597707 301.474944 
L 276.65219 301.389829 
L 276.870119 301.432634 
L 276.979084 301.321372 
L 277.033567 301.420786 
L 277.088049 301.326246 
L 277.251496 301.374359 
L 277.360461 301.41398 
L 277.469426 301.283175 
L 277.523909 301.374153 
L 277.632873 301.354898 
L 277.796321 301.4215 
L 277.905285 301.402706 
L 277.959768 301.469285 
L 278.01425 301.419555 
L 278.286662 301.3004 
L 278.45011 301.472105 
L 278.504592 301.291609 
L 278.559075 301.416273 
L 278.668039 301.355593 
L 278.722522 301.418476 
L 278.885969 301.321007 
L 278.994934 301.438228 
L 279.049416 301.375205 
L 279.321828 301.340584 
L 279.430793 301.338659 
L 279.539758 301.355361 
L 279.648723 301.359595 
L 279.703205 301.297416 
L 279.757688 301.43846 
L 279.81217 301.310636 
L 279.921135 301.343195 
L 279.975617 301.463572 
L 280.0301 301.357884 
L 280.193547 301.417441 
L 280.302512 301.299937 
L 280.738371 301.454772 
L 281.010783 301.34725 
L 281.228713 301.434338 
L 281.283196 301.272996 
L 281.337678 301.414132 
L 281.501125 301.304231 
L 281.82802 301.401939 
L 281.882502 301.251734 
L 281.936985 301.41993 
L 281.991467 301.432259 
L 282.045949 301.27768 
L 282.100432 301.502147 
L 282.154914 301.378451 
L 282.318361 301.346199 
L 282.754221 301.407808 
L 282.808703 301.448026 
L 282.972151 301.33775 
L 283.026633 301.511024 
L 283.081115 301.408031 
L 283.244563 301.425122 
L 283.353527 301.362296 
L 283.952834 301.351226 
L 284.170764 301.418806 
L 285.587307 301.412063 
L 285.641789 301.313647 
L 285.696272 301.438184 
L 285.859719 301.388598 
L 285.914201 301.255091 
L 285.968684 301.411153 
L 287.930051 301.362127 
L 287.984533 301.518463 
L 288.039016 301.426514 
L 288.093498 301.364079 
L 288.14798 301.450239 
L 288.202463 301.472507 
L 288.311428 301.38562 
L 288.529357 301.40094 
L 288.801769 301.38677 
L 288.910734 301.388509 
L 288.965217 301.327787 
L 289.074182 301.458699 
L 289.237629 301.329347 
L 289.292111 301.385869 
L 290.218312 301.314307 
L 290.38176 301.429021 
L 290.545207 301.258305 
L 290.599689 301.453835 
L 290.654172 301.333544 
L 290.708654 301.33014 
L 290.763137 301.442181 
L 290.817619 301.342206 
L 290.926584 301.383605 
L 291.090031 301.295047 
L 291.144514 301.289748 
L 291.198996 301.42497 
L 291.253478 301.29356 
L 291.307961 301.383872 
L 291.362443 301.308418 
L 291.52589 301.313015 
L 291.580373 301.28769 
L 291.74382 301.380555 
L 291.907267 301.345432 
L 292.288644 301.413508 
L 292.343127 301.475819 
L 292.397609 301.308854 
L 292.452092 301.358847 
L 292.670021 301.423035 
L 292.724504 301.470838 
L 292.778986 301.311162 
L 292.833469 301.369865 
L 292.887951 301.434427 
L 292.942433 301.386173 
L 292.996916 301.323608 
L 293.051398 301.392878 
L 293.596222 301.436738 
L 293.650705 301.499879 
L 293.705187 301.3927 
L 293.75967 301.450391 
L 294.195529 301.430305 
L 294.358976 301.474846 
L 294.522424 301.326709 
L 294.685871 301.434053 
L 294.740353 301.298209 
L 294.794836 301.33595 
L 294.958283 301.417798 
L 295.012765 301.341912 
L 295.067248 301.391202 
L 295.285177 301.366237 
L 295.448625 301.294032 
L 295.666554 301.444117 
L 295.830002 301.35201 
L 295.938966 301.388643 
L 295.993449 301.325096 
L 296.047931 301.379967 
L 296.156896 301.357269 
L 296.374826 301.340219 
L 296.429308 301.445224 
L 296.483791 301.401342 
L 296.70172 301.344336 
L 296.91965 301.424721 
L 297.355509 301.367262 
L 297.573439 301.446241 
L 297.736886 301.378576 
L 298.009298 301.365274 
L 298.063781 301.46135 
L 298.118263 301.371675 
L 298.663087 301.436881 
L 298.826535 301.341297 
L 298.9355 301.470338 
L 299.044464 301.344309 
L 299.098947 301.394501 
L 299.316877 301.419555 
L 299.371359 301.31746 
L 299.425841 301.43565 
L 300.51549 301.422339 
L 300.787902 301.460689 
L 300.842384 301.362582 
L 300.896867 301.471159 
L 301.550656 301.408129 
L 301.605138 301.514489 
L 301.659621 301.428057 
L 301.714103 301.317104 
L 301.768585 301.435266 
L 301.932033 301.440798 
L 302.09548 301.366647 
L 302.258927 301.408637 
L 302.31341 301.325524 
L 302.367892 301.427575 
L 302.476857 301.309344 
L 302.531339 301.375883 
L 302.749269 301.421447 
L 302.803751 301.331387 
L 302.858234 301.4719 
L 302.912716 301.362796 
L 302.967199 301.332198 
L 303.130646 301.436836 
L 303.185128 301.451917 
L 303.239611 301.349069 
L 303.294093 301.501781 
L 303.348576 301.338231 
L 303.67547 301.43267 
L 303.784435 301.296677 
L 303.838917 301.399513 
L 303.8934 301.346261 
L 304.983048 301.493111 
L 305.146495 301.396151 
L 305.200978 301.357661 
L 305.364425 301.479175 
L 305.527872 301.423918 
L 305.636837 301.498638 
L 305.69132 301.342188 
L 305.745802 301.451756 
L 306.181661 301.343917 
L 306.290626 301.396856 
L 306.563038 301.468704 
L 306.672003 301.456432 
L 306.780968 301.319305 
L 306.83545 301.426523 
L 307.27131 301.372174 
L 307.434757 301.431876 
L 307.652687 301.394412 
L 307.707169 301.486165 
L 307.761652 301.411831 
L 307.870616 301.413044 
L 308.088546 301.421224 
L 308.143029 301.358588 
L 308.197511 301.513104 
L 308.251993 301.350165 
L 308.415441 301.455415 
L 308.524405 301.453344 
L 308.742335 301.435775 
L 308.960265 301.412794 
L 309.232677 301.315456 
L 309.396124 301.431876 
L 310.594737 301.362065 
L 310.758185 301.472926 
L 310.921632 301.372156 
L 311.139562 301.334123 
L 311.194044 301.420688 
L 311.248526 301.291885 
L 311.303009 301.332163 
L 311.466456 301.345869 
L 311.629903 301.402278 
L 311.684386 301.291814 
L 311.738868 301.364971 
L 311.956798 301.420439 
L 312.174728 301.382187 
L 312.338175 301.426505 
L 312.392657 301.343837 
L 312.44714 301.474533 
L 312.501622 301.41985 
L 312.556105 301.372887 
L 312.610587 301.541268 
L 312.665069 301.339033 
L 312.719552 301.421081 
L 313.100929 301.441851 
L 313.209894 301.3988 
L 313.373341 301.408156 
L 313.482306 301.329142 
L 313.536788 301.424587 
L 313.591271 301.358856 
L 313.863683 301.424176 
L 313.918165 301.291039 
L 313.972647 301.423507 
L 314.190577 301.379325 
L 314.24506 301.428833 
L 314.299542 301.303278 
L 314.354024 301.369794 
L 314.735401 301.305211 
L 314.898849 301.40391 
L 315.171261 301.484567 
L 315.225743 301.253541 
L 315.280226 301.376926 
L 315.552638 301.264911 
L 315.716085 301.438228 
L 315.770567 301.368109 
L 315.82505 301.423427 
L 316.315392 301.339434 
L 316.369874 301.561317 
L 316.424356 301.308409 
L 316.478839 301.468633 
L 316.696768 301.392085 
L 316.914698 301.488022 
L 317.078145 301.465072 
L 317.350558 301.409895 
L 317.459522 301.519401 
L 317.62297 301.411661 
L 317.786417 301.441423 
L 318.058829 301.535747 
L 318.113311 301.541723 
L 318.167794 301.357831 
L 318.222276 301.453291 
L 318.385724 301.481782 
L 318.494688 301.364935 
L 318.549171 301.46185 
L 318.930548 301.441021 
L 318.98503 301.471686 
L 319.039513 301.315652 
L 319.093995 301.443876 
L 319.257442 301.338187 
L 319.366407 301.450364 
L 319.420889 301.421714 
L 319.856749 301.351716 
L 319.911231 301.515543 
L 319.965714 301.435891 
L 320.56502 301.301336 
L 320.619503 301.468481 
L 320.673985 301.391701 
L 320.728468 301.32106 
L 320.78295 301.430716 
L 320.946397 301.375277 
L 321.164327 301.437407 
L 321.327774 301.282729 
L 321.382257 301.547459 
L 321.436739 301.414792 
L 321.763634 301.384844 
L 321.981563 301.465839 
L 322.14501 301.363527 
L 322.471905 301.49462 
L 322.635352 301.372852 
L 322.744317 301.465902 
L 322.7988 301.347937 
L 322.907764 301.487022 
L 323.071212 301.354327 
L 323.125694 301.518865 
L 323.180176 301.466009 
L 323.725001 301.438719 
L 323.997413 301.476908 
L 324.16086 301.430466 
L 324.433272 301.475229 
L 324.542237 301.427004 
L 324.814649 301.414069 
L 324.869131 301.37706 
L 324.923614 301.498763 
L 324.978096 301.441601 
L 325.304991 301.510291 
L 325.359473 301.338516 
L 325.413956 301.459663 
L 325.577403 301.466312 
L 325.686368 301.475926 
L 325.849815 301.462885 
L 326.394639 301.485022 
L 326.884981 301.383016 
L 327.048428 301.474738 
L 327.102911 301.385727 
L 327.157393 301.485246 
L 327.32084 301.550854 
L 327.375323 301.378299 
L 327.429805 301.443109 
L 327.593252 301.422731 
L 327.647735 301.49629 
L 327.702217 301.415381 
L 328.301524 301.535613 
L 328.464971 301.380279 
L 328.628418 301.501156 
L 328.791866 301.469204 
L 328.846348 301.496022 
L 328.900831 301.372566 
L 328.955313 301.439442 
L 329.33669 301.524974 
L 329.391172 301.6455 
L 329.445655 301.43548 
L 329.500137 301.477149 
L 329.663584 301.462314 
L 329.718067 301.344086 
L 329.881514 301.483273 
L 329.990479 301.441922 
L 330.044961 301.551819 
L 330.208409 301.348382 
L 330.69875 301.453443 
L 330.807715 301.460698 
L 330.862198 301.582569 
L 330.91668 301.474747 
L 331.080127 301.445099 
L 331.13461 301.537417 
L 331.189092 301.459261 
L 331.842881 301.519329 
L 331.897364 301.337643 
L 331.951846 301.42324 
L 332.060811 301.455629 
L 332.7146 301.423061 
L 332.769082 301.527368 
L 332.823565 301.492254 
L 332.987012 301.440655 
L 333.095977 301.560692 
L 333.204942 301.454728 
L 333.368389 301.433812 
L 334.893897 301.453407 
L 335.002862 301.458485 
L 335.166309 301.355406 
L 335.220791 301.471712 
L 335.275274 301.356306 
L 335.384239 301.44078 
L 335.438721 301.261634 
L 335.493203 301.453532 
L 335.602168 301.362822 
L 335.656651 301.513283 
L 335.711133 301.420769 
L 335.87458 301.412812 
L 336.146992 301.378495 
L 336.255957 301.519222 
L 336.746299 301.382704 
L 336.855264 301.49587 
L 336.909746 301.436123 
L 337.018711 301.455852 
L 337.127676 301.448508 
L 337.454571 301.438719 
L 337.563535 301.506166 
L 337.618018 301.292607 
L 337.6725 301.503647 
L 337.835947 301.429672 
L 337.999395 301.437042 
L 338.598701 301.499701 
L 338.653184 301.356832 
L 338.707666 301.496692 
L 338.980078 301.316382 
L 339.034561 301.474738 
L 339.089043 301.27955 
L 339.143526 301.493549 
L 339.361455 301.376088 
L 339.524902 301.511568 
L 339.633867 301.426612 
L 339.68835 301.507005 
L 339.742832 301.366531 
L 339.797315 301.465857 
L 339.851797 301.404231 
L 339.906279 301.53706 
L 339.960762 301.401966 
L 340.287656 301.445259 
L 340.342139 301.558181 
L 340.396621 301.458012 
L 340.560068 301.504951 
L 340.614551 301.35455 
L 340.669033 301.462733 
L 340.777998 301.513881 
L 340.832481 301.415336 
L 340.886963 301.518892 
L 341.05041 301.407844 
L 341.213857 301.466759 
L 341.377305 301.535273 
L 341.431787 301.444653 
L 341.48627 301.489424 
L 341.704199 301.472605 
L 341.867647 301.440102 
L 342.085576 301.425202 
L 342.140059 301.381572 
L 342.249023 301.502183 
L 342.412471 301.400004 
L 342.575918 301.505487 
L 342.739365 301.41382 
L 342.957295 301.508309 
L 343.120742 301.440477 
L 343.229707 301.551354 
L 343.284189 301.421607 
L 343.338672 301.523045 
L 343.393154 301.529771 
L 343.502119 301.392977 
L 343.502119 301.392977 
" clip-path="url(#pca8a8dedcb)" style="fill: none; stroke: #46327e; stroke-linecap: square"/>
   </g>
   <g id="patch_3">
    <path d="M 57.526621 316.009571 
L 57.526621 0 
" style="fill: none; stroke: #000000; stroke-width: 0.8; stroke-linejoin: miter; stroke-linecap: square"/>
   </g>
   <g id="patch_4">
    <path d="M 57.526621 316.009571 
L 357.12 316.009571 
" style="fill: none; stroke: #000000; stroke-width: 0.8; stroke-linejoin: miter; stroke-linecap: square"/>
   </g>
  </g>
 </g>
 <defs>
  <clipPath id="pca8a8dedcb">
   <rect x="57.526621" y="0" width="299.593379" height="316.009571"/>
  </clipPath>
 </defs>
</svg>
