<?xml version="1.0" encoding="utf-8" standalone="no"?>
<!DOCTYPE svg PUBLIC "-//W3C//DTD SVG 1.1//EN"
  "http://www.w3.org/Graphics/SVG/1.1/DTD/svg11.dtd">
<svg xmlns:xlink="http://www.w3.org/1999/xlink" width="285.135868pt" height="285.12pt" viewBox="0 0 285.135868 285.12" xmlns="http://www.w3.org/2000/svg" version="1.1">
 <metadata>
  <rdf:RDF xmlns:dc="http://purl.org/dc/elements/1.1/" xmlns:cc="http://creativecommons.org/ns#" xmlns:rdf="http://www.w3.org/1999/02/22-rdf-syntax-ns#">
   <cc:Work>
    <dc:type rdf:resource="http://purl.org/dc/dcmitype/StillImage"/>
    <dc:date>2023-06-18T18:52:00.576510</dc:date>
    <dc:format>image/svg+xml</dc:format>
    <dc:creator>
     <cc:Agent>
      <dc:title>Matplotlib v3.7.0, https://matplotlib.org/</dc:title>
     </cc:Agent>
    </dc:creator>
   </cc:Work>
  </rdf:RDF>
 </metadata>
 <defs>
  <style type="text/css">*{stroke-linejoin: round; stroke-linecap: butt}</style>
 </defs>
 <g id="figure_1">
  <g id="patch_1">
   <path d="M 0 285.12 
L 285.135868 285.12 
L 285.135868 0 
L 0 0 
L 0 285.12 
z
" style="fill: none"/>
  </g>
  <g id="axes_1">
   <g id="patch_2">
    <path d="M 59.298921 242.237271 
L 274.145392 242.237271 
L 274.145392 0 
L 59.298921 0 
L 59.298921 242.237271 
z
" style="fill: none"/>
   </g>
   <g id="matplotlib.axis_1">
    <g id="xtick_1">
     <g id="line2d_1">
      <defs>
       <path id="m00ce4c63b0" d="M 0 0 
L 0 3.5 
" style="stroke: #000000; stroke-width: 0.8"/>
      </defs>
      <g>
       <use xlink:href="#m00ce4c63b0" x="69.064669" y="242.237271" style="stroke: #000000; stroke-width: 0.8"/>
      </g>
     </g>
     <g id="text_1">
      <!-- $\mathdefault{0}$ -->
      <g transform="translate(64.952526 261.690572) scale(0.18 -0.18)">
       <defs>
        <path id="CMR17-30" d="M 2688 2038 
C 2688 2430 2682 3099 2413 3613 
C 2176 4063 1798 4224 1466 4224 
C 1158 4224 768 4082 525 3620 
C 269 3137 243 2539 243 2038 
C 243 1671 250 1112 448 623 
C 723 -39 1216 -128 1466 -128 
C 1760 -128 2208 -7 2470 604 
C 2662 1048 2688 1568 2688 2038 
z
M 1466 -26 
C 1056 -26 813 328 723 816 
C 653 1196 653 1749 653 2109 
C 653 2604 653 3015 736 3407 
C 858 3954 1216 4121 1466 4121 
C 1728 4121 2067 3947 2189 3420 
C 2272 3054 2278 2623 2278 2109 
C 2278 1691 2278 1176 2202 797 
C 2067 96 1690 -26 1466 -26 
z
" transform="scale(0.015625)"/>
       </defs>
       <use xlink:href="#CMR17-30" transform="scale(0.996264)"/>
      </g>
     </g>
    </g>
    <g id="xtick_2">
     <g id="line2d_2">
      <g>
       <use xlink:href="#m00ce4c63b0" x="166.819911" y="242.237271" style="stroke: #000000; stroke-width: 0.8"/>
      </g>
     </g>
     <g id="text_2">
      <!-- $\mathdefault{5000}$ -->
      <g transform="translate(150.37134 261.690572) scale(0.18 -0.18)">
       <defs>
        <path id="CMR17-35" d="M 730 3750 
C 794 3724 1056 3641 1325 3641 
C 1920 3641 2246 3961 2432 4140 
C 2432 4191 2432 4224 2394 4224 
C 2387 4224 2374 4224 2323 4198 
C 2099 4102 1837 4032 1517 4032 
C 1325 4032 1037 4055 723 4191 
C 653 4224 640 4224 634 4224 
C 602 4224 595 4217 595 4090 
L 595 2231 
C 595 2113 595 2080 659 2080 
C 691 2080 704 2093 736 2139 
C 941 2435 1222 2560 1542 2560 
C 1766 2560 2246 2415 2246 1293 
C 2246 1087 2246 716 2054 422 
C 1894 159 1645 25 1370 25 
C 947 25 518 319 403 812 
C 429 806 480 793 506 793 
C 589 793 749 838 749 1036 
C 749 1209 627 1280 506 1280 
C 358 1280 262 1190 262 1011 
C 262 454 704 -128 1382 -128 
C 2042 -128 2669 441 2669 1267 
C 2669 2054 2170 2662 1549 2662 
C 1222 2662 947 2540 730 2304 
L 730 3750 
z
" transform="scale(0.015625)"/>
       </defs>
       <use xlink:href="#CMR17-35" transform="scale(0.996264)"/>
       <use xlink:href="#CMR17-30" transform="translate(45.690477 0) scale(0.996264)"/>
       <use xlink:href="#CMR17-30" transform="translate(91.380954 0) scale(0.996264)"/>
       <use xlink:href="#CMR17-30" transform="translate(137.071431 0) scale(0.996264)"/>
      </g>
     </g>
    </g>
    <g id="xtick_3">
     <g id="line2d_3">
      <g>
       <use xlink:href="#m00ce4c63b0" x="264.575154" y="242.237271" style="stroke: #000000; stroke-width: 0.8"/>
      </g>
     </g>
     <g id="text_3">
      <!-- $\mathdefault{10000}$ -->
      <g transform="translate(244.014439 261.690572) scale(0.18 -0.18)">
       <defs>
        <path id="CMR17-31" d="M 1702 4083 
C 1702 4217 1696 4224 1606 4224 
C 1357 3927 979 3833 621 3820 
C 602 3820 570 3820 563 3808 
C 557 3795 557 3782 557 3648 
C 755 3648 1088 3686 1344 3839 
L 1344 467 
C 1344 243 1331 166 781 166 
L 589 166 
L 589 0 
C 896 6 1216 12 1523 12 
C 1830 12 2150 6 2458 0 
L 2458 166 
L 2266 166 
C 1715 166 1702 236 1702 467 
L 1702 4083 
z
" transform="scale(0.015625)"/>
       </defs>
       <use xlink:href="#CMR17-31" transform="scale(0.996264)"/>
       <use xlink:href="#CMR17-30" transform="translate(45.690477 0) scale(0.996264)"/>
       <use xlink:href="#CMR17-30" transform="translate(91.380954 0) scale(0.996264)"/>
       <use xlink:href="#CMR17-30" transform="translate(137.071431 0) scale(0.996264)"/>
       <use xlink:href="#CMR17-30" transform="translate(182.761908 0) scale(0.996264)"/>
      </g>
     </g>
    </g>
    <g id="text_4">
     <!-- Train Step -->
     <g transform="translate(128.645583 281.631936) scale(0.18 -0.18)">
      <defs>
       <path id="CMR17-54" d="M 3981 4332 
L 288 4332 
L 179 2924 
L 294 2924 
C 378 3981 467 4166 1453 4166 
C 1568 4166 1754 4166 1805 4159 
C 1926 4140 1926 4064 1926 3917 
L 1926 465 
C 1926 236 1907 166 1376 166 
L 1197 166 
L 1197 0 
C 1504 6 1824 12 2138 12 
C 2451 12 2771 6 3078 0 
L 3078 166 
L 2899 166 
C 2368 166 2349 236 2349 465 
L 2349 3917 
C 2349 4057 2349 4134 2464 4159 
C 2515 4166 2701 4166 2816 4166 
C 3795 4166 3891 3981 3974 2924 
L 4090 2924 
L 3981 4332 
z
" transform="scale(0.015625)"/>
       <path id="CMR17-72" d="M 960 1517 
C 960 2134 1222 2713 1702 2713 
C 1747 2713 1792 2707 1837 2687 
C 1837 2687 1696 2642 1696 2475 
C 1696 2321 1818 2257 1914 2257 
C 1990 2257 2131 2302 2131 2482 
C 2131 2687 1926 2816 1709 2816 
C 1222 2816 1011 2340 947 2115 
L 941 2115 
L 941 2816 
L 198 2745 
L 198 2578 
C 576 2578 634 2540 634 2231 
L 634 443 
C 634 198 608 166 198 166 
L 198 0 
C 352 12 646 12 813 12 
C 998 12 1325 12 1498 0 
L 1498 166 
C 1037 166 960 166 960 455 
L 960 1517 
z
" transform="scale(0.015625)"/>
       <path id="CMR17-61" d="M 2304 1656 
C 2304 2048 2304 2275 2035 2534 
C 1798 2751 1523 2816 1306 2816 
C 800 2816 435 2408 435 1977 
C 435 1740 627 1728 666 1728 
C 749 1728 896 1779 896 1958 
C 896 2118 774 2188 666 2188 
C 640 2188 608 2182 589 2176 
C 723 2594 1069 2713 1293 2713 
C 1613 2713 1965 2421 1965 1875 
L 1965 1632 
C 1587 1619 1133 1568 774 1373 
C 371 1147 256 822 256 576 
C 256 77 832 -64 1171 -64 
C 1523 -64 1850 135 1990 505 
C 2003 219 2182 -39 2464 -39 
C 2598 -39 2938 51 2938 563 
L 2938 926 
L 2822 926 
L 2822 557 
C 2822 161 2650 109 2566 109 
C 2304 109 2304 446 2304 732 
L 2304 1656 
z
M 1965 887 
C 1965 323 1568 38 1216 38 
C 896 38 646 278 646 576 
C 646 771 730 1114 1101 1322 
C 1408 1497 1760 1523 1965 1536 
L 1965 887 
z
" transform="scale(0.015625)"/>
       <path id="CMR17-69" d="M 992 3961 
C 992 4102 877 4224 730 4224 
C 589 4224 467 4108 467 3961 
C 467 3820 582 3699 730 3699 
C 870 3699 992 3814 992 3961 
z
M 243 2745 
L 243 2579 
C 602 2579 653 2540 653 2231 
L 653 443 
C 653 198 627 166 218 166 
L 218 0 
C 371 12 646 12 806 12 
C 960 12 1222 12 1370 0 
L 1370 166 
C 992 166 979 205 979 436 
L 979 2816 
L 243 2745 
z
" transform="scale(0.015625)"/>
       <path id="CMR17-6e" d="M 2656 1954 
C 2656 2282 2592 2816 1837 2816 
C 1331 2816 1069 2424 973 2166 
L 966 2166 
L 966 2816 
L 211 2745 
L 211 2578 
C 589 2578 646 2540 646 2231 
L 646 443 
C 646 198 621 166 211 166 
L 211 0 
C 365 12 646 12 813 12 
C 979 12 1267 12 1421 0 
L 1421 166 
C 1011 166 986 192 986 443 
L 986 1678 
C 986 2269 1344 2713 1792 2713 
C 2266 2713 2317 2289 2317 1980 
L 2317 443 
C 2317 198 2291 166 1882 166 
L 1882 0 
C 2035 12 2317 12 2483 12 
C 2650 12 2938 12 3091 0 
L 3091 166 
C 2682 166 2656 192 2656 443 
L 2656 1954 
z
" transform="scale(0.015625)"/>
       <path id="CMR17-53" d="M 2803 4351 
C 2803 4467 2797 4473 2758 4473 
C 2720 4473 2707 4447 2682 4390 
L 2490 3965 
C 2246 4320 1875 4480 1472 4480 
C 819 4480 294 3958 294 3301 
C 294 3101 339 2817 557 2546 
C 794 2250 1018 2198 1530 2063 
C 1722 2011 2042 1927 2106 1901 
C 2470 1747 2662 1360 2662 999 
C 2662 534 2336 38 1779 38 
C 1094 38 454 425 410 1328 
C 403 1431 397 1437 352 1437 
C 301 1437 294 1431 294 1302 
L 294 0 
C 294 -116 301 -122 339 -122 
C 384 -122 397 -90 486 109 
C 493 128 493 141 614 386 
C 934 -39 1472 -128 1779 -128 
C 2477 -128 2970 457 2970 1141 
C 2970 1476 2848 1734 2778 1850 
C 2509 2263 2221 2340 1914 2417 
C 1869 2437 1856 2437 1498 2527 
C 1152 2617 1005 2662 845 2836 
C 666 3036 602 3243 602 3449 
C 602 3868 934 4326 1478 4326 
C 2157 4326 2579 3842 2675 3036 
C 2694 2920 2701 2914 2746 2914 
C 2803 2914 2803 2933 2803 3043 
L 2803 4351 
z
" transform="scale(0.015625)"/>
       <path id="CMR17-74" d="M 966 2585 
L 1862 2585 
L 1862 2752 
L 966 2752 
L 966 3968 
L 851 3968 
C 838 3292 614 2700 70 2687 
L 70 2585 
L 627 2585 
L 627 778 
C 627 655 627 -64 1370 -64 
C 1747 -64 1965 308 1965 784 
L 1965 1151 
L 1850 1151 
L 1850 790 
C 1850 347 1677 51 1408 51 
C 1222 51 966 179 966 765 
L 966 2585 
z
" transform="scale(0.015625)"/>
       <path id="CMR17-65" d="M 2438 1503 
C 2464 1529 2464 1542 2464 1606 
C 2464 2251 2118 2816 1389 2816 
C 710 2816 173 2175 173 1394 
C 173 554 781 -64 1459 -64 
C 2176 -64 2458 619 2458 755 
C 2458 800 2419 800 2406 800 
C 2362 800 2355 787 2330 709 
C 2189 270 1837 51 1504 51 
C 1229 51 954 206 781 490 
C 582 819 582 1200 582 1503 
L 2438 1503 
z
M 589 1600 
C 634 2511 1126 2713 1382 2713 
C 1818 2713 2112 2308 2118 1600 
L 589 1600 
z
" transform="scale(0.015625)"/>
       <path id="CMR17-70" d="M 1408 -1114 
C 998 -1114 973 -1088 973 -834 
L 973 380 
C 1158 109 1427 -64 1766 -64 
C 2406 -64 3053 503 3053 1382 
C 3053 2196 2496 2816 1837 2816 
C 1453 2816 1139 2603 960 2345 
L 960 2816 
L 198 2745 
L 198 2577 
C 576 2577 634 2539 634 2228 
L 634 -834 
C 634 -1081 608 -1114 198 -1114 
L 198 -1280 
C 352 -1268 634 -1268 800 -1268 
C 966 -1268 1254 -1268 1408 -1280 
L 1408 -1114 
z
M 973 2015 
C 973 2106 973 2241 1222 2481 
C 1254 2506 1472 2700 1792 2700 
C 2259 2700 2643 2112 2643 1376 
C 2643 639 2234 38 1728 38 
C 1498 38 1248 148 1056 451 
C 973 594 973 632 973 736 
L 973 2015 
z
" transform="scale(0.015625)"/>
      </defs>
      <use xlink:href="#CMR17-54" transform="scale(0.996264)"/>
      <use xlink:href="#CMR17-72" transform="translate(58.702625 0) scale(0.996264)"/>
      <use xlink:href="#CMR17-61" transform="translate(93.983393 0) scale(0.996264)"/>
      <use xlink:href="#CMR17-69" transform="translate(139.67387 0) scale(0.996264)"/>
      <use xlink:href="#CMR17-6e" transform="translate(164.544929 0) scale(0.996264)"/>
      <use xlink:href="#CMR17-53" transform="translate(245.516265 0) scale(0.996264)"/>
      <use xlink:href="#CMR17-74" transform="translate(296.411634 0) scale(0.996264)"/>
      <use xlink:href="#CMR17-65" transform="translate(331.692402 0) scale(0.996264)"/>
      <use xlink:href="#CMR17-70" transform="translate(372.178063 0) scale(0.996264)"/>
     </g>
    </g>
   </g>
   <g id="matplotlib.axis_2">
    <g id="ytick_1">
     <g id="line2d_4">
      <defs>
       <path id="mf784ca1ab5" d="M 0 0 
L -3.5 0 
" style="stroke: #000000; stroke-width: 0.8"/>
      </defs>
      <g>
       <use xlink:href="#mf784ca1ab5" x="59.298921" y="98.987647" style="stroke: #000000; stroke-width: 0.8"/>
      </g>
     </g>
     <g id="text_5">
      <!-- $\mathdefault{10^{-1}}$ -->
      <g transform="translate(19.941364 105.214297) scale(0.18 -0.18)">
       <defs>
        <path id="CMSY10-0" d="M 4218 1472 
C 4326 1472 4442 1472 4442 1600 
C 4442 1728 4326 1728 4218 1728 
L 755 1728 
C 646 1728 531 1728 531 1600 
C 531 1472 646 1472 755 1472 
L 4218 1472 
z
" transform="scale(0.015625)"/>
       </defs>
       <use xlink:href="#CMR17-31" transform="scale(0.996264)"/>
       <use xlink:href="#CMR17-30" transform="translate(45.690477 0) scale(0.996264)"/>
       <use xlink:href="#CMSY10-0" transform="translate(91.380954 36.153639) scale(0.697382)"/>
       <use xlink:href="#CMR17-31" transform="translate(145.621947 36.153639) scale(0.697382)"/>
      </g>
     </g>
    </g>
    <g id="ytick_2">
     <g id="line2d_5">
      <defs>
       <path id="med4b74bfae" d="M 0 0 
L -2 0 
" style="stroke: #000000; stroke-width: 0.6"/>
      </defs>
      <g>
       <use xlink:href="#med4b74bfae" x="59.298921" y="239.402083" style="stroke: #000000; stroke-width: 0.6"/>
      </g>
     </g>
    </g>
    <g id="ytick_3">
     <g id="line2d_6">
      <g>
       <use xlink:href="#med4b74bfae" x="59.298921" y="204.027525" style="stroke: #000000; stroke-width: 0.6"/>
      </g>
     </g>
    </g>
    <g id="ytick_4">
     <g id="line2d_7">
      <g>
       <use xlink:href="#med4b74bfae" x="59.298921" y="178.928877" style="stroke: #000000; stroke-width: 0.6"/>
      </g>
     </g>
    </g>
    <g id="ytick_5">
     <g id="line2d_8">
      <g>
       <use xlink:href="#med4b74bfae" x="59.298921" y="159.460853" style="stroke: #000000; stroke-width: 0.6"/>
      </g>
     </g>
    </g>
    <g id="ytick_6">
     <g id="line2d_9">
      <g>
       <use xlink:href="#med4b74bfae" x="59.298921" y="143.554319" style="stroke: #000000; stroke-width: 0.6"/>
      </g>
     </g>
    </g>
    <g id="ytick_7">
     <g id="line2d_10">
      <g>
       <use xlink:href="#med4b74bfae" x="59.298921" y="130.105536" style="stroke: #000000; stroke-width: 0.6"/>
      </g>
     </g>
    </g>
    <g id="ytick_8">
     <g id="line2d_11">
      <g>
       <use xlink:href="#med4b74bfae" x="59.298921" y="118.455671" style="stroke: #000000; stroke-width: 0.6"/>
      </g>
     </g>
    </g>
    <g id="ytick_9">
     <g id="line2d_12">
      <g>
       <use xlink:href="#med4b74bfae" x="59.298921" y="108.179761" style="stroke: #000000; stroke-width: 0.6"/>
      </g>
     </g>
    </g>
    <g id="ytick_10">
     <g id="line2d_13">
      <g>
       <use xlink:href="#med4b74bfae" x="59.298921" y="38.51444" style="stroke: #000000; stroke-width: 0.6"/>
      </g>
     </g>
    </g>
    <g id="ytick_11">
     <g id="line2d_14">
      <g>
       <use xlink:href="#med4b74bfae" x="59.298921" y="3.139882" style="stroke: #000000; stroke-width: 0.6"/>
      </g>
     </g>
    </g>
    <g id="text_6">
     <!-- Train Loss -->
     <g transform="translate(12.4533 158.935783) rotate(-90) scale(0.18 -0.18)">
      <defs>
       <path id="CMR17-4c" d="M 3469 1612 
L 3354 1612 
C 3302 981 3219 166 2125 166 
L 1530 166 
C 1274 166 1261 198 1261 414 
L 1261 3892 
C 1261 4121 1274 4185 1760 4185 
L 1901 4185 
L 1901 4352 
C 1638 4339 1331 4339 1069 4339 
C 870 4339 512 4339 326 4352 
L 326 4185 
C 768 4185 838 4185 838 3898 
L 838 453 
C 838 166 768 166 326 166 
L 326 0 
L 3315 0 
L 3469 1612 
z
" transform="scale(0.015625)"/>
       <path id="CMR17-6f" d="M 2758 1356 
C 2758 2176 2163 2816 1466 2816 
C 768 2816 173 2176 173 1356 
C 173 550 768 -64 1466 -64 
C 2163 -64 2758 550 2758 1356 
z
M 1466 51 
C 1165 51 909 230 762 480 
C 602 768 582 1126 582 1408 
C 582 1676 595 2009 762 2297 
C 890 2508 1139 2713 1466 2713 
C 1754 2713 1997 2553 2150 2329 
C 2349 2028 2349 1606 2349 1408 
C 2349 1158 2336 774 2163 467 
C 1984 172 1709 51 1466 51 
z
" transform="scale(0.015625)"/>
       <path id="CMR17-73" d="M 1978 2688 
C 1978 2803 1971 2809 1933 2809 
C 1907 2809 1901 2803 1824 2707 
C 1805 2681 1747 2617 1728 2592 
C 1523 2809 1235 2816 1126 2816 
C 416 2816 160 2444 160 2073 
C 160 1497 813 1363 998 1324 
C 1402 1241 1542 1216 1677 1100 
C 1760 1024 1901 883 1901 652 
C 1901 384 1747 38 1158 38 
C 602 38 403 460 288 1024 
C 269 1113 269 1120 218 1120 
C 166 1120 160 1113 160 985 
L 160 64 
C 160 -52 166 -58 205 -58 
C 237 -58 243 -52 275 0 
C 314 57 410 211 448 275 
C 576 102 800 -64 1158 -64 
C 1792 -64 2131 281 2131 780 
C 2131 1107 1958 1280 1875 1356 
C 1683 1555 1459 1600 1190 1651 
C 838 1728 390 1817 390 2208 
C 390 2374 480 2726 1126 2726 
C 1811 2726 1850 2086 1862 1881 
C 1869 1849 1901 1843 1920 1843 
C 1978 1843 1978 1862 1978 1971 
L 1978 2688 
z
" transform="scale(0.015625)"/>
      </defs>
      <use xlink:href="#CMR17-54" transform="scale(0.996264)"/>
      <use xlink:href="#CMR17-72" transform="translate(58.702625 0) scale(0.996264)"/>
      <use xlink:href="#CMR17-61" transform="translate(93.983393 0) scale(0.996264)"/>
      <use xlink:href="#CMR17-69" transform="translate(139.67387 0) scale(0.996264)"/>
      <use xlink:href="#CMR17-6e" transform="translate(164.544929 0) scale(0.996264)"/>
      <use xlink:href="#CMR17-4c" transform="translate(245.516265 0) scale(0.996264)"/>
      <use xlink:href="#CMR17-6f" transform="translate(302.897673 0) scale(0.996264)"/>
      <use xlink:href="#CMR17-73" transform="translate(348.58815 0) scale(0.996264)"/>
      <use xlink:href="#CMR17-73" transform="translate(384.389487 0) scale(0.996264)"/>
     </g>
    </g>
   </g>
   <g id="line2d_15">
    <path d="M 69.064669 11.010785 
L 69.651201 87.555817 
L 69.846711 90.648805 
L 70.042222 97.085541 
L 70.237732 107.209005 
L 70.433243 104.111612 
L 70.628753 114.524341 
L 70.824264 111.968224 
L 71.019774 113.078543 
L 71.215285 119.907979 
L 71.410795 122.845298 
L 71.801816 120.461352 
L 72.192837 132.552448 
L 72.388347 133.10273 
L 72.583858 127.550051 
L 72.779368 127.760098 
L 72.974879 134.773334 
L 73.170389 132.542392 
L 73.56141 140.862667 
L 73.756921 130.440186 
L 73.952431 141.975613 
L 74.147942 140.02943 
L 74.343452 130.347912 
L 74.538963 131.440949 
L 74.734473 137.31824 
L 74.929984 137.200218 
L 75.125494 144.518695 
L 75.321005 142.989831 
L 75.516515 151.688706 
L 75.712026 148.311635 
L 75.907536 153.254025 
L 76.103047 152.163048 
L 76.298557 149.276997 
L 76.494068 150.67439 
L 76.885089 154.528148 
L 77.080599 154.643704 
L 77.27611 155.471222 
L 77.47162 148.629749 
L 78.253662 158.593479 
L 78.449172 158.314588 
L 78.644683 157.256217 
L 78.840193 151.468084 
L 79.035704 162.006179 
L 79.231214 150.404632 
L 79.426725 156.002801 
L 79.817746 158.465434 
L 80.013256 163.8674 
L 80.404277 153.764936 
L 80.599788 157.268583 
L 80.795298 163.506466 
L 80.990809 158.940898 
L 81.186319 159.964202 
L 81.772851 170.923151 
L 81.968361 166.513357 
L 82.163872 165.61448 
L 82.554893 168.680688 
L 82.750403 165.18209 
L 82.945914 164.392841 
L 83.141424 174.560872 
L 83.336935 169.946178 
L 83.532445 170.559693 
L 83.727956 159.022715 
L 83.923466 172.104923 
L 84.118977 162.136361 
L 84.509998 166.124232 
L 84.705508 164.849948 
L 84.901018 168.623032 
L 85.096529 178.784239 
L 85.292039 161.920528 
L 85.48755 177.258316 
L 85.68306 167.221543 
L 85.878571 166.039168 
L 86.269592 173.867131 
L 86.465102 178.047658 
L 86.660613 165.480066 
L 86.856123 173.653025 
L 87.051634 174.523706 
L 87.247144 172.245939 
L 87.442655 179.769633 
L 87.638165 170.937577 
L 88.029186 175.19242 
L 88.420207 164.706717 
L 88.615718 174.242537 
L 89.006739 179.050575 
L 89.202249 171.568397 
L 89.59327 169.966712 
L 89.984291 178.293979 
L 90.179802 175.751322 
L 90.375312 176.316539 
L 90.570823 180.605653 
L 90.766333 178.447051 
L 91.157354 183.409227 
L 91.548375 164.75673 
L 91.743885 180.47302 
L 91.939396 181.47095 
L 92.134906 176.303379 
L 92.330417 180.634309 
L 92.525927 169.611269 
L 92.721438 188.796238 
L 92.916948 174.945864 
L 93.112459 174.815502 
L 93.307969 174.222896 
L 93.69899 189.691992 
L 93.894501 184.348211 
L 94.090011 174.298275 
L 94.285522 178.705023 
L 94.481032 177.703123 
L 94.872053 194.331777 
L 95.067564 185.898741 
L 95.263074 188.912646 
L 95.458585 179.028731 
L 95.654095 188.9126 
L 95.849606 187.148639 
L 96.045116 183.71548 
L 96.240627 178.19751 
L 96.631648 191.457365 
L 96.827158 191.4184 
L 97.022669 186.679557 
L 97.218179 176.346691 
L 97.413689 186.552557 
L 97.6092 184.043583 
L 97.80471 174.042428 
L 98.000221 183.858178 
L 98.195731 184.496061 
L 98.391242 181.117655 
L 98.586752 186.851913 
L 98.782263 182.072878 
L 98.977773 187.356499 
L 99.173284 182.84368 
L 99.368794 196.502737 
L 99.564305 192.33242 
L 99.759815 184.48702 
L 99.955326 190.177664 
L 100.150836 191.83216 
L 100.541857 184.622165 
L 100.737368 191.649379 
L 100.932878 190.118074 
L 101.128389 192.573444 
L 101.323899 193.31491 
L 101.51941 179.111824 
L 101.71492 178.017121 
L 101.910431 189.227219 
L 102.105941 182.145923 
L 102.301452 184.734555 
L 102.496962 189.195388 
L 102.692473 187.962128 
L 102.887983 180.929919 
L 103.083494 194.281546 
L 103.279004 191.865524 
L 103.474515 187.226097 
L 103.865535 193.93734 
L 104.061046 186.183981 
L 104.452067 190.336185 
L 104.647577 189.940228 
L 104.843088 194.417787 
L 105.038598 186.879055 
L 105.234109 190.027588 
L 105.429619 180.307819 
L 105.62513 194.310704 
L 105.82064 191.610657 
L 106.211661 196.652429 
L 106.407172 195.037618 
L 106.602682 194.64699 
L 106.798193 193.638726 
L 106.993703 194.576734 
L 107.189214 188.80581 
L 107.384724 191.363353 
L 107.580235 196.46639 
L 107.775745 197.818986 
L 107.971256 185.020791 
L 108.166766 191.045543 
L 108.557787 194.335616 
L 108.753298 191.872846 
L 108.948808 192.893799 
L 109.144319 195.784725 
L 109.339829 192.604109 
L 109.53534 197.376734 
L 109.73085 196.205181 
L 109.92636 196.945364 
L 110.121871 191.93146 
L 110.512892 196.925518 
L 110.708402 196.971019 
L 110.903913 202.349775 
L 111.099423 189.95166 
L 111.294934 196.487751 
L 111.490444 196.887616 
L 111.685955 191.888201 
L 111.881465 190.026923 
L 112.076976 197.604675 
L 112.467997 193.744091 
L 112.663507 201.202615 
L 112.859018 198.215942 
L 113.054528 199.821303 
L 113.250039 190.526644 
L 113.445549 198.792334 
L 113.64106 182.590022 
L 113.83657 187.334531 
L 114.032081 197.260686 
L 114.227591 190.534255 
L 114.423102 188.744585 
L 114.618612 197.305079 
L 114.814123 190.845146 
L 115.009633 193.601754 
L 115.400654 203.185283 
L 115.596165 199.638805 
L 115.791675 193.429393 
L 116.182696 205.103633 
L 116.573717 194.426511 
L 116.964738 195.630422 
L 117.160248 198.579307 
L 117.355759 193.377531 
L 117.551269 195.268016 
L 117.74678 201.157782 
L 117.94229 198.492248 
L 118.137801 194.243807 
L 118.333311 198.900908 
L 118.528822 194.89343 
L 118.724332 195.647082 
L 118.919843 196.873722 
L 119.115353 203.088776 
L 119.310864 194.129093 
L 119.506374 192.320871 
L 119.701885 198.823734 
L 119.897395 184.769777 
L 120.092906 195.821371 
L 120.483927 206.628422 
L 120.679437 202.486576 
L 120.874948 194.41737 
L 121.461479 203.899226 
L 121.65699 202.122757 
L 121.8525 191.317284 
L 122.048011 201.737202 
L 122.243521 195.863271 
L 122.439031 195.523767 
L 122.634542 199.426056 
L 122.830052 199.851124 
L 123.025563 193.299906 
L 123.221073 199.220459 
L 123.416584 196.830705 
L 123.612094 199.641885 
L 123.807605 197.162935 
L 124.003115 203.15251 
L 124.198626 199.741816 
L 124.589647 207.866603 
L 124.785157 209.380178 
L 124.980668 191.957786 
L 125.176178 191.987385 
L 125.371689 192.833097 
L 125.567199 200.984025 
L 125.76271 202.343723 
L 125.95822 201.26866 
L 126.153731 203.319609 
L 126.349241 203.928103 
L 126.544752 206.103249 
L 126.740262 194.29641 
L 126.935773 197.146714 
L 127.131283 195.479358 
L 127.326794 201.181519 
L 127.522304 201.280857 
L 127.913325 197.230957 
L 128.108836 203.360996 
L 128.304346 205.719635 
L 128.499857 197.702258 
L 128.695367 195.111611 
L 128.890877 198.422282 
L 129.086388 205.168665 
L 129.281898 203.178653 
L 129.477409 203.690914 
L 129.672919 197.921728 
L 129.86843 206.893442 
L 130.06394 201.368727 
L 130.259451 202.737395 
L 130.454961 195.503711 
L 130.650472 198.526011 
L 130.845982 193.734386 
L 131.041493 201.60687 
L 131.237003 204.153012 
L 131.432514 196.876876 
L 131.628024 202.721598 
L 131.823535 204.837863 
L 132.214556 202.603632 
L 132.410066 203.765567 
L 132.605577 203.547983 
L 132.801087 206.266569 
L 132.996598 203.05568 
L 133.192108 197.006858 
L 133.387619 207.858554 
L 133.583129 204.897741 
L 133.77864 207.549866 
L 133.97415 194.722775 
L 134.169661 206.523433 
L 134.560682 198.352128 
L 134.756192 208.803995 
L 134.951702 206.051664 
L 135.147213 210.232484 
L 135.342723 202.41762 
L 135.929255 207.271986 
L 136.124765 209.955733 
L 136.320276 193.732431 
L 136.515786 211.123232 
L 136.711297 206.971475 
L 136.906807 197.441688 
L 137.102318 206.238341 
L 137.297828 199.281013 
L 137.493339 206.141112 
L 137.688849 205.754856 
L 137.88436 204.940776 
L 138.07987 200.962193 
L 138.275381 201.038095 
L 138.470891 197.84932 
L 138.666402 196.485863 
L 138.861912 208.450608 
L 139.057423 209.488721 
L 139.252933 200.705415 
L 139.448444 206.137982 
L 139.643954 205.07881 
L 139.839465 211.974428 
L 140.034975 204.754886 
L 140.230486 205.454628 
L 140.817017 211.541368 
L 141.012528 202.337411 
L 141.208038 203.734854 
L 141.403548 206.614711 
L 141.599059 205.627313 
L 141.794569 206.684806 
L 141.99008 210.77364 
L 142.381101 193.777684 
L 142.576611 213.741537 
L 142.772122 204.002689 
L 142.967632 208.909967 
L 143.358653 199.591376 
L 143.554164 207.172947 
L 143.749674 207.899876 
L 143.945185 208.17391 
L 144.140695 205.625211 
L 144.336206 210.840839 
L 144.531716 205.343001 
L 144.727227 203.49071 
L 144.922737 210.037002 
L 145.118248 206.248864 
L 145.313758 206.479309 
L 145.509269 208.63104 
L 145.704779 213.643928 
L 145.90029 208.391033 
L 146.0958 211.30022 
L 146.291311 200.861331 
L 146.486821 201.92317 
L 146.682332 209.786066 
L 146.877842 211.707938 
L 147.073353 210.092858 
L 147.268863 205.130547 
L 147.464373 206.614086 
L 147.659884 203.358094 
L 147.855394 202.149711 
L 148.050905 206.163957 
L 148.246415 202.573166 
L 148.441926 209.135715 
L 148.637436 200.505222 
L 148.832947 212.156144 
L 149.028457 198.280266 
L 149.223968 210.737527 
L 149.419478 211.406883 
L 149.810499 205.050136 
L 150.00601 199.214984 
L 150.20152 202.818897 
L 150.397031 212.293035 
L 150.592541 206.098157 
L 150.788052 204.808005 
L 151.179073 210.049132 
L 151.374583 202.886964 
L 151.570094 208.047038 
L 151.765604 207.208333 
L 151.961115 210.274731 
L 152.156625 209.248785 
L 152.547646 213.946692 
L 152.743157 209.300617 
L 152.938667 199.534907 
L 153.134178 210.542704 
L 153.329688 211.391964 
L 153.525199 210.356374 
L 153.720709 216.229681 
L 154.11173 210.436881 
L 154.30724 198.344271 
L 154.502751 208.165396 
L 154.698261 201.640285 
L 154.893772 212.691861 
L 155.089282 212.735807 
L 155.480303 199.304389 
L 155.675814 209.252984 
L 155.871324 212.078871 
L 156.066835 212.904447 
L 156.457856 205.905962 
L 156.653366 213.355803 
L 156.848877 209.021633 
L 157.044387 209.261162 
L 157.239898 210.326722 
L 157.435408 210.515187 
L 157.630919 208.565658 
L 157.826429 211.298625 
L 158.02194 210.506073 
L 158.21745 204.902479 
L 158.412961 208.921448 
L 158.608471 217.792953 
L 158.803982 207.581597 
L 158.999492 217.256636 
L 159.390513 203.490408 
L 159.586024 208.196641 
L 159.781534 209.106222 
L 159.977044 214.414108 
L 160.368065 210.47879 
L 160.563576 203.545931 
L 160.759086 210.769789 
L 160.954597 210.351162 
L 161.150107 210.544332 
L 161.345618 199.526635 
L 161.541128 216.135037 
L 161.736639 207.891451 
L 161.932149 207.8267 
L 162.12766 209.065019 
L 162.518681 215.026605 
L 162.714191 211.53929 
L 162.909702 215.733394 
L 163.105212 207.860858 
L 163.300723 207.708936 
L 163.496233 210.946771 
L 163.691744 209.259828 
L 163.887254 211.949238 
L 164.082765 211.535299 
L 164.473786 207.617658 
L 164.669296 214.574192 
L 164.864807 207.294545 
L 165.255828 215.512549 
L 165.451338 213.82651 
L 165.646849 215.293643 
L 165.842359 204.906003 
L 166.23338 215.441106 
L 166.42889 206.146945 
L 166.624401 212.96571 
L 166.819911 210.124999 
L 167.015422 201.744204 
L 167.210932 213.016129 
L 167.406443 211.865914 
L 167.601953 208.160999 
L 167.797464 217.047168 
L 167.992974 210.596986 
L 168.188485 214.541103 
L 168.383995 209.464378 
L 168.579506 209.089504 
L 168.775016 213.714495 
L 168.970527 214.285805 
L 169.166037 208.652582 
L 169.361548 208.439343 
L 169.557058 211.536025 
L 169.752569 216.806908 
L 169.948079 212.989022 
L 170.3391 217.053601 
L 170.534611 213.397666 
L 170.730121 215.409334 
L 170.925632 213.376343 
L 171.121142 219.215024 
L 171.316653 212.949797 
L 171.512163 212.967163 
L 171.707674 209.267702 
L 171.903184 210.886792 
L 172.098695 208.397753 
L 172.294205 215.333986 
L 172.489716 211.80164 
L 172.685226 212.746246 
L 173.076247 217.31528 
L 173.271757 216.299971 
L 173.467268 211.204285 
L 173.662778 222.063253 
L 173.858289 215.819815 
L 174.24931 212.628829 
L 174.44482 216.273128 
L 174.835841 209.235973 
L 175.031352 212.972822 
L 175.226862 212.945333 
L 175.617883 215.128924 
L 175.813394 214.734252 
L 176.008904 216.11108 
L 176.204415 215.507001 
L 176.399925 212.65394 
L 176.595436 206.779971 
L 176.986457 219.488031 
L 177.181967 207.394194 
L 177.377478 215.389859 
L 177.572988 211.740425 
L 177.768499 213.272612 
L 177.964009 216.976644 
L 178.15952 214.240066 
L 178.550541 219.442883 
L 178.746051 217.103903 
L 178.941561 218.350191 
L 179.137072 209.342559 
L 179.332582 214.742912 
L 179.528093 214.707531 
L 179.723603 213.353904 
L 179.919114 213.038404 
L 180.114624 218.456946 
L 180.310135 206.751766 
L 180.701156 214.389741 
L 180.896666 215.669711 
L 181.092177 219.294841 
L 181.287687 210.959415 
L 181.483198 213.847416 
L 181.678708 219.619197 
L 181.874219 212.399303 
L 182.069729 216.801985 
L 182.26524 217.199586 
L 182.46075 215.886263 
L 182.656261 212.075972 
L 183.047282 220.577521 
L 183.438303 211.407779 
L 183.633813 220.228363 
L 183.829324 220.046369 
L 184.024834 212.463029 
L 184.220345 215.323886 
L 184.415855 209.464366 
L 184.611366 216.807115 
L 184.806876 208.037929 
L 185.002387 217.83452 
L 185.197897 217.994469 
L 185.393407 216.96448 
L 185.588918 219.614346 
L 185.784428 218.964132 
L 185.979939 216.03858 
L 186.175449 216.677175 
L 186.37096 213.225735 
L 186.56647 212.200785 
L 186.761981 215.279813 
L 186.957491 215.739824 
L 187.153002 218.017555 
L 187.348512 218.083816 
L 187.544023 212.320117 
L 187.739533 210.644692 
L 187.935044 216.946199 
L 188.130554 208.382845 
L 188.326065 222.573219 
L 188.521575 213.674566 
L 188.717086 216.449871 
L 188.912596 220.86079 
L 189.108107 221.133751 
L 189.303617 218.722177 
L 189.499128 211.857333 
L 189.694638 218.069066 
L 189.890149 216.957569 
L 190.085659 210.287848 
L 190.28117 219.192779 
L 190.47668 215.769429 
L 190.672191 206.710839 
L 190.867701 217.354254 
L 191.063212 219.278555 
L 191.454232 210.365799 
L 191.649743 215.767855 
L 191.845253 206.290604 
L 192.040764 213.385774 
L 192.236274 211.030173 
L 192.431785 220.294216 
L 192.627295 211.615401 
L 193.018316 216.844324 
L 193.213827 217.210517 
L 193.409337 215.15812 
L 193.604848 220.581988 
L 193.800358 220.970743 
L 194.191379 213.583486 
L 194.5824 218.847047 
L 194.777911 218.933172 
L 194.973421 223.015079 
L 195.168932 213.151237 
L 195.364442 214.168337 
L 195.559953 212.541246 
L 195.755463 214.670523 
L 195.950974 210.295484 
L 196.146484 220.614318 
L 196.341995 215.453276 
L 196.537505 218.825069 
L 196.928526 209.920588 
L 197.124037 220.137798 
L 197.319547 213.737475 
L 197.515058 216.903 
L 197.710568 217.644313 
L 197.906078 222.555286 
L 198.101589 216.567402 
L 198.297099 219.106958 
L 198.49261 215.464724 
L 198.68812 218.626411 
L 198.883631 218.138562 
L 199.079141 222.077941 
L 199.470162 209.918328 
L 199.665673 217.805424 
L 199.861183 217.066086 
L 200.056694 219.711417 
L 200.252204 217.175607 
L 200.447715 220.682548 
L 200.643225 216.435395 
L 200.838736 215.43095 
L 201.034246 218.830666 
L 201.229757 210.885163 
L 201.425267 219.216533 
L 201.620778 212.444068 
L 201.816288 220.63588 
L 202.011799 216.600273 
L 202.207309 216.028871 
L 202.40282 215.980066 
L 202.793841 222.025161 
L 202.989351 222.189386 
L 203.184862 221.863697 
L 203.575883 214.722856 
L 204.162414 221.325923 
L 204.357924 219.469278 
L 204.553435 219.904311 
L 204.748945 219.521252 
L 204.944456 220.213827 
L 205.139966 219.86152 
L 205.335477 214.834096 
L 205.530987 220.90838 
L 205.726498 215.245383 
L 205.922008 219.042207 
L 206.313029 219.954126 
L 206.50854 218.620782 
L 206.70405 211.668752 
L 206.899561 217.348959 
L 207.095071 216.419466 
L 207.290582 214.413425 
L 207.486092 221.4047 
L 207.681603 216.629315 
L 208.072624 223.828119 
L 208.268134 220.884418 
L 208.463645 215.337291 
L 208.854666 224.338993 
L 209.245687 215.590662 
L 209.441197 218.497309 
L 209.636708 217.753758 
L 210.027729 220.199977 
L 210.223239 227.746979 
L 210.418749 216.077161 
L 210.61426 217.38368 
L 210.80977 214.302884 
L 211.005281 221.81739 
L 211.200791 219.239048 
L 211.396302 215.057524 
L 211.591812 214.426312 
L 211.787323 219.734612 
L 211.982833 218.127304 
L 212.178344 223.449409 
L 212.373854 219.880324 
L 212.764875 224.512205 
L 212.960386 220.687518 
L 213.155896 219.608103 
L 213.351407 219.211672 
L 213.546917 213.906293 
L 213.742428 219.412282 
L 213.937938 220.931811 
L 214.133449 215.035367 
L 214.328959 223.105529 
L 214.52447 216.9755 
L 214.71998 218.594476 
L 214.915491 223.336864 
L 215.111001 220.202728 
L 215.306512 220.436061 
L 215.502022 225.11559 
L 215.697533 216.843923 
L 215.893043 222.950774 
L 216.088554 211.179422 
L 216.284064 219.44329 
L 216.479574 220.324429 
L 216.675085 219.043211 
L 217.066106 224.27885 
L 217.261616 219.999104 
L 217.457127 221.707307 
L 217.652637 212.852163 
L 217.848148 226.687396 
L 218.043658 219.854382 
L 218.239169 219.430467 
L 218.63019 222.695074 
L 219.021211 217.614793 
L 219.412232 224.717988 
L 219.607742 226.274733 
L 219.998763 220.570659 
L 220.194274 219.363493 
L 220.389784 219.889322 
L 220.585295 209.591499 
L 220.780805 217.65333 
L 220.976316 214.156631 
L 221.171826 217.827705 
L 221.367337 216.898938 
L 221.758358 224.330256 
L 221.953868 219.936118 
L 222.149379 221.953771 
L 222.344889 213.639083 
L 222.5404 213.180121 
L 222.93142 222.458533 
L 223.126931 219.109572 
L 223.322441 224.298788 
L 223.517952 218.133429 
L 223.908973 222.08028 
L 224.104483 217.534304 
L 224.299994 215.947545 
L 224.495504 220.790904 
L 224.691015 219.98041 
L 224.886525 214.883484 
L 225.082036 226.195898 
L 225.277546 219.861955 
L 225.473057 218.083803 
L 225.668567 219.851057 
L 225.864078 219.1823 
L 226.059588 221.973165 
L 226.450609 218.84213 
L 226.64612 219.688559 
L 226.84163 219.353219 
L 227.037141 215.470054 
L 227.232651 222.680436 
L 227.428162 219.236011 
L 227.623672 225.624402 
L 227.819183 224.543421 
L 228.014693 220.556851 
L 228.210204 222.409782 
L 228.405714 216.022382 
L 228.796735 224.412849 
L 228.992245 225.090416 
L 229.187756 222.847399 
L 229.383266 229.09226 
L 229.578777 224.1899 
L 229.774287 224.212501 
L 229.969798 227.108577 
L 230.165308 224.838862 
L 230.360819 219.766779 
L 230.75184 226.351596 
L 230.94735 218.599674 
L 231.142861 222.006428 
L 231.338371 223.086589 
L 231.533882 217.493335 
L 231.729392 221.006271 
L 231.924903 219.377398 
L 232.120413 224.316147 
L 232.315924 225.104126 
L 232.511434 225.22131 
L 232.706945 222.11269 
L 232.902455 221.265358 
L 233.097966 226.211648 
L 233.293476 216.713872 
L 233.488987 220.145147 
L 233.880008 222.158074 
L 234.075518 220.874075 
L 234.271029 214.624981 
L 234.466539 214.085298 
L 234.85756 223.700817 
L 235.053071 221.29956 
L 235.248581 223.237243 
L 235.444091 216.204217 
L 236.030623 224.306579 
L 236.226133 217.708605 
L 236.421644 224.62494 
L 236.617154 226.289064 
L 236.812665 221.430142 
L 237.008175 223.241125 
L 237.203686 223.766656 
L 237.399196 213.591041 
L 237.594707 223.201436 
L 237.790217 222.044698 
L 237.985728 226.942985 
L 238.181238 219.315505 
L 238.572259 225.857646 
L 238.76777 220.479744 
L 238.96328 231.226486 
L 239.158791 223.487065 
L 239.354301 222.750537 
L 239.549812 220.757465 
L 239.940833 228.776215 
L 240.136343 225.216648 
L 240.527364 223.268297 
L 240.722875 226.128745 
L 240.918385 223.513209 
L 241.113896 224.890469 
L 241.504916 212.636104 
L 241.700427 216.434315 
L 241.895937 225.206635 
L 242.091448 222.651261 
L 242.286958 225.404014 
L 242.482469 221.364833 
L 242.677979 219.967378 
L 242.87349 225.177907 
L 243.069 224.534424 
L 243.264511 223.321557 
L 243.460021 227.056093 
L 243.851042 218.065388 
L 244.046553 224.562975 
L 244.242063 224.287814 
L 244.437574 219.84155 
L 244.633084 225.921854 
L 244.828595 225.56019 
L 245.024105 222.365684 
L 245.219616 221.803509 
L 245.415126 226.76506 
L 245.610637 226.64554 
L 245.806147 216.224971 
L 246.001658 225.974586 
L 246.197168 224.879832 
L 246.392679 218.402492 
L 246.588189 230.232193 
L 246.97921 217.861899 
L 247.174721 224.412493 
L 247.370231 225.156311 
L 247.565742 223.605112 
L 247.761252 222.947094 
L 248.152273 227.095508 
L 248.347783 219.24622 
L 248.543294 220.924388 
L 248.738804 224.208262 
L 248.934315 221.511436 
L 249.129825 229.673264 
L 249.325336 221.38409 
L 249.520846 221.848334 
L 249.716357 227.296766 
L 249.911867 220.907868 
L 250.107378 220.017873 
L 250.302888 226.200835 
L 250.498399 226.628504 
L 250.693909 229.365105 
L 250.88942 221.50667 
L 251.08493 218.840551 
L 251.280441 227.049061 
L 251.475951 228.567729 
L 251.671462 225.171854 
L 251.866972 227.592079 
L 252.062483 226.974111 
L 252.257993 222.037746 
L 252.453504 222.83287 
L 252.649014 225.120949 
L 252.844525 228.76818 
L 253.040035 226.614468 
L 253.431056 216.834073 
L 253.822077 226.386956 
L 254.017587 221.04444 
L 254.213098 223.002158 
L 254.408608 221.760565 
L 254.604119 225.211469 
L 254.799629 224.641946 
L 254.99514 229.5527 
L 255.19065 226.980982 
L 255.386161 221.308448 
L 255.581671 222.732607 
L 255.777182 225.452709 
L 255.972692 224.547554 
L 256.168203 228.534954 
L 256.363713 220.366802 
L 256.559224 225.236194 
L 256.754734 220.656897 
L 256.950245 221.31352 
L 257.145755 229.331124 
L 257.341266 224.802557 
L 257.536776 227.035028 
L 257.927797 224.127568 
L 258.123308 223.024615 
L 258.318818 225.33231 
L 258.514329 220.938096 
L 258.709839 228.883213 
L 258.90535 224.469339 
L 259.296371 222.071726 
L 259.491881 223.738134 
L 259.687392 216.597852 
L 259.882902 225.800257 
L 260.078413 226.007306 
L 260.273923 226.465971 
L 260.469433 216.631768 
L 260.860454 220.990782 
L 261.055965 227.163077 
L 261.251475 222.45025 
L 261.642496 226.95818 
L 261.838007 227.16427 
L 262.033517 226.885631 
L 262.229028 222.019829 
L 262.424538 222.681845 
L 262.620049 221.732253 
L 262.815559 222.143006 
L 263.01107 224.69043 
L 263.20658 219.837615 
L 263.402091 226.799385 
L 263.597601 227.094492 
L 263.793112 224.171597 
L 263.988622 228.627414 
L 264.184133 223.097952 
L 264.379643 227.35907 
L 264.379643 227.35907 
" clip-path="url(#pe83260577e)" style="fill: none; stroke: #000000; stroke-linecap: square"/>
   </g>
   <g id="patch_3">
    <path d="M 59.298921 242.237271 
L 59.298921 0 
" style="fill: none; stroke: #000000; stroke-width: 0.8; stroke-linejoin: miter; stroke-linecap: square"/>
   </g>
   <g id="patch_4">
    <path d="M 59.298921 242.237271 
L 274.145392 242.237271 
" style="fill: none; stroke: #000000; stroke-width: 0.8; stroke-linejoin: miter; stroke-linecap: square"/>
   </g>
  </g>
 </g>
 <defs>
  <clipPath id="pe83260577e">
   <rect x="59.298921" y="0" width="214.846471" height="242.237271"/>
  </clipPath>
 </defs>
</svg>
