<?xml version="1.0" encoding="utf-8" standalone="no"?>
<!DOCTYPE svg PUBLIC "-//W3C//DTD SVG 1.1//EN"
  "http://www.w3.org/Graphics/SVG/1.1/DTD/svg11.dtd">
<svg xmlns:xlink="http://www.w3.org/1999/xlink" width="224.39952pt" height="166.79952pt" viewBox="0 0 224.39952 166.79952" xmlns="http://www.w3.org/2000/svg" version="1.1">
 <metadata>
  <rdf:RDF xmlns:dc="http://purl.org/dc/elements/1.1/" xmlns:cc="http://creativecommons.org/ns#" xmlns:rdf="http://www.w3.org/1999/02/22-rdf-syntax-ns#">
   <cc:Work>
    <dc:type rdf:resource="http://purl.org/dc/dcmitype/StillImage"/>
    <dc:date>2023-05-29T21:18:52.160883</dc:date>
    <dc:format>image/svg+xml</dc:format>
    <dc:creator>
     <cc:Agent>
      <dc:title>Matplotlib v3.7.1, https://matplotlib.org/</dc:title>
     </cc:Agent>
    </dc:creator>
   </cc:Work>
  </rdf:RDF>
 </metadata>
 <defs>
  <style type="text/css">*{stroke-linejoin: round; stroke-linecap: butt}</style>
 </defs>
 <g id="figure_1">
  <g id="patch_1">
   <path d="M 0 166.79952 
L 224.39952 166.79952 
L 224.39952 0 
L 0 0 
L 0 166.79952 
z
" style="fill: none"/>
  </g>
  <g id="axes_1">
   <g id="patch_2">
    <path d="M 57.526621 125.689091 
L 224.39952 125.689091 
L 224.39952 0 
L 57.526621 0 
L 57.526621 125.689091 
z
" style="fill: none"/>
   </g>
   <g id="matplotlib.axis_1">
    <g id="xtick_1">
     <g id="line2d_1">
      <defs>
       <path id="ma30303a020" d="M 0 0 
L 0 3.5 
" style="stroke: #000000; stroke-width: 0.8"/>
      </defs>
      <g>
       <use xlink:href="#ma30303a020" x="65.111753" y="125.689091" style="stroke: #000000; stroke-width: 0.8"/>
      </g>
     </g>
     <g id="text_1">
      <!-- $\mathdefault{0}$ -->
      <g transform="translate(60.99961 145.142391) scale(0.18 -0.18)">
       <defs>
        <path id="CMR17-30" d="M 2688 2038 
C 2688 2430 2682 3099 2413 3613 
C 2176 4063 1798 4224 1466 4224 
C 1158 4224 768 4082 525 3620 
C 269 3137 243 2539 243 2038 
C 243 1671 250 1112 448 623 
C 723 -39 1216 -128 1466 -128 
C 1760 -128 2208 -7 2470 604 
C 2662 1048 2688 1568 2688 2038 
z
M 1466 -26 
C 1056 -26 813 328 723 816 
C 653 1196 653 1749 653 2109 
C 653 2604 653 3015 736 3407 
C 858 3954 1216 4121 1466 4121 
C 1728 4121 2067 3947 2189 3420 
C 2272 3054 2278 2623 2278 2109 
C 2278 1691 2278 1176 2202 797 
C 2067 96 1690 -26 1466 -26 
z
" transform="scale(0.015625)"/>
       </defs>
       <use xlink:href="#CMR17-30" transform="scale(0.996264)"/>
      </g>
     </g>
    </g>
    <g id="xtick_2">
     <g id="line2d_2">
      <g>
       <use xlink:href="#ma30303a020" x="125.804945" y="125.689091" style="stroke: #000000; stroke-width: 0.8"/>
      </g>
     </g>
     <g id="text_2">
      <!-- $\mathdefault{20000}$ -->
      <g transform="translate(105.244231 145.142391) scale(0.18 -0.18)">
       <defs>
        <path id="CMR17-32" d="M 2669 990 
L 2554 990 
C 2490 537 2438 460 2413 422 
C 2381 371 1920 371 1830 371 
L 602 371 
C 832 620 1280 1073 1824 1596 
C 2214 1966 2669 2400 2669 3033 
C 2669 3788 2067 4224 1395 4224 
C 691 4224 262 3603 262 3027 
C 262 2777 448 2745 525 2745 
C 589 2745 781 2783 781 3007 
C 781 3206 614 3264 525 3264 
C 486 3264 448 3257 422 3244 
C 544 3788 915 4057 1306 4057 
C 1862 4057 2227 3616 2227 3033 
C 2227 2477 1901 1998 1536 1583 
L 262 147 
L 262 0 
L 2515 0 
L 2669 990 
z
" transform="scale(0.015625)"/>
       </defs>
       <use xlink:href="#CMR17-32" transform="scale(0.996264)"/>
       <use xlink:href="#CMR17-30" transform="translate(45.690477 0) scale(0.996264)"/>
       <use xlink:href="#CMR17-30" transform="translate(91.380954 0) scale(0.996264)"/>
       <use xlink:href="#CMR17-30" transform="translate(137.071431 0) scale(0.996264)"/>
       <use xlink:href="#CMR17-30" transform="translate(182.761908 0) scale(0.996264)"/>
      </g>
     </g>
    </g>
    <g id="xtick_3">
     <g id="line2d_3">
      <g>
       <use xlink:href="#ma30303a020" x="186.498138" y="125.689091" style="stroke: #000000; stroke-width: 0.8"/>
      </g>
     </g>
     <g id="text_3">
      <!-- $\mathdefault{40000}$ -->
      <g transform="translate(165.937424 145.142391) scale(0.18 -0.18)">
       <defs>
        <path id="CMR17-34" d="M 2150 4147 
C 2150 4281 2144 4288 2029 4288 
L 128 1254 
L 128 1088 
L 1779 1088 
L 1779 460 
C 1779 230 1766 166 1318 166 
L 1197 166 
L 1197 0 
C 1402 12 1747 12 1965 12 
C 2182 12 2528 12 2733 0 
L 2733 166 
L 2611 166 
C 2163 166 2150 230 2150 460 
L 2150 1088 
L 2803 1088 
L 2803 1254 
L 2150 1254 
L 2150 4147 
z
M 1798 3723 
L 1798 1254 
L 256 1254 
L 1798 3723 
z
" transform="scale(0.015625)"/>
       </defs>
       <use xlink:href="#CMR17-34" transform="scale(0.996264)"/>
       <use xlink:href="#CMR17-30" transform="translate(45.690477 0) scale(0.996264)"/>
       <use xlink:href="#CMR17-30" transform="translate(91.380954 0) scale(0.996264)"/>
       <use xlink:href="#CMR17-30" transform="translate(137.071431 0) scale(0.996264)"/>
       <use xlink:href="#CMR17-30" transform="translate(182.761908 0) scale(0.996264)"/>
      </g>
     </g>
    </g>
    <g id="text_4">
     <!-- Train Step -->
     <g transform="translate(104.761242 163.700044) scale(0.16 -0.16)">
      <defs>
       <path id="CMR17-54" d="M 3981 4332 
L 288 4332 
L 179 2924 
L 294 2924 
C 378 3981 467 4166 1453 4166 
C 1568 4166 1754 4166 1805 4159 
C 1926 4140 1926 4064 1926 3917 
L 1926 465 
C 1926 236 1907 166 1376 166 
L 1197 166 
L 1197 0 
C 1504 6 1824 12 2138 12 
C 2451 12 2771 6 3078 0 
L 3078 166 
L 2899 166 
C 2368 166 2349 236 2349 465 
L 2349 3917 
C 2349 4057 2349 4134 2464 4159 
C 2515 4166 2701 4166 2816 4166 
C 3795 4166 3891 3981 3974 2924 
L 4090 2924 
L 3981 4332 
z
" transform="scale(0.015625)"/>
       <path id="CMR17-72" d="M 960 1517 
C 960 2134 1222 2713 1702 2713 
C 1747 2713 1792 2707 1837 2687 
C 1837 2687 1696 2642 1696 2475 
C 1696 2321 1818 2257 1914 2257 
C 1990 2257 2131 2302 2131 2482 
C 2131 2687 1926 2816 1709 2816 
C 1222 2816 1011 2340 947 2115 
L 941 2115 
L 941 2816 
L 198 2745 
L 198 2578 
C 576 2578 634 2540 634 2231 
L 634 443 
C 634 198 608 166 198 166 
L 198 0 
C 352 12 646 12 813 12 
C 998 12 1325 12 1498 0 
L 1498 166 
C 1037 166 960 166 960 455 
L 960 1517 
z
" transform="scale(0.015625)"/>
       <path id="CMR17-61" d="M 2304 1656 
C 2304 2048 2304 2275 2035 2534 
C 1798 2751 1523 2816 1306 2816 
C 800 2816 435 2408 435 1977 
C 435 1740 627 1728 666 1728 
C 749 1728 896 1779 896 1958 
C 896 2118 774 2188 666 2188 
C 640 2188 608 2182 589 2176 
C 723 2594 1069 2713 1293 2713 
C 1613 2713 1965 2421 1965 1875 
L 1965 1632 
C 1587 1619 1133 1568 774 1373 
C 371 1147 256 822 256 576 
C 256 77 832 -64 1171 -64 
C 1523 -64 1850 135 1990 505 
C 2003 219 2182 -39 2464 -39 
C 2598 -39 2938 51 2938 563 
L 2938 926 
L 2822 926 
L 2822 557 
C 2822 161 2650 109 2566 109 
C 2304 109 2304 446 2304 732 
L 2304 1656 
z
M 1965 887 
C 1965 323 1568 38 1216 38 
C 896 38 646 278 646 576 
C 646 771 730 1114 1101 1322 
C 1408 1497 1760 1523 1965 1536 
L 1965 887 
z
" transform="scale(0.015625)"/>
       <path id="CMR17-69" d="M 992 3961 
C 992 4102 877 4224 730 4224 
C 589 4224 467 4108 467 3961 
C 467 3820 582 3699 730 3699 
C 870 3699 992 3814 992 3961 
z
M 243 2745 
L 243 2579 
C 602 2579 653 2540 653 2231 
L 653 443 
C 653 198 627 166 218 166 
L 218 0 
C 371 12 646 12 806 12 
C 960 12 1222 12 1370 0 
L 1370 166 
C 992 166 979 205 979 436 
L 979 2816 
L 243 2745 
z
" transform="scale(0.015625)"/>
       <path id="CMR17-6e" d="M 2656 1954 
C 2656 2282 2592 2816 1837 2816 
C 1331 2816 1069 2424 973 2166 
L 966 2166 
L 966 2816 
L 211 2745 
L 211 2578 
C 589 2578 646 2540 646 2231 
L 646 443 
C 646 198 621 166 211 166 
L 211 0 
C 365 12 646 12 813 12 
C 979 12 1267 12 1421 0 
L 1421 166 
C 1011 166 986 192 986 443 
L 986 1678 
C 986 2269 1344 2713 1792 2713 
C 2266 2713 2317 2289 2317 1980 
L 2317 443 
C 2317 198 2291 166 1882 166 
L 1882 0 
C 2035 12 2317 12 2483 12 
C 2650 12 2938 12 3091 0 
L 3091 166 
C 2682 166 2656 192 2656 443 
L 2656 1954 
z
" transform="scale(0.015625)"/>
       <path id="CMR17-53" d="M 2803 4351 
C 2803 4467 2797 4473 2758 4473 
C 2720 4473 2707 4447 2682 4390 
L 2490 3965 
C 2246 4320 1875 4480 1472 4480 
C 819 4480 294 3958 294 3301 
C 294 3101 339 2817 557 2546 
C 794 2250 1018 2198 1530 2063 
C 1722 2011 2042 1927 2106 1901 
C 2470 1747 2662 1360 2662 999 
C 2662 534 2336 38 1779 38 
C 1094 38 454 425 410 1328 
C 403 1431 397 1437 352 1437 
C 301 1437 294 1431 294 1302 
L 294 0 
C 294 -116 301 -122 339 -122 
C 384 -122 397 -90 486 109 
C 493 128 493 141 614 386 
C 934 -39 1472 -128 1779 -128 
C 2477 -128 2970 457 2970 1141 
C 2970 1476 2848 1734 2778 1850 
C 2509 2263 2221 2340 1914 2417 
C 1869 2437 1856 2437 1498 2527 
C 1152 2617 1005 2662 845 2836 
C 666 3036 602 3243 602 3449 
C 602 3868 934 4326 1478 4326 
C 2157 4326 2579 3842 2675 3036 
C 2694 2920 2701 2914 2746 2914 
C 2803 2914 2803 2933 2803 3043 
L 2803 4351 
z
" transform="scale(0.015625)"/>
       <path id="CMR17-74" d="M 966 2585 
L 1862 2585 
L 1862 2752 
L 966 2752 
L 966 3968 
L 851 3968 
C 838 3292 614 2700 70 2687 
L 70 2585 
L 627 2585 
L 627 778 
C 627 655 627 -64 1370 -64 
C 1747 -64 1965 308 1965 784 
L 1965 1151 
L 1850 1151 
L 1850 790 
C 1850 347 1677 51 1408 51 
C 1222 51 966 179 966 765 
L 966 2585 
z
" transform="scale(0.015625)"/>
       <path id="CMR17-65" d="M 2438 1503 
C 2464 1529 2464 1542 2464 1606 
C 2464 2251 2118 2816 1389 2816 
C 710 2816 173 2175 173 1394 
C 173 554 781 -64 1459 -64 
C 2176 -64 2458 619 2458 755 
C 2458 800 2419 800 2406 800 
C 2362 800 2355 787 2330 709 
C 2189 270 1837 51 1504 51 
C 1229 51 954 206 781 490 
C 582 819 582 1200 582 1503 
L 2438 1503 
z
M 589 1600 
C 634 2511 1126 2713 1382 2713 
C 1818 2713 2112 2308 2118 1600 
L 589 1600 
z
" transform="scale(0.015625)"/>
       <path id="CMR17-70" d="M 1408 -1114 
C 998 -1114 973 -1088 973 -834 
L 973 380 
C 1158 109 1427 -64 1766 -64 
C 2406 -64 3053 503 3053 1382 
C 3053 2196 2496 2816 1837 2816 
C 1453 2816 1139 2603 960 2345 
L 960 2816 
L 198 2745 
L 198 2577 
C 576 2577 634 2539 634 2228 
L 634 -834 
C 634 -1081 608 -1114 198 -1114 
L 198 -1280 
C 352 -1268 634 -1268 800 -1268 
C 966 -1268 1254 -1268 1408 -1280 
L 1408 -1114 
z
M 973 2015 
C 973 2106 973 2241 1222 2481 
C 1254 2506 1472 2700 1792 2700 
C 2259 2700 2643 2112 2643 1376 
C 2643 639 2234 38 1728 38 
C 1498 38 1248 148 1056 451 
C 973 594 973 632 973 736 
L 973 2015 
z
" transform="scale(0.015625)"/>
      </defs>
      <use xlink:href="#CMR17-54" transform="scale(0.996264)"/>
      <use xlink:href="#CMR17-72" transform="translate(58.702625 0) scale(0.996264)"/>
      <use xlink:href="#CMR17-61" transform="translate(93.983393 0) scale(0.996264)"/>
      <use xlink:href="#CMR17-69" transform="translate(139.67387 0) scale(0.996264)"/>
      <use xlink:href="#CMR17-6e" transform="translate(164.544929 0) scale(0.996264)"/>
      <use xlink:href="#CMR17-53" transform="translate(245.516265 0) scale(0.996264)"/>
      <use xlink:href="#CMR17-74" transform="translate(296.411634 0) scale(0.996264)"/>
      <use xlink:href="#CMR17-65" transform="translate(331.692402 0) scale(0.996264)"/>
      <use xlink:href="#CMR17-70" transform="translate(372.178063 0) scale(0.996264)"/>
     </g>
    </g>
   </g>
   <g id="matplotlib.axis_2">
    <g id="ytick_1">
     <g id="line2d_4">
      <defs>
       <path id="m692e681a32" d="M 0 0 
L -3.5 0 
" style="stroke: #000000; stroke-width: 0.8"/>
      </defs>
      <g>
       <use xlink:href="#m692e681a32" x="57.526621" y="84.307787" style="stroke: #000000; stroke-width: 0.8"/>
      </g>
     </g>
     <g id="text_5">
      <!-- $\mathdefault{10^{-2}}$ -->
      <g transform="translate(18.169064 90.534437) scale(0.18 -0.18)">
       <defs>
        <path id="CMR17-31" d="M 1702 4083 
C 1702 4217 1696 4224 1606 4224 
C 1357 3927 979 3833 621 3820 
C 602 3820 570 3820 563 3808 
C 557 3795 557 3782 557 3648 
C 755 3648 1088 3686 1344 3839 
L 1344 467 
C 1344 243 1331 166 781 166 
L 589 166 
L 589 0 
C 896 6 1216 12 1523 12 
C 1830 12 2150 6 2458 0 
L 2458 166 
L 2266 166 
C 1715 166 1702 236 1702 467 
L 1702 4083 
z
" transform="scale(0.015625)"/>
        <path id="CMSY10-0" d="M 4218 1472 
C 4326 1472 4442 1472 4442 1600 
C 4442 1728 4326 1728 4218 1728 
L 755 1728 
C 646 1728 531 1728 531 1600 
C 531 1472 646 1472 755 1472 
L 4218 1472 
z
" transform="scale(0.015625)"/>
       </defs>
       <use xlink:href="#CMR17-31" transform="scale(0.996264)"/>
       <use xlink:href="#CMR17-30" transform="translate(45.690477 0) scale(0.996264)"/>
       <use xlink:href="#CMSY10-0" transform="translate(91.380954 36.153639) scale(0.697382)"/>
       <use xlink:href="#CMR17-32" transform="translate(145.621947 36.153639) scale(0.697382)"/>
      </g>
     </g>
    </g>
    <g id="ytick_2">
     <g id="line2d_5">
      <g>
       <use xlink:href="#m692e681a32" x="57.526621" y="39.759814" style="stroke: #000000; stroke-width: 0.8"/>
      </g>
     </g>
     <g id="text_6">
      <!-- $\mathdefault{10^{0}}$ -->
      <g transform="translate(27.93244 45.986464) scale(0.18 -0.18)">
       <use xlink:href="#CMR17-31" transform="scale(0.996264)"/>
       <use xlink:href="#CMR17-30" transform="translate(45.690477 0) scale(0.996264)"/>
       <use xlink:href="#CMR17-30" transform="translate(91.380954 36.153639) scale(0.697382)"/>
      </g>
     </g>
    </g>
    <g id="text_7">
     <!-- Train Loss -->
     <g transform="translate(11.069588 98.806543) rotate(-90) scale(0.16 -0.16)">
      <defs>
       <path id="CMR17-4c" d="M 3469 1612 
L 3354 1612 
C 3302 981 3219 166 2125 166 
L 1530 166 
C 1274 166 1261 198 1261 414 
L 1261 3892 
C 1261 4121 1274 4185 1760 4185 
L 1901 4185 
L 1901 4352 
C 1638 4339 1331 4339 1069 4339 
C 870 4339 512 4339 326 4352 
L 326 4185 
C 768 4185 838 4185 838 3898 
L 838 453 
C 838 166 768 166 326 166 
L 326 0 
L 3315 0 
L 3469 1612 
z
" transform="scale(0.015625)"/>
       <path id="CMR17-6f" d="M 2758 1356 
C 2758 2176 2163 2816 1466 2816 
C 768 2816 173 2176 173 1356 
C 173 550 768 -64 1466 -64 
C 2163 -64 2758 550 2758 1356 
z
M 1466 51 
C 1165 51 909 230 762 480 
C 602 768 582 1126 582 1408 
C 582 1676 595 2009 762 2297 
C 890 2508 1139 2713 1466 2713 
C 1754 2713 1997 2553 2150 2329 
C 2349 2028 2349 1606 2349 1408 
C 2349 1158 2336 774 2163 467 
C 1984 172 1709 51 1466 51 
z
" transform="scale(0.015625)"/>
       <path id="CMR17-73" d="M 1978 2688 
C 1978 2803 1971 2809 1933 2809 
C 1907 2809 1901 2803 1824 2707 
C 1805 2681 1747 2617 1728 2592 
C 1523 2809 1235 2816 1126 2816 
C 416 2816 160 2444 160 2073 
C 160 1497 813 1363 998 1324 
C 1402 1241 1542 1216 1677 1100 
C 1760 1024 1901 883 1901 652 
C 1901 384 1747 38 1158 38 
C 602 38 403 460 288 1024 
C 269 1113 269 1120 218 1120 
C 166 1120 160 1113 160 985 
L 160 64 
C 160 -52 166 -58 205 -58 
C 237 -58 243 -52 275 0 
C 314 57 410 211 448 275 
C 576 102 800 -64 1158 -64 
C 1792 -64 2131 281 2131 780 
C 2131 1107 1958 1280 1875 1356 
C 1683 1555 1459 1600 1190 1651 
C 838 1728 390 1817 390 2208 
C 390 2374 480 2726 1126 2726 
C 1811 2726 1850 2086 1862 1881 
C 1869 1849 1901 1843 1920 1843 
C 1978 1843 1978 1862 1978 1971 
L 1978 2688 
z
" transform="scale(0.015625)"/>
      </defs>
      <use xlink:href="#CMR17-54" transform="scale(0.996264)"/>
      <use xlink:href="#CMR17-72" transform="translate(58.702625 0) scale(0.996264)"/>
      <use xlink:href="#CMR17-61" transform="translate(93.983393 0) scale(0.996264)"/>
      <use xlink:href="#CMR17-69" transform="translate(139.67387 0) scale(0.996264)"/>
      <use xlink:href="#CMR17-6e" transform="translate(164.544929 0) scale(0.996264)"/>
      <use xlink:href="#CMR17-4c" transform="translate(245.516265 0) scale(0.996264)"/>
      <use xlink:href="#CMR17-6f" transform="translate(302.897673 0) scale(0.996264)"/>
      <use xlink:href="#CMR17-73" transform="translate(348.58815 0) scale(0.996264)"/>
      <use xlink:href="#CMR17-73" transform="translate(384.389487 0) scale(0.996264)"/>
     </g>
    </g>
   </g>
   <g id="line2d_6">
    <path d="M 65.111753 5.713141 
L 65.263486 47.118383 
L 65.293832 45.770419 
L 65.445565 55.859379 
L 65.597298 61.995623 
L 65.627645 61.467969 
L 65.779378 70.28253 
L 65.809724 70.408262 
L 65.840071 68.576089 
L 65.870417 72.536778 
L 65.961457 76.616904 
L 66.02215 75.273531 
L 66.173883 78.413941 
L 66.234577 77.253841 
L 66.355963 81.094851 
L 66.38631 79.771576 
L 66.447003 80.647911 
L 66.477349 81.934456 
L 66.507696 80.555428 
L 66.538043 79.283988 
L 66.568389 80.421882 
L 66.598736 81.726887 
L 66.629082 79.767394 
L 66.689776 81.075175 
L 66.720122 80.984795 
L 66.750469 81.199974 
L 66.780815 80.305118 
L 66.811162 81.485357 
L 66.841509 82.667633 
L 66.871855 80.608755 
L 66.902202 79.76502 
L 66.962895 80.938091 
L 67.053935 82.507783 
L 67.084281 81.669541 
L 67.114628 80.743378 
L 67.144974 82.259895 
L 67.175321 81.426569 
L 67.266361 82.705119 
L 67.296707 82.688742 
L 67.327054 81.253926 
L 67.387747 83.586793 
L 67.418094 81.913295 
L 67.53948 83.126187 
L 67.569827 84.528179 
L 67.600173 82.849608 
L 67.63052 84.437765 
L 67.660867 82.606891 
L 67.72156 84.755935 
L 67.751906 83.042641 
L 67.873293 83.935375 
L 67.964333 82.609734 
L 68.085719 84.787561 
L 68.116066 82.501272 
L 68.176759 83.964065 
L 68.237452 85.565706 
L 68.267799 83.79846 
L 68.298145 84.88303 
L 68.328492 82.718212 
L 68.389185 83.507472 
L 68.419532 85.149429 
L 68.510571 84.122796 
L 68.571265 85.767857 
L 68.601611 83.56754 
L 68.692651 84.397814 
L 68.722998 83.901409 
L 68.753344 86.405149 
L 68.844384 85.317679 
L 68.996117 84.177604 
L 69.087157 86.03402 
L 69.117503 85.829025 
L 69.14785 86.169121 
L 69.178196 83.70442 
L 69.23889 85.500919 
L 69.269236 87.395784 
L 69.329929 84.60026 
L 69.420969 87.249112 
L 69.451316 86.731463 
L 69.512009 84.900189 
L 69.572702 86.422349 
L 69.603049 86.960409 
L 69.633395 85.633757 
L 69.663742 86.13778 
L 69.694089 85.465019 
L 69.724435 86.37272 
L 69.785128 86.16574 
L 69.845822 87.152067 
L 69.876168 85.323355 
L 69.936861 86.450985 
L 69.967208 87.157284 
L 69.997555 85.058771 
L 70.058248 88.483634 
L 70.088594 85.86184 
L 70.209981 87.357903 
L 70.240327 85.775457 
L 70.301021 87.992155 
L 70.331367 88.506503 
L 70.361714 87.651851 
L 70.422407 85.479533 
L 70.4831 87.476988 
L 70.513447 87.372265 
L 70.57414 87.44505 
L 70.604486 85.591538 
L 70.66518 88.701218 
L 70.756219 88.172665 
L 70.786566 87.406349 
L 70.816913 88.559634 
L 70.877606 87.728622 
L 70.907952 89.739827 
L 70.938299 87.547778 
L 70.968646 88.986521 
L 70.998992 85.339662 
L 71.059685 88.395048 
L 71.090032 88.512334 
L 71.120379 88.135862 
L 71.181072 87.355665 
L 71.241765 89.938943 
L 71.363151 87.20339 
L 71.484538 90.076974 
L 71.605924 87.316593 
L 71.636271 88.136348 
L 71.666617 91.245528 
L 71.757657 90.133652 
L 71.81835 90.614108 
L 71.848697 89.341479 
L 71.879044 90.332201 
L 71.90939 89.611895 
L 71.939737 88.573065 
L 72.00043 89.291609 
L 72.121816 90.43744 
L 72.152163 88.141174 
L 72.18251 91.068903 
L 72.243203 89.066303 
L 72.364589 91.226907 
L 72.394936 90.115902 
L 72.455629 91.296005 
L 72.485975 90.553883 
L 72.546669 88.941747 
L 72.577015 90.419768 
L 72.607362 91.390009 
L 72.637708 89.304861 
L 72.668055 90.804744 
L 72.698402 86.089349 
L 72.759095 90.611351 
L 72.819788 90.30457 
L 72.850135 92.522565 
L 72.880481 89.200104 
L 72.941174 91.213409 
L 73.001868 92.566326 
L 73.032214 91.182198 
L 73.062561 91.111641 
L 73.092907 91.248297 
L 73.153601 90.358961 
L 73.183947 92.428481 
L 73.24464 89.490794 
L 73.274987 90.283033 
L 73.305334 92.301178 
L 73.396373 91.136529 
L 73.51776 92.09292 
L 73.487413 91.118342 
L 73.548106 91.775971 
L 73.578453 92.097477 
L 73.6088 90.396284 
L 73.639146 92.147032 
L 73.669493 91.03156 
L 73.760533 90.521051 
L 73.790879 92.628704 
L 73.821226 90.109337 
L 73.881919 92.672057 
L 73.912266 91.210189 
L 73.942612 91.728139 
L 73.972959 89.561477 
L 74.033652 91.180992 
L 74.063998 91.23601 
L 74.124692 92.709596 
L 74.155038 91.83623 
L 74.185385 90.24696 
L 74.246078 92.293596 
L 74.276425 92.460076 
L 74.306771 91.226368 
L 74.337118 92.731559 
L 74.367464 92.387117 
L 74.397811 92.413351 
L 74.428158 92.892269 
L 74.458504 90.25623 
L 74.519197 90.949769 
L 74.610237 93.446547 
L 74.640584 93.000353 
L 74.731624 91.02782 
L 74.76197 91.322064 
L 74.822663 93.289026 
L 74.883357 92.974942 
L 74.913703 92.244573 
L 74.974396 92.910533 
L 75.004743 92.871879 
L 75.03509 90.824129 
L 75.065436 94.541246 
L 75.095783 93.087219 
L 75.156476 92.719356 
L 75.186823 90.759376 
L 75.217169 91.5112 
L 75.247516 94.362136 
L 75.308209 90.972782 
L 75.338556 93.642018 
L 75.368902 93.782982 
L 75.399249 94.559966 
L 75.429595 93.280134 
L 75.459942 92.725986 
L 75.490289 95.090746 
L 75.550982 93.15666 
L 75.581328 93.435482 
L 75.611675 95.551195 
L 75.672368 92.821051 
L 75.702715 92.566728 
L 75.733061 93.231184 
L 75.763408 93.089388 
L 75.793754 93.158599 
L 75.854448 93.029555 
L 75.915141 94.226768 
L 75.945487 92.030102 
L 76.006181 94.56182 
L 76.127567 93.471685 
L 76.157914 93.749002 
L 76.218607 92.126324 
L 76.248953 93.736128 
L 76.339993 94.311114 
L 76.431033 94.749601 
L 76.491726 92.299425 
L 76.522073 94.937865 
L 76.552419 91.820483 
L 76.613113 94.709943 
L 76.643459 93.506881 
L 76.704152 95.44903 
L 76.764846 92.55855 
L 76.825539 94.358468 
L 76.855885 95.521827 
L 76.916579 93.980684 
L 76.946925 94.868543 
L 77.007618 93.393286 
L 77.068312 95.374847 
L 77.129005 94.631487 
L 77.159351 91.891094 
L 77.220045 93.967115 
L 77.250391 95.640744 
L 77.341431 94.838343 
L 77.371778 92.794809 
L 77.432471 94.558488 
L 77.462817 94.932347 
L 77.493164 94.149627 
L 77.52351 94.12814 
L 77.584204 95.019621 
L 77.61455 91.890514 
L 77.675243 95.864329 
L 77.766283 93.916132 
L 77.79663 94.51241 
L 77.826976 96.562065 
L 77.88767 94.708932 
L 77.918016 92.919253 
L 77.978709 95.580889 
L 78.009056 96.118057 
L 78.039403 94.066887 
L 78.100096 96.162697 
L 78.130442 95.207834 
L 78.160789 96.75912 
L 78.191136 94.87347 
L 78.221482 95.813869 
L 78.282175 96.200284 
L 78.342869 93.120761 
L 78.403562 96.655856 
L 78.464255 94.792878 
L 78.494602 94.286056 
L 78.524948 95.689962 
L 78.555295 93.773724 
L 78.585641 95.354325 
L 78.615988 93.284086 
L 78.646335 97.103217 
L 78.676681 94.728349 
L 78.798068 98.069991 
L 78.889107 94.095867 
L 78.949801 94.464404 
L 78.980147 94.507338 
L 79.04084 95.953815 
L 79.071187 94.155751 
L 79.101534 95.804311 
L 79.13188 95.77752 
L 79.192573 94.523654 
L 79.253266 96.958742 
L 79.404999 92.256737 
L 79.526386 97.548648 
L 79.617426 95.196045 
L 79.647772 97.061817 
L 79.678119 96.258487 
L 79.708465 92.220413 
L 79.769159 94.6373 
L 79.799505 97.460267 
L 79.890545 97.055712 
L 79.920892 94.706625 
L 80.011931 95.279241 
L 80.042278 98.314036 
L 80.133318 97.58685 
L 80.224358 94.377473 
L 80.254704 95.441195 
L 80.315397 97.66411 
L 80.376091 97.239389 
L 80.406437 97.124635 
L 80.436784 97.302752 
L 80.46713 97.880842 
L 80.527824 94.202416 
L 80.588517 96.67743 
L 80.618863 95.813413 
L 80.64921 96.55038 
L 80.679557 97.423621 
L 80.709903 95.657408 
L 80.74025 95.6671 
L 80.83129 97.658362 
L 80.800943 95.199587 
L 80.861636 96.393773 
L 80.891983 96.398976 
L 80.922329 95.915903 
L 80.952676 96.534316 
L 80.983022 97.596819 
L 81.043716 96.729101 
L 81.074062 95.609745 
L 81.104409 96.23127 
L 81.195449 98.419535 
L 81.225795 96.031679 
L 81.286488 97.47078 
L 81.316835 98.113584 
L 81.347182 95.861284 
L 81.377528 99.593505 
L 81.438221 96.986818 
L 81.498915 98.169118 
L 81.529261 97.651023 
L 81.559608 96.5087 
L 81.620301 98.36151 
L 81.650648 99.280463 
L 81.711341 98.207982 
L 81.802381 96.405153 
L 81.832727 97.512508 
L 81.954114 99.131854 
L 82.0755 94.588273 
L 82.16654 98.876584 
L 82.196886 96.357692 
L 82.287926 98.51387 
L 82.318273 95.880679 
L 82.378966 97.102178 
L 82.409313 98.624301 
L 82.500352 98.038432 
L 82.530699 96.356869 
L 82.561045 97.402413 
L 82.591392 99.482795 
L 82.682432 98.39278 
L 82.712778 99.360311 
L 82.743125 98.445517 
L 82.773472 96.456387 
L 82.834165 99.45308 
L 82.925205 97.492593 
L 82.955551 98.358774 
L 83.016244 99.722604 
L 83.167977 96.249074 
L 83.198324 96.400933 
L 83.31971 98.487755 
L 83.350057 97.632932 
L 83.380404 97.843948 
L 83.441097 99.472976 
L 83.471443 96.156336 
L 83.532137 97.503387 
L 83.653523 99.229684 
L 83.805256 97.512372 
L 83.835603 101.555953 
L 83.896296 98.082437 
L 83.956989 99.407154 
L 83.987336 97.103106 
L 84.048029 99.034524 
L 84.078375 98.928219 
L 84.139069 98.45853 
L 84.169415 100.476628 
L 84.290801 98.159687 
L 84.351495 99.990389 
L 84.381841 97.876289 
L 84.412188 97.78395 
L 84.442534 100.553061 
L 84.533574 100.451792 
L 84.563921 98.328663 
L 84.624614 99.972307 
L 84.654961 100.533416 
L 84.685307 99.643764 
L 84.746 99.158107 
L 84.776347 100.420657 
L 84.806694 98.658164 
L 84.83704 97.84423 
L 84.92808 100.242993 
L 84.958427 99.775279 
L 84.988773 99.786806 
L 85.079813 96.488223 
L 85.049466 100.511685 
L 85.11016 98.676782 
L 85.140506 99.69146 
L 85.201199 98.941339 
L 85.231546 98.95893 
L 85.292239 95.896867 
L 85.322586 96.919851 
L 85.352932 100.631822 
L 85.443972 99.581044 
L 85.504665 101.406498 
L 85.535012 99.922068 
L 85.626052 98.430002 
L 85.656398 99.163132 
L 85.686745 99.780256 
L 85.717092 99.01707 
L 85.777785 99.638279 
L 85.808131 98.416792 
L 85.868825 99.919394 
L 85.899171 99.676968 
L 85.929518 100.826371 
L 85.959864 98.832224 
L 85.990211 99.675084 
L 86.081251 99.309243 
L 86.141944 100.864415 
L 86.232984 97.999015 
L 86.26333 99.835815 
L 86.324023 98.566918 
L 86.35437 98.848156 
L 86.384717 101.556343 
L 86.475756 100.152422 
L 86.506103 102.221328 
L 86.53645 98.260445 
L 86.566796 99.819178 
L 86.597143 98.552843 
L 86.627489 99.949977 
L 86.657836 100.712428 
L 86.688183 99.475825 
L 86.718529 100.675151 
L 86.870262 97.261566 
L 86.900609 99.486577 
L 86.961302 98.717026 
L 86.991649 97.57913 
L 87.021995 99.804224 
L 87.113035 99.846556 
L 87.173728 98.599139 
L 87.204075 100.767867 
L 87.264768 99.395845 
L 87.295115 98.410073 
L 87.325461 100.496141 
L 87.355808 99.879184 
L 87.386154 101.038098 
L 87.446848 99.657393 
L 87.477194 99.782296 
L 87.568234 101.173205 
L 87.598581 100.733768 
L 87.659274 96.571879 
L 87.750313 97.807645 
L 87.78066 102.312155 
L 87.8717 101.247597 
L 87.902046 97.095449 
L 87.96274 100.510945 
L 88.144819 102.474287 
L 88.175166 102.164461 
L 88.296552 99.165695 
L 88.357245 100.618928 
L 88.387592 100.698328 
L 88.417939 100.670327 
L 88.478632 98.516635 
L 88.508978 102.285848 
L 88.600018 99.983798 
L 88.630365 101.563127 
L 88.660711 99.533369 
L 88.721405 100.901172 
L 88.812444 99.057183 
L 88.842791 100.406615 
L 88.873138 101.542516 
L 88.933831 100.811217 
L 88.964177 99.704288 
L 89.024871 100.95232 
L 89.055217 100.113701 
L 89.085564 101.438369 
L 89.146257 100.839409 
L 89.176604 99.94334 
L 89.20695 102.355315 
L 89.29799 101.407397 
L 89.328337 97.262479 
L 89.358683 101.568654 
L 89.38903 101.12597 
L 89.419376 102.64838 
L 89.449723 100.363768 
L 89.480069 99.522503 
L 89.510416 100.807153 
L 89.540763 100.127961 
L 89.601456 99.91653 
L 89.662149 100.429826 
L 89.692496 102.899224 
L 89.783535 102.81602 
L 89.813882 99.828058 
L 89.904922 100.545064 
L 89.935268 100.522277 
L 90.026308 103.138022 
L 90.056655 101.632372 
L 90.087001 97.686281 
L 90.147695 100.698098 
L 90.178041 100.784777 
L 90.269081 100.502245 
L 90.299428 103.374481 
L 90.329774 99.476543 
L 90.390467 102.9617 
L 90.420814 103.473877 
L 90.5422 101.102551 
L 90.572547 102.241383 
L 90.63324 98.594248 
L 90.693933 100.757233 
L 90.754627 98.007566 
L 90.784973 100.390986 
L 90.845666 101.354142 
L 90.876013 100.595159 
L 90.90636 98.745331 
L 90.936706 100.01171 
L 90.967053 102.150011 
L 91.058093 101.053729 
L 91.118786 102.695133 
L 91.149132 100.684332 
L 91.179479 99.310313 
L 91.209825 102.88553 
L 91.240172 102.517345 
L 91.270519 102.757218 
L 91.300865 104.718659 
L 91.331212 102.742197 
L 91.361558 102.853452 
L 91.422252 100.485548 
L 91.452598 97.502496 
L 91.482945 102.236754 
L 91.513291 101.209285 
L 91.543638 102.806947 
L 91.573985 102.459833 
L 91.604331 99.603937 
L 91.634678 103.250716 
L 91.695371 99.839572 
L 91.786411 99.533891 
L 91.847104 103.698678 
L 91.96849 100.523037 
L 91.998837 100.694608 
L 92.029184 100.510345 
L 92.05953 100.198149 
L 92.089877 102.579761 
L 92.180917 101.618875 
L 92.211263 100.232494 
L 92.271956 101.920995 
L 92.302303 101.727183 
L 92.33265 101.780469 
L 92.454036 104.041801 
L 92.393343 101.283576 
L 92.484383 103.4653 
L 92.545076 100.153577 
L 92.575422 100.898852 
L 92.605769 103.253963 
L 92.696809 102.247352 
L 92.727155 102.283425 
L 92.787849 103.987835 
L 92.818195 101.971329 
L 92.909235 99.20208 
L 92.939581 101.027032 
L 92.969928 101.55284 
L 93.000275 98.4362 
L 93.060968 100.344806 
L 93.121661 104.090783 
L 93.182354 102.634934 
L 93.212701 101.199114 
L 93.243047 104.454823 
L 93.273394 101.385133 
L 93.303741 103.216213 
L 93.39478 102.389334 
L 93.425127 100.962635 
L 93.455474 102.964189 
L 93.48582 102.892271 
L 93.516167 101.930866 
L 93.57686 103.116639 
L 93.607207 102.28007 
L 93.6679 104.336639 
L 93.728593 100.599139 
L 93.789286 100.998842 
L 94.001712 105.884607 
L 94.032059 100.398041 
L 94.123099 102.486134 
L 94.153445 100.642865 
L 94.183792 102.345919 
L 94.214139 104.452314 
L 94.274832 101.324806 
L 94.305178 103.475377 
L 94.335525 101.137745 
L 94.396218 103.788768 
L 94.456911 101.530999 
L 94.487258 100.067114 
L 94.547951 102.40119 
L 94.608644 100.282512 
L 94.638991 102.649184 
L 94.669337 101.25982 
L 94.699684 103.108841 
L 94.790724 101.913315 
L 94.91211 106.402447 
L 94.942457 105.196466 
L 95.063843 101.12426 
L 95.154883 104.764941 
L 95.18523 103.208746 
L 95.215576 102.006308 
L 95.245923 104.639261 
L 95.276269 104.428043 
L 95.397656 101.638673 
L 95.519042 104.633013 
L 95.549389 101.06389 
L 95.610082 102.953894 
L 95.640429 104.851199 
L 95.670775 101.59603 
L 95.701122 102.709034 
L 95.731468 102.656947 
L 95.792162 104.634009 
L 95.822508 102.274524 
L 95.913548 104.959103 
L 96.034934 104.336235 
L 96.156321 102.790437 
L 96.217014 104.485947 
L 96.247361 103.308533 
L 96.277707 102.510466 
L 96.3384 103.592302 
L 96.368747 103.503347 
L 96.399093 103.689836 
L 96.490133 104.233478 
L 96.52048 102.428567 
L 96.581173 101.993226 
L 96.61152 104.086157 
L 96.763253 100.927389 
L 96.914986 105.340121 
L 96.945332 105.447302 
L 97.036372 106.488437 
L 97.066719 102.273842 
L 97.127412 104.404892 
L 97.157758 103.776664 
L 97.188105 101.751338 
L 97.218452 104.730098 
L 97.279145 103.040337 
L 97.309491 103.329999 
L 97.370185 105.62782 
L 97.400531 102.541499 
L 97.430878 102.459323 
L 97.461224 102.820832 
L 97.521918 100.426728 
L 97.552264 102.401085 
L 97.582611 104.00977 
L 97.673651 103.81039 
L 97.703997 103.80947 
L 97.734344 102.009457 
L 97.795037 104.692599 
L 97.825384 104.319833 
L 97.85573 101.301949 
L 97.886077 104.684589 
L 97.916423 104.096071 
L 97.94677 104.645307 
L 97.977116 100.197038 
L 98.007463 105.058916 
L 98.068156 101.881877 
L 98.098503 104.899272 
L 98.159196 104.587053 
L 98.189543 102.101535 
L 98.250236 103.082696 
L 98.310929 105.766395 
L 98.371622 103.97821 
L 98.432315 104.49669 
L 98.462662 102.274321 
L 98.493009 105.19325 
L 98.553702 102.099878 
L 98.584048 104.750791 
L 98.644742 106.136165 
L 98.705435 102.170819 
L 98.766128 104.619761 
L 98.887514 100.556873 
L 98.917861 103.757175 
L 99.008901 103.151245 
L 99.069594 104.164935 
L 99.130287 105.223846 
L 99.19098 104.866434 
L 99.312367 101.460526 
L 99.342713 104.804528 
L 99.433753 102.732106 
L 99.524793 106.366092 
L 99.55514 104.091803 
L 99.615833 105.006144 
L 99.646179 104.800098 
L 99.767566 102.69985 
L 99.828259 105.128167 
L 99.888952 104.823764 
L 99.919299 104.922675 
L 99.979992 103.298709 
L 100.010338 106.14528 
L 100.071032 105.7532 
L 100.192418 101.783628 
L 100.253111 99.89551 
L 100.313804 105.033311 
L 100.344151 101.72721 
L 100.435191 101.902993 
L 100.556577 105.132186 
L 100.61727 102.838849 
L 100.647617 105.409397 
L 100.677964 102.996066 
L 100.738657 106.741117 
L 100.79935 104.922017 
L 100.829697 105.110247 
L 100.860043 104.552553 
L 100.89039 105.624693 
L 100.920736 105.075214 
L 100.951083 105.899015 
L 100.98143 101.469454 
L 101.072469 102.541418 
L 101.102816 104.304848 
L 101.133163 103.12377 
L 101.163509 100.21706 
L 101.224202 102.834922 
L 101.254549 102.401676 
L 101.315242 107.43824 
L 101.406282 107.238042 
L 101.436628 104.053216 
L 101.497322 105.982842 
L 101.527668 106.505067 
L 101.558015 100.526538 
L 101.649055 102.79516 
L 101.800788 107.499443 
L 101.922174 104.192863 
L 102.04356 108.122732 
L 102.073907 105.511416 
L 102.104254 104.323357 
L 102.1346 105.648007 
L 102.164947 104.791105 
L 102.195293 106.391956 
L 102.22564 104.078471 
L 102.255987 105.589851 
L 102.468413 103.290321 
L 102.589799 106.666054 
L 102.559453 102.645517 
L 102.620146 105.193351 
L 102.711186 104.321955 
L 102.741532 106.114147 
L 102.771879 103.432363 
L 102.802225 103.651204 
L 102.923612 106.240453 
L 102.953958 105.380976 
L 103.014652 104.099721 
L 103.044998 104.818202 
L 103.075345 101.794208 
L 103.105691 104.885215 
L 103.136038 104.523473 
L 103.166384 104.897907 
L 103.227078 101.201964 
L 103.287771 101.381682 
L 103.318117 105.683413 
L 103.409157 104.032962 
L 103.46985 106.188001 
L 103.530544 104.563847 
L 103.591237 105.326364 
L 103.621583 103.129573 
L 103.65193 105.852643 
L 103.682277 104.880086 
L 103.74297 104.718438 
L 103.773316 103.102756 
L 103.864356 103.457023 
L 104.016089 107.056527 
L 104.107129 104.661162 
L 104.137476 106.468844 
L 104.198169 105.420088 
L 104.258862 103.358579 
L 104.289209 105.104263 
L 104.319555 105.974764 
L 104.349902 103.659265 
L 104.440942 105.073502 
L 104.410595 103.236596 
L 104.471288 104.423417 
L 104.562328 104.759397 
L 104.592675 106.622557 
L 104.653368 104.958358 
L 104.683714 104.677294 
L 104.714061 101.936218 
L 104.744408 106.03142 
L 104.774754 102.240918 
L 104.805101 105.838531 
L 104.865794 103.64014 
L 104.89614 103.437904 
L 105.07822 105.899872 
L 105.108567 105.29471 
L 105.138913 105.415299 
L 105.16926 106.759901 
L 105.199606 104.448102 
L 105.229953 105.046363 
L 105.2603 104.69846 
L 105.290646 104.70269 
L 105.320993 107.227841 
L 105.381686 104.241234 
L 105.472726 105.858802 
L 105.503072 105.684773 
L 105.533419 105.516442 
L 105.563766 108.387165 
L 105.624459 105.526336 
L 105.654805 106.026206 
L 105.685152 103.098683 
L 105.745845 103.413629 
L 105.897578 108.600637 
L 105.958271 106.747395 
L 105.988618 103.810667 
L 106.049311 105.339811 
L 106.140351 108.026474 
L 106.170698 103.668319 
L 106.261737 106.501818 
L 106.292084 103.866914 
L 106.352777 105.252882 
L 106.443817 107.923811 
L 106.41347 104.556861 
L 106.474164 106.319291 
L 106.50451 105.902904 
L 106.534857 105.912161 
L 106.565203 106.846894 
L 106.59555 106.502753 
L 106.625896 103.135007 
L 106.656243 106.91654 
L 106.716936 105.130616 
L 106.777629 104.808028 
L 106.838323 107.751192 
L 106.990056 105.010144 
L 107.020402 105.335437 
L 107.141789 107.221419 
L 107.263175 102.576011 
L 107.323868 107.498382 
L 107.384561 105.195109 
L 107.414908 104.336241 
L 107.445255 106.342551 
L 107.475601 106.168642 
L 107.536294 108.313969 
L 107.566641 104.211242 
L 107.627334 108.629636 
L 107.657681 104.853697 
L 107.718374 103.030662 
L 107.779067 108.111032 
L 107.900454 103.454044 
L 107.9308 104.916682 
L 107.991493 106.661844 
L 108.02184 105.648221 
L 108.082533 103.593192 
L 108.11288 105.713667 
L 108.143226 106.043835 
L 108.173573 105.382788 
L 108.20392 105.389718 
L 108.264613 106.555367 
L 108.294959 103.902113 
L 108.355652 106.169405 
L 108.385999 105.835149 
L 108.416346 107.030525 
L 108.446692 105.351597 
L 108.477039 106.598269 
L 108.507385 106.193838 
L 108.537732 106.393783 
L 108.568079 107.459501 
L 108.598425 103.272824 
L 108.689465 105.949442 
L 108.719812 105.518097 
L 108.780505 101.140542 
L 108.810851 105.70885 
L 108.871545 105.17533 
L 108.962584 107.972928 
L 109.083971 104.049103 
L 109.114317 105.982666 
L 109.144664 107.982613 
L 109.175011 103.426895 
L 109.205357 107.083866 
L 109.326744 103.004926 
L 109.44813 108.628765 
L 109.53917 105.596358 
L 109.569516 107.806419 
L 109.599863 107.905182 
L 109.721249 104.856069 
L 109.781943 104.913218 
L 109.842636 107.851749 
L 109.872982 106.33114 
L 109.903329 105.241807 
L 109.933676 106.610492 
L 109.964022 107.400465 
L 110.024715 106.377503 
L 110.055062 104.204547 
L 110.085408 107.26348 
L 110.146102 105.039844 
L 110.328181 107.674254 
L 110.358528 107.815727 
L 110.388874 104.785037 
L 110.449568 106.080698 
L 110.540607 107.097577 
L 110.570954 106.202021 
L 110.601301 108.245736 
L 110.631647 107.29159 
L 110.661994 108.746174 
L 110.69234 106.286622 
L 110.722687 105.905011 
L 110.78338 107.769656 
L 110.844073 107.505626 
L 110.904767 106.309612 
L 110.995806 108.336869 
L 111.026153 105.523036 
L 111.117193 107.020853 
L 111.177886 107.020345 
L 111.208233 107.428838 
L 111.238579 106.931001 
L 111.268926 103.705939 
L 111.329619 108.665211 
L 111.451005 105.919066 
L 111.390312 108.793884 
L 111.481352 105.927209 
L 111.511699 108.851625 
L 111.572392 108.341791 
L 111.663431 101.274244 
L 111.693778 106.20223 
L 111.724125 107.441831 
L 111.754471 102.968363 
L 111.815164 107.962858 
L 111.845511 105.419584 
L 111.997244 107.845161 
L 112.027591 105.737676 
L 112.088284 107.697362 
L 112.11863 107.626355 
L 112.179324 104.919776 
L 112.20967 106.073138 
L 112.240017 108.201674 
L 112.270363 105.212716 
L 112.331057 107.112224 
L 112.361403 107.341886 
L 112.39175 109.418549 
L 112.48279 108.14052 
L 112.513136 109.312897 
L 112.543483 106.087435 
L 112.634523 107.193861 
L 112.664869 107.64462 
L 112.755909 103.410908 
L 112.725562 107.702625 
L 112.786256 103.884342 
L 112.816602 108.758577 
L 112.877295 104.73127 
L 113.089722 108.595026 
L 113.150415 107.916697 
L 113.211108 108.625305 
L 113.302148 105.154141 
L 113.393187 109.310295 
L 113.423534 107.100299 
L 113.453881 107.312861 
L 113.484227 108.759382 
L 113.514574 108.710042 
L 113.54492 105.853837 
L 113.605614 106.758058 
L 113.666307 108.63875 
L 113.696653 107.283798 
L 113.727 105.743252 
L 113.757347 107.839482 
L 113.787693 108.336405 
L 113.81804 107.056082 
L 113.848386 106.195839 
L 113.939426 105.063127 
L 113.969773 108.584193 
L 114.030466 106.990632 
L 114.060813 109.147012 
L 114.121506 106.893059 
L 114.151852 107.750495 
L 114.182199 105.453719 
L 114.212546 109.024689 
L 114.242892 107.727408 
L 114.273239 107.149781 
L 114.303585 104.146847 
L 114.333932 107.87585 
L 114.364279 107.71444 
L 114.394625 106.932555 
L 114.424972 107.591577 
L 114.455318 108.287033 
L 114.485665 105.248916 
L 114.576705 106.514287 
L 114.607051 107.873085 
L 114.637398 105.677668 
L 114.667745 105.270051 
L 114.728438 109.135096 
L 114.789131 108.962739 
L 114.849824 105.211985 
L 114.880171 107.728683 
L 114.910517 110.204494 
L 114.971211 107.880934 
L 115.122943 105.779701 
L 115.15329 106.148335 
L 115.24433 110.416781 
L 115.274676 108.709921 
L 115.305023 108.805397 
L 115.33537 106.540106 
L 115.426409 107.148663 
L 115.517449 109.398443 
L 115.547796 108.720935 
L 115.578142 107.54993 
L 115.608489 108.921954 
L 115.638836 109.926145 
L 115.669182 107.912486 
L 115.699529 109.10153 
L 115.729875 106.882901 
L 115.820915 107.147991 
L 115.881608 109.101854 
L 115.911955 108.163946 
L 115.942302 107.084707 
L 115.972648 107.720297 
L 116.033341 109.204841 
L 116.063688 107.667571 
L 116.094035 109.003314 
L 116.154728 107.748543 
L 116.215421 108.310272 
L 116.245768 109.137841 
L 116.276114 107.43923 
L 116.336807 105.432247 
L 116.397501 109.45496 
L 116.427847 106.331106 
L 116.458194 105.374983 
L 116.48854 107.226088 
L 116.518887 106.119658 
L 116.700967 109.552309 
L 116.76166 104.640683 
L 116.822353 107.269379 
L 116.852699 110.24296 
L 116.943739 109.52223 
L 117.034779 106.662495 
L 117.095472 107.44658 
L 117.125819 109.142349 
L 117.156165 107.612718 
L 117.186512 99.785176 
L 117.247205 108.624961 
L 117.277552 104.923975 
L 117.307898 107.543131 
L 117.368592 103.309427 
L 117.398938 106.812118 
L 117.429285 107.22769 
L 117.459631 106.403366 
L 117.489978 106.338682 
L 117.611364 109.776119 
L 117.641711 103.649636 
L 117.732751 107.622086 
L 117.763097 108.090911 
L 117.884484 104.678279 
L 117.975524 111.723619 
L 118.066563 109.91462 
L 118.09691 109.185879 
L 118.127257 110.617186 
L 118.157603 104.471319 
L 118.218296 108.162468 
L 118.248643 110.27183 
L 118.27899 105.244896 
L 118.309336 107.291716 
L 118.339683 107.099585 
L 118.430723 108.845033 
L 118.400376 106.906805 
L 118.491416 108.443425 
L 118.521762 108.420104 
L 118.552109 109.392634 
L 118.582455 108.768941 
L 118.673495 106.622487 
L 118.703842 107.011515 
L 118.734188 107.225125 
L 118.764535 109.77267 
L 118.825228 106.656678 
L 118.855575 108.745029 
L 118.946615 107.24648 
L 118.976961 110.898328 
L 119.068001 108.631151 
L 119.098348 106.744433 
L 119.159041 107.914604 
L 119.219734 108.646259 
L 119.250081 106.363221 
L 119.280427 110.852314 
L 119.34112 108.165815 
L 119.371467 111.260095 
L 119.43216 110.520057 
L 119.553547 106.24736 
L 119.583893 109.629144 
L 119.674933 108.658566 
L 119.765973 106.898758 
L 119.796319 108.593603 
L 119.857013 107.688428 
L 119.887359 107.373021 
L 119.917706 108.502355 
L 119.978399 108.135032 
L 120.008746 104.426293 
L 120.039092 109.988694 
L 120.069439 107.011621 
L 120.099785 107.335553 
L 120.130132 109.936737 
L 120.190825 106.858277 
L 120.221172 108.496052 
L 120.251518 108.136215 
L 120.281865 105.720938 
L 120.342558 109.414231 
L 120.403251 108.852257 
L 120.433598 110.223642 
L 120.494291 107.975814 
L 120.524638 108.460014 
L 120.554984 111.250634 
L 120.585331 106.923773 
L 120.615677 109.496703 
L 120.646024 107.076615 
L 120.676371 110.457485 
L 120.706717 107.816112 
L 120.888797 110.98708 
L 120.94949 105.236083 
L 120.979837 111.613819 
L 121.192263 108.381897 
L 121.252956 110.197159 
L 121.283303 108.726086 
L 121.404689 107.133653 
L 121.374342 108.947364 
L 121.435036 107.73032 
L 121.465382 107.809813 
L 121.526075 108.550442 
L 121.556422 106.646768 
L 121.647462 110.081837 
L 121.677808 102.870449 
L 121.738502 109.71305 
L 121.768848 108.085209 
L 121.829541 110.195578 
L 122.011621 106.707648 
L 122.102661 110.97053 
L 122.133007 108.346445 
L 122.1937 107.518829 
L 122.254394 107.444671 
L 122.28474 109.961997 
L 122.315087 107.842437 
L 122.37578 110.401154 
L 122.55786 108.474598 
L 122.618553 109.288066 
L 122.709593 109.579215 
L 122.739939 105.870876 
L 122.891672 109.889583 
L 122.922019 109.415698 
L 122.952365 106.83455 
L 123.013059 109.487128 
L 123.104098 106.233385 
L 123.134445 109.462047 
L 123.195138 106.63503 
L 123.225485 106.102703 
L 123.316525 112.165688 
L 123.346871 108.495871 
L 123.407564 111.302649 
L 123.468258 111.079974 
L 123.589644 107.144898 
L 123.650337 107.472569 
L 123.680684 109.136482 
L 123.71103 106.925507 
L 123.741377 108.815855 
L 123.832417 109.267486 
L 123.862763 106.904605 
L 123.923456 110.597586 
L 123.953803 106.430407 
L 123.98415 107.735988 
L 124.044843 107.538199 
L 124.166229 110.756916 
L 124.226922 108.210096 
L 124.257269 109.707374 
L 124.287616 111.479265 
L 124.378655 110.626573 
L 124.439349 108.337328 
L 124.469695 110.295813 
L 124.500042 111.321738 
L 124.530388 109.454004 
L 124.560735 106.338617 
L 124.621428 109.62566 
L 124.651775 109.950997 
L 124.742815 107.949918 
L 124.803508 111.12792 
L 124.864201 109.586252 
L 124.894548 108.434998 
L 124.924894 108.638477 
L 124.955241 110.889628 
L 124.985587 108.358147 
L 125.046281 110.164439 
L 125.106974 109.188154 
L 125.167667 111.247836 
L 125.198014 109.341988 
L 125.258707 110.144927 
L 125.289053 108.774039 
L 125.3194 111.440175 
L 125.349747 109.775397 
L 125.41044 110.674176 
L 125.531826 107.339378 
L 125.562173 108.96696 
L 125.713906 107.137546 
L 125.804945 109.977315 
L 125.865639 109.495288 
L 125.987025 111.183092 
L 126.047718 111.147598 
L 126.138758 107.672429 
L 126.108411 111.175579 
L 126.169105 109.689696 
L 126.199451 110.857284 
L 126.229798 108.428977 
L 126.290491 110.198926 
L 126.351184 104.971492 
L 126.442224 107.687142 
L 126.502917 105.908929 
L 126.533264 112.004664 
L 126.56361 106.867046 
L 126.65465 109.517258 
L 126.684997 108.512007 
L 126.715343 110.624826 
L 126.74569 109.622534 
L 126.806383 108.316271 
L 126.83673 106.754875 
L 126.897423 108.39934 
L 126.988463 110.737963 
L 127.018809 110.680861 
L 127.140196 107.639024 
L 127.170542 108.071179 
L 127.231235 106.133898 
L 127.291929 111.816006 
L 127.443662 107.956374 
L 127.474008 109.450642 
L 127.534701 109.890064 
L 127.565048 112.494174 
L 127.595395 108.762754 
L 127.656088 112.361497 
L 127.777474 107.955185 
L 127.807821 110.672957 
L 127.868514 106.868832 
L 128.020247 110.768172 
L 128.050594 108.18677 
L 128.111287 109.12053 
L 128.26302 112.540434 
L 128.323713 106.914458 
L 128.384406 110.851388 
L 128.445099 109.06896 
L 128.536139 111.809282 
L 128.566486 110.025511 
L 128.627179 108.451666 
L 128.687872 108.696897 
L 128.718219 108.674528 
L 128.748565 108.864437 
L 128.778912 110.498065 
L 128.809258 109.140796 
L 128.839605 106.785907 
L 128.869952 112.156984 
L 128.900298 111.9637 
L 129.021685 108.817705 
L 129.082378 112.285404 
L 129.173418 112.249158 
L 129.203764 108.816576 
L 129.294804 110.642567 
L 129.325151 110.964321 
L 129.355497 108.477495 
L 129.41619 109.941357 
L 129.50723 111.822053 
L 129.628617 106.426329 
L 129.658963 107.910203 
L 129.68931 110.096574 
L 129.750003 107.61945 
L 129.78035 109.339348 
L 129.810696 110.413048 
L 129.871389 110.31215 
L 129.901736 106.823121 
L 129.962429 108.707709 
L 130.083816 111.45477 
L 130.144509 105.753415 
L 130.205202 107.967522 
L 130.235549 107.364334 
L 130.265895 108.550613 
L 130.447975 110.390817 
L 130.508668 109.256835 
L 130.539014 111.63023 
L 130.599708 110.366199 
L 130.751441 106.839962 
L 130.84248 111.303899 
L 130.872827 109.17238 
L 130.903174 108.137194 
L 130.994213 112.625244 
L 131.02456 109.257455 
L 131.054907 111.861171 
L 131.145946 110.662799 
L 131.236986 111.780202 
L 131.328026 111.921557 
L 131.388719 109.672879 
L 131.419066 109.922133 
L 131.449412 112.828163 
L 131.510106 109.133012 
L 131.540452 111.369936 
L 131.570799 107.528446 
L 131.631492 110.651094 
L 131.661839 111.371639 
L 131.692185 110.062834 
L 131.722532 111.033108 
L 131.752878 110.679426 
L 131.783225 111.588343 
L 131.813572 111.371488 
L 131.874265 109.856781 
L 131.904611 111.805322 
L 131.934958 110.653143 
L 131.965305 109.84301 
L 131.995651 111.339182 
L 132.025998 111.12946 
L 132.056344 112.164366 
L 132.086691 110.642239 
L 132.208077 104.416124 
L 132.238424 108.288297 
L 132.26877 109.986589 
L 132.329464 108.662959 
L 132.35981 102.950154 
L 132.420503 111.245412 
L 132.45085 111.082219 
L 132.511543 105.827689 
L 132.572236 109.440719 
L 132.63293 110.804508 
L 132.663276 107.723958 
L 132.754316 111.557765 
L 132.784663 109.889639 
L 132.845356 107.587031 
L 132.875702 109.905853 
L 132.906049 109.444741 
L 133.057782 113.518903 
L 133.088129 112.231479 
L 133.118475 108.187245 
L 133.209515 110.713858 
L 133.239862 110.626686 
L 133.270208 110.194955 
L 133.300555 112.638943 
L 133.391595 111.827963 
L 133.512981 108.054003 
L 133.573674 107.094867 
L 133.634367 112.252686 
L 133.664714 107.58803 
L 133.725407 110.789796 
L 133.755754 112.142344 
L 133.846794 112.06555 
L 133.87714 111.590476 
L 133.937833 108.790479 
L 133.998526 109.031539 
L 134.089566 112.786765 
L 134.119913 110.557881 
L 134.150259 111.302533 
L 134.180606 107.194277 
L 134.271646 107.928558 
L 134.332339 112.96754 
L 134.393032 109.494763 
L 134.423379 113.114448 
L 134.484072 110.130999 
L 134.575112 112.711514 
L 134.605458 109.779003 
L 134.696498 110.06732 
L 134.726845 111.971338 
L 134.787538 109.789159 
L 134.999964 113.448031 
L 135.030311 109.608641 
L 135.091004 111.931318 
L 135.121351 114.354815 
L 135.182044 110.818997 
L 135.21239 109.148572 
L 135.30343 109.60658 
L 135.333777 112.252882 
L 135.39447 109.708711 
L 135.48551 108.014164 
L 135.515856 108.781917 
L 135.546203 109.045834 
L 135.57655 112.44436 
L 135.637243 110.933359 
L 135.697936 111.103808 
L 135.728282 107.406796 
L 135.849669 111.574854 
L 135.880015 110.918785 
L 135.910362 111.851659 
L 135.940709 113.068061 
L 135.971055 113.007164 
L 136.092442 110.393139 
L 136.122788 110.839958 
L 136.153135 107.352486 
L 136.213828 110.767379 
L 136.244175 110.58707 
L 136.274521 114.177019 
L 136.335214 109.830792 
L 136.365561 110.279242 
L 136.395908 108.877215 
L 136.426254 110.552498 
L 136.456601 109.285833 
L 136.517294 108.451643 
L 136.608334 111.30676 
L 136.669027 109.908245 
L 136.72972 110.740392 
L 136.790413 112.282497 
L 136.82076 111.982841 
L 136.9118 107.986596 
L 136.942146 111.424781 
L 136.972493 114.31498 
L 137.00284 107.895251 
L 137.063533 113.263255 
L 137.093879 110.073265 
L 137.184919 110.825309 
L 137.215266 111.529978 
L 137.245612 111.50223 
L 137.306306 111.758038 
L 137.336652 109.551914 
L 137.366999 113.140745 
L 137.427692 111.468912 
L 137.518732 109.651121 
L 137.549078 110.650239 
L 137.579425 112.661568 
L 137.609771 110.423278 
L 137.640118 111.957668 
L 137.670465 110.44536 
L 137.731158 110.557622 
L 137.761504 111.56768 
L 137.791851 110.312798 
L 137.822198 111.540554 
L 137.973931 105.500018 
L 138.15601 113.232817 
L 138.24705 109.741778 
L 138.277397 111.818334 
L 138.307743 111.862396 
L 138.33809 113.695458 
L 138.368436 110.628206 
L 138.398783 112.466874 
L 138.459476 112.749834 
L 138.520169 108.836421 
L 138.550516 115.033326 
L 138.611209 108.538291 
L 138.641556 112.376425 
L 138.762942 109.208023 
L 138.823635 114.542304 
L 138.884329 110.826689 
L 138.914675 113.272732 
L 138.945022 110.655536 
L 138.975368 111.632806 
L 139.036062 111.929734 
L 139.066408 106.377727 
L 139.096755 111.873981 
L 139.187794 110.716634 
L 139.248488 112.009524 
L 139.278834 110.119141 
L 139.339527 112.177558 
L 139.400221 112.192343 
L 139.430567 110.651676 
L 139.460914 112.952306 
L 139.521607 111.828671 
L 139.5823 108.175926 
L 139.642993 109.616594 
L 139.67334 112.110954 
L 139.734033 112.075415 
L 139.825073 109.345842 
L 139.85542 110.322499 
L 139.916113 113.283959 
L 139.946459 108.471135 
L 140.037499 109.365638 
L 140.067846 112.519786 
L 140.128539 110.939417 
L 140.158886 109.633379 
L 140.219579 110.764373 
L 140.280272 113.315593 
L 140.310619 112.239888 
L 140.371312 110.425817 
L 140.432005 111.371387 
L 140.492698 111.171074 
L 140.644431 113.683948 
L 140.674778 112.478447 
L 140.705124 112.053613 
L 140.765817 112.591588 
L 140.826511 109.127285 
L 140.887204 107.999869 
L 140.978244 113.923628 
L 141.069283 110.703367 
L 141.09963 113.039717 
L 141.129977 107.860859 
L 141.19067 112.312033 
L 141.221016 112.230494 
L 141.251363 109.605436 
L 141.342403 110.091596 
L 141.372749 112.898833 
L 141.403096 109.637498 
L 141.463789 112.360179 
L 141.585176 110.532558 
L 141.676215 113.623864 
L 141.706562 112.066075 
L 141.767255 112.118149 
L 141.797602 104.6892 
L 141.918988 112.238689 
L 141.949335 108.524918 
L 142.040375 109.940745 
L 142.161761 112.40793 
L 142.192108 110.549569 
L 142.252801 112.68982 
L 142.283147 111.835741 
L 142.313494 113.315716 
L 142.343841 112.705185 
L 142.374187 112.767992 
L 142.495573 110.565032 
L 142.52592 112.660571 
L 142.61696 112.519612 
L 142.768693 109.235882 
L 142.859733 109.713717 
L 142.981119 113.458711 
L 143.011466 112.861145 
L 143.072159 113.301002 
L 143.132852 110.575996 
L 143.163199 113.331388 
L 143.254238 112.440375 
L 143.284585 109.123215 
L 143.375625 110.547075 
L 143.527358 114.139673 
L 143.648744 109.861051 
L 143.709437 113.633801 
L 143.739784 112.980971 
L 143.770131 110.072519 
L 143.86117 110.968603 
L 143.891517 113.301116 
L 143.921864 110.755188 
L 143.982557 112.289663 
L 144.012903 110.455432 
L 144.04325 113.899216 
L 144.073597 113.797594 
L 144.164636 107.956217 
L 144.194983 110.849947 
L 144.225329 113.268326 
L 144.255676 109.704323 
L 144.286023 110.924865 
L 144.316369 111.184846 
L 144.377062 113.33043 
L 144.407409 111.093149 
L 144.437756 111.823772 
L 144.468102 111.881389 
L 144.498449 112.336627 
L 144.528795 109.740104 
L 144.589489 112.301765 
L 144.650182 114.120438 
L 144.710875 114.046524 
L 144.771568 108.210991 
L 144.832261 112.000229 
L 144.862608 113.782334 
L 144.923301 111.040278 
L 145.014341 113.945727 
L 145.044688 110.349212 
L 145.135727 111.750525 
L 145.226767 110.956616 
L 145.28746 112.400887 
L 145.317807 111.193521 
L 145.348154 109.91026 
L 145.3785 112.367039 
L 145.408847 112.712038 
L 145.499887 110.94956 
L 145.46954 113.130804 
L 145.530233 110.954094 
L 145.56058 113.540234 
L 145.65162 112.04541 
L 145.681966 113.224102 
L 145.712313 109.242123 
L 145.742659 113.394934 
L 145.803353 111.197918 
L 145.833699 112.199034 
L 145.864046 110.571847 
L 145.894392 110.800159 
L 145.955085 111.331338 
L 146.046125 113.449518 
L 146.076472 112.118986 
L 146.106818 112.963406 
L 146.137165 109.969304 
L 146.167512 113.424898 
L 146.228205 111.416886 
L 146.288898 112.630343 
L 146.319245 111.145804 
L 146.349591 112.072162 
L 146.379938 109.80952 
L 146.440631 113.371172 
L 146.501324 112.269263 
L 146.562017 113.117935 
L 146.592364 113.237548 
L 146.744097 109.489466 
L 146.774444 111.349399 
L 146.80479 113.694294 
L 146.865483 113.276896 
L 146.926177 114.234263 
L 146.956523 111.016956 
L 146.98687 113.503953 
L 147.047563 111.743959 
L 147.07791 111.816209 
L 147.108256 111.515751 
L 147.199296 114.016268 
L 147.290336 109.190141 
L 147.320682 110.690829 
L 147.351029 110.957448 
L 147.381376 109.585907 
L 147.411722 114.338909 
L 147.502762 114.127345 
L 147.593802 106.35982 
L 147.624148 111.673965 
L 147.654495 113.710861 
L 147.715188 111.448944 
L 147.745535 111.120378 
L 147.806228 113.427734 
L 147.866921 113.23378 
L 147.897268 111.391805 
L 147.957961 113.975819 
L 148.018654 112.400134 
L 148.049001 111.596667 
L 148.079347 114.433353 
L 148.170387 113.966264 
L 148.291773 107.817236 
L 148.382813 112.877137 
L 148.41316 111.441072 
L 148.5042 113.193092 
L 148.534546 111.608006 
L 148.595239 112.296126 
L 148.625586 112.8515 
L 148.655933 110.215563 
L 148.716626 111.259861 
L 148.777319 113.484409 
L 148.838012 112.579318 
L 148.929052 113.870225 
L 149.020092 111.583317 
L 149.050438 113.650355 
L 149.080785 111.256661 
L 149.111132 112.949166 
L 149.171825 108.394773 
L 149.202171 113.354326 
L 149.232518 112.61163 
L 149.293211 113.63695 
L 149.384251 110.9705 
L 149.414597 111.162986 
L 149.475291 111.705944 
L 149.505637 111.161334 
L 149.535984 110.427743 
L 149.596677 114.124367 
L 149.65737 112.944994 
L 149.687717 110.952819 
L 149.718063 114.578004 
L 149.74841 111.688809 
L 149.778757 114.363083 
L 149.83945 112.889876 
L 149.869796 111.303557 
L 149.900143 114.217731 
L 149.960836 112.323227 
L 150.021529 112.985097 
L 150.051876 112.002558 
L 150.082223 113.191556 
L 150.112569 112.085656 
L 150.142916 112.888831 
L 150.173262 111.753184 
L 150.233956 112.366259 
L 150.264302 108.342011 
L 150.324995 112.127732 
L 150.355342 115.125899 
L 150.385689 106.349654 
L 150.446382 110.749968 
L 150.476728 112.656609 
L 150.507075 111.784687 
L 150.537422 108.188112 
L 150.598115 114.025695 
L 150.628461 114.223644 
L 150.810541 111.76512 
L 150.840888 113.673576 
L 150.901581 110.5594 
L 150.931927 110.295863 
L 150.962274 113.977709 
L 151.053314 112.601386 
L 151.08366 112.533023 
L 151.114007 109.757463 
L 151.144353 112.295747 
L 151.1747 114.45542 
L 151.235393 111.873038 
L 151.35678 115.193084 
L 151.417473 109.584997 
L 151.508513 110.860188 
L 151.538859 114.051762 
L 151.629899 113.597948 
L 151.751285 111.082 
L 151.781632 114.44958 
L 151.842325 109.835116 
L 151.872672 113.081798 
L 151.903018 113.158841 
L 151.963712 110.763532 
L 152.054751 110.884174 
L 152.145791 113.558107 
L 152.176138 111.983897 
L 152.206484 110.226775 
L 152.267178 112.443057 
L 152.297524 111.013188 
L 152.327871 115.747663 
L 152.418911 113.011307 
L 152.449257 113.393072 
L 152.60099 109.795132 
L 152.69203 113.685471 
L 152.722377 112.546871 
L 152.752723 113.152263 
L 152.813416 112.359347 
L 152.843763 112.488791 
L 152.874109 111.203177 
L 152.904456 115.408955 
L 152.965149 110.611776 
L 153.056189 114.348457 
L 153.177575 113.303274 
L 153.238269 112.010902 
L 153.268615 112.979883 
L 153.298962 114.13884 
L 153.390002 108.696014 
L 153.420348 111.525973 
L 153.450695 115.230721 
L 153.481041 110.114978 
L 153.541735 113.055387 
L 153.572081 114.340911 
L 153.632774 112.961253 
L 153.693468 114.195978 
L 153.723814 110.317682 
L 153.754161 114.872909 
L 153.845201 113.165016 
L 153.93624 109.663505 
L 153.996934 109.942157 
L 154.20936 114.226256 
L 154.3004 114.429828 
L 154.361093 113.443761 
L 154.391439 115.701476 
L 154.452133 113.034989 
L 154.482479 114.543822 
L 154.573519 115.439574 
L 154.603865 110.988235 
L 154.664559 113.378455 
L 154.725252 113.280297 
L 154.785945 113.526228 
L 154.846638 112.375726 
L 154.937678 115.166921 
L 154.968025 114.244811 
L 155.028718 111.042968 
L 155.089411 113.33852 
L 155.119758 113.152326 
L 155.150104 115.05768 
L 155.241144 109.926534 
L 155.271491 112.727854 
L 155.301837 113.485864 
L 155.332184 110.669531 
L 155.392877 115.246184 
L 155.514263 112.85467 
L 155.54461 114.701772 
L 155.605303 112.6151 
L 155.665996 112.031911 
L 155.696343 113.698671 
L 155.72669 112.459066 
L 155.787383 112.984706 
L 155.817729 115.827152 
L 155.848076 111.698372 
L 155.878423 114.333479 
L 155.908769 113.912558 
L 155.969462 109.309903 
L 155.999809 112.641548 
L 156.090849 114.611838 
L 156.060502 112.42535 
L 156.121195 113.456542 
L 156.151542 114.571241 
L 156.181888 110.613825 
L 156.242582 114.070864 
L 156.303275 112.050932 
L 156.363968 114.852829 
L 156.394315 112.639407 
L 156.455008 113.073716 
L 156.485354 111.513811 
L 156.515701 112.486093 
L 156.546048 110.183046 
L 156.576394 111.416988 
L 156.606741 110.956526 
L 156.758474 114.626806 
L 156.78882 111.848028 
L 156.849514 114.966233 
L 156.87986 112.64401 
L 156.910207 112.95557 
L 156.940553 112.290577 
L 157.001247 109.322552 
L 157.06194 113.932918 
L 157.122633 112.942609 
L 157.244019 115.899343 
L 157.274366 115.129082 
L 157.304713 115.226482 
L 157.395752 112.561055 
L 157.426099 114.988104 
L 157.486792 114.097152 
L 157.577832 111.744819 
L 157.608179 111.804103 
L 157.668872 113.774041 
L 157.699218 110.679657 
L 157.729565 113.869803 
L 157.790258 112.400623 
L 157.820605 112.044526 
L 157.850951 113.311198 
L 157.941991 112.963245 
L 157.972338 112.979164 
L 158.033031 113.490439 
L 158.063377 112.312385 
L 158.093724 114.794952 
L 158.154417 113.427026 
L 158.245457 116.052756 
L 158.275804 110.861127 
L 158.366843 112.986593 
L 158.427537 114.907694 
L 158.457883 111.117187 
L 158.48823 115.248558 
L 158.548923 112.114236 
L 158.57927 111.84191 
L 158.609616 110.233692 
L 158.639963 112.695168 
L 158.670309 110.338884 
L 158.700656 114.793115 
L 158.731003 108.853353 
L 158.791696 112.759321 
L 158.822042 112.779057 
L 158.852389 111.183033 
L 158.882736 113.162334 
L 158.913082 114.094336 
L 158.973775 112.783632 
L 159.004122 113.544947 
L 159.034469 113.304059 
L 159.064815 114.159769 
L 159.095162 112.366173 
L 159.125508 112.304453 
L 159.216548 114.291285 
L 159.246895 110.082981 
L 159.277241 114.891183 
L 159.307588 112.024122 
L 159.368281 115.597875 
L 159.428974 114.727955 
L 159.489668 113.498007 
L 159.520014 115.146237 
L 159.550361 114.768364 
L 159.580707 111.491489 
L 159.671747 113.551747 
L 159.702094 113.634289 
L 159.73244 114.770457 
L 159.762787 111.688138 
L 159.793133 115.337593 
L 159.853827 113.301923 
L 159.884173 112.358469 
L 159.944866 113.921148 
L 159.975213 115.392683 
L 160.00556 112.950394 
L 160.035906 114.460502 
L 160.126946 113.000889 
L 160.187639 110.602707 
L 160.248332 115.136989 
L 160.309026 111.723994 
L 160.369719 112.307067 
L 160.460759 115.047855 
L 160.491105 113.065507 
L 160.551798 110.646485 
L 160.582145 114.533566 
L 160.612492 114.170699 
L 160.642838 116.350366 
L 160.703531 113.19538 
L 160.733878 111.75944 
L 160.794571 114.041553 
L 160.824918 111.845249 
L 160.855264 111.488819 
L 160.885611 112.045464 
L 160.915958 114.667784 
L 160.946304 110.685738 
L 161.006997 113.43006 
L 161.098037 114.957007 
L 161.128384 113.331394 
L 161.219424 113.767351 
L 161.24977 114.075179 
L 161.280117 113.519373 
L 161.310463 112.673335 
L 161.371156 113.637393 
L 161.401503 113.990098 
L 161.43185 109.082367 
L 161.492543 112.418825 
L 161.553236 115.982294 
L 161.674622 115.025795 
L 161.765662 112.139756 
L 161.735316 115.937274 
L 161.796009 114.374928 
L 161.917395 112.061829 
L 161.947742 115.03487 
L 162.038782 114.363738 
L 162.069128 114.170884 
L 162.099475 113.221286 
L 162.129821 115.825714 
L 162.220861 114.730332 
L 162.251208 112.968156 
L 162.311901 114.807243 
L 162.342248 113.38718 
L 162.463634 111.522292 
L 162.493981 112.237485 
L 162.524327 112.849007 
L 162.554674 111.531788 
L 162.58502 111.614614 
L 162.615367 114.414999 
L 162.706407 113.394885 
L 162.736753 106.622881 
L 162.797447 108.387723 
L 162.85814 115.944741 
L 162.918833 114.779021 
L 163.100912 110.591896 
L 163.191952 116.000008 
L 163.222299 112.801363 
L 163.252645 111.599668 
L 163.282992 113.049718 
L 163.313339 113.664158 
L 163.343685 113.562235 
L 163.374032 112.393127 
L 163.404378 116.024454 
L 163.465072 113.553148 
L 163.525765 112.651948 
L 163.556111 112.685344 
L 163.707844 116.76429 
L 163.738191 113.628057 
L 163.829231 114.519378 
L 163.859577 115.382438 
L 163.920271 115.371882 
L 164.01131 114.486251 
L 164.041657 115.041251 
L 164.163043 110.87481 
L 164.10235 115.240104 
L 164.19339 111.861087 
L 164.223737 115.320198 
L 164.28443 112.301999 
L 164.345123 114.128921 
L 164.436163 110.650595 
L 164.466509 112.862942 
L 164.496856 112.133184 
L 164.527203 114.975154 
L 164.587896 111.226019 
L 164.648589 110.107992 
L 164.769975 115.435225 
L 164.830668 110.952657 
L 164.891362 113.460697 
L 164.921708 112.966526 
L 164.952055 113.885679 
L 164.982401 114.725984 
L 165.012748 113.059258 
L 165.043095 112.484227 
L 165.073441 112.945035 
L 165.194828 115.874201 
L 165.225174 115.20018 
L 165.285867 110.988486 
L 165.346561 114.14699 
L 165.376907 114.879851 
L 165.407254 114.594407 
L 165.4376 112.402442 
L 165.498294 115.231119 
L 165.71072 110.596895 
L 165.862453 114.97042 
L 165.923146 112.560789 
L 166.014186 113.532846 
L 166.044532 113.638242 
L 166.074879 111.930376 
L 166.105226 114.578333 
L 166.135572 113.175377 
L 166.196265 115.304663 
L 166.226612 114.47628 
L 166.256959 116.915747 
L 166.287305 112.052723 
L 166.347998 115.754864 
L 166.378345 113.779601 
L 166.439038 114.079725 
L 166.530078 115.349086 
L 166.621118 110.231127 
L 166.651464 112.325077 
L 166.742504 111.460768 
L 166.772851 115.064461 
L 166.803197 110.434747 
L 166.86389 115.61459 
L 167.04597 110.888379 
L 167.106663 111.067236 
L 167.22805 115.728254 
L 167.288743 112.485136 
L 167.349436 112.738108 
L 167.379783 116.732037 
L 167.440476 113.239253 
L 167.470822 111.676805 
L 167.501169 112.484259 
L 167.561862 116.244484 
L 167.622555 115.745377 
L 167.713595 113.621213 
L 167.743942 114.263465 
L 167.834982 115.801431 
L 167.865328 113.509057 
L 167.895675 115.840942 
L 167.956368 114.966651 
L 168.047408 111.757991 
L 168.108101 115.757643 
L 168.138448 112.268494 
L 168.259834 115.071489 
L 168.320527 114.327666 
L 168.38122 113.328498 
L 168.441913 116.810563 
L 168.502607 115.525446 
L 168.532953 111.03584 
L 168.593646 111.878658 
L 168.623993 116.451106 
L 168.684686 114.3212 
L 168.715033 112.764569 
L 168.745379 114.223522 
L 168.836419 116.590126 
L 168.866766 115.716868 
L 168.927459 111.105663 
L 168.988152 112.97613 
L 169.018499 111.687138 
L 169.048845 113.075185 
L 169.109539 112.366026 
L 169.170232 115.158985 
L 169.230925 113.389149 
L 169.261272 113.073183 
L 169.291618 113.488604 
L 169.443351 115.552094 
L 169.564738 113.383803 
L 169.595084 118.148847 
L 169.655777 114.631945 
L 169.746817 112.464757 
L 169.777164 113.156123 
L 169.80751 114.810964 
L 169.837857 112.88709 
L 169.868204 113.455341 
L 169.89855 109.082043 
L 169.928897 113.619234 
L 169.959243 110.358663 
L 169.98959 115.15036 
L 170.050283 112.988061 
L 170.08063 111.219327 
L 170.141323 114.029175 
L 170.171669 113.907496 
L 170.232363 115.655254 
L 170.262709 114.904552 
L 170.323402 115.065373 
L 170.384096 113.192815 
L 170.444789 112.525627 
L 170.475135 113.063587 
L 170.505482 115.304134 
L 170.566175 113.461483 
L 170.596522 111.482541 
L 170.626868 117.864186 
L 170.717908 113.740982 
L 170.748255 113.954716 
L 170.778601 112.168702 
L 170.869641 113.258168 
L 170.899988 114.781847 
L 170.930334 114.298846 
L 170.960681 111.515364 
L 171.021374 115.612979 
L 171.051721 113.126106 
L 171.082067 113.089722 
L 171.112414 115.018784 
L 171.142761 112.669403 
L 171.173107 111.414204 
L 171.203454 116.201145 
L 171.264147 113.56591 
L 171.294494 112.955503 
L 171.385533 116.08165 
L 171.41588 114.197861 
L 171.446227 114.443215 
L 171.476573 114.347439 
L 171.567613 110.360669 
L 171.628306 112.053231 
L 171.749692 115.340924 
L 171.840732 114.5803 
L 171.871079 115.340143 
L 171.901425 114.507944 
L 171.931772 111.926631 
L 171.992465 115.086181 
L 172.022812 116.041722 
L 172.053158 112.758555 
L 172.113852 113.391678 
L 172.144198 115.218718 
L 172.174545 112.748967 
L 172.235238 115.148298 
L 172.356624 113.172771 
L 172.478011 116.169106 
L 172.569051 112.29118 
L 172.66009 112.389724 
L 172.75113 115.647918 
L 172.811823 111.753843 
L 172.872517 114.592825 
L 172.93321 113.600114 
L 172.963556 114.789425 
L 172.993903 116.081363 
L 173.02425 114.877594 
L 173.054596 111.416376 
L 173.084943 115.105619 
L 173.115289 113.21115 
L 173.236676 117.095982 
L 173.267022 115.73272 
L 173.297369 114.466174 
L 173.358062 115.217153 
L 173.388409 115.497662 
L 173.479448 114.224698 
L 173.509795 115.750934 
L 173.600835 115.248037 
L 173.631181 110.118921 
L 173.661528 116.182901 
L 173.691875 112.613315 
L 173.752568 115.332749 
L 173.813261 110.279884 
L 173.873954 113.341721 
L 173.904301 112.62929 
L 173.934647 113.844887 
L 173.964994 114.216393 
L 173.995341 111.517455 
L 174.08638 112.537858 
L 174.116727 116.611024 
L 174.207767 114.586226 
L 174.298807 109.946608 
L 174.329153 111.432064 
L 174.45054 116.302612 
L 174.480886 115.251507 
L 174.511233 112.902646 
L 174.571926 115.050663 
L 174.602273 114.589235 
L 174.632619 116.723828 
L 174.662966 111.241243 
L 174.693312 111.38204 
L 174.723659 113.892787 
L 174.784352 113.448497 
L 174.814699 111.383965 
L 174.845045 116.018803 
L 174.875392 112.940946 
L 174.905739 115.125151 
L 174.936085 109.843956 
L 174.966432 112.677072 
L 174.996778 112.475584 
L 175.027125 112.597889 
L 175.118165 116.039918 
L 175.148511 114.386992 
L 175.209204 113.222982 
L 175.239551 116.717542 
L 175.269898 112.294783 
L 175.300244 116.254731 
L 175.330591 112.859398 
L 175.391284 115.473878 
L 175.421631 116.704779 
L 175.482324 115.915589 
L 175.51267 115.86987 
L 175.60371 116.346911 
L 175.69475 112.119284 
L 175.725097 114.200502 
L 175.755443 111.391547 
L 175.816136 113.19382 
L 175.937523 116.311002 
L 176.028563 112.44969 
L 176.058909 114.762954 
L 176.089256 114.653035 
L 176.119602 115.413109 
L 176.210642 113.253539 
L 176.240989 114.651637 
L 176.301682 112.57688 
L 176.332029 114.892455 
L 176.362375 114.826413 
L 176.392722 116.589053 
L 176.423068 115.568732 
L 176.514108 112.99054 
L 176.665841 117.65601 
L 176.787227 112.274583 
L 176.93896 117.652353 
L 176.969307 116.617793 
L 177.060347 114.541923 
L 177.090693 115.091797 
L 177.12104 117.19523 
L 177.151387 114.386661 
L 177.181733 111.747567 
L 177.21208 115.071503 
L 177.242426 114.050867 
L 177.272773 114.242302 
L 177.363813 116.375237 
L 177.394159 115.432388 
L 177.424506 115.6047 
L 177.454853 117.410598 
L 177.485199 113.65443 
L 177.515546 115.117357 
L 177.606586 110.745518 
L 177.636932 113.03556 
L 177.697625 114.781339 
L 177.788665 112.566429 
L 177.819012 113.024082 
L 177.849358 112.2727 
L 177.879705 115.03367 
L 177.940398 112.399592 
L 178.001091 113.766269 
L 178.031438 106.730261 
L 178.092131 112.386544 
L 178.152824 113.622216 
L 178.183171 113.536889 
L 178.213518 110.71226 
L 178.243864 114.773892 
L 178.274211 111.584748 
L 178.395597 115.245675 
L 178.425944 112.622584 
L 178.486637 115.112487 
L 178.516983 116.171938 
L 178.54733 112.606417 
L 178.608023 116.253668 
L 178.668716 114.861617 
L 178.699063 115.378411 
L 178.759756 116.288742 
L 178.820449 112.400499 
L 178.850796 116.296849 
L 178.941836 114.429113 
L 179.002529 116.235625 
L 179.063222 115.137655 
L 179.154262 112.579897 
L 179.214955 113.097421 
L 179.245302 115.514191 
L 179.305995 114.605765 
L 179.336342 112.188399 
L 179.366688 115.869683 
L 179.397035 114.816148 
L 179.427381 116.392149 
L 179.457728 116.338785 
L 179.488075 113.721503 
L 179.548768 117.098366 
L 179.579114 114.757023 
L 179.609461 114.982435 
L 179.639808 116.550352 
L 179.670154 114.16032 
L 179.700501 114.617634 
L 179.730847 114.242565 
L 179.761194 115.269229 
L 179.791541 114.97885 
L 179.97362 109.503992 
L 180.125353 115.65376 
L 180.1557 113.657465 
L 180.216393 114.638584 
L 180.246739 117.590667 
L 180.277086 114.38852 
L 180.307433 114.649786 
L 180.368126 115.216022 
L 180.428819 112.293044 
L 180.489512 118.558128 
L 180.580552 116.326298 
L 180.701938 113.157656 
L 180.732285 113.611118 
L 180.762632 113.739683 
L 180.792978 114.590319 
L 180.823325 113.946869 
L 180.853671 111.563747 
L 180.914365 113.71911 
L 181.035751 115.643399 
L 181.066098 115.414049 
L 181.157137 112.264989 
L 181.187484 114.743403 
L 181.217831 115.287288 
L 181.278524 114.782442 
L 181.30887 113.687446 
L 181.339217 115.27441 
L 181.369564 114.127702 
L 181.39991 114.563917 
L 181.430257 117.189342 
L 181.49095 114.347513 
L 181.521297 114.129371 
L 181.551643 111.488247 
L 181.58199 115.332281 
L 181.612336 114.156197 
L 181.67303 116.387666 
L 181.703376 114.374101 
L 181.794416 114.504928 
L 181.824763 111.910691 
L 181.885456 116.208919 
L 181.946149 115.074809 
L 182.006842 115.178654 
L 182.037189 114.068895 
L 182.097882 113.067021 
L 182.158575 116.379047 
L 182.310308 112.83431 
L 182.340655 115.213055 
L 182.371001 110.032213 
L 182.401348 113.93895 
L 182.431694 111.279894 
L 182.462041 114.58419 
L 182.492388 114.271238 
L 182.522734 114.392779 
L 182.644121 111.363358 
L 182.765507 116.663867 
L 182.91724 113.897338 
L 182.947587 114.424482 
L 182.977933 116.799913 
L 183.00828 113.617519 
L 183.068973 115.905451 
L 183.09932 117.159557 
L 183.129666 115.37875 
L 183.190359 113.682272 
L 183.220706 114.899815 
L 183.311746 117.432196 
L 183.342092 114.686756 
L 183.433132 115.49636 
L 183.493825 114.667998 
L 183.524172 118.022607 
L 183.584865 115.207323 
L 183.615212 114.730612 
L 183.645558 117.828771 
L 183.706251 115.170312 
L 183.736598 114.878928 
L 183.766945 115.074702 
L 183.827638 117.085878 
L 183.857984 114.647973 
L 183.888331 114.520019 
L 183.949024 116.3556 
L 184.100757 111.031 
L 184.222144 117.486939 
L 184.25249 117.35216 
L 184.282837 114.022779 
L 184.373877 115.509491 
L 184.404223 117.221732 
L 184.43457 113.193525 
L 184.464916 116.068859 
L 184.495263 111.307227 
L 184.586303 114.151468 
L 184.646996 116.907046 
L 184.707689 116.627523 
L 184.798729 115.838516 
L 184.859422 111.332754 
L 184.920115 113.795425 
L 184.950462 116.174835 
L 185.041502 115.004218 
L 185.071848 115.845838 
L 185.102195 114.641533 
L 185.193235 111.649102 
L 185.223581 114.444045 
L 185.284274 113.549438 
L 185.314621 110.223118 
L 185.344968 114.791637 
L 185.405661 112.14762 
L 185.466354 116.038407 
L 185.527047 115.991933 
L 185.557394 113.600309 
L 185.618087 117.279161 
L 185.739473 113.492652 
L 185.76982 118.397123 
L 185.800167 113.036208 
L 185.86086 115.947924 
L 185.891206 114.131858 
L 185.982246 114.201735 
L 186.042939 116.747979 
L 186.073286 113.881548 
L 186.103633 112.525729 
L 186.133979 115.358893 
L 186.164326 116.107945 
L 186.194672 115.608873 
L 186.316059 109.729868 
L 186.285712 115.919533 
L 186.346405 113.285793 
L 186.498138 116.494563 
L 186.528485 113.1647 
L 186.619525 114.235084 
L 186.740911 117.497928 
L 186.831951 113.40757 
L 186.862298 115.95666 
L 186.892644 116.568381 
L 186.922991 114.217995 
L 187.01403 115.154217 
L 187.044377 113.443717 
L 187.10507 115.954232 
L 187.165763 114.783032 
L 187.19611 117.074489 
L 187.256803 113.4201 
L 187.28715 113.110261 
L 187.37819 116.26076 
L 187.347843 111.983176 
L 187.408536 114.626661 
L 187.499576 116.312056 
L 187.529923 114.986046 
L 187.560269 115.508019 
L 187.590616 114.760395 
L 187.620962 114.975841 
L 187.651309 112.374708 
L 187.742349 112.666164 
L 187.772695 113.007132 
L 187.863735 117.212217 
L 187.894082 116.448509 
L 187.924428 113.15514 
L 187.985122 115.463964 
L 188.015468 115.613872 
L 188.076161 117.347167 
L 188.106508 115.862188 
L 188.197548 112.609622 
L 188.227894 116.31782 
L 188.288588 114.597058 
L 188.318934 113.713051 
L 188.349281 113.913469 
L 188.379627 115.447797 
L 188.409974 113.507523 
L 188.440321 112.699902 
L 188.470667 114.460476 
L 188.501014 115.266191 
L 188.53136 112.030205 
L 188.561707 117.095643 
L 188.592054 115.167839 
L 188.71344 113.851299 
L 188.743786 111.486818 
L 188.774133 115.937817 
L 188.80448 115.824958 
L 188.834826 115.191333 
L 188.865173 117.371357 
L 188.895519 112.139177 
L 188.925866 117.108618 
L 188.956213 113.902892 
L 189.047252 115.329043 
L 189.168639 117.189133 
L 189.198985 114.822057 
L 189.290025 116.218635 
L 189.350718 113.33176 
L 189.411412 114.625567 
L 189.441758 114.550577 
L 189.472105 113.480394 
L 189.502451 115.344376 
L 189.593491 116.133122 
L 189.714878 111.656566 
L 189.745224 114.669921 
L 189.836264 116.750155 
L 189.866611 115.689821 
L 189.987997 110.415821 
L 190.018344 115.183714 
L 190.04869 108.444466 
L 190.079037 113.724295 
L 190.13973 110.710931 
L 190.170077 111.665115 
L 190.261116 116.981173 
L 190.291463 112.49908 
L 190.382503 115.139575 
L 190.412849 115.612309 
L 190.443196 113.285348 
L 190.503889 115.974833 
L 190.534236 115.967486 
L 190.564582 116.652116 
L 190.594929 115.906401 
L 190.685969 116.245147 
L 190.716315 113.617763 
L 190.746662 114.122332 
L 190.807355 110.936797 
L 190.837702 113.663817 
L 190.928741 115.274802 
L 190.959088 115.016478 
L 190.989435 112.785811 
L 191.019781 116.157448 
L 191.050128 114.597591 
L 191.080474 114.996599 
L 191.141168 114.583144 
L 191.232207 118.002317 
L 191.262554 115.601081 
L 191.353594 116.3331 
L 191.38394 118.658807 
L 191.414287 115.766799 
L 191.444634 116.665753 
L 191.47498 116.596261 
L 191.505327 114.623669 
L 191.56602 114.993211 
L 191.626713 114.973053 
L 191.687406 118.043301 
L 191.7481 115.325539 
L 191.808793 115.388176 
L 191.839139 116.656029 
L 191.869486 114.277581 
L 191.899833 116.480382 
L 191.960526 112.320737 
L 192.021219 113.851912 
L 192.142605 115.821627 
L 192.233645 110.837355 
L 192.263992 117.157616 
L 192.355031 114.582051 
L 192.446071 117.444539 
L 192.506764 115.490352 
L 192.567458 113.380645 
L 192.597804 116.078223 
L 192.688844 114.047286 
L 192.658497 116.115768 
L 192.719191 114.284526 
L 192.749537 116.514701 
L 192.81023 112.959068 
L 192.931617 116.908987 
L 192.870924 112.448563 
L 192.961963 115.877384 
L 192.99231 115.701951 
L 193.053003 113.975633 
L 193.113696 114.835036 
L 193.144043 115.014074 
L 193.17439 117.805032 
L 193.204736 114.45798 
L 193.265429 116.507096 
L 193.386816 114.265961 
L 193.447509 116.056491 
L 193.477856 110.019257 
L 193.568895 113.664144 
L 193.599242 112.690242 
L 193.629589 115.60656 
L 193.720628 115.524668 
L 193.750975 114.661823 
L 193.781322 115.494703 
L 193.811668 118.701679 
L 193.902708 118.156023 
L 194.024094 114.352133 
L 194.054441 115.158021 
L 194.084787 114.981556 
L 194.115134 111.946377 
L 194.145481 113.17701 
L 194.175827 118.152803 
L 194.266867 117.528893 
L 194.297214 113.867408 
L 194.388253 116.10589 
L 194.479293 116.832184 
L 194.50964 117.319933 
L 194.631026 114.748407 
L 194.691719 116.794487 
L 194.722066 111.290902 
L 194.782759 114.719387 
L 194.813106 116.584539 
L 194.873799 115.166085 
L 194.904146 114.942899 
L 194.934492 119.685845 
L 194.995185 117.326353 
L 195.055879 114.084377 
L 195.086225 114.179909 
L 195.116572 117.640222 
L 195.177265 115.802241 
L 195.298651 113.767783 
L 195.237958 115.872219 
L 195.359345 114.315652 
L 195.389691 116.867512 
L 195.420038 113.648195 
L 195.480731 115.61487 
L 195.511078 115.760706 
L 195.632464 113.326595 
L 195.66281 117.949065 
L 195.75385 115.662004 
L 195.784197 115.771087 
L 195.84489 115.739042 
L 195.875237 117.338316 
L 195.996623 111.732975 
L 196.087663 115.749668 
L 196.118009 113.822189 
L 196.148356 113.531156 
L 196.178703 114.325505 
L 196.209049 111.342517 
L 196.269742 115.442197 
L 196.300089 113.62661 
L 196.360782 115.750319 
L 196.391129 113.666926 
L 196.482169 115.863387 
L 196.512515 113.948551 
L 196.542862 117.563041 
L 196.573208 116.523511 
L 196.603555 116.668297 
L 196.694595 116.675818 
L 196.815981 112.304682 
L 196.846328 115.463719 
L 196.907021 113.103744 
L 196.937368 112.320355 
L 196.967714 114.078207 
L 197.058754 116.90905 
L 197.089101 116.416715 
L 197.149794 115.611569 
L 197.210487 116.003588 
L 197.27118 118.130658 
L 197.331873 116.751912 
L 197.392566 117.020523 
L 197.45326 115.223754 
L 197.513953 116.558443 
L 197.604993 113.267874 
L 197.635339 114.244104 
L 197.696032 115.20628 
L 197.756726 114.374293 
L 197.817419 116.852268 
L 197.878112 115.366831 
L 197.908459 115.307298 
L 197.969152 116.637366 
L 198.029845 116.328156 
L 198.060192 116.797968 
L 198.090538 115.778639 
L 198.120885 116.501103 
L 198.181578 116.028834 
L 198.211925 112.650905 
L 198.242271 117.119881 
L 198.272618 114.845273 
L 198.333311 116.384541 
L 198.363658 115.41872 
L 198.394004 113.483299 
L 198.424351 116.963445 
L 198.454697 118.104693 
L 198.485044 116.419732 
L 198.515391 118.073973 
L 198.636777 113.022647 
L 198.667124 114.106319 
L 198.69747 117.130725 
L 198.78851 116.547688 
L 198.818857 117.000241 
L 198.940243 112.669202 
L 198.97059 113.842666 
L 199.000936 113.784109 
L 199.091976 115.920284 
L 199.122322 115.326079 
L 199.213362 115.721789 
L 199.243709 112.148248 
L 199.395442 116.639646 
L 199.547175 113.928905 
L 199.577521 114.128561 
L 199.698908 118.001427 
L 199.789948 115.597256 
L 199.820294 117.651717 
L 199.880987 116.885491 
L 199.911334 112.167981 
L 199.972027 114.195411 
L 200.002374 116.237304 
L 200.03272 112.065633 
L 200.063067 114.54024 
L 200.093414 113.95738 
L 200.12376 115.182129 
L 200.154107 119.071092 
L 200.2148 115.038634 
L 200.245147 113.365579 
L 200.275493 114.861368 
L 200.366533 118.067798 
L 200.39688 113.276177 
L 200.487919 116.12345 
L 200.518266 116.172727 
L 200.548613 116.026213 
L 200.639652 117.436932 
L 200.700345 117.200737 
L 200.730692 113.934825 
L 200.761039 117.84121 
L 200.791385 114.898866 
L 200.821732 119.34246 
L 200.882425 114.13791 
L 200.943118 115.635625 
L 200.973465 114.965419 
L 201.003811 114.148479 
L 201.034158 114.505274 
L 201.064505 116.269745 
L 201.125198 114.896214 
L 201.155544 114.943722 
L 201.185891 115.580331 
L 201.216238 115.136289 
L 201.246584 109.967382 
L 201.307277 115.417776 
L 201.337624 112.226858 
L 201.367971 112.521921 
L 201.398317 112.467298 
L 201.45901 115.740502 
L 201.519704 115.703481 
L 201.671437 117.535053 
L 201.701783 115.865419 
L 201.762476 117.358752 
L 201.792823 118.482563 
L 201.82317 115.40306 
L 201.914209 116.03769 
L 201.944556 117.42512 
L 201.974903 113.93934 
L 202.217675 118.615794 
L 202.248022 112.073816 
L 202.308715 115.919686 
L 202.369408 117.37762 
L 202.430101 116.812681 
L 202.521141 117.220164 
L 202.551488 113.866339 
L 202.703221 116.147635 
L 202.733567 115.50958 
L 202.794261 115.863185 
L 202.824607 110.122794 
L 202.854954 117.437815 
L 202.8853 117.039137 
L 203.006687 113.758366 
L 203.06738 114.293374 
L 203.219113 118.014231 
L 203.279806 116.766793 
L 203.370846 115.199189 
L 203.340499 117.75971 
L 203.401193 115.871222 
L 203.431539 117.958844 
L 203.461886 114.432158 
L 203.492232 114.303201 
L 203.552926 117.080099 
L 203.583272 116.880232 
L 203.613619 114.622937 
L 203.674312 114.65283 
L 203.795698 117.593133 
L 203.826045 113.954106 
L 203.917085 116.162924 
L 203.977778 110.765242 
L 204.038471 114.172767 
L 204.099164 114.984126 
L 204.129511 114.205243 
L 204.159857 112.887847 
L 204.190204 115.381343 
L 204.31159 117.576225 
L 204.40263 114.569894 
L 204.372284 118.430792 
L 204.432977 114.661387 
L 204.49367 116.252591 
L 204.524017 114.679427 
L 204.554363 114.341914 
L 204.58471 117.20849 
L 204.615056 111.130258 
L 204.67575 116.366987 
L 204.706096 114.782823 
L 204.766789 115.409166 
L 204.797136 117.807141 
L 204.888176 116.395827 
L 204.918522 118.416509 
L 204.948869 117.77171 
L 204.979216 114.897212 
L 205.039909 116.257451 
L 205.070255 118.445317 
L 205.130949 115.245433 
L 205.191642 117.3888 
L 205.221988 114.038813 
L 205.313028 115.620831 
L 205.343375 114.921338 
L 205.373721 115.432613 
L 205.404068 117.580766 
L 205.464761 115.392977 
L 205.495108 115.420955 
L 205.525454 109.29032 
L 205.555801 116.1145 
L 205.586148 115.145564 
L 205.646841 116.142609 
L 205.677187 118.637281 
L 205.737881 115.886104 
L 205.798574 114.009081 
L 205.82892 116.843381 
L 205.859267 111.985247 
L 205.889613 115.960566 
L 205.91996 114.63431 
L 205.950307 116.948972 
L 205.980653 117.197267 
L 206.011 113.981345 
L 206.071693 116.663375 
L 206.10204 116.931144 
L 206.162733 117.786884 
L 206.223426 114.39249 
L 206.314466 117.640745 
L 206.344812 116.027469 
L 206.375159 116.706935 
L 206.405506 114.733675 
L 206.435852 118.234807 
L 206.466199 116.237174 
L 206.496545 117.984395 
L 206.526892 115.575256 
L 206.587585 115.851939 
L 206.617932 114.190979 
L 206.708972 116.673249 
L 206.739318 114.924564 
L 206.769665 111.790594 
L 206.800011 117.347785 
L 206.830358 116.042019 
L 206.860705 116.591361 
L 206.891051 112.32225 
L 206.921398 118.264363 
L 206.951744 117.174489 
L 207.012438 114.809223 
L 207.073131 115.42208 
L 207.103477 115.114816 
L 207.224864 117.224214 
L 207.25521 117.457075 
L 207.285557 118.742167 
L 207.315904 117.027688 
L 207.376597 118.893188 
L 207.467637 111.0406 
L 207.619369 117.485871 
L 207.649716 118.3251 
L 207.680063 114.136408 
L 207.740756 116.248784 
L 207.801449 118.700208 
L 207.892489 114.72939 
L 207.922835 117.071648 
L 207.953182 114.037083 
L 208.013875 118.579007 
L 208.165608 113.979467 
L 208.256648 117.305806 
L 208.286995 117.304286 
L 208.317341 113.82685 
L 208.408381 115.756658 
L 208.438728 118.969008 
L 208.469074 113.011746 
L 208.499421 116.679946 
L 208.529767 111.948074 
L 208.590461 116.081759 
L 208.620807 116.857968 
L 208.651154 116.648514 
L 208.6815 113.306021 
L 208.711847 117.624489 
L 208.742194 116.471321 
L 208.802887 115.220483 
L 208.86358 117.499411 
L 208.924273 116.215255 
L 208.95462 116.144371 
L 209.04566 112.603518 
L 209.136699 117.743879 
L 209.167046 116.011014 
L 209.288432 117.233369 
L 209.318779 113.003598 
L 209.379472 118.110685 
L 209.409819 115.641498 
L 209.470512 119.762581 
L 209.531205 116.679111 
L 209.561552 115.986673 
L 209.591898 118.400331 
L 209.652591 115.295229 
L 209.743631 117.386971 
L 209.834671 115.103091 
L 209.865018 117.848927 
L 209.956057 116.141594 
L 209.986404 113.772145 
L 210.047097 117.135764 
L 210.10779 115.019788 
L 210.138137 115.76466 
L 210.168484 117.871168 
L 210.229177 115.175083 
L 210.259523 112.88191 
L 210.28987 117.765928 
L 210.320217 117.93232 
L 210.441603 113.906538 
L 210.47195 118.786592 
L 210.532643 113.804021 
L 210.623683 118.634033 
L 210.684376 117.705339 
L 210.714722 117.334999 
L 210.775416 117.722083 
L 210.805762 117.848762 
L 210.836109 113.829621 
L 210.896802 117.233177 
L 211.048535 111.638651 
L 211.078881 114.168963 
L 211.139575 118.448449 
L 211.169921 116.43455 
L 211.230614 118.632657 
L 211.291308 113.57818 
L 211.412694 116.999968 
L 211.443041 114.2314 
L 211.503734 115.753693 
L 211.594774 117.711005 
L 211.71616 113.462024 
L 211.746507 117.61143 
L 211.837546 115.374774 
L 211.89824 117.023469 
L 211.928586 118.203861 
L 211.958933 114.824602 
L 212.049973 115.465845 
L 212.171359 119.975951 
L 212.201706 115.152975 
L 212.292745 116.197127 
L 212.323092 115.157586 
L 212.353439 115.510163 
L 212.383785 117.838549 
L 212.414132 115.360875 
L 212.474825 116.839683 
L 212.535518 118.190498 
L 212.626558 113.49503 
L 212.687251 113.914823 
L 212.838984 117.866684 
L 212.869331 117.477539 
L 212.899677 115.437583 
L 212.930024 119.537882 
L 212.96037 117.893687 
L 212.990717 118.682953 
L 213.021064 117.609651 
L 213.081757 118.191252 
L 213.14245 115.878157 
L 213.172797 115.948383 
L 213.203143 116.669461 
L 213.23349 116.081782 
L 213.263836 114.293454 
L 213.294183 116.294191 
L 213.32453 117.741925 
L 213.354876 117.145608 
L 213.385223 114.143947 
L 213.476263 115.808403 
L 213.536956 118.51638 
L 213.627996 118.037444 
L 213.779729 113.444923 
L 213.901115 115.894822 
L 213.992155 113.037256 
L 214.052848 118.333694 
L 214.113541 116.572403 
L 214.204581 116.873134 
L 214.265274 110.018289 
L 214.417007 119.023381 
L 214.508047 116.218866 
L 214.538393 118.115346 
L 214.65978 114.733815 
L 214.690126 116.245101 
L 214.720473 116.118555 
L 214.781166 114.013155 
L 214.841859 117.438399 
L 214.872206 111.692366 
L 214.932899 115.052937 
L 215.054286 117.239754 
L 215.145325 113.46962 
L 215.114979 117.991701 
L 215.175672 114.267643 
L 215.236365 118.243529 
L 215.327405 117.560509 
L 215.388098 113.206161 
L 215.418445 117.45205 
L 215.448791 117.886114 
L 215.479138 117.736868 
L 215.570178 118.23761 
L 215.630871 114.444548 
L 215.721911 113.750736 
L 215.752257 115.845601 
L 215.782604 115.815246 
L 215.812951 116.125331 
L 215.843297 117.830155 
L 215.873644 113.28828 
L 215.934337 115.421927 
L 215.99503 114.869818 
L 216.025377 116.896827 
L 216.055723 114.93442 
L 216.08607 117.555478 
L 216.116416 118.576404 
L 216.146763 116.969229 
L 216.17711 116.671882 
L 216.207456 117.97344 
L 216.237803 113.775527 
L 216.328843 114.590804 
L 216.389536 110.97562 
L 216.419882 113.938092 
L 216.510922 116.550026 
L 216.480576 112.453591 
L 216.541269 115.797541 
L 216.571615 113.756587 
L 216.632309 117.073485 
L 216.693002 114.897013 
L 216.723348 115.895747 
L 216.753695 118.739929 
L 216.784042 115.342743 
L 216.814388 116.860368 
" clip-path="url(#p723924dd43)" style="fill: none; stroke: #000000; stroke-width: 0.7; stroke-linecap: square"/>
   </g>
   <g id="patch_3">
    <path d="M 57.526621 125.689091 
L 57.526621 -0 
" style="fill: none; stroke: #000000; stroke-width: 0.8; stroke-linejoin: miter; stroke-linecap: square"/>
   </g>
   <g id="patch_4">
    <path d="M 57.526621 125.689091 
L 224.39952 125.689091 
" style="fill: none; stroke: #000000; stroke-width: 0.8; stroke-linejoin: miter; stroke-linecap: square"/>
   </g>
  </g>
 </g>
 <defs>
  <clipPath id="p723924dd43">
   <rect x="57.526621" y="0" width="166.872899" height="125.689091"/>
  </clipPath>
 </defs>
</svg>
