<?xml version="1.0" encoding="utf-8" standalone="no"?>
<!DOCTYPE svg PUBLIC "-//W3C//DTD SVG 1.1//EN"
  "http://www.w3.org/Graphics/SVG/1.1/DTD/svg11.dtd">
<svg xmlns:xlink="http://www.w3.org/1999/xlink" width="227.52pt" height="169.923775pt" viewBox="0 0 227.52 169.923775" xmlns="http://www.w3.org/2000/svg" version="1.1">
 <metadata>
  <rdf:RDF xmlns:dc="http://purl.org/dc/elements/1.1/" xmlns:cc="http://creativecommons.org/ns#" xmlns:rdf="http://www.w3.org/1999/02/22-rdf-syntax-ns#">
   <cc:Work>
    <dc:type rdf:resource="http://purl.org/dc/dcmitype/StillImage"/>
    <dc:date>2023-05-30T15:22:33.762868</dc:date>
    <dc:format>image/svg+xml</dc:format>
    <dc:creator>
     <cc:Agent>
      <dc:title>Matplotlib v3.7.1, https://matplotlib.org/</dc:title>
     </cc:Agent>
    </dc:creator>
   </cc:Work>
  </rdf:RDF>
 </metadata>
 <defs>
  <style type="text/css">*{stroke-linejoin: round; stroke-linecap: butt}</style>
 </defs>
 <g id="figure_1">
  <g id="patch_1">
   <path d="M 0 169.923775 
L 227.52 169.923775 
L 227.52 0 
L 0 0 
L 0 169.923775 
z
" style="fill: none"/>
  </g>
  <g id="axes_1">
   <g id="patch_2">
    <path d="M 57.526621 128.813346 
L 227.52 128.813346 
L 227.52 3.410552 
L 57.526621 3.410552 
L 57.526621 128.813346 
z
" style="fill: none"/>
   </g>
   <g id="matplotlib.axis_1">
    <g id="xtick_1">
     <g id="line2d_1">
      <defs>
       <path id="m1ee90ce28d" d="M 0 0 
L 0 3.5 
" style="stroke: #000000; stroke-width: 0.8"/>
      </defs>
      <g>
       <use xlink:href="#m1ee90ce28d" x="65.253593" y="128.813346" style="stroke: #000000; stroke-width: 0.8"/>
      </g>
     </g>
     <g id="text_1">
      <!-- $\mathdefault{0}$ -->
      <g transform="translate(61.14145 148.266646) scale(0.18 -0.18)">
       <defs>
        <path id="CMR17-30" d="M 2688 2038 
C 2688 2430 2682 3099 2413 3613 
C 2176 4063 1798 4224 1466 4224 
C 1158 4224 768 4082 525 3620 
C 269 3137 243 2539 243 2038 
C 243 1671 250 1112 448 623 
C 723 -39 1216 -128 1466 -128 
C 1760 -128 2208 -7 2470 604 
C 2662 1048 2688 1568 2688 2038 
z
M 1466 -26 
C 1056 -26 813 328 723 816 
C 653 1196 653 1749 653 2109 
C 653 2604 653 3015 736 3407 
C 858 3954 1216 4121 1466 4121 
C 1728 4121 2067 3947 2189 3420 
C 2272 3054 2278 2623 2278 2109 
C 2278 1691 2278 1176 2202 797 
C 2067 96 1690 -26 1466 -26 
z
" transform="scale(0.015625)"/>
       </defs>
       <use xlink:href="#CMR17-30" transform="scale(0.996264)"/>
      </g>
     </g>
    </g>
    <g id="xtick_2">
     <g id="line2d_2">
      <g>
       <use xlink:href="#m1ee90ce28d" x="127.081732" y="128.813346" style="stroke: #000000; stroke-width: 0.8"/>
      </g>
     </g>
     <g id="text_2">
      <!-- $\mathdefault{20000}$ -->
      <g transform="translate(106.521018 148.266646) scale(0.18 -0.18)">
       <defs>
        <path id="CMR17-32" d="M 2669 990 
L 2554 990 
C 2490 537 2438 460 2413 422 
C 2381 371 1920 371 1830 371 
L 602 371 
C 832 620 1280 1073 1824 1596 
C 2214 1966 2669 2400 2669 3033 
C 2669 3788 2067 4224 1395 4224 
C 691 4224 262 3603 262 3027 
C 262 2777 448 2745 525 2745 
C 589 2745 781 2783 781 3007 
C 781 3206 614 3264 525 3264 
C 486 3264 448 3257 422 3244 
C 544 3788 915 4057 1306 4057 
C 1862 4057 2227 3616 2227 3033 
C 2227 2477 1901 1998 1536 1583 
L 262 147 
L 262 0 
L 2515 0 
L 2669 990 
z
" transform="scale(0.015625)"/>
       </defs>
       <use xlink:href="#CMR17-32" transform="scale(0.996264)"/>
       <use xlink:href="#CMR17-30" transform="translate(45.690477 0) scale(0.996264)"/>
       <use xlink:href="#CMR17-30" transform="translate(91.380954 0) scale(0.996264)"/>
       <use xlink:href="#CMR17-30" transform="translate(137.071431 0) scale(0.996264)"/>
       <use xlink:href="#CMR17-30" transform="translate(182.761908 0) scale(0.996264)"/>
      </g>
     </g>
    </g>
    <g id="xtick_3">
     <g id="line2d_3">
      <g>
       <use xlink:href="#m1ee90ce28d" x="188.909872" y="128.813346" style="stroke: #000000; stroke-width: 0.8"/>
      </g>
     </g>
     <g id="text_3">
      <!-- $\mathdefault{40000}$ -->
      <g transform="translate(168.349158 148.266646) scale(0.18 -0.18)">
       <defs>
        <path id="CMR17-34" d="M 2150 4147 
C 2150 4281 2144 4288 2029 4288 
L 128 1254 
L 128 1088 
L 1779 1088 
L 1779 460 
C 1779 230 1766 166 1318 166 
L 1197 166 
L 1197 0 
C 1402 12 1747 12 1965 12 
C 2182 12 2528 12 2733 0 
L 2733 166 
L 2611 166 
C 2163 166 2150 230 2150 460 
L 2150 1088 
L 2803 1088 
L 2803 1254 
L 2150 1254 
L 2150 4147 
z
M 1798 3723 
L 1798 1254 
L 256 1254 
L 1798 3723 
z
" transform="scale(0.015625)"/>
       </defs>
       <use xlink:href="#CMR17-34" transform="scale(0.996264)"/>
       <use xlink:href="#CMR17-30" transform="translate(45.690477 0) scale(0.996264)"/>
       <use xlink:href="#CMR17-30" transform="translate(91.380954 0) scale(0.996264)"/>
       <use xlink:href="#CMR17-30" transform="translate(137.071431 0) scale(0.996264)"/>
       <use xlink:href="#CMR17-30" transform="translate(182.761908 0) scale(0.996264)"/>
      </g>
     </g>
    </g>
    <g id="text_4">
     <!-- Train Step -->
     <g transform="translate(106.321482 166.824298) scale(0.16 -0.16)">
      <defs>
       <path id="CMR17-54" d="M 3981 4332 
L 288 4332 
L 179 2924 
L 294 2924 
C 378 3981 467 4166 1453 4166 
C 1568 4166 1754 4166 1805 4159 
C 1926 4140 1926 4064 1926 3917 
L 1926 465 
C 1926 236 1907 166 1376 166 
L 1197 166 
L 1197 0 
C 1504 6 1824 12 2138 12 
C 2451 12 2771 6 3078 0 
L 3078 166 
L 2899 166 
C 2368 166 2349 236 2349 465 
L 2349 3917 
C 2349 4057 2349 4134 2464 4159 
C 2515 4166 2701 4166 2816 4166 
C 3795 4166 3891 3981 3974 2924 
L 4090 2924 
L 3981 4332 
z
" transform="scale(0.015625)"/>
       <path id="CMR17-72" d="M 960 1517 
C 960 2134 1222 2713 1702 2713 
C 1747 2713 1792 2707 1837 2687 
C 1837 2687 1696 2642 1696 2475 
C 1696 2321 1818 2257 1914 2257 
C 1990 2257 2131 2302 2131 2482 
C 2131 2687 1926 2816 1709 2816 
C 1222 2816 1011 2340 947 2115 
L 941 2115 
L 941 2816 
L 198 2745 
L 198 2578 
C 576 2578 634 2540 634 2231 
L 634 443 
C 634 198 608 166 198 166 
L 198 0 
C 352 12 646 12 813 12 
C 998 12 1325 12 1498 0 
L 1498 166 
C 1037 166 960 166 960 455 
L 960 1517 
z
" transform="scale(0.015625)"/>
       <path id="CMR17-61" d="M 2304 1656 
C 2304 2048 2304 2275 2035 2534 
C 1798 2751 1523 2816 1306 2816 
C 800 2816 435 2408 435 1977 
C 435 1740 627 1728 666 1728 
C 749 1728 896 1779 896 1958 
C 896 2118 774 2188 666 2188 
C 640 2188 608 2182 589 2176 
C 723 2594 1069 2713 1293 2713 
C 1613 2713 1965 2421 1965 1875 
L 1965 1632 
C 1587 1619 1133 1568 774 1373 
C 371 1147 256 822 256 576 
C 256 77 832 -64 1171 -64 
C 1523 -64 1850 135 1990 505 
C 2003 219 2182 -39 2464 -39 
C 2598 -39 2938 51 2938 563 
L 2938 926 
L 2822 926 
L 2822 557 
C 2822 161 2650 109 2566 109 
C 2304 109 2304 446 2304 732 
L 2304 1656 
z
M 1965 887 
C 1965 323 1568 38 1216 38 
C 896 38 646 278 646 576 
C 646 771 730 1114 1101 1322 
C 1408 1497 1760 1523 1965 1536 
L 1965 887 
z
" transform="scale(0.015625)"/>
       <path id="CMR17-69" d="M 992 3961 
C 992 4102 877 4224 730 4224 
C 589 4224 467 4108 467 3961 
C 467 3820 582 3699 730 3699 
C 870 3699 992 3814 992 3961 
z
M 243 2745 
L 243 2579 
C 602 2579 653 2540 653 2231 
L 653 443 
C 653 198 627 166 218 166 
L 218 0 
C 371 12 646 12 806 12 
C 960 12 1222 12 1370 0 
L 1370 166 
C 992 166 979 205 979 436 
L 979 2816 
L 243 2745 
z
" transform="scale(0.015625)"/>
       <path id="CMR17-6e" d="M 2656 1954 
C 2656 2282 2592 2816 1837 2816 
C 1331 2816 1069 2424 973 2166 
L 966 2166 
L 966 2816 
L 211 2745 
L 211 2578 
C 589 2578 646 2540 646 2231 
L 646 443 
C 646 198 621 166 211 166 
L 211 0 
C 365 12 646 12 813 12 
C 979 12 1267 12 1421 0 
L 1421 166 
C 1011 166 986 192 986 443 
L 986 1678 
C 986 2269 1344 2713 1792 2713 
C 2266 2713 2317 2289 2317 1980 
L 2317 443 
C 2317 198 2291 166 1882 166 
L 1882 0 
C 2035 12 2317 12 2483 12 
C 2650 12 2938 12 3091 0 
L 3091 166 
C 2682 166 2656 192 2656 443 
L 2656 1954 
z
" transform="scale(0.015625)"/>
       <path id="CMR17-53" d="M 2803 4351 
C 2803 4467 2797 4473 2758 4473 
C 2720 4473 2707 4447 2682 4390 
L 2490 3965 
C 2246 4320 1875 4480 1472 4480 
C 819 4480 294 3958 294 3301 
C 294 3101 339 2817 557 2546 
C 794 2250 1018 2198 1530 2063 
C 1722 2011 2042 1927 2106 1901 
C 2470 1747 2662 1360 2662 999 
C 2662 534 2336 38 1779 38 
C 1094 38 454 425 410 1328 
C 403 1431 397 1437 352 1437 
C 301 1437 294 1431 294 1302 
L 294 0 
C 294 -116 301 -122 339 -122 
C 384 -122 397 -90 486 109 
C 493 128 493 141 614 386 
C 934 -39 1472 -128 1779 -128 
C 2477 -128 2970 457 2970 1141 
C 2970 1476 2848 1734 2778 1850 
C 2509 2263 2221 2340 1914 2417 
C 1869 2437 1856 2437 1498 2527 
C 1152 2617 1005 2662 845 2836 
C 666 3036 602 3243 602 3449 
C 602 3868 934 4326 1478 4326 
C 2157 4326 2579 3842 2675 3036 
C 2694 2920 2701 2914 2746 2914 
C 2803 2914 2803 2933 2803 3043 
L 2803 4351 
z
" transform="scale(0.015625)"/>
       <path id="CMR17-74" d="M 966 2585 
L 1862 2585 
L 1862 2752 
L 966 2752 
L 966 3968 
L 851 3968 
C 838 3292 614 2700 70 2687 
L 70 2585 
L 627 2585 
L 627 778 
C 627 655 627 -64 1370 -64 
C 1747 -64 1965 308 1965 784 
L 1965 1151 
L 1850 1151 
L 1850 790 
C 1850 347 1677 51 1408 51 
C 1222 51 966 179 966 765 
L 966 2585 
z
" transform="scale(0.015625)"/>
       <path id="CMR17-65" d="M 2438 1503 
C 2464 1529 2464 1542 2464 1606 
C 2464 2251 2118 2816 1389 2816 
C 710 2816 173 2175 173 1394 
C 173 554 781 -64 1459 -64 
C 2176 -64 2458 619 2458 755 
C 2458 800 2419 800 2406 800 
C 2362 800 2355 787 2330 709 
C 2189 270 1837 51 1504 51 
C 1229 51 954 206 781 490 
C 582 819 582 1200 582 1503 
L 2438 1503 
z
M 589 1600 
C 634 2511 1126 2713 1382 2713 
C 1818 2713 2112 2308 2118 1600 
L 589 1600 
z
" transform="scale(0.015625)"/>
       <path id="CMR17-70" d="M 1408 -1114 
C 998 -1114 973 -1088 973 -834 
L 973 380 
C 1158 109 1427 -64 1766 -64 
C 2406 -64 3053 503 3053 1382 
C 3053 2196 2496 2816 1837 2816 
C 1453 2816 1139 2603 960 2345 
L 960 2816 
L 198 2745 
L 198 2577 
C 576 2577 634 2539 634 2228 
L 634 -834 
C 634 -1081 608 -1114 198 -1114 
L 198 -1280 
C 352 -1268 634 -1268 800 -1268 
C 966 -1268 1254 -1268 1408 -1280 
L 1408 -1114 
z
M 973 2015 
C 973 2106 973 2241 1222 2481 
C 1254 2506 1472 2700 1792 2700 
C 2259 2700 2643 2112 2643 1376 
C 2643 639 2234 38 1728 38 
C 1498 38 1248 148 1056 451 
C 973 594 973 632 973 736 
L 973 2015 
z
" transform="scale(0.015625)"/>
      </defs>
      <use xlink:href="#CMR17-54" transform="scale(0.996264)"/>
      <use xlink:href="#CMR17-72" transform="translate(58.702625 0) scale(0.996264)"/>
      <use xlink:href="#CMR17-61" transform="translate(93.983393 0) scale(0.996264)"/>
      <use xlink:href="#CMR17-69" transform="translate(139.67387 0) scale(0.996264)"/>
      <use xlink:href="#CMR17-6e" transform="translate(164.544929 0) scale(0.996264)"/>
      <use xlink:href="#CMR17-53" transform="translate(245.516265 0) scale(0.996264)"/>
      <use xlink:href="#CMR17-74" transform="translate(296.411634 0) scale(0.996264)"/>
      <use xlink:href="#CMR17-65" transform="translate(331.692402 0) scale(0.996264)"/>
      <use xlink:href="#CMR17-70" transform="translate(372.178063 0) scale(0.996264)"/>
     </g>
    </g>
   </g>
   <g id="matplotlib.axis_2">
    <g id="ytick_1">
     <g id="line2d_4">
      <defs>
       <path id="m95e1c05ea8" d="M 0 0 
L -3.5 0 
" style="stroke: #000000; stroke-width: 0.8"/>
      </defs>
      <g>
       <use xlink:href="#m95e1c05ea8" x="57.526621" y="69.377404" style="stroke: #000000; stroke-width: 0.8"/>
      </g>
     </g>
     <g id="text_5">
      <!-- $\mathdefault{10^{-1}}$ -->
      <g transform="translate(18.169064 75.604054) scale(0.18 -0.18)">
       <defs>
        <path id="CMR17-31" d="M 1702 4083 
C 1702 4217 1696 4224 1606 4224 
C 1357 3927 979 3833 621 3820 
C 602 3820 570 3820 563 3808 
C 557 3795 557 3782 557 3648 
C 755 3648 1088 3686 1344 3839 
L 1344 467 
C 1344 243 1331 166 781 166 
L 589 166 
L 589 0 
C 896 6 1216 12 1523 12 
C 1830 12 2150 6 2458 0 
L 2458 166 
L 2266 166 
C 1715 166 1702 236 1702 467 
L 1702 4083 
z
" transform="scale(0.015625)"/>
        <path id="CMSY10-0" d="M 4218 1472 
C 4326 1472 4442 1472 4442 1600 
C 4442 1728 4326 1728 4218 1728 
L 755 1728 
C 646 1728 531 1728 531 1600 
C 531 1472 646 1472 755 1472 
L 4218 1472 
z
" transform="scale(0.015625)"/>
       </defs>
       <use xlink:href="#CMR17-31" transform="scale(0.996264)"/>
       <use xlink:href="#CMR17-30" transform="translate(45.690477 0) scale(0.996264)"/>
       <use xlink:href="#CMSY10-0" transform="translate(91.380954 36.153639) scale(0.697382)"/>
       <use xlink:href="#CMR17-31" transform="translate(145.621947 36.153639) scale(0.697382)"/>
      </g>
     </g>
    </g>
    <g id="ytick_2">
     <g id="line2d_5">
      <g>
       <use xlink:href="#m95e1c05ea8" x="57.526621" y="6.22665" style="stroke: #000000; stroke-width: 0.8"/>
      </g>
     </g>
     <g id="text_6">
      <!-- $\mathdefault{10^{2}}$ -->
      <g transform="translate(27.93244 12.4533) scale(0.18 -0.18)">
       <use xlink:href="#CMR17-31" transform="scale(0.996264)"/>
       <use xlink:href="#CMR17-30" transform="translate(45.690477 0) scale(0.996264)"/>
       <use xlink:href="#CMR17-32" transform="translate(91.380954 36.153639) scale(0.697382)"/>
      </g>
     </g>
    </g>
    <g id="text_7">
     <!-- Train Loss -->
     <g transform="translate(11.069588 102.073947) rotate(-90) scale(0.16 -0.16)">
      <defs>
       <path id="CMR17-4c" d="M 3469 1612 
L 3354 1612 
C 3302 981 3219 166 2125 166 
L 1530 166 
C 1274 166 1261 198 1261 414 
L 1261 3892 
C 1261 4121 1274 4185 1760 4185 
L 1901 4185 
L 1901 4352 
C 1638 4339 1331 4339 1069 4339 
C 870 4339 512 4339 326 4352 
L 326 4185 
C 768 4185 838 4185 838 3898 
L 838 453 
C 838 166 768 166 326 166 
L 326 0 
L 3315 0 
L 3469 1612 
z
" transform="scale(0.015625)"/>
       <path id="CMR17-6f" d="M 2758 1356 
C 2758 2176 2163 2816 1466 2816 
C 768 2816 173 2176 173 1356 
C 173 550 768 -64 1466 -64 
C 2163 -64 2758 550 2758 1356 
z
M 1466 51 
C 1165 51 909 230 762 480 
C 602 768 582 1126 582 1408 
C 582 1676 595 2009 762 2297 
C 890 2508 1139 2713 1466 2713 
C 1754 2713 1997 2553 2150 2329 
C 2349 2028 2349 1606 2349 1408 
C 2349 1158 2336 774 2163 467 
C 1984 172 1709 51 1466 51 
z
" transform="scale(0.015625)"/>
       <path id="CMR17-73" d="M 1978 2688 
C 1978 2803 1971 2809 1933 2809 
C 1907 2809 1901 2803 1824 2707 
C 1805 2681 1747 2617 1728 2592 
C 1523 2809 1235 2816 1126 2816 
C 416 2816 160 2444 160 2073 
C 160 1497 813 1363 998 1324 
C 1402 1241 1542 1216 1677 1100 
C 1760 1024 1901 883 1901 652 
C 1901 384 1747 38 1158 38 
C 602 38 403 460 288 1024 
C 269 1113 269 1120 218 1120 
C 166 1120 160 1113 160 985 
L 160 64 
C 160 -52 166 -58 205 -58 
C 237 -58 243 -52 275 0 
C 314 57 410 211 448 275 
C 576 102 800 -64 1158 -64 
C 1792 -64 2131 281 2131 780 
C 2131 1107 1958 1280 1875 1356 
C 1683 1555 1459 1600 1190 1651 
C 838 1728 390 1817 390 2208 
C 390 2374 480 2726 1126 2726 
C 1811 2726 1850 2086 1862 1881 
C 1869 1849 1901 1843 1920 1843 
C 1978 1843 1978 1862 1978 1971 
L 1978 2688 
z
" transform="scale(0.015625)"/>
      </defs>
      <use xlink:href="#CMR17-54" transform="scale(0.996264)"/>
      <use xlink:href="#CMR17-72" transform="translate(58.702625 0) scale(0.996264)"/>
      <use xlink:href="#CMR17-61" transform="translate(93.983393 0) scale(0.996264)"/>
      <use xlink:href="#CMR17-69" transform="translate(139.67387 0) scale(0.996264)"/>
      <use xlink:href="#CMR17-6e" transform="translate(164.544929 0) scale(0.996264)"/>
      <use xlink:href="#CMR17-4c" transform="translate(245.516265 0) scale(0.996264)"/>
      <use xlink:href="#CMR17-6f" transform="translate(302.897673 0) scale(0.996264)"/>
      <use xlink:href="#CMR17-73" transform="translate(348.58815 0) scale(0.996264)"/>
      <use xlink:href="#CMR17-73" transform="translate(384.389487 0) scale(0.996264)"/>
     </g>
    </g>
   </g>
   <g id="line2d_6">
    <path d="M 65.253593 9.110679 
L 65.408163 50.741112 
L 65.439077 49.580497 
L 65.624561 60.617605 
L 65.933702 77.143419 
L 65.964616 76.909586 
L 66.119186 82.201342 
L 66.181015 82.857498 
L 66.211929 81.087008 
L 66.242843 82.287229 
L 66.273757 84.842963 
L 66.366499 84.011021 
L 66.582898 86.165232 
L 66.428327 83.997895 
L 66.644726 85.868975 
L 66.67564 85.287185 
L 66.706554 86.384646 
L 66.737468 87.378124 
L 66.768382 85.877297 
L 66.799296 86.818735 
L 66.83021 86.597136 
L 66.892038 85.318599 
L 66.922952 87.422723 
L 67.015695 87.269636 
L 67.046609 88.187001 
L 67.077523 86.151784 
L 67.201179 87.7267 
L 67.139351 86.079229 
L 67.293921 87.240874 
L 67.324835 87.198309 
L 67.448492 88.465362 
L 67.479406 86.82378 
L 67.541234 87.455892 
L 67.66489 89.224094 
L 67.757632 86.612598 
L 67.81946 89.282229 
L 67.850374 88.057842 
L 67.881288 87.617652 
L 67.912203 88.87301 
L 68.004945 88.311602 
L 68.066773 89.474456 
L 68.097687 86.920966 
L 68.159515 89.59006 
L 68.252257 88.463707 
L 68.314085 88.078119 
L 68.375914 89.929014 
L 68.406828 87.509093 
L 68.437742 90.933703 
L 68.468656 87.877403 
L 68.530484 90.002848 
L 68.592312 88.786498 
L 68.623226 90.033055 
L 68.65414 88.494656 
L 68.715968 89.627136 
L 68.777797 87.515371 
L 68.870539 91.204007 
L 68.901453 88.512923 
L 68.994195 89.007028 
L 69.056023 89.724104 
L 69.148765 91.080545 
L 69.272422 87.806617 
L 69.365164 90.302587 
L 69.396078 89.233567 
L 69.426992 88.727147 
L 69.550648 91.713752 
L 69.581562 91.498205 
L 69.612476 89.470422 
L 69.705219 90.274885 
L 69.736133 90.089024 
L 69.828875 91.074718 
L 69.859789 88.880459 
L 69.952531 89.05268 
L 70.076187 91.499576 
L 70.107102 89.363303 
L 70.16893 91.577846 
L 70.199844 92.756364 
L 70.230758 91.615295 
L 70.292586 91.626867 
L 70.3235 90.327782 
L 70.354414 91.463685 
L 70.447156 91.045798 
L 70.47807 91.778295 
L 70.508984 90.043568 
L 70.570813 91.542174 
L 70.601727 90.993718 
L 70.632641 92.043937 
L 70.663555 91.232802 
L 70.694469 92.125329 
L 70.756297 92.109202 
L 70.818125 91.01359 
L 70.849039 92.204101 
L 70.910867 93.138037 
L 70.941781 90.358102 
L 71.034524 91.962039 
L 71.065438 92.290307 
L 71.096352 91.466511 
L 71.127266 91.683389 
L 71.15818 90.935223 
L 71.189094 92.437375 
L 71.250922 93.147562 
L 71.31275 91.455802 
L 71.343664 94.068764 
L 71.405492 93.738448 
L 71.467321 90.337257 
L 71.529149 92.126273 
L 71.560063 91.253042 
L 71.621891 92.561182 
L 71.652805 94.16268 
L 71.683719 91.534541 
L 71.714633 92.264636 
L 71.745547 92.044792 
L 71.776461 92.329045 
L 71.900118 94.455641 
L 72.023774 90.902273 
L 72.085602 93.431428 
L 72.14743 92.490641 
L 72.178344 92.130917 
L 72.209258 92.581261 
L 72.271086 92.279852 
L 72.363829 94.542903 
L 72.394743 93.98037 
L 72.456571 91.235052 
L 72.518399 91.733675 
L 72.549313 95.224482 
L 72.642055 94.956424 
L 72.672969 92.255412 
L 72.734797 93.594284 
L 72.765712 94.864746 
L 72.796626 92.695265 
L 72.82754 94.454433 
L 72.920282 92.501675 
L 73.074852 94.971329 
L 73.13668 93.424658 
L 73.167594 93.586398 
L 73.198509 94.893119 
L 73.260337 93.414845 
L 73.291251 92.337637 
L 73.322165 94.053677 
L 73.383993 95.020018 
L 73.445821 94.583644 
L 73.476735 93.062342 
L 73.507649 94.787633 
L 73.538563 96.005111 
L 73.600391 94.848136 
L 73.631305 94.862752 
L 73.66222 96.054642 
L 73.693134 94.616391 
L 73.724048 95.460015 
L 73.754962 93.673882 
L 73.81679 94.504852 
L 73.909532 95.757896 
L 73.940446 92.914118 
L 74.033188 94.386537 
L 74.187759 96.546451 
L 74.218673 94.609448 
L 74.280501 96.716806 
L 74.311415 95.362401 
L 74.373243 96.08756 
L 74.404157 95.676917 
L 74.465985 94.203362 
L 74.496899 96.939457 
L 74.558728 95.135915 
L 74.589642 94.890127 
L 74.620556 95.233367 
L 74.65147 95.764805 
L 74.682384 94.650799 
L 74.713298 94.634622 
L 74.867868 96.790963 
L 74.898782 96.781581 
L 74.991525 94.475983 
L 75.053353 97.801532 
L 75.115181 96.405054 
L 75.146095 96.340215 
L 75.177009 96.35662 
L 75.207923 96.494567 
L 75.269751 96.516866 
L 75.300665 95.048302 
L 75.331579 96.595026 
L 75.424322 96.498496 
L 75.517064 97.338924 
L 75.578892 95.087238 
L 75.64072 95.811938 
L 75.702548 97.339487 
L 75.764376 96.537154 
L 75.79529 95.373679 
L 75.826204 96.471381 
L 75.857119 97.314391 
L 75.918947 95.985426 
L 75.949861 95.703163 
L 75.980775 96.975253 
L 76.073517 96.323673 
L 76.166259 97.226003 
L 76.197173 97.180858 
L 76.228087 95.54639 
L 76.259001 98.349943 
L 76.289916 96.672848 
L 76.351744 95.612633 
L 76.413572 98.54986 
L 76.506314 97.281092 
L 76.537228 97.940452 
L 76.62997 96.663649 
L 76.691798 95.697348 
L 76.722712 98.420649 
L 76.784541 96.464752 
L 76.815455 98.192966 
L 76.846369 98.419611 
L 76.877283 98.370701 
L 77.000939 96.272125 
L 77.031853 97.886691 
L 77.124595 97.337431 
L 77.186424 98.217599 
L 77.217338 97.929138 
L 77.248252 96.795632 
L 77.31008 98.543326 
L 77.371908 99.009048 
L 77.495564 97.306491 
L 77.619221 99.466029 
L 77.650135 97.613113 
L 77.681049 99.495553 
L 77.742877 97.970414 
L 77.773791 97.942553 
L 77.835619 97.13672 
L 77.897447 98.940964 
L 78.021103 96.565508 
L 78.052017 96.915173 
L 78.113846 98.680634 
L 78.175674 98.277291 
L 78.206588 97.626551 
L 78.268416 100.261324 
L 78.29933 98.294079 
L 78.330244 98.261216 
L 78.361158 99.403703 
L 78.392072 97.834287 
L 78.422986 98.510451 
L 78.4539 98.334985 
L 78.484814 99.049189 
L 78.515729 97.505867 
L 78.546643 97.337591 
L 78.701213 100.119439 
L 78.763041 97.433269 
L 78.824869 98.89612 
L 78.855783 98.914828 
L 78.917611 97.987065 
L 78.948526 98.707387 
L 78.97944 99.735809 
L 79.041268 98.603888 
L 79.072182 99.677613 
L 79.103096 98.200543 
L 79.13401 99.85487 
L 79.164924 98.64436 
L 79.195838 99.305447 
L 79.257666 99.198812 
L 79.28858 97.232944 
L 79.350408 100.063103 
L 79.381323 100.797229 
L 79.412237 97.234449 
L 79.474065 100.870239 
L 79.597721 98.182715 
L 79.752291 101.90655 
L 79.814119 99.114132 
L 79.875948 99.533825 
L 79.96869 101.411407 
L 80.061432 98.924659 
L 80.092346 99.704319 
L 80.154174 100.359198 
L 80.185088 97.97558 
L 80.216002 99.161786 
L 80.246916 102.511604 
L 80.308745 98.956072 
L 80.401487 100.490294 
L 80.463315 100.446004 
L 80.556057 98.992537 
L 80.525143 102.279432 
L 80.586971 99.038074 
L 80.617885 100.760132 
L 80.648799 98.317567 
L 80.710628 100.256581 
L 80.772456 97.587684 
L 80.80337 99.456728 
L 80.834284 101.5793 
L 80.896112 100.422937 
L 80.927026 98.478165 
L 80.988854 100.195865 
L 81.019768 100.43866 
L 81.050682 102.200413 
L 81.11251 100.483484 
L 81.143424 99.726692 
L 81.174339 99.768807 
L 81.205253 102.595386 
L 81.297995 101.718881 
L 81.328909 100.653638 
L 81.359823 102.312748 
L 81.390737 100.913279 
L 81.421651 101.943932 
L 81.452565 99.964114 
L 81.483479 99.987476 
L 81.514393 96.663006 
L 81.545307 100.831726 
L 81.576221 98.311738 
L 81.63805 102.447821 
L 81.699878 100.760575 
L 81.761706 99.414154 
L 81.79262 102.67248 
L 81.885362 101.927466 
L 81.916276 101.072686 
L 82.009018 101.576101 
L 82.039933 102.454388 
L 82.070847 100.357958 
L 82.101761 102.010912 
L 82.194503 99.830111 
L 82.225417 100.264989 
L 82.256331 100.372906 
L 82.318159 100.153986 
L 82.379987 101.553793 
L 82.410901 99.783108 
L 82.472729 102.232437 
L 82.565472 100.076089 
L 82.596386 101.021508 
L 82.720042 102.434404 
L 82.843698 100.195866 
L 82.874612 102.650383 
L 82.967355 102.43544 
L 83.029183 99.783893 
L 83.060097 102.850251 
L 83.121925 100.816559 
L 83.183753 99.751102 
L 83.214667 102.954879 
L 83.307409 102.336132 
L 83.338323 100.919198 
L 83.369238 102.792841 
L 83.400152 101.794106 
L 83.431066 102.833576 
L 83.46198 100.776669 
L 83.492894 102.474219 
L 83.523808 102.156421 
L 83.647464 104.019854 
L 83.678378 101.480639 
L 83.740206 102.678223 
L 83.77112 103.466511 
L 83.802035 100.94766 
L 83.863863 102.775335 
L 83.894777 103.324444 
L 83.925691 101.660201 
L 83.987519 104.29645 
L 84.018433 104.914853 
L 84.142089 101.684243 
L 84.173003 103.03832 
L 84.234831 101.477049 
L 84.265746 101.401017 
L 84.389402 102.674859 
L 84.420316 102.870153 
L 84.45123 101.571038 
L 84.513058 103.11064 
L 84.6058 101.819361 
L 84.667628 105.020968 
L 84.698543 101.077115 
L 84.729457 103.038866 
L 84.760371 103.617131 
L 84.791285 102.146687 
L 84.822199 101.078502 
L 84.853113 102.81256 
L 84.884027 101.565749 
L 84.945855 101.560106 
L 85.007683 103.865194 
L 85.038597 100.801926 
L 85.100425 102.856241 
L 85.13134 103.181449 
L 85.162254 102.557459 
L 85.254996 103.454605 
L 85.28591 100.607983 
L 85.44048 104.687948 
L 85.471394 104.196154 
L 85.533222 102.656269 
L 85.564136 104.451813 
L 85.595051 102.677497 
L 85.625965 102.633945 
L 85.749621 104.700986 
L 85.780535 101.64207 
L 85.873277 101.767277 
L 85.935105 103.696326 
L 85.996933 103.461849 
L 86.027848 100.653785 
L 86.058762 104.541003 
L 86.089676 103.64528 
L 86.151504 104.170365 
L 86.213332 104.506954 
L 86.244246 101.694518 
L 86.367902 105.423294 
L 86.398816 102.792643 
L 86.491559 104.002709 
L 86.522473 103.481136 
L 86.553387 105.123328 
L 86.584301 102.835733 
L 86.615215 101.477804 
L 86.677043 102.856982 
L 86.707957 103.007213 
L 86.800699 106.073473 
L 86.769785 102.568814 
L 86.862527 104.376543 
L 86.986184 103.111856 
L 87.10984 101.805794 
L 87.26441 104.642032 
L 87.388067 103.022603 
L 87.449895 105.90724 
L 87.480809 103.524163 
L 87.511723 103.232731 
L 87.542637 103.557262 
L 87.666293 104.2742 
L 87.759035 104.548409 
L 87.820864 102.797192 
L 87.975434 105.085455 
L 88.006348 104.731583 
L 88.068176 102.769668 
L 88.09909 104.184841 
L 88.130004 104.298525 
L 88.191832 104.709551 
L 88.222747 102.375201 
L 88.315489 104.80542 
L 88.346403 103.45268 
L 88.377317 104.264466 
L 88.408231 103.979219 
L 88.439145 102.087971 
L 88.470059 105.441312 
L 88.531887 103.20498 
L 88.562801 104.399497 
L 88.593715 104.357485 
L 88.655543 100.997781 
L 88.686458 101.55723 
L 88.810114 105.463395 
L 88.871942 105.575103 
L 88.964684 103.671303 
L 89.08834 106.146818 
L 89.181083 104.368771 
L 89.211997 105.111551 
L 89.242911 106.187917 
L 89.273825 104.34459 
L 89.304739 102.695563 
L 89.335653 105.84012 
L 89.366567 104.060631 
L 89.459309 105.276791 
L 89.490223 103.604157 
L 89.552052 104.414732 
L 89.644794 106.484386 
L 89.61388 103.305799 
L 89.675708 104.975479 
L 89.737536 102.973595 
L 89.799364 104.217155 
L 89.861192 102.898661 
L 89.892106 104.385652 
L 89.92302 104.994217 
L 89.953934 102.582865 
L 90.015763 105.848988 
L 90.046677 104.264085 
L 90.108505 106.282621 
L 90.139419 106.467288 
L 90.201247 106.877031 
L 90.293989 104.362197 
L 90.324903 105.654598 
L 90.386731 104.141893 
L 90.417645 102.493229 
L 90.44856 104.770419 
L 90.479474 105.928033 
L 90.510388 105.52662 
L 90.60313 102.968096 
L 90.634044 105.317369 
L 90.664958 100.057245 
L 90.695872 104.674488 
L 90.7577 102.343219 
L 90.788614 105.803003 
L 90.850442 103.574858 
L 90.881357 103.618427 
L 90.943185 106.632477 
L 91.005013 105.652294 
L 91.035927 103.424389 
L 91.128669 104.255829 
L 91.190497 105.546119 
L 91.221411 106.044771 
L 91.375982 102.357244 
L 91.406896 102.14084 
L 91.468724 105.794737 
L 91.530552 105.643878 
L 91.623294 103.957765 
L 91.654208 105.98455 
L 91.74695 105.614416 
L 91.777865 104.092899 
L 91.870607 104.239736 
L 91.963349 107.064968 
L 91.994263 105.14034 
L 92.025177 104.514053 
L 92.056091 107.009879 
L 92.117919 104.813581 
L 92.148833 103.75058 
L 92.210662 105.446552 
L 92.27249 106.228347 
L 92.303404 104.318486 
L 92.396146 105.018699 
L 92.42706 104.348994 
L 92.457974 104.810552 
L 92.488888 106.187162 
L 92.519802 104.673042 
L 92.550716 104.769591 
L 92.58163 104.747177 
L 92.643459 103.199212 
L 92.674373 106.417736 
L 92.736201 105.091862 
L 92.767115 103.611466 
L 92.798029 106.657885 
L 92.828943 106.853437 
L 92.890771 104.850911 
L 92.921685 105.898849 
L 92.952599 106.735117 
L 93.045341 99.582755 
L 93.076255 101.983427 
L 93.10717 102.493528 
L 93.138084 106.447223 
L 93.199912 104.986016 
L 93.230826 103.771882 
L 93.26174 107.319066 
L 93.354482 107.190361 
L 93.385396 104.432026 
L 93.447224 106.140534 
L 93.478138 107.556642 
L 93.509052 105.406358 
L 93.570881 106.051273 
L 93.632709 104.582241 
L 93.663623 107.534459 
L 93.725451 104.643565 
L 93.756365 104.637538 
L 93.818193 106.742877 
L 93.910935 103.31936 
L 94.065506 106.798005 
L 94.09642 104.481924 
L 94.158248 105.381028 
L 94.220076 104.74847 
L 94.25099 106.390252 
L 94.312818 104.622889 
L 94.343732 107.898382 
L 94.40556 105.237288 
L 94.436475 105.218346 
L 94.467389 107.590698 
L 94.498303 104.837281 
L 94.560131 106.574109 
L 94.591045 104.248936 
L 94.652873 107.041107 
L 94.714701 106.281723 
L 94.776529 107.551138 
L 94.900186 104.116279 
L 95.054756 106.794222 
L 95.08567 106.437836 
L 95.116584 108.597505 
L 95.178412 107.402973 
L 95.302069 105.315683 
L 95.24024 107.866817 
L 95.332983 105.52454 
L 95.363897 107.74703 
L 95.425725 104.323508 
L 95.549381 105.855255 
L 95.580295 104.70695 
L 95.611209 106.906497 
L 95.642123 105.968753 
L 95.673037 107.167333 
L 95.703951 105.09346 
L 95.76578 106.803974 
L 95.858522 104.32481 
L 95.889436 107.618765 
L 95.982178 106.236022 
L 96.013092 105.616149 
L 96.044006 107.092557 
L 96.07492 105.902498 
L 96.167662 107.44072 
L 96.322233 104.865654 
L 96.353147 107.820026 
L 96.384061 104.56104 
L 96.414975 106.196922 
L 96.507717 105.063409 
L 96.538631 107.552507 
L 96.600459 106.983562 
L 96.631374 105.649124 
L 96.662288 106.921749 
L 96.693202 108.33347 
L 96.724116 106.218285 
L 96.75503 106.300465 
L 96.785944 106.438295 
L 96.816858 104.843002 
L 96.847772 107.327697 
L 96.878686 106.981356 
L 96.971428 109.18384 
L 97.002342 107.442321 
L 97.033256 104.654706 
L 97.125999 106.117811 
L 97.156913 104.559592 
L 97.187827 108.184202 
L 97.218741 108.246467 
L 97.249655 108.053643 
L 97.280569 104.847096 
L 97.342397 106.331367 
L 97.404225 107.549444 
L 97.435139 105.746599 
L 97.496967 107.552239 
L 97.58971 104.462907 
L 97.682452 107.891232 
L 97.713366 106.033985 
L 97.74428 105.243451 
L 97.775194 107.052465 
L 97.806108 109.285871 
L 97.837022 104.918842 
L 97.867936 106.934199 
L 97.89885 104.486914 
L 97.991593 105.083086 
L 98.022507 109.430673 
L 98.115249 107.56881 
L 98.146163 106.784936 
L 98.207991 106.793364 
L 98.269819 106.191957 
L 98.331647 109.371973 
L 98.362561 109.277335 
L 98.486218 102.94209 
L 98.57896 108.724568 
L 98.609874 107.655041 
L 98.640788 107.251572 
L 98.671702 103.559594 
L 98.73353 103.774567 
L 98.826273 109.585849 
L 98.857187 106.421126 
L 98.919015 105.500751 
L 98.949929 109.813483 
L 99.011757 104.207626 
L 99.042671 108.21959 
L 99.073585 107.41645 
L 99.104499 107.723652 
L 99.135413 109.441312 
L 99.166327 106.698669 
L 99.197241 108.548718 
L 99.259069 107.539369 
L 99.289984 108.489869 
L 99.320898 104.92822 
L 99.382726 107.563026 
L 99.41364 108.075262 
L 99.475468 104.727142 
L 99.506382 108.932417 
L 99.56821 106.44025 
L 99.599124 107.499476 
L 99.630038 109.464594 
L 99.660952 106.824076 
L 99.722781 109.217699 
L 99.846437 107.00413 
L 99.877351 109.053008 
L 99.939179 106.004616 
L 99.970093 108.210953 
L 100.001007 106.579515 
L 100.062835 108.997204 
L 100.155578 107.77781 
L 100.217406 108.169211 
L 100.24832 108.286338 
L 100.310148 106.302933 
L 100.341062 107.565298 
L 100.371976 108.62656 
L 100.40289 108.112337 
L 100.433804 104.875809 
L 100.495632 108.656742 
L 100.526546 105.111248 
L 100.650203 107.590394 
L 100.681117 107.903983 
L 100.712031 107.171389 
L 100.742945 104.883916 
L 100.773859 109.786319 
L 100.959343 106.664676 
L 100.990257 109.30112 
L 101.021171 106.095488 
L 101.052086 108.695636 
L 101.083 105.985374 
L 101.144828 109.879193 
L 101.23757 106.566797 
L 101.268484 106.578391 
L 101.299398 107.950184 
L 101.361226 107.236821 
L 101.39214 106.67149 
L 101.423054 106.855683 
L 101.453968 109.173946 
L 101.515797 106.942975 
L 101.546711 107.672069 
L 101.577625 106.828281 
L 101.608539 105.748932 
L 101.670367 109.171352 
L 101.732195 107.8609 
L 101.763109 108.494043 
L 101.794023 107.536371 
L 101.824937 107.417627 
L 101.855851 106.647085 
L 101.886765 107.566583 
L 101.917679 108.683408 
L 101.979508 107.120113 
L 102.041336 107.454648 
L 102.07225 105.351766 
L 102.134078 109.325595 
L 102.195906 108.911459 
L 102.22682 106.261226 
L 102.288648 108.206261 
L 102.319562 108.129314 
L 102.350476 109.245821 
L 102.381391 106.940757 
L 102.412305 107.818705 
L 102.443219 108.18464 
L 102.505047 108.522182 
L 102.535961 106.787003 
L 102.566875 111.077687 
L 102.659617 109.297885 
L 102.752359 105.748863 
L 102.783273 108.611098 
L 102.814188 108.5322 
L 102.876016 110.339996 
L 102.90693 109.291934 
L 102.937844 108.114185 
L 102.999672 109.110336 
L 103.030586 110.359694 
L 103.092414 108.626207 
L 103.185156 111.181888 
L 103.246985 110.24914 
L 103.308813 106.839604 
L 103.370641 108.35439 
L 103.401555 108.432654 
L 103.432469 108.092799 
L 103.463383 109.706949 
L 103.494297 107.447527 
L 103.525211 109.499351 
L 103.617953 106.66266 
L 103.648867 107.090973 
L 103.679781 107.149478 
L 103.74161 110.538607 
L 103.803438 108.64815 
L 103.834352 110.071728 
L 103.865266 108.566887 
L 103.89618 104.746143 
L 103.958008 109.071387 
L 103.988922 106.470179 
L 104.019836 110.644663 
L 104.081664 108.650435 
L 104.143493 109.368522 
L 104.174407 107.630747 
L 104.236235 106.902104 
L 104.298063 109.364781 
L 104.328977 106.638621 
L 104.390805 108.454472 
L 104.483547 110.418939 
L 104.514461 109.390765 
L 104.638118 106.335283 
L 104.669032 111.20567 
L 104.761774 109.652894 
L 104.823602 106.307699 
L 104.854516 107.068782 
L 104.947258 110.349311 
L 105.009086 105.514721 
L 105.040001 110.622274 
L 105.070915 108.031245 
L 105.132743 109.042114 
L 105.163657 110.772042 
L 105.256399 110.769632 
L 105.318227 108.072833 
L 105.349141 109.028242 
L 105.380055 111.674937 
L 105.441883 109.234082 
L 105.503712 110.092331 
L 105.534626 107.847917 
L 105.596454 110.021589 
L 105.658282 110.10749 
L 105.689196 107.592532 
L 105.72011 109.755007 
L 105.781938 107.450907 
L 105.812852 108.564674 
L 105.843766 107.993514 
L 105.87468 108.066105 
L 105.967423 111.69774 
L 105.998337 110.15881 
L 106.029251 108.561304 
L 106.091079 109.017359 
L 106.121993 110.046097 
L 106.152907 107.84774 
L 106.183821 108.619093 
L 106.214735 106.95107 
L 106.276563 107.413763 
L 106.369306 110.923472 
L 106.40022 107.570306 
L 106.492962 109.344433 
L 106.523876 109.550664 
L 106.55479 107.878486 
L 106.585704 109.918257 
L 106.616618 108.815569 
L 106.678446 108.670211 
L 106.740274 110.519515 
L 106.771188 107.799716 
L 106.863931 108.117894 
L 106.956673 110.752432 
L 107.018501 109.546231 
L 107.080329 108.660064 
L 107.111243 109.145116 
L 107.142157 111.397303 
L 107.173071 107.571604 
L 107.203985 107.457329 
L 107.2349 107.639514 
L 107.265814 109.700468 
L 107.296728 108.647449 
L 107.327642 105.740044 
L 107.38947 109.781905 
L 107.420384 108.557335 
L 107.451298 110.924862 
L 107.482212 109.95607 
L 107.513126 109.83531 
L 107.574954 109.22553 
L 107.605868 111.092536 
L 107.729525 107.156525 
L 107.760439 107.238137 
L 107.853181 111.753407 
L 107.915009 110.303292 
L 107.976837 107.979662 
L 108.038665 109.541062 
L 108.069579 109.907815 
L 108.131408 110.711676 
L 108.162322 107.538977 
L 108.285978 110.413487 
L 108.347806 111.98223 
L 108.37872 109.041291 
L 108.409634 110.941829 
L 108.471462 109.953623 
L 108.502376 108.147198 
L 108.53329 110.874501 
L 108.564205 111.350376 
L 108.626033 108.990831 
L 108.687861 109.092507 
L 108.718775 110.061593 
L 108.749689 109.885931 
L 108.811517 107.792118 
L 108.873345 108.25608 
L 108.904259 107.95515 
L 108.997002 109.812442 
L 109.120658 107.328829 
L 109.182486 110.856162 
L 109.244314 109.449833 
L 109.306142 110.362716 
L 109.337056 106.961701 
L 109.398884 111.929998 
L 109.460713 110.294884 
L 109.491627 109.034923 
L 109.553455 110.796741 
L 109.584369 110.952661 
L 109.615283 110.823958 
L 109.677111 110.18449 
L 109.769853 107.870023 
L 109.800767 112.685097 
L 109.862595 106.157264 
L 110.017166 110.292562 
L 110.078994 111.373371 
L 110.109908 108.544537 
L 110.140822 111.222152 
L 110.233564 110.106889 
L 110.264478 110.881235 
L 110.295392 108.953605 
L 110.419049 111.742393 
L 110.449963 110.490033 
L 110.511791 111.252297 
L 110.573619 106.297732 
L 110.604533 111.099412 
L 110.697275 110.641213 
L 110.759104 110.898251 
L 110.790018 110.112074 
L 110.820932 111.036649 
L 110.851846 110.030699 
L 110.913674 111.129931 
L 110.975502 108.38157 
L 111.03733 107.61399 
L 111.068244 111.273935 
L 111.130072 108.365596 
L 111.160986 109.780891 
L 111.1919 112.728212 
L 111.222815 108.511178 
L 111.253729 108.535986 
L 111.284643 110.367109 
L 111.315557 108.486812 
L 111.346471 106.903921 
L 111.377385 109.739709 
L 111.408299 108.432503 
L 111.439213 107.953075 
L 111.470127 109.081065 
L 111.655612 111.29398 
L 111.71744 108.410623 
L 111.748354 109.321451 
L 111.810182 108.932295 
L 111.841096 110.540444 
L 111.933838 108.353756 
L 111.964752 109.35305 
L 112.057494 110.969783 
L 112.02658 108.124953 
L 112.088409 110.867098 
L 112.150237 108.597318 
L 112.181151 108.816432 
L 112.304807 110.970736 
L 112.428463 111.116601 
L 112.55212 106.935139 
L 112.583034 108.706075 
L 112.613948 110.321137 
L 112.644862 105.792039 
L 112.675776 110.499015 
L 112.70669 110.168376 
L 112.737604 110.463523 
L 112.768518 112.340223 
L 112.830346 110.544227 
L 112.86126 109.801116 
L 112.892174 111.447976 
L 112.923088 112.083889 
L 113.077659 106.192018 
L 113.170401 112.623873 
L 113.201315 112.303635 
L 113.232229 109.315225 
L 113.294057 109.903635 
L 113.324971 112.574506 
L 113.355885 109.181794 
L 113.386799 110.489761 
L 113.417714 110.750804 
L 113.448628 110.297511 
L 113.54137 110.718449 
L 113.572284 109.286075 
L 113.603198 110.255349 
L 113.665026 109.418766 
L 113.69594 109.12162 
L 113.726854 111.602575 
L 113.788682 110.214476 
L 113.819596 109.565854 
L 113.943253 112.358054 
L 113.974167 108.967817 
L 114.066909 109.504056 
L 114.159651 111.11903 
L 114.128737 109.072131 
L 114.190565 110.673225 
L 114.252393 108.873149 
L 114.283307 110.252775 
L 114.345136 111.188847 
L 114.37605 110.265417 
L 114.406964 110.297266 
L 114.53062 113.111275 
L 114.592448 110.589371 
L 114.654276 111.91362 
L 114.716104 108.027382 
L 114.777933 109.857425 
L 114.901589 111.916017 
L 114.963417 110.761502 
L 114.994331 111.825648 
L 115.025245 112.175524 
L 115.056159 109.749072 
L 115.148901 110.706986 
L 115.179816 110.658026 
L 115.272558 112.348909 
L 115.334386 110.204017 
L 115.3653 112.549396 
L 115.396214 110.827187 
L 115.427128 112.69867 
L 115.488956 110.089645 
L 115.581698 112.560982 
L 115.612612 110.95752 
L 115.643527 110.785712 
L 115.674441 111.527835 
L 115.705355 111.38745 
L 115.767183 107.427827 
L 115.829011 108.661456 
L 115.859925 106.714216 
L 115.890839 109.453392 
L 115.921753 111.437104 
L 115.952667 108.876484 
L 115.983581 110.745835 
L 116.014495 108.190544 
L 116.076324 111.893269 
L 116.107238 112.590664 
L 116.138152 111.424233 
L 116.19998 111.591175 
L 116.261808 109.297126 
L 116.292722 113.249746 
L 116.385464 111.363901 
L 116.416378 112.252998 
L 116.447292 111.215337 
L 116.478206 111.339188 
L 116.509121 110.248107 
L 116.570949 111.565343 
L 116.601863 110.522634 
L 116.632777 110.697819 
L 116.663691 112.88672 
L 116.694605 110.5709 
L 116.725519 111.596458 
L 116.849175 109.764008 
L 116.880089 112.601475 
L 116.972832 112.051567 
L 117.096488 108.312891 
L 117.18923 113.517449 
L 117.220144 109.659758 
L 117.251058 108.648718 
L 117.281972 109.822054 
L 117.467457 111.855937 
L 117.529285 112.237969 
L 117.591113 108.91643 
L 117.714769 113.17113 
L 117.745683 111.281706 
L 117.807511 113.234765 
L 117.931168 108.296222 
L 117.992996 109.857878 
L 118.054824 111.492988 
L 118.085738 109.390722 
L 118.116652 110.876164 
L 118.17848 113.340927 
L 118.240308 112.940758 
L 118.333051 108.795687 
L 118.302137 113.762745 
L 118.363965 111.101304 
L 118.394879 111.046665 
L 118.425793 112.625656 
L 118.518535 112.153221 
L 118.549449 112.074197 
L 118.580363 109.521001 
L 118.611277 112.466168 
L 118.642191 109.716075 
L 118.704019 112.401024 
L 118.734934 111.941766 
L 118.827676 112.659497 
L 118.85859 109.686897 
L 118.951332 112.516631 
L 119.01316 112.151161 
L 119.044074 109.785082 
L 119.074988 110.880556 
L 119.105902 114.053215 
L 119.167731 110.411426 
L 119.198645 107.880241 
L 119.229559 111.530662 
L 119.291387 112.098012 
L 119.322301 111.630075 
L 119.384129 111.416119 
L 119.415043 112.226179 
L 119.445957 111.86007 
L 119.476871 110.762517 
L 119.507785 111.0097 
L 119.538699 113.641571 
L 119.631442 112.354158 
L 119.724184 111.493774 
L 119.755098 112.112543 
L 119.786012 109.623089 
L 119.878754 110.637398 
L 119.909668 111.847245 
L 119.940582 110.444044 
L 119.971496 106.573627 
L 120.033324 110.993366 
L 120.218809 113.796188 
L 120.249723 110.156393 
L 120.342465 111.801867 
L 120.373379 111.847471 
L 120.435207 113.626111 
L 120.589778 107.861662 
L 120.713434 113.150106 
L 120.775262 110.928795 
L 120.83709 112.591841 
L 120.868004 114.542777 
L 120.898918 111.798452 
L 120.960747 109.811456 
L 120.991661 111.999376 
L 121.022575 113.239675 
L 121.084403 111.40824 
L 121.115317 111.467694 
L 121.177145 114.111875 
L 121.269887 113.646944 
L 121.300801 111.555115 
L 121.393544 112.130144 
L 121.424458 113.009244 
L 121.486286 111.961221 
L 121.5172 110.861194 
L 121.579028 110.901766 
L 121.640856 114.316849 
L 121.67177 111.495316 
L 121.702684 111.658378 
L 121.764512 112.203622 
L 121.795426 110.038109 
L 121.826341 112.789392 
L 121.919083 111.70989 
L 121.949997 110.820285 
L 122.011825 112.17464 
L 122.042739 113.093548 
L 122.073653 110.540822 
L 122.135481 113.345066 
L 122.166395 113.959538 
L 122.197309 112.409853 
L 122.259138 111.50673 
L 122.290052 114.431578 
L 122.382794 112.970714 
L 122.413708 111.339852 
L 122.50645 111.903161 
L 122.537364 114.123102 
L 122.599192 112.873856 
L 122.630106 110.398624 
L 122.66102 114.734957 
L 122.691935 112.920342 
L 122.722849 113.467505 
L 122.846505 109.905972 
L 122.908333 112.639769 
L 122.939247 110.858011 
L 122.970161 108.928647 
L 123.001075 113.282958 
L 123.031989 111.698421 
L 123.093817 110.863065 
L 123.124731 111.125813 
L 123.18656 113.54986 
L 123.310216 113.398138 
L 123.34113 111.938262 
L 123.372044 113.98236 
L 123.402958 114.702667 
L 123.433872 113.114119 
L 123.464786 109.018421 
L 123.557528 111.041249 
L 123.650271 112.773955 
L 123.681185 110.853077 
L 123.712099 113.223123 
L 123.743013 111.311202 
L 123.773927 113.758346 
L 123.835755 110.120014 
L 123.866669 112.842894 
L 123.897583 112.083063 
L 123.928497 114.315642 
L 123.990325 111.872478 
L 124.02124 113.246522 
L 124.083068 107.887685 
L 124.113982 112.014393 
L 124.237638 113.781881 
L 124.33038 110.189515 
L 124.299466 113.936404 
L 124.392208 112.075511 
L 124.454036 111.750532 
L 124.484951 113.542592 
L 124.515865 111.155205 
L 124.577693 111.972522 
L 124.608607 113.181964 
L 124.670435 113.001691 
L 124.701349 107.631263 
L 124.763177 112.182421 
L 124.886833 113.996048 
L 124.948662 111.540266 
L 125.01049 112.481879 
L 125.103232 113.184585 
L 125.195974 110.762619 
L 125.226888 112.659136 
L 125.288716 112.993152 
L 125.31963 111.345182 
L 125.381459 113.762515 
L 125.412373 109.146832 
L 125.474201 111.629601 
L 125.536029 110.319952 
L 125.597857 113.547341 
L 125.659685 113.796197 
L 125.721513 111.40273 
L 125.752427 113.542432 
L 125.84517 113.11898 
L 125.906998 114.818433 
L 125.937912 112.919004 
L 125.99974 113.424668 
L 126.030654 112.559395 
L 126.092482 113.433329 
L 126.123396 113.788 
L 126.277967 110.396068 
L 126.308881 109.573786 
L 126.339795 113.586237 
L 126.401623 108.743559 
L 126.432537 112.287239 
L 126.463451 112.662003 
L 126.494365 112.507203 
L 126.525279 111.079149 
L 126.556193 114.14921 
L 126.587107 111.709479 
L 126.741678 113.910861 
L 126.772592 111.380095 
L 126.803506 114.7231 
L 126.865334 112.75905 
L 126.958076 110.78963 
L 127.019904 113.193141 
L 127.050818 110.782152 
L 127.081732 110.068293 
L 127.174475 113.56068 
L 127.205389 113.484166 
L 127.236303 112.229982 
L 127.267217 116.475825 
L 127.329045 111.967075 
L 127.390873 114.656573 
L 127.452701 113.565654 
L 127.545443 110.757483 
L 127.576358 116.317556 
L 127.6691 113.597967 
L 127.730928 114.136477 
L 127.792756 114.682461 
L 127.854584 111.768965 
L 127.97824 115.495538 
L 128.132811 107.994022 
L 128.163725 113.772737 
L 128.225553 109.701259 
L 128.411037 114.280641 
L 128.472866 113.792933 
L 128.50378 112.365275 
L 128.565608 114.283834 
L 128.596522 114.694451 
L 128.627436 109.989259 
L 128.720178 111.960658 
L 128.81292 115.912558 
L 128.874748 113.8003 
L 128.905663 112.359389 
L 128.998405 113.139123 
L 129.029319 113.888161 
L 129.060233 109.817257 
L 129.122061 110.451561 
L 129.152975 114.943403 
L 129.245717 112.448813 
L 129.276631 114.725972 
L 129.33846 111.392472 
L 129.369374 113.921044 
L 129.400288 113.818917 
L 129.431202 114.554623 
L 129.462116 112.922365 
L 129.49303 112.864534 
L 129.616686 114.714478 
L 129.709428 112.726436 
L 129.740342 113.009 
L 129.802171 112.775466 
L 129.833085 115.305266 
L 129.863999 111.566577 
L 129.956741 113.770246 
L 129.987655 115.213349 
L 130.018569 113.359938 
L 130.111311 110.791063 
L 130.234968 115.937069 
L 130.265882 113.543127 
L 130.32771 113.553086 
L 130.358624 115.684724 
L 130.420452 114.777904 
L 130.513194 111.215166 
L 130.544108 113.710537 
L 130.575022 113.056583 
L 130.605936 114.314419 
L 130.63685 113.82138 
L 130.667765 115.312384 
L 130.760507 115.28193 
L 130.791421 115.023637 
L 130.976905 110.563699 
L 131.131476 115.771879 
L 131.193304 113.895995 
L 131.224218 117.481946 
L 131.255132 110.411154 
L 131.286046 113.272057 
L 131.31696 112.244777 
L 131.409702 116.496157 
L 131.440616 111.545267 
L 131.533359 113.465855 
L 131.626101 113.070271 
L 131.657015 115.033928 
L 131.718843 112.640235 
L 131.749757 113.297758 
L 131.873413 115.819791 
L 131.99707 111.838101 
L 132.089812 114.660809 
L 132.120726 112.012993 
L 132.182554 113.886168 
L 132.213468 114.072935 
L 132.30621 106.072036 
L 132.337124 109.725599 
L 132.429867 112.985184 
L 132.460781 112.056784 
L 132.615351 115.055351 
L 132.677179 114.842156 
L 132.739007 114.39476 
L 132.831749 110.771322 
L 132.862664 115.438491 
L 132.924492 114.819705 
L 132.955406 111.790313 
L 133.017234 114.574716 
L 133.048148 114.531576 
L 133.109976 113.899781 
L 133.14089 114.866551 
L 133.171804 114.616674 
L 133.202718 112.961839 
L 133.233632 117.013595 
L 133.264546 113.618169 
L 133.326375 112.631211 
L 133.357289 115.171448 
L 133.388203 111.573692 
L 133.480945 112.247651 
L 133.635515 116.497323 
L 133.666429 114.129455 
L 133.728257 115.749861 
L 133.759172 116.701476 
L 133.913742 112.462012 
L 133.944656 112.376762 
L 134.068312 116.360135 
L 134.099226 114.982463 
L 134.13014 113.638655 
L 134.161054 116.990585 
L 134.222883 114.310487 
L 134.253797 113.395774 
L 134.284711 113.425651 
L 134.315625 115.24936 
L 134.377453 113.9814 
L 134.439281 112.148956 
L 134.470195 115.88631 
L 134.532023 115.153625 
L 134.562937 111.475677 
L 134.624766 113.365977 
L 134.686594 115.122072 
L 134.717508 113.954808 
L 134.748422 113.509525 
L 134.779336 111.267188 
L 134.841164 114.490389 
L 134.872078 114.985637 
L 134.902992 112.792504 
L 134.96482 114.315741 
L 134.995734 114.340199 
L 135.150305 109.03025 
L 135.273961 114.952473 
L 135.304875 115.695975 
L 135.335789 114.243474 
L 135.366703 113.717111 
L 135.397617 114.518567 
L 135.428531 117.238926 
L 135.490359 113.261271 
L 135.552188 113.949625 
L 135.583102 111.760982 
L 135.614016 116.733717 
L 135.64493 116.450385 
L 135.737672 113.098187 
L 135.768586 114.130189 
L 135.7995 115.758811 
L 135.830414 112.732833 
L 135.861328 114.104861 
L 135.923156 111.860709 
L 136.046813 115.805623 
L 136.077727 112.008572 
L 136.170469 112.843316 
L 136.294125 116.595304 
L 136.355953 115.901838 
L 136.448696 114.050556 
L 136.417782 116.391671 
L 136.47961 114.128346 
L 136.510524 115.325591 
L 136.541438 114.241272 
L 136.572352 111.78512 
L 136.603266 114.557899 
L 136.665094 113.115922 
L 136.696008 115.723945 
L 136.757836 114.527394 
L 136.78875 113.137675 
L 136.819664 117.928411 
L 136.881493 115.489473 
L 136.912407 111.75912 
L 136.974235 113.352828 
L 137.097891 116.551264 
L 137.128805 114.081779 
L 137.190633 116.094966 
L 137.221547 116.88817 
L 137.283376 114.441071 
L 137.31429 117.30283 
L 137.345204 116.615278 
L 137.407032 111.560546 
L 137.437946 115.875996 
L 137.62343 112.34327 
L 137.685258 115.417994 
L 137.716172 113.004556 
L 137.747087 112.088847 
L 137.778001 114.118814 
L 137.808915 113.368041 
L 137.932571 114.904293 
L 138.025313 111.260426 
L 138.087141 116.455312 
L 138.148969 113.567673 
L 138.365368 116.206637 
L 138.45811 113.26278 
L 138.489024 115.955312 
L 138.550852 115.162371 
L 138.581766 111.171736 
L 138.643595 113.133476 
L 138.767251 115.758139 
L 138.736337 113.077253 
L 138.798165 115.283095 
L 138.890907 111.749571 
L 138.921821 114.347382 
L 138.952735 114.603852 
L 138.983649 112.948462 
L 139.045478 115.528856 
L 139.076392 113.05191 
L 139.107306 117.326818 
L 139.200048 116.174152 
L 139.230962 114.014671 
L 139.29279 115.458879 
L 139.323704 116.180685 
L 139.44736 112.607265 
L 139.601931 117.234892 
L 139.632845 115.452671 
L 139.663759 113.342502 
L 139.694673 116.426866 
L 139.756501 114.299646 
L 139.849243 115.098432 
L 139.941986 115.286617 
L 139.9729 113.763762 
L 140.034728 115.614467 
L 140.065642 113.929071 
L 140.096556 112.134539 
L 140.158384 114.992757 
L 140.189298 115.189998 
L 140.220212 112.065103 
L 140.28204 115.942034 
L 140.312954 113.495334 
L 140.343868 116.851813 
L 140.436611 115.661885 
L 140.467525 114.090461 
L 140.498439 116.852814 
L 140.560267 114.769453 
L 140.591181 115.778625 
L 140.653009 114.424954 
L 140.683923 114.47365 
L 140.714837 112.625574 
L 140.745751 114.242743 
L 140.807579 116.039539 
L 140.869408 115.19004 
L 140.900322 116.514122 
L 140.931236 114.347092 
L 140.96215 113.920147 
L 140.993064 118.030661 
L 141.023978 113.36282 
L 141.085806 115.965369 
L 141.11672 117.000506 
L 141.147634 115.4799 
L 141.271291 114.056162 
L 141.302205 116.991121 
L 141.364033 115.644857 
L 141.425861 116.445397 
L 141.456775 113.271067 
L 141.487689 116.917845 
L 141.549517 114.074218 
L 141.580431 114.340985 
L 141.611345 117.751549 
L 141.673173 114.811875 
L 141.704088 115.301707 
L 141.735002 111.494811 
L 141.79683 115.429934 
L 141.827744 116.630685 
L 141.9514 111.940685 
L 142.044142 116.795667 
L 142.10597 116.593266 
L 142.136885 114.213268 
L 142.229627 114.69325 
L 142.291455 114.73907 
L 142.322369 112.047593 
L 142.353283 117.312223 
L 142.446025 115.885551 
L 142.507853 113.595631 
L 142.538767 115.949619 
L 142.569681 116.173115 
L 142.63151 114.525478 
L 142.693338 114.938826 
L 142.755166 115.501863 
L 142.94065 111.466014 
L 143.002478 116.367663 
L 143.064307 113.551621 
L 143.095221 112.9774 
L 143.157049 116.058209 
L 143.218877 115.624794 
L 143.249791 112.07914 
L 143.342533 113.489557 
L 143.373447 112.815895 
L 143.528018 116.720371 
L 143.558932 116.801101 
L 143.62076 113.885388 
L 143.682588 115.876096 
L 143.806244 116.797967 
L 143.868072 114.302938 
L 143.929901 115.404862 
L 143.991729 115.375418 
L 144.022643 114.572348 
L 144.053557 115.839587 
L 144.084471 116.054625 
L 144.146299 113.836081 
L 144.177213 116.387767 
L 144.208127 116.737313 
L 144.239041 116.566139 
L 144.269955 115.246655 
L 144.331783 116.20214 
L 144.362698 117.118605 
L 144.45544 112.062311 
L 144.486354 113.576684 
L 144.61001 119.045018 
L 144.702752 112.591583 
L 144.733666 117.596005 
L 144.826409 115.645726 
L 144.857323 114.271481 
L 144.888237 116.514559 
L 144.919151 117.063034 
L 144.980979 111.638378 
L 145.011893 117.103685 
L 145.042807 113.374209 
L 145.197377 116.660301 
L 145.228291 118.257387 
L 145.259206 114.168435 
L 145.321034 114.626991 
L 145.351948 111.73834 
L 145.506518 117.963591 
L 145.568346 113.540627 
L 145.630174 116.073882 
L 145.692003 116.647834 
L 145.815659 114.227417 
L 145.877487 116.992606 
L 145.908401 115.482635 
L 145.939315 114.52197 
L 145.970229 115.518405 
L 146.001143 116.69405 
L 146.032057 115.444771 
L 146.062971 113.426204 
L 146.093885 117.125301 
L 146.1248 115.48255 
L 146.217542 113.327755 
L 146.341198 117.801085 
L 146.372112 117.026278 
L 146.619425 111.616031 
L 146.712167 117.575386 
L 146.743081 116.224653 
L 146.773995 116.395477 
L 146.804909 118.413024 
L 146.835823 114.804979 
L 146.866737 116.002071 
L 146.928565 117.163584 
L 146.990393 114.730851 
L 147.021308 116.835595 
L 147.052222 116.488051 
L 147.083136 116.91993 
L 147.11405 114.017703 
L 147.144964 118.738935 
L 147.206792 115.230482 
L 147.26862 116.584808 
L 147.299534 114.720971 
L 147.330448 115.972148 
L 147.361362 117.826581 
L 147.392276 114.789403 
L 147.42319 116.477523 
L 147.515933 114.682136 
L 147.485019 117.013638 
L 147.546847 115.061532 
L 147.701417 116.764323 
L 147.763245 114.437408 
L 147.794159 110.149325 
L 147.825073 117.383012 
L 147.855987 113.094746 
L 147.886902 113.149433 
L 147.979644 117.845304 
L 148.041472 117.330433 
L 148.165128 114.872482 
L 148.288784 117.825487 
L 148.319698 117.561424 
L 148.412441 115.839268 
L 148.443355 116.790083 
L 148.474269 117.922458 
L 148.505183 117.684566 
L 148.628839 112.387386 
L 148.752495 115.092896 
L 148.78341 113.419072 
L 148.814324 115.868917 
L 148.876152 117.587087 
L 148.907066 113.865345 
L 148.968894 117.886472 
L 148.999808 115.85024 
L 149.061636 110.733283 
L 149.09255 115.250268 
L 149.123464 115.688317 
L 149.216207 113.105521 
L 149.308949 117.313895 
L 149.339863 115.970854 
L 149.432605 113.348205 
L 149.463519 114.986814 
L 149.494433 116.387232 
L 149.525347 115.161933 
L 149.587175 112.636655 
L 149.618089 114.810153 
L 149.649004 114.782749 
L 149.679918 113.808933 
L 149.710832 117.596198 
L 149.803574 117.34496 
L 149.834488 117.164775 
L 149.958144 114.795446 
L 150.050886 117.348325 
L 150.0818 116.142875 
L 150.112715 113.625182 
L 150.174543 116.059367 
L 150.205457 116.990289 
L 150.236371 116.073503 
L 150.267285 114.515841 
L 150.329113 115.842974 
L 150.421855 118.974228 
L 150.452769 116.659869 
L 150.483683 115.490144 
L 150.514597 117.987396 
L 150.576426 115.591973 
L 150.60734 115.351792 
L 150.638254 116.837077 
L 150.730996 116.160236 
L 150.792824 116.233175 
L 150.854652 113.786441 
L 150.885566 116.299003 
L 150.91648 114.993165 
L 151.040137 117.245049 
L 151.071051 116.76303 
L 151.101965 118.329758 
L 151.163793 116.183172 
L 151.194707 117.613925 
L 151.318363 115.035229 
L 151.380191 115.671213 
L 151.44202 117.858818 
L 151.503848 116.314212 
L 151.534762 116.821381 
L 151.565676 116.264579 
L 151.627504 114.707802 
L 151.720246 117.931773 
L 151.75116 116.711811 
L 151.782074 114.832445 
L 151.843902 116.140866 
L 151.874817 117.869071 
L 151.936645 116.083226 
L 151.967559 116.428768 
L 151.998473 115.871334 
L 152.029387 114.189043 
L 152.060301 115.910077 
L 152.091215 115.128566 
L 152.122129 115.678139 
L 152.153043 118.650086 
L 152.183957 115.431556 
L 152.214871 116.004237 
L 152.245785 115.656784 
L 152.276699 116.517918 
L 152.307614 115.952781 
L 152.338528 117.495889 
L 152.369442 116.883869 
L 152.400356 113.850648 
L 152.462184 114.810447 
L 152.554926 117.889262 
L 152.58584 114.888033 
L 152.647668 115.351599 
L 152.771325 118.223842 
L 152.833153 115.630948 
L 152.894981 116.509957 
L 152.925895 117.174887 
L 152.987723 115.043627 
L 153.018637 116.919653 
L 153.049551 116.918565 
L 153.111379 118.245651 
L 153.142293 114.217499 
L 153.235036 115.253426 
L 153.389606 118.357565 
L 153.42052 117.292893 
L 153.451434 116.079313 
L 153.482348 117.811883 
L 153.513262 116.333324 
L 153.544176 117.146082 
L 153.57509 116.405099 
L 153.729661 112.234032 
L 153.636919 116.834975 
L 153.760575 112.633038 
L 153.884231 115.635525 
L 153.915145 115.122565 
L 153.946059 112.55245 
L 153.976973 114.337241 
L 154.007887 117.340505 
L 154.038801 114.174957 
L 154.069716 115.505378 
L 154.131544 111.177129 
L 154.224286 113.39195 
L 154.347942 118.857491 
L 154.378856 117.553333 
L 154.40977 116.283135 
L 154.502512 116.479025 
L 154.533427 116.146608 
L 154.564341 118.288556 
L 154.626169 115.558612 
L 154.657083 117.909809 
L 154.687997 114.873368 
L 154.780739 115.947507 
L 154.811653 116.931284 
L 154.842567 115.597953 
L 154.873481 116.674728 
L 154.904395 116.321329 
L 154.935309 118.598124 
L 154.997138 117.429221 
L 155.028052 115.043777 
L 155.120794 115.739984 
L 155.151708 114.143186 
L 155.182622 115.801359 
L 155.24445 114.767956 
L 155.275364 117.708749 
L 155.306278 114.083093 
L 155.399021 116.028646 
L 155.522677 119.387548 
L 155.553591 118.881038 
L 155.677247 114.166222 
L 155.708161 119.048228 
L 155.800903 116.41063 
L 155.862732 117.286972 
L 155.893646 116.146963 
L 155.92456 116.237872 
L 155.986388 116.020574 
L 156.048216 117.770068 
L 156.140958 117.93617 
L 156.171872 115.404965 
L 156.295529 119.484095 
L 156.388271 115.771105 
L 156.419185 115.910164 
L 156.481013 115.463099 
L 156.542841 117.260181 
L 156.604669 115.807929 
L 156.635583 117.106474 
L 156.666497 117.322035 
L 156.728326 118.032795 
L 156.851982 112.691403 
L 157.006552 117.346835 
L 157.037466 118.415912 
L 157.06838 116.462164 
L 157.099294 113.951761 
L 157.192037 114.698917 
L 157.222951 117.76243 
L 157.315693 117.207244 
L 157.377521 113.255258 
L 157.439349 113.91656 
L 157.470263 118.15205 
L 157.563005 117.259236 
L 157.593919 113.154553 
L 157.655748 114.094645 
L 157.686662 117.976812 
L 157.779404 116.449149 
L 157.90306 112.943964 
L 157.995802 117.717796 
L 158.119459 116.963633 
L 158.150373 115.623369 
L 158.181287 118.199253 
L 158.212201 118.082599 
L 158.304943 113.563827 
L 158.335857 117.154493 
L 158.366771 117.367493 
L 158.397685 114.865812 
L 158.428599 116.216794 
L 158.459513 119.222366 
L 158.521342 115.522626 
L 158.675912 120.27678 
L 158.706826 115.931575 
L 158.768654 116.21056 
L 158.799568 119.01247 
L 158.861396 115.732459 
L 159.046881 119.072409 
L 159.170537 115.790249 
L 159.232365 115.981859 
L 159.294193 115.202991 
L 159.325107 118.52656 
L 159.448764 114.815093 
L 159.510592 118.199067 
L 159.603334 118.049726 
L 159.634248 117.931186 
L 159.72699 113.938108 
L 159.850647 118.161153 
L 160.005217 114.382064 
L 160.067045 119.717467 
L 160.128873 117.427209 
L 160.159787 117.505588 
L 160.190701 118.059118 
L 160.252529 112.345827 
L 160.314358 116.485759 
L 160.345272 117.585376 
L 160.4071 116.731835 
L 160.468928 115.929482 
L 160.499842 116.951857 
L 160.530756 114.266736 
L 160.56167 117.992636 
L 160.592584 115.974092 
L 160.623498 118.580514 
L 160.716241 117.510555 
L 160.747155 116.816251 
L 160.778069 118.513082 
L 160.808983 118.529845 
L 160.932639 114.039188 
L 160.963553 116.514017 
L 160.994467 118.093708 
L 161.056295 116.087365 
L 161.087209 116.877396 
L 161.118123 113.371341 
L 161.210866 114.187071 
L 161.272694 116.680009 
L 161.303608 116.44892 
L 161.334522 114.456822 
L 161.365436 118.015713 
L 161.489092 117.543483 
L 161.520006 117.763097 
L 161.55092 119.052525 
L 161.581835 117.885465 
L 161.612749 115.04871 
L 161.643663 118.392545 
L 161.674577 116.418108 
L 161.798233 119.616477 
L 161.921889 114.175066 
L 162.045546 118.745398 
L 162.07646 117.671031 
L 162.169202 116.28283 
L 162.261944 119.099558 
L 162.292858 117.121569 
L 162.354686 115.774658 
L 162.3856 119.046991 
L 162.416514 115.845766 
L 162.509257 116.440413 
L 162.540171 117.837441 
L 162.632913 117.228285 
L 162.663827 115.588296 
L 162.694741 117.805897 
L 162.725655 117.725892 
L 162.756569 118.46679 
L 162.818397 115.676655 
L 162.880225 116.569088 
L 163.034796 119.992284 
L 163.158452 116.778593 
L 163.189366 117.647798 
L 163.22028 117.64022 
L 163.282108 114.177808 
L 163.343936 116.230725 
L 163.374851 116.895811 
L 163.436679 116.203085 
L 163.498507 117.376052 
L 163.560335 115.047832 
L 163.591249 118.913715 
L 163.683991 117.481415 
L 163.714905 118.218396 
L 163.745819 117.531493 
L 163.776733 116.893123 
L 163.838562 117.5683 
L 163.869476 117.779773 
L 163.931304 117.856081 
L 163.962218 115.793203 
L 163.993132 117.591626 
L 164.024046 116.789623 
L 164.05496 113.106574 
L 164.147702 114.373026 
L 164.178616 118.021611 
L 164.271359 117.597064 
L 164.333187 112.845666 
L 164.364101 117.597998 
L 164.395015 117.348886 
L 164.425929 119.308625 
L 164.456843 117.341924 
L 164.518671 113.898073 
L 164.549585 116.65576 
L 164.580499 118.069944 
L 164.611413 117.908779 
L 164.642327 114.002575 
L 164.704156 115.842563 
L 164.88964 119.031118 
L 164.920554 115.966865 
L 165.013296 117.588144 
L 165.075124 118.939361 
L 165.106038 116.370499 
L 165.167867 118.401416 
L 165.198781 118.644865 
L 165.229695 116.103404 
L 165.322437 116.824818 
L 165.353351 115.863236 
L 165.384265 117.446586 
L 165.415179 117.943244 
L 165.446093 116.053647 
L 165.507921 116.584433 
L 165.538835 118.153807 
L 165.56975 116.583132 
L 165.600664 116.991561 
L 165.631578 116.716236 
L 165.662492 118.570814 
L 165.693406 114.519885 
L 165.755234 117.744677 
L 165.786148 118.507215 
L 165.847976 117.715304 
L 165.87889 116.340959 
L 165.940718 117.985628 
L 165.971632 118.257097 
L 166.002547 117.615106 
L 166.095289 115.579993 
L 166.064375 118.231149 
L 166.126203 117.241494 
L 166.188031 115.846154 
L 166.280773 118.809716 
L 166.311687 117.927786 
L 166.342601 113.992079 
L 166.404429 115.70772 
L 166.435343 118.227474 
L 166.528086 117.186357 
L 166.589914 118.538207 
L 166.620828 118.336838 
L 166.71357 115.921771 
L 166.744484 117.415484 
L 166.775398 118.193039 
L 166.806312 113.560825 
L 166.86814 117.219291 
L 166.899055 117.073665 
L 166.929969 118.691036 
L 166.960883 115.040937 
L 166.991797 116.544003 
L 167.022711 115.62844 
L 167.053625 119.22384 
L 167.115453 117.162067 
L 167.146367 115.120695 
L 167.208195 118.19529 
L 167.239109 117.242572 
L 167.270023 117.858202 
L 167.300937 119.454508 
L 167.331852 118.245792 
L 167.362766 114.244329 
L 167.424594 117.770414 
L 167.455508 119.511437 
L 167.486422 115.241217 
L 167.517336 118.646965 
L 167.579164 120.074029 
L 167.671906 116.714146 
L 167.70282 116.304617 
L 167.733734 116.762202 
L 167.764648 119.24752 
L 167.826477 116.026055 
L 167.888305 117.924089 
L 167.950133 117.542472 
L 167.981047 116.519405 
L 168.042875 116.919705 
L 168.104703 118.80997 
L 168.197445 118.572804 
L 168.290188 120.261876 
L 168.321102 117.497905 
L 168.413844 117.581597 
L 168.5375 115.732801 
L 168.661157 118.807507 
L 168.815727 114.280781 
L 168.939383 118.22415 
L 168.970297 115.048657 
L 169.063039 115.898042 
L 169.093953 114.873876 
L 169.124868 118.50584 
L 169.186696 117.531719 
L 169.279438 112.921691 
L 169.248524 117.784174 
L 169.310352 114.278913 
L 169.434008 119.241555 
L 169.464922 118.861481 
L 169.495836 115.909697 
L 169.557665 118.753844 
L 169.588579 118.73719 
L 169.681321 117.157491 
L 169.712235 119.941515 
L 169.774063 117.755025 
L 169.804977 117.710243 
L 169.835891 117.384317 
L 169.866805 118.374638 
L 169.897719 117.786967 
L 169.928633 116.763485 
L 169.990462 117.092511 
L 170.05229 115.56706 
L 170.114118 119.838274 
L 170.145032 116.722101 
L 170.237774 117.974271 
L 170.268688 117.985153 
L 170.299602 114.664447 
L 170.36143 117.595271 
L 170.392344 117.962901 
L 170.454173 115.492747 
L 170.516001 116.368399 
L 170.670571 119.765161 
L 170.825141 115.642267 
L 170.917884 118.029369 
L 170.88697 114.841065 
L 170.948798 117.618021 
L 170.979712 114.690654 
L 171.010626 118.45886 
L 171.072454 116.096387 
L 171.19611 117.73831 
L 171.257938 115.489916 
L 171.319767 117.287341 
L 171.350681 117.355124 
L 171.381595 119.40882 
L 171.443423 116.834401 
L 171.474337 118.345902 
L 171.505251 117.564001 
L 171.536165 120.015997 
L 171.567079 117.353166 
L 171.597993 118.248173 
L 171.721649 115.645806 
L 171.783478 120.261649 
L 171.845306 116.374706 
L 171.87622 114.979181 
L 171.938048 117.108782 
L 171.968962 116.328557 
L 171.999876 117.493906 
L 172.03079 120.307994 
L 172.092618 116.028742 
L 172.18536 119.804971 
L 172.247189 118.894042 
L 172.278103 117.685481 
L 172.339931 119.15124 
L 172.370845 118.847255 
L 172.432673 116.17339 
L 172.463587 118.001133 
L 172.494501 119.840962 
L 172.556329 119.026318 
L 172.649072 119.144342 
L 172.7109 114.004286 
L 172.772728 118.455988 
L 172.834556 117.147887 
L 172.86547 113.747346 
L 172.927298 119.103296 
L 172.958212 118.562637 
L 173.02004 112.68026 
L 173.050954 117.382096 
L 173.112783 119.182148 
L 173.205525 115.625543 
L 173.329181 119.125455 
L 173.421923 115.609722 
L 173.452837 118.111538 
L 173.483751 118.325484 
L 173.54558 114.584836 
L 173.576494 117.47443 
L 173.607408 118.779015 
L 173.638322 117.388448 
L 173.70015 118.70235 
L 173.792892 114.95053 
L 173.823806 116.958885 
L 173.85472 119.133651 
L 173.916548 115.880578 
L 173.947462 117.581836 
L 173.978377 114.556556 
L 174.009291 117.166078 
L 174.040205 115.38766 
L 174.071119 117.9423 
L 174.102033 117.439969 
L 174.163861 119.450162 
L 174.194775 112.670398 
L 174.256603 116.539697 
L 174.287517 120.248912 
L 174.349345 117.725456 
L 174.442088 118.179185 
L 174.503916 120.783361 
L 174.53483 117.466617 
L 174.627572 118.242164 
L 174.658486 117.262456 
L 174.6894 117.974757 
L 174.720314 119.071487 
L 174.751228 118.251745 
L 174.782142 116.121719 
L 174.874885 116.201447 
L 175.060369 119.622457 
L 175.122197 117.320742 
L 175.184025 118.572888 
L 175.214939 119.602624 
L 175.245853 118.854726 
L 175.307682 119.07524 
L 175.36951 116.724742 
L 175.400424 119.606756 
L 175.462252 119.072371 
L 175.493166 116.990429 
L 175.52408 119.311269 
L 175.554994 118.050739 
L 175.585908 118.499256 
L 175.616822 117.494871 
L 175.647736 117.106352 
L 175.67865 118.509718 
L 175.709564 117.762597 
L 175.740479 114.81096 
L 175.802307 116.242028 
L 175.833221 118.847011 
L 175.895049 115.246579 
L 175.925963 114.998948 
L 175.956877 118.392284 
L 176.049619 117.387933 
L 176.142361 118.381192 
L 176.173276 116.124064 
L 176.20419 120.520043 
L 176.235104 119.169212 
L 176.327846 119.179071 
L 176.389674 117.599734 
L 176.420588 112.112873 
L 176.51333 115.077375 
L 176.575158 118.760215 
L 176.636987 116.394919 
L 176.667901 113.61723 
L 176.698815 117.393843 
L 176.729729 115.005043 
L 176.822471 120.880586 
L 176.853385 118.411352 
L 176.884299 117.998981 
L 176.915213 119.815804 
L 177.007955 119.464123 
L 177.100698 116.575845 
L 177.131612 116.710168 
L 177.162526 119.108884 
L 177.255268 118.660584 
L 177.286182 115.780746 
L 177.34801 116.499652 
L 177.378924 118.129949 
L 177.440752 117.67828 
L 177.471666 116.446169 
L 177.502581 119.330577 
L 177.533495 117.428058 
L 177.564409 117.891237 
L 177.595323 117.861496 
L 177.657151 115.048397 
L 177.718979 116.570303 
L 177.842635 118.89518 
L 177.873549 118.435057 
L 177.904463 118.019598 
L 177.935378 120.888912 
L 177.966292 115.567301 
L 177.997206 117.829291 
L 178.02812 118.584308 
L 178.059034 117.776951 
L 178.089948 117.230724 
L 178.120862 114.534877 
L 178.18269 117.053073 
L 178.244518 119.179218 
L 178.275432 114.879889 
L 178.368174 116.825023 
L 178.430003 119.185004 
L 178.460917 118.013406 
L 178.522745 118.278127 
L 178.553659 116.04349 
L 178.615487 114.912113 
L 178.646401 118.560728 
L 178.677315 113.968787 
L 178.708229 119.020418 
L 178.739143 117.187605 
L 178.800971 119.37951 
L 178.831886 118.016072 
L 178.924628 116.913264 
L 178.955542 120.198366 
L 179.01737 119.605216 
L 179.048284 115.702262 
L 179.141026 117.395239 
L 179.17194 118.831294 
L 179.233768 116.738044 
L 179.264683 118.449283 
L 179.388339 115.438515 
L 179.419253 116.508963 
L 179.450167 121.650052 
L 179.511995 117.136577 
L 179.542909 118.359367 
L 179.573823 116.746686 
L 179.604737 116.398298 
L 179.635651 119.702604 
L 179.697479 117.890466 
L 179.790222 114.33484 
L 179.913878 119.275473 
L 179.944792 116.304006 
L 180.00662 118.096361 
L 180.037534 118.620075 
L 180.068448 115.724237 
L 180.161191 116.327804 
L 180.192105 119.096003 
L 180.284847 117.568613 
L 180.346675 120.140528 
L 180.377589 113.947205 
L 180.439417 119.152355 
L 180.470331 118.94433 
L 180.593988 115.429338 
L 180.624902 120.382726 
L 180.717644 118.290209 
L 180.748558 117.356746 
L 180.779472 119.662589 
L 180.810386 118.415926 
L 180.8413 120.378137 
L 180.903128 119.498867 
L 180.964956 117.700203 
L 180.99587 118.855979 
L 181.026784 119.75817 
L 181.057699 119.634216 
L 181.119527 116.468604 
L 181.150441 117.55658 
L 181.212269 120.033632 
L 181.243183 115.849514 
L 181.335925 118.060439 
L 181.366839 118.362317 
L 181.428667 113.084999 
L 181.490496 117.283221 
L 181.645066 119.961459 
L 181.768722 117.258324 
L 181.861464 121.123562 
L 181.892378 119.276369 
L 181.954207 120.330159 
L 182.016035 122.749184 
L 182.077863 116.298246 
L 182.170605 118.701741 
L 182.201519 113.669654 
L 182.263347 117.465549 
L 182.294261 117.570574 
L 182.325175 119.367127 
L 182.417918 118.816011 
L 182.479746 116.327782 
L 182.541574 117.884098 
L 182.634316 120.945452 
L 182.66523 115.880645 
L 182.757972 118.451641 
L 182.850715 118.122152 
L 182.881629 120.2821 
L 183.005285 116.109708 
L 183.036199 119.53274 
L 183.128941 119.309633 
L 183.159855 112.138353 
L 183.221683 119.186068 
L 183.252598 121.353844 
L 183.283512 118.763537 
L 183.376254 119.2957 
L 183.407168 115.561077 
L 183.561738 119.795158 
L 183.592652 119.762649 
L 183.623566 117.576557 
L 183.716309 117.964021 
L 183.747223 119.269584 
L 183.778137 115.823507 
L 183.839965 120.049529 
L 183.870879 120.652754 
L 183.901793 119.121014 
L 184.056363 114.315041 
L 184.241848 120.070685 
L 184.272762 119.749447 
L 184.396418 115.97005 
L 184.520074 118.711911 
L 184.458246 114.414547 
L 184.550988 118.231867 
L 184.581903 118.415481 
L 184.612817 119.390826 
L 184.643731 118.225851 
L 184.674645 116.593393 
L 184.705559 119.365436 
L 184.736473 118.793853 
L 184.767387 118.619122 
L 184.798301 120.163054 
L 184.829215 116.977823 
L 184.860129 117.210521 
L 185.045614 121.705381 
L 185.200184 116.805456 
L 185.32384 119.115598 
L 185.354754 117.40676 
L 185.385668 117.508107 
L 185.447497 115.44635 
L 185.509325 121.783559 
L 185.571153 117.855385 
L 185.632981 119.406895 
L 185.663895 119.387273 
L 185.694809 118.934916 
L 185.725723 119.610956 
L 185.756637 120.030115 
L 185.787551 117.062654 
L 185.849379 119.625831 
L 185.880293 121.451038 
L 185.911208 117.866818 
L 185.973036 120.7341 
L 186.00395 116.807049 
L 186.096692 118.085616 
L 186.15852 119.261626 
L 186.251262 113.977012 
L 186.282176 117.056222 
L 186.436747 119.97231 
L 186.591317 116.377719 
L 186.684059 119.587444 
L 186.714973 118.35941 
L 186.745887 118.411452 
L 186.807716 120.448838 
L 186.83863 117.208812 
L 186.900458 118.368082 
L 186.962286 119.550921 
L 187.055028 120.31009 
L 187.085942 116.774109 
L 187.14777 120.395885 
L 187.178684 119.716867 
L 187.209598 117.019744 
L 187.240513 120.255422 
L 187.271427 122.286039 
L 187.302341 117.122069 
L 187.333255 119.721201 
L 187.364169 115.889217 
L 187.425997 119.91368 
L 187.456911 120.93474 
L 187.487825 120.672962 
L 187.580567 116.860644 
L 187.611481 119.000947 
L 187.642395 118.536939 
L 187.704224 112.048983 
L 187.735138 120.02201 
L 187.82788 119.134697 
L 187.858794 119.19783 
L 187.889708 117.41154 
L 187.951536 120.055885 
L 188.137021 116.576766 
L 188.229763 120.767527 
L 188.260677 120.446274 
L 188.353419 117.36044 
L 188.415247 122.191432 
L 188.446161 119.331706 
L 188.538903 116.322371 
L 188.569818 117.92009 
L 188.600732 120.205496 
L 188.66256 117.386688 
L 188.693474 118.94236 
L 188.724388 119.360411 
L 188.755302 118.488768 
L 188.786216 116.720824 
L 188.81713 119.304444 
L 188.878958 118.662325 
L 188.909872 119.888708 
L 189.064443 117.329129 
L 189.219013 120.678851 
L 189.280841 118.876613 
L 189.342669 119.258723 
L 189.373583 119.686396 
L 189.404497 119.590347 
L 189.435412 116.142986 
L 189.49724 120.747073 
L 189.528154 116.773631 
L 189.559068 118.834678 
L 189.589982 116.986646 
L 189.620896 115.493198 
L 189.682724 116.912987 
L 189.713638 120.693601 
L 189.775466 118.733613 
L 189.80638 117.751537 
L 189.868209 119.120483 
L 189.899123 118.140287 
L 189.930037 117.544748 
L 189.960951 118.12287 
L 189.991865 118.510509 
L 190.022779 120.651103 
L 190.084607 119.850167 
L 190.146435 116.765499 
L 190.208263 118.198569 
L 190.239177 119.887312 
L 190.301005 118.499097 
L 190.33192 118.730109 
L 190.362834 120.296124 
L 190.393748 117.950513 
L 190.424662 120.208227 
L 190.455576 116.633777 
L 190.517404 117.363499 
L 190.579232 120.666977 
L 190.64106 120.583172 
L 190.733802 118.07052 
L 190.795631 118.597387 
L 190.826545 121.06077 
L 190.857459 119.152898 
L 190.888373 112.052398 
L 190.950201 119.605986 
L 191.104771 110.839857 
L 191.228428 118.952635 
L 191.259342 119.046767 
L 191.32117 119.133584 
L 191.352084 117.663328 
L 191.382998 119.544413 
L 191.444826 117.873464 
L 191.47574 115.799998 
L 191.506654 119.420733 
L 191.537568 120.583459 
L 191.568482 118.032845 
L 191.599396 117.281385 
L 191.63031 119.18401 
L 191.692139 118.226864 
L 191.784881 119.986063 
L 191.815795 119.739808 
L 191.846709 118.713513 
L 191.877623 121.507553 
L 191.939451 118.012969 
L 192.001279 118.017703 
L 192.032193 115.256936 
L 192.094022 117.169134 
L 192.124936 117.502652 
L 192.15585 121.200686 
L 192.217678 119.718165 
L 192.31042 118.55963 
L 192.403162 121.463985 
L 192.495904 117.658314 
L 192.526819 117.921739 
L 192.557733 119.73792 
L 192.619561 119.37677 
L 192.650475 117.549631 
L 192.681389 120.313653 
L 192.712303 121.058198 
L 192.743217 119.776195 
L 192.774131 119.984047 
L 192.835959 118.221793 
L 192.866873 120.004825 
L 192.897787 119.137392 
L 192.928701 119.155261 
L 193.021444 119.364875 
L 193.052358 117.907491 
L 193.114186 122.065294 
L 193.1451 120.302824 
L 193.176014 118.111149 
L 193.206928 118.687374 
L 193.237842 121.846722 
L 193.29967 118.729167 
L 193.361498 118.65543 
L 193.423327 121.10893 
L 193.485155 119.281482 
L 193.546983 119.635517 
L 193.577897 121.158363 
L 193.639725 120.353099 
L 193.763381 118.108058 
L 193.917952 120.278985 
L 193.948866 120.805749 
L 193.97978 120.063891 
L 194.010694 120.56587 
L 194.103436 117.528259 
L 194.13435 117.907139 
L 194.227092 120.699026 
L 194.258006 120.095349 
L 194.319835 115.753056 
L 194.412577 117.15173 
L 194.474405 116.552495 
L 194.536233 119.549099 
L 194.628975 116.048206 
L 194.659889 121.039205 
L 194.721717 118.877794 
L 194.752632 116.397767 
L 194.783546 119.101032 
L 194.81446 120.529764 
L 194.845374 119.715341 
L 194.96903 116.214361 
L 194.999944 117.589931 
L 195.030858 116.487285 
L 195.1236 121.770483 
L 195.154514 119.150138 
L 195.247257 116.517771 
L 195.278171 118.300956 
L 195.309085 118.229813 
L 195.370913 117.382309 
L 195.401827 117.526289 
L 195.432741 118.819012 
L 195.463655 116.299 
L 195.494569 116.512328 
L 195.525483 116.396854 
L 195.556397 112.483465 
L 195.618226 118.650667 
L 195.741882 116.810835 
L 195.680054 119.20895 
L 195.772796 117.343707 
L 195.896452 120.994448 
L 195.95828 118.332399 
L 196.020108 120.269675 
L 196.051022 120.998075 
L 196.081937 117.616504 
L 196.174679 119.475035 
L 196.205593 119.863851 
L 196.267421 118.009449 
L 196.298335 120.926819 
L 196.391077 119.795719 
L 196.483819 115.747471 
L 196.514734 120.259937 
L 196.607476 117.941753 
L 196.63839 115.179376 
L 196.669304 118.474524 
L 196.700218 117.946041 
L 196.731132 119.025582 
L 196.79296 118.461194 
L 196.823874 117.848118 
L 196.854788 119.176346 
L 196.885702 119.94417 
L 196.947531 116.396229 
L 197.009359 118.198607 
L 197.040273 118.082681 
L 197.102101 118.558745 
L 197.133015 116.606899 
L 197.163929 119.644179 
L 197.225757 119.570869 
L 197.349413 112.292529 
L 197.287585 119.757329 
L 197.380328 112.872266 
L 197.534898 118.675049 
L 197.565812 119.032465 
L 197.596726 116.489358 
L 197.62764 120.33484 
L 197.658554 119.778866 
L 197.689468 119.415754 
L 197.720382 120.015424 
L 197.751296 120.815962 
L 197.813124 117.34469 
L 197.874953 118.23801 
L 197.936781 119.820596 
L 197.967695 120.28711 
L 197.998609 119.964403 
L 198.029523 115.703998 
L 198.122265 116.74778 
L 198.184093 120.134078 
L 198.215007 117.314067 
L 198.276836 117.945027 
L 198.338664 119.801371 
L 198.400492 119.618899 
L 198.431406 118.594753 
L 198.493234 120.103322 
L 198.61689 117.303612 
L 198.585976 120.166618 
L 198.647804 118.361321 
L 198.678718 120.076683 
L 198.771461 119.606583 
L 198.864203 120.625297 
L 198.987859 118.016002 
L 199.018773 120.328438 
L 199.080601 118.681695 
L 199.142429 118.303337 
L 199.204258 120.853236 
L 199.266086 120.349276 
L 199.297 116.040717 
L 199.358828 117.704473 
L 199.420656 117.085071 
L 199.45157 120.831557 
L 199.482484 116.558293 
L 199.575226 118.842691 
L 199.667969 120.129267 
L 199.698883 118.029506 
L 199.760711 118.594292 
L 199.853453 121.663186 
L 199.915281 117.326446 
L 199.977109 120.091067 
L 200.008023 119.63761 
L 200.038938 120.954718 
L 200.069852 118.533314 
L 200.100766 117.746787 
L 200.13168 121.672048 
L 200.224422 120.017195 
L 200.255336 118.094355 
L 200.317164 120.395608 
L 200.348078 120.419549 
L 200.378992 120.77849 
L 200.409906 116.098324 
L 200.44082 121.23757 
L 200.471734 120.529762 
L 200.502649 120.107962 
L 200.533563 120.927394 
L 200.564477 115.339263 
L 200.657219 118.245539 
L 200.688133 118.550617 
L 200.719047 118.044492 
L 200.749961 116.186099 
L 200.780875 119.717951 
L 200.842703 117.585664 
L 200.873617 120.744734 
L 200.904531 117.428843 
L 200.96636 120.179262 
L 201.028188 116.447837 
L 201.059102 120.519152 
L 201.090016 120.574767 
L 201.151844 118.240714 
L 201.244586 118.538726 
L 201.337328 120.713429 
L 201.368243 118.451762 
L 201.399157 120.823672 
L 201.430071 119.840552 
L 201.460985 121.349168 
L 201.491899 118.309613 
L 201.522813 120.697133 
L 201.615555 117.976012 
L 201.646469 115.26645 
L 201.708297 116.498804 
L 201.739211 120.016644 
L 201.80104 116.514009 
L 201.986524 119.732105 
L 202.172008 116.294421 
L 202.264751 120.847676 
L 202.295665 118.77871 
L 202.326579 117.830762 
L 202.388407 118.693727 
L 202.512063 119.533941 
L 202.542977 120.898211 
L 202.573891 117.25786 
L 202.635719 120.435765 
L 202.666633 120.189363 
L 202.79029 117.035873 
L 202.913946 121.042319 
L 203.068516 118.825727 
L 203.161259 122.491132 
L 203.223087 119.397846 
L 203.284915 119.61699 
L 203.346743 119.899133 
L 203.377657 117.806684 
L 203.532227 121.392933 
L 203.563141 118.486624 
L 203.62497 120.508514 
L 203.655884 121.945587 
L 203.686798 119.866625 
L 203.717712 120.950025 
L 203.903196 117.720071 
L 204.057767 122.773929 
L 204.150509 117.275451 
L 204.181423 117.431595 
L 204.212337 120.224407 
L 204.274165 119.328737 
L 204.305079 118.271541 
L 204.366907 119.351786 
L 204.397821 118.682659 
L 204.521478 120.870715 
L 204.45965 117.404395 
L 204.552392 120.363857 
L 204.583306 120.892239 
L 204.61422 119.887913 
L 204.645134 120.757365 
L 204.76879 118.67871 
L 204.799704 116.621564 
L 204.830618 119.505222 
L 204.923361 120.774973 
L 204.985189 118.548487 
L 205.016103 121.88562 
L 205.077931 117.416164 
L 205.108845 117.307059 
L 205.232501 121.25511 
L 205.294329 119.564379 
L 205.356158 115.600361 
L 205.417986 116.65665 
L 205.541642 119.91985 
L 205.572556 118.84285 
L 205.60347 121.229803 
L 205.634384 120.398705 
L 205.696212 117.617844 
L 205.727126 114.722038 
L 205.788955 117.511633 
L 205.819869 116.802521 
L 205.850783 117.023182 
L 205.912611 120.991546 
L 205.974439 119.39115 
L 206.005353 119.82663 
L 206.036267 118.879932 
L 206.067181 119.754225 
L 206.159923 116.880419 
L 206.252666 120.994879 
L 206.28358 118.995937 
L 206.407236 121.011822 
L 206.43815 121.087358 
L 206.530892 121.301041 
L 206.59272 119.51209 
L 206.685463 121.413497 
L 206.716377 119.519625 
L 206.747291 122.132774 
L 206.809119 120.458138 
L 206.963689 117.859281 
L 206.994603 118.858548 
L 207.025517 119.622557 
L 207.056431 115.482068 
L 207.087345 120.37763 
L 207.11826 118.79421 
L 207.149174 118.187955 
L 207.241916 120.921666 
L 207.27283 120.765507 
L 207.334658 119.272279 
L 207.396486 119.44176 
L 207.520142 121.610746 
L 207.581971 119.112908 
L 207.612885 121.758732 
L 207.643799 120.243073 
L 207.705627 120.600934 
L 207.736541 117.049452 
L 207.798369 120.806824 
L 207.829283 120.251094 
L 207.860197 116.599972 
L 207.891111 121.404468 
L 207.922025 120.181349 
L 207.952939 121.142977 
L 207.983853 120.900554 
L 208.014768 117.473191 
L 208.045682 121.016081 
L 208.076596 119.424005 
L 208.138424 117.45872 
L 208.169338 121.603347 
L 208.200252 117.93458 
L 208.292994 117.960415 
L 208.354822 119.952863 
L 208.385736 116.844711 
L 208.41665 120.672389 
L 208.478479 118.668939 
L 208.509393 116.463317 
L 208.571221 119.926915 
L 208.633049 119.183467 
L 208.694877 121.885853 
L 208.756705 121.68406 
L 208.818533 117.786899 
L 208.94219 118.34456 
L 208.973104 121.125389 
L 209.034932 121.066134 
L 209.065846 117.145183 
L 209.127674 117.665894 
L 209.189502 120.938641 
L 209.25133 119.797542 
L 209.344073 118.261184 
L 209.467729 121.441172 
L 209.591385 120.078344 
L 209.653213 118.906552 
L 209.715041 121.579474 
L 209.77687 119.393831 
L 209.807784 121.99522 
L 209.838698 120.895636 
L 209.869612 120.685626 
L 209.900526 119.262101 
L 209.93144 121.720679 
L 209.962354 121.872698 
L 209.993268 122.642894 
L 210.024182 118.51098 
L 210.08601 122.651684 
L 210.116924 120.690602 
L 210.271495 118.318102 
L 210.302409 118.043357 
L 210.364237 120.504457 
L 210.426065 116.809704 
L 210.456979 121.200281 
L 210.580635 118.364151 
L 210.611549 118.960913 
L 210.735206 120.465118 
L 210.76612 120.132926 
L 210.797034 121.690283 
L 210.827948 118.069229 
L 210.982518 119.586246 
L 211.013432 118.764013 
L 211.044346 120.675187 
L 211.07526 120.539633 
L 211.137089 120.50715 
L 211.168003 122.645241 
L 211.291659 118.835341 
L 211.415315 121.450619 
L 211.477143 120.696765 
L 211.6008 118.449658 
L 211.662628 119.799748 
L 211.693542 119.557067 
L 211.724456 118.477928 
L 211.75537 120.942605 
L 211.786284 121.289284 
L 211.848112 116.422063 
L 211.940854 118.07861 
L 212.126339 121.72223 
L 212.157253 118.469608 
L 212.249995 119.243295 
L 212.280909 117.194244 
L 212.311823 119.506004 
L 212.342737 119.364249 
L 212.373651 121.042469 
L 212.43548 120.367777 
L 212.497308 116.794101 
L 212.528222 121.047051 
L 212.559136 120.393149 
L 212.59005 122.406985 
L 212.620964 117.023752 
L 212.682792 119.712458 
L 212.74462 120.427308 
L 212.775534 119.333817 
L 212.806448 119.973078 
L 212.837362 119.051313 
L 212.868277 118.324536 
L 212.899191 120.966557 
L 212.991933 120.31051 
L 213.084675 121.954547 
L 213.146503 116.425447 
L 213.208331 118.229817 
L 213.301074 120.340851 
L 213.331988 119.304465 
L 213.393816 120.462158 
L 213.455644 120.047051 
L 213.517472 117.098653 
L 213.548386 120.213301 
L 213.5793 119.962284 
L 213.610214 118.262181 
L 213.641128 120.672662 
L 213.672042 120.0623 
L 213.702956 121.519138 
L 213.764785 120.059796 
L 213.795699 120.706206 
L 213.826613 120.773598 
L 213.919355 120.876839 
L 213.950269 117.456585 
L 214.073925 123.113219 
L 214.135753 118.281202 
L 214.197582 121.095823 
L 214.228496 121.696907 
L 214.352152 115.411511 
L 214.444894 119.886508 
L 214.475808 119.6175 
L 214.506722 118.264013 
L 214.537636 118.347693 
L 214.56855 120.816183 
L 214.661293 120.227306 
L 214.692207 118.484622 
L 214.754035 119.708764 
L 214.784949 120.934323 
L 214.815863 119.412734 
L 214.846777 119.844552 
L 214.877691 115.775687 
L 214.908605 120.608541 
L 214.939519 119.295742 
L 214.970433 119.111338 
L 215.001347 117.894841 
L 215.032261 119.343046 
L 215.063176 118.630501 
L 215.125004 117.845924 
L 215.186832 120.824285 
L 215.217746 120.4624 
L 215.24866 118.516388 
L 215.310488 121.039014 
L 215.434144 118.773582 
L 215.526887 121.241577 
L 215.495972 118.67439 
L 215.557801 120.410951 
L 215.588715 121.437974 
L 215.619629 119.167846 
L 215.681457 120.837476 
L 215.774199 116.327988 
L 215.743285 121.790218 
L 215.805113 119.692298 
L 215.836027 123.020115 
L 215.928769 121.565557 
L 215.959684 121.791656 
L 216.021512 119.668118 
L 216.052426 121.033845 
L 216.08334 121.984021 
L 216.114254 117.716668 
L 216.176082 119.58705 
L 216.299738 121.777424 
L 216.330652 117.123536 
L 216.423395 119.211912 
L 216.454309 120.7444 
L 216.485223 119.490654 
L 216.516137 114.426986 
L 216.547051 119.752384 
L 216.577965 119.20917 
L 216.639793 119.126608 
L 216.732535 121.120586 
L 216.763449 120.246498 
L 216.794363 114.833387 
L 216.856192 120.633261 
L 216.887106 120.712092 
L 216.91802 121.624725 
L 216.948934 118.72372 
L 217.010762 120.970955 
L 217.041676 121.514082 
L 217.07259 119.368442 
L 217.134418 121.937424 
L 217.165332 119.522233 
L 217.196246 120.792189 
L 217.22716 119.468322 
L 217.258074 118.692159 
L 217.288989 119.942271 
L 217.350817 118.809764 
L 217.412645 118.410952 
L 217.505387 121.424612 
L 217.629043 119.423257 
L 217.690871 118.34522 
L 217.783614 122.233005 
L 217.90727 119.390969 
L 217.938184 120.833177 
L 217.969098 119.213764 
L 218.000012 116.401005 
L 218.06184 120.771273 
L 218.092754 121.345163 
L 218.123668 121.010465 
L 218.154583 119.29879 
L 218.216411 119.454472 
L 218.278239 122.853429 
L 218.309153 119.80545 
L 218.340067 119.68348 
L 218.401895 121.645767 
L 218.432809 119.857483 
L 218.463723 119.020436 
L 218.494637 119.914541 
L 218.556465 121.331097 
L 218.587379 120.394338 
L 218.618294 120.164065 
L 218.649208 118.573684 
L 218.711036 119.451205 
L 218.74195 119.800798 
L 218.772864 119.49441 
L 218.803778 115.814123 
L 218.865606 118.570162 
L 218.89652 120.704195 
L 218.927434 117.412579 
L 218.958348 119.496211 
L 219.020176 119.809833 
L 219.051091 118.606115 
L 219.082005 121.337325 
L 219.174747 119.720903 
L 219.205661 117.513372 
L 219.267489 118.050735 
L 219.298403 122.353524 
L 219.391145 120.748872 
L 219.422059 121.339572 
L 219.452973 119.995632 
L 219.483888 120.075904 
L 219.514802 121.676911 
L 219.607544 121.111302 
L 219.7312 117.593914 
L 219.793028 119.05225 
L 219.793028 119.05225 
" clip-path="url(#p08f284187f)" style="fill: none; stroke: #000000; stroke-width: 0.7; stroke-linecap: square"/>
   </g>
   <g id="patch_3">
    <path d="M 57.526621 128.813346 
L 57.526621 3.410552 
" style="fill: none; stroke: #000000; stroke-width: 0.8; stroke-linejoin: miter; stroke-linecap: square"/>
   </g>
   <g id="patch_4">
    <path d="M 57.526621 128.813346 
L 227.52 128.813346 
" style="fill: none; stroke: #000000; stroke-width: 0.8; stroke-linejoin: miter; stroke-linecap: square"/>
   </g>
  </g>
 </g>
 <defs>
  <clipPath id="p08f284187f">
   <rect x="57.526621" y="3.410552" width="169.993379" height="125.402794"/>
  </clipPath>
 </defs>
</svg>
